<?xml version="1.0" encoding="UTF-8" standalone="no"?>
<!-- Created with Inkscape (http://www.inkscape.org/) -->

<svg
   version="1.1"
   id="svg1"
   width="1127"
   height="4126"
   viewBox="0 0 1127 4126"
   sodipodi:docname="Icebreaker_f10.svg"
   inkscape:version="1.4.3 (0d15f75, 2025-12-25)"
   xmlns:inkscape="http://www.inkscape.org/namespaces/inkscape"
   xmlns:sodipodi="http://sodipodi.sourceforge.net/DTD/sodipodi-0.dtd"
   xmlns="http://www.w3.org/2000/svg"
   xmlns:svg="http://www.w3.org/2000/svg">
  <defs
     id="defs1" />
  <sodipodi:namedview
     id="namedview1"
     pagecolor="#505050"
     bordercolor="#eeeeee"
     borderopacity="1"
     inkscape:showpageshadow="0"
     inkscape:pageopacity="0"
     inkscape:pagecheckerboard="0"
     inkscape:deskcolor="#505050"
     inkscape:zoom="0.19752787"
     inkscape:cx="564.4773"
     inkscape:cy="2063"
     inkscape:window-width="1920"
     inkscape:window-height="1017"
     inkscape:window-x="-8"
     inkscape:window-y="-8"
     inkscape:window-maximized="1"
     inkscape:current-layer="g1" />
  <g
     inkscape:groupmode="layer"
     inkscape:label="Image"
     id="g1">
    <g
       id="g2"
       transform="translate(-4.9799936e-4)">
      <path
         style="fill:#dadada;fill-opacity:1"
         d="m 878.49086,2241 c 0,-117.425 0.11659,-165.4625 0.25909,-106.75 0.1425,58.7125 0.1425,154.7875 0,213.5 -0.1425,58.7125 -0.25909,10.675 -0.25909,-106.75 z"
         id="path16" />
      <path
         style="fill:#cecece;fill-opacity:1"
         d="m 1105.4915,2238.5 c 0,-126.5 0.1163,-178.1014 0.2585,-114.6699 0.1421,63.4316 0.1421,166.9316 -10e-5,230 -0.1421,63.0685 -0.2584,11.1699 -0.2584,-115.3301 z M 430.44388,1667 c 0,-16.775 0.13684,-23.6375 0.3041,-15.25 0.16726,8.3875 0.16726,22.1125 0,30.5 -0.16726,8.3875 -0.3041,1.525 -0.3041,-15.25 z m 61.0202,-67 c 0,-27.775 0.12831,-39.1375 0.28513,-25.25 0.15682,13.8875 0.15682,36.6125 0,50.5 -0.15682,13.8875 -0.28513,2.525 -0.28513,-25.25 z m -0.0353,-74.325 c -0.27965,-0.7288 -0.35892,-5.5663 -0.17615,-10.75 l 0.3323,-9.425 0.20754,10.2192 0.20754,10.2192 12.25,0.3146 12.25,0.3146 -12.28138,0.2162 c -9.42917,0.166 -12.39947,-0.091 -12.78985,-1.1088 z m 37.82123,0.5778 c 7.0125,-0.1719 18.4875,-0.1719 25.5,0 7.0125,0.1719 1.275,0.3125 -12.75,0.3125 -14.025,0 -19.7625,-0.1406 -12.75,-0.3125 z M 416.39172,1500 c 0,-7.425 0.15742,-10.4625 0.34983,-6.75 0.19241,3.7125 0.19241,9.7875 0,13.5 -0.19241,3.7125 -0.34983,0.675 -0.34983,-6.75 z m 293.07712,-147.5 c 1.4e-4,-32.45 0.12645,-45.5803 0.28069,-29.1784 0.15425,16.4018 0.15414,42.9518 -2.4e-4,59 -0.15438,16.0481 -0.28058,2.6284 -0.28045,-29.8216 z M 183.31886,989.25072 c 13.10037,-0.15798 34.25037,-0.15782 47,3.7e-4 12.74963,0.15819 2.03114,0.28745 -23.81886,0.28724 -25.85,-2e-4 -36.28151,-0.12962 -23.18114,-0.28761 z m 91.93114,0.002 c 7.0125,-0.1719 18.4875,-0.1719 25.5,0 7.0125,0.1719 1.275,0.31255 -12.75,0.31255 -14.025,0 -19.7625,-0.14065 -12.75,-0.31255 z m 550.94097,4.4e-4 c 6.98004,-0.17166 18.68004,-0.17212 26,-10e-4 7.31997,0.17109 1.60903,0.31154 -12.69097,0.31211 -14.3,5.7e-4 -20.28906,-0.13941 -13.30903,-0.31107 z m 71.12789,-0.003 c 13.10037,-0.15798 34.25037,-0.15782 47,3.7e-4 12.74963,0.15819 2.03114,0.28745 -23.81886,0.28724 -25.85,-2e-4 -36.28151,-0.12962 -23.18114,-0.28761 z"
         id="path15" />
      <path
         style="fill:#c2c2c2;fill-opacity:1"
         d="m 514.48446,1400 c 0,-67.925 0.11943,-95.7125 0.2654,-61.75 0.14597,33.9625 0.14597,89.5375 0,123.5 -0.14597,33.9625 -0.2654,6.175 -0.2654,-61.75 z m 280.97025,-123.5 c 2.8e-4,-21.45 0.1327,-30.0827 0.29426,-19.1838 0.16156,10.8989 0.16133,28.4489 -5.1e-4,39 -0.16185,10.5511 -0.29404,1.6338 -0.29375,-19.8162 z"
         id="path14" />
      <path
         style="fill:#b6b6b6;fill-opacity:1"
         d="m 21.491498,2238.5 c 10e-6,-126.5 0.116321,-178.1014 0.25847,-114.6699 0.142148,63.4316 0.14214,166.9316 -1.9e-5,230 C 21.607791,2416.8986 21.491488,2365 21.491498,2238.5 Z m 225.999382,3 c 1e-5,-117.7 0.1166,-165.7015 0.25908,-106.6701 0.14249,59.0315 0.14248,155.3315 -2e-5,214 -0.1425,58.6686 -0.25907,10.3701 -0.25906,-107.3299 z m 152.80071,-647.2425 c 3.73537,-0.1929 9.58537,-0.1915 13,0 3.41462,0.1947 0.35841,0.3525 -6.79159,0.3508 -7.15,0 -9.94379,-0.1611 -6.20841,-0.354 z m 56.87854,-575.0074 c 58.11857,-0.1426 153.51857,-0.1426 212,-10e-5 58.48143,0.1426 10.92987,0.2592 -105.67013,0.2592 -116.6,0 -164.44844,-0.1166 -106.32987,-0.2591 z"
         id="path13" />
      <path
         style="fill:#aaaaaa;fill-opacity:1"
         d="M 969.24639,2607.7775 969,2471.0549 l -14.25,-0.3072 -14.25,-0.3072 14.28138,-0.2202 c 10.67135,-0.1646 14.40163,0.096 14.75708,1.0297 0.26163,0.6875 0.35838,62.45 0.215,137.25 l -0.26069,136 z M 49.75,2470.2507 c 14.4375,-0.1561 38.0625,-0.1561 52.5,0 14.4375,0.1562 2.625,0.284 -26.25,0.284 -28.875,0 -40.6875,-0.1278 -26.25,-0.284 z m 115,0.01 c 3.9875,-0.1898 10.5125,-0.1898 14.5,0 3.9875,0.1898 0.725,0.3451 -7.25,0.3451 -7.975,0 -11.2375,-0.1553 -7.25,-0.3451 z m 860,-0.01 c 14.4375,-0.1561 38.0625,-0.1561 52.5,0 14.4375,0.1562 2.625,0.284 -26.25,0.284 -28.875,0 -40.6875,-0.1278 -26.25,-0.284 z M 969.49531,1585 c 0,-231.825 0.11461,-326.6625 0.25468,-210.75 0.14007,115.9125 0.14007,305.5875 0,421.5 -0.14007,115.9125 -0.25468,21.075 -0.25468,-210.75 z M 105.37407,1006.5 c 0.002,-6.05 0.16696,-8.39607 0.36601,-5.2135 0.19905,3.1826 0.1972,8.1326 -0.004,11 -0.20131,2.8674 -0.36417,0.2635 -0.36191,-5.7865 z"
         id="path12" />
      <path
         style="fill:#9e9e9e;fill-opacity:1"
         d="m 128.48594,2607.5 c 2e-5,-75.35 0.11881,-106.0274 0.26397,-68.172 0.14516,37.8555 0.14513,99.5055 -5e-5,137 -0.14518,37.4946 -0.26395,6.522 -0.26392,-68.828 z m 0.009,-1023 c 0,-232.1 0.1146,-326.9008 0.25467,-210.6684 0.14007,116.2323 0.14006,306.1323 -1e-5,422 -0.14006,115.8676 -0.25466,20.7684 -0.25466,-211.3316 z m 492.65629,-114.3705 c -0.74162,-0.478 -1.18546,-1.7152 -0.98631,-2.7493 0.33581,-1.7437 1.48614,-1.8802 15.8484,-1.8802 H 651.5 v 2.5 2.5 l -14.5,0.2494 c -7.975,0.1371 -15.10678,-0.1418 -15.84839,-0.6199 z M 524.75,1279.9199 c -0.9625,-0.5606 -1.75,-1.8969 -1.75,-2.9696 0,-1.9072 -1.08281,-1.9503 -49,-1.9503 h -49 v -47.5 -47.5 h -11.34501 c -11.90787,0 -13.28045,0.4813 -14.97161,5.25 -0.53245,1.5014 -1.97907,1.75 -10.18338,1.75 -7.57775,0 -9.68225,-0.3114 -10.13837,-1.5 -0.33386,-0.87 -1.82995,-1.5 -3.56224,-1.5 -2.14563,0 -3.1339,-0.5632 -3.50964,-2 -0.50965,-1.9489 -1.36985,-2.0003 -33.65638,-2.0137 -18.22335,-0.01 -34.14774,-0.2854 -35.38753,-0.6177 -1.9329,-0.5179 -2.54527,0.054 -4.29679,4.0137 -2.19195,4.9553 -3.29044,5.617 -4.81173,2.8986 -0.66581,-1.1897 -0.50443,-2.6041 0.52404,-4.5929 0.81736,-1.5806 1.34043,-2.9698 1.16238,-3.0871 -0.17806,-0.1173 -6.58482,-3.1129 -14.23724,-6.6571 -8.33757,-3.8614 -14.06281,-5.9997 -14.28607,-5.3356 -1.05722,3.1447 -3.08006,4.6626 -5.39484,4.0481 -5.00964,-1.3299 -5.42957,-2.0947 -3.64492,-6.638 l 1.62552,-4.1382 -4.19309,-1.8332 c -2.30621,-1.0083 -7.27255,-3.2314 -11.03632,-4.9401 -3.76377,-1.7087 -7.19667,-3.1068 -7.62868,-3.1068 -0.432,0 -1.34865,1.3597 -2.03699,3.0215 -1.67009,4.0319 -2.39819,4.3365 -5.96174,2.4937 -3.52858,-1.8247 -3.49842,-1.7075 -1.45563,-5.6578 0.86555,-1.6738 1.33111,-3.2859 1.03457,-3.5824 -0.29655,-0.2966 -5.39223,-2.7578 -11.32374,-5.4695 -9.69192,-4.4308 -10.88589,-4.76 -11.78457,-3.2494 -0.55,0.9246 -1.675,2.5331 -2.5,3.5744 -1.46997,1.8555 -1.56436,1.8539 -4.71421,-0.082 -3.17426,-1.9509 -3.1964,-2.0181 -1.78098,-5.4057 l 1.43322,-3.4302 -11.62041,-5.2522 c -10.31583,-4.6626 -11.85601,-5.1037 -13.71902,-3.9287 -6.42465,4.052 -7.50666,4.4603 -8.688,3.279 -1.73531,-1.7353 -0.4839,-3.9314 4.01328,-7.0429 l 4.00022,-2.7677 0.0379,-10.1896 0.0379,-10.1897 -3.75,-0.3103 c -3.55993,-0.2947 -3.75,-0.4878 -3.75,-3.8104 0,-3.3226 0.19007,-3.5157 3.75,-3.8104 l 3.75,-0.3103 V 1074.9396 1062 h -4.06336 c -3.98191,0 -4.05708,-0.065 -3.75,-3.25 0.28608,-2.9671 0.63978,-3.277 4.06336,-3.5604 l 3.75,-0.3103 v -11.2315 -11.2314 l -4.5,-4.4164 c -4.34201,-4.2614 -5.67747,-7 -3.41345,-7 0.59761,0 3.89833,2.7 7.33493,6 l 6.24838,6 H 186.83493 197 v -3.5657 c 0,-6.3134 2.57698,-8.6851 7.41821,-6.8273 1.14417,0.439 1.58179,1.9607 1.58179,5.5 V 1033 h 12.5 12.5 v -4.9809 c 0,-4.5565 0.22625,-5.0378 2.65478,-5.6473 3.59251,-0.9017 5.78159,0.6904 6.15858,4.479 L 240.12672,1030 H 252.56336 265 v -3.4809 c 0,-2.8782 0.43251,-3.5895 2.49776,-4.1079 3.98025,-0.999 5.50224,0.1321 5.50224,4.0892 v 3.5631 l 11.66252,-0.2818 11.66252,-0.2817 1.10936,-3.3 c 1.08844,-3.2378 2.99405,-5.1543 5.15508,-5.1847 1.71469,-0.024 3.13917,4.232 2.33774,6.9847 -1.44975,4.9795 -0.94516,5.6039 11.76549,14.5583 16.74384,11.7956 15.30597,11.0949 17.31139,8.4363 1.70476,-2.2601 1.72988,-2.2621 6.60358,-0.5214 2.69078,0.961 5.41414,1.8929 6.05191,2.0709 0.79952,0.2232 0.90985,1.4311 0.35531,3.8898 L 346.21062,1060 h 13.33433 13.33432 l 0.31036,-3.75 c 0.27126,-3.2774 0.66457,-3.7906 3.12084,-4.0723 3.65027,-0.4185 5.68953,1.3538 5.68953,4.9447 V 1060 h 12.43963 12.43964 l 0.31036,-3.75 c 0.29464,-3.5599 0.48777,-3.75 3.81037,-3.75 3.3226,0 3.51573,0.1901 3.81037,3.75 l 0.31036,3.75 H 428 440.87927 l 0.31036,-3.75 c 0.29464,-3.5599 0.48777,-3.75 3.81037,-3.75 3.3226,0 3.51573,0.1901 3.81037,3.75 l 0.31036,3.75 H 462 474.87927 l 0.31036,-3.75 c 0.29464,-3.5599 0.48777,-3.75 3.81037,-3.75 3.3226,0 3.51573,0.1901 3.81037,3.75 l 0.31036,3.75 H 496.03537 508.95 l -0.5612,-2.806 c -0.69641,-3.4821 1.39772,-5.4638 5.30073,-5.0163 2.58965,0.297 2.83442,0.6955 3.11526,5.0723 l 0.30479,4.75 H 529.55479 542 v -3.8776 c 0,-4.5439 1.77072,-6.394 5.68953,-5.9447 2.58965,0.297 2.83442,0.6955 3.11526,5.0723 l 0.30479,4.75 H 563.55479 576 v -3.8776 c 0,-4.5439 1.77072,-6.394 5.68953,-5.9447 2.58965,0.297 2.83442,0.6955 3.11526,5.0723 l 0.30479,4.75 H 597.5 609.89042 l 0.30479,-4.75 0.30479,-4.75 h 4 c 3.90038,0 4.00773,0.093 4.31037,3.75 l 0.31036,3.75 H 631.5 643.87927 l 0.31036,-3.7417 c 0.33425,-4.0295 1.88477,-4.9584 6.38946,-3.8278 1.98119,0.4972 2.42091,1.2399 2.42091,4.0886 V 1060 h 12.43963 12.43964 l 0.31036,-3.75 c 0.27126,-3.2774 0.66457,-3.7906 3.12084,-4.0723 3.65027,-0.4185 5.68953,1.3538 5.68953,4.9447 V 1060 h 12.43963 12.43964 l 0.31036,-3.75 c 0.27126,-3.2774 0.66457,-3.7906 3.12084,-4.0723 3.65027,-0.4185 5.68953,1.3538 5.68953,4.9447 V 1060 h 12.43963 12.43964 l 0.31036,-3.75 c 0.27126,-3.2774 0.66457,-3.7906 3.12084,-4.0723 3.65027,-0.4185 5.68953,1.3538 5.68953,4.9447 V 1060 h 12.9701 12.9701 l -0.2201,-3.6381 c -0.21291,-3.5192 -0.0567,-3.6964 4.7799,-5.4225 6.51993,-2.3268 7.244,-2.3213 8,0.061 0.34913,1.1 1.0347,2 1.52349,2 1.46551,0 28.48983,-19.6913 28.31444,-20.6313 -1.32737,-7.1146 -1.33341,-8.026 -0.0646,-9.7453 1.93377,-2.6203 5.20334,-0.739 6.7241,3.8689 L 831.1551,1030 H 842.57755 854 v -3.4809 c 0,-2.8782 0.43251,-3.5895 2.49776,-4.1079 3.96986,-0.9964 5.50224,0.1336 5.50224,4.0574 V 1030 h 12.93963 12.93964 l 0.31036,-3.75 c 0.29464,-3.5599 0.48777,-3.75 3.81037,-3.75 h 3.5 l 0.30226,5.25 0.30226,5.25 H 909.05226 922 v -5.0314 c 0,-5.5048 1.13685,-6.653 5.50224,-5.5574 2.24547,0.5636 2.49776,1.13 2.49776,5.6079 V 1033 h 10.72309 10.7231 l 6.2663,-6.2106 c 4.68061,-4.639 6.554,-5.9229 7.40322,-5.0737 0.84921,0.8492 -0.0971,2.4841 -3.7394,6.4606 L 956.5,1033.5 l 0.31434,10.75 0.31434,10.75 h 3.43566 c 3.2598,0 3.43566,0.1792 3.43566,3.5 0,3.3333 -0.16667,3.5 -3.5,3.5 H 957 v 13 13 h 3.5 c 3.41667,0 3.5,0.095 3.5,4 0,3.9048 -0.0833,4 -3.5,4 H 957 v 10.3711 10.3711 l 3.37354,2.3116 c 3.82486,2.6208 5.97752,5.5692 5.10132,6.9869 -1.02181,1.6533 -3.86801,1.0562 -7.84414,-1.6457 l -3.83356,-2.6049 -11.14858,4.9476 c -11.6159,5.155 -11.88258,5.438 -10.17564,10.7982 0.52013,1.6333 -0.053,2.3703 -2.89842,3.7272 l -3.54674,1.6913 -1.64107,-3.2272 c -0.90258,-1.775 -1.75641,-3.3623 -1.89739,-3.5274 -0.14097,-0.1651 -5.44445,2.0115 -11.78549,4.8369 l -11.52916,5.1371 1.41266,3.381 c 1.82901,4.3774 1.88869,4.1477 -1.53767,5.9195 -3.94468,2.0399 -3.93549,2.0432 -5.6374,-2.03 -1.74237,-4.1701 -1.31382,-4.2305 -14.97626,2.1106 -5.1898,2.4088 -9.436,4.8667 -9.436,5.462 0,0.5953 0.6804,2.3982 1.512,4.0063 1.50738,2.9149 1.49981,2.9301 -2.47136,4.9561 l -3.98337,2.0321 -1.55431,-3.0057 C 861.64808,1167.3526 860.66524,1166 860.31886,1166 858.71143,1166 833,1178.468 833,1179.2475 c 0,0.4862 0.47493,1.7714 1.0554,2.856 1.26636,2.3662 0.3443,5.8965 -1.54008,5.8965 -0.74245,0 -2.07997,-1.9125 -2.97227,-4.25 l -1.62236,-4.25 -35.11748,0.2989 c -21.16948,0.1802 -35.86844,0.7008 -37.00821,1.3108 -1.0399,0.5566 -2.30806,2.1095 -2.81812,3.4511 -0.89345,2.35 -1.27584,2.4392 -10.45213,2.4392 -7.79978,0 -9.52475,-0.2717 -9.52475,-1.5 0,-1.0551 -1.06596,-1.5 -3.59362,-1.5 -2.75262,0 -3.71602,-0.4681 -4.11663,-2 -0.47623,-1.8211 -1.36402,-2 -9.9255,-2 h -9.40248 l 0.26912,47.417 c 0.14801,26.0793 0.0441,47.401 -0.23089,47.3815 -0.275,-0.019 -34.3625,0.018 -75.75,0.083 -74.85096,0.1178 -75.25,0.1291 -75.25,2.1432 0,1.2533 -0.97732,2.3963 -2.5651,3 -3.38039,1.2852 -25.44174,1.2016 -27.6849,-0.1049 z M 105.38536,1029 c 0,-6.875 0.15977,-9.6875 0.35504,-6.25 0.19527,3.4375 0.19527,9.0625 0,12.5 -0.19527,3.4375 -0.35504,0.625 -0.35504,-6.25 z"
         id="path11" />
      <path
         style="fill:#929292;fill-opacity:1"
         d="m 157.4734,1231.5 c 1e-4,-38.5 0.12442,-54.1045 0.27626,-34.6767 0.15185,19.4278 0.15177,50.9278 -1.7e-4,70 -0.15195,19.0722 -0.27618,3.1767 -0.27609,-35.3233 z M 105.37817,1052 c 0,-6.325 0.16237,-8.9125 0.36082,-5.75 0.19845,3.1625 0.19845,8.3375 0,11.5 -0.19845,3.1625 -0.36082,0.575 -0.36082,-5.75 z"
         id="path10" />
      <path
         style="fill:#868686;fill-opacity:1"
         d="m 998.48584,2606.5 c 3e-5,-74.8 0.11886,-105.2524 0.26407,-67.672 0.14521,37.5804 0.14519,98.7804 -5e-5,136 -0.14524,37.2196 -0.26405,6.472 -0.26402,-68.328 z M 157.48579,2606 c 0,-74.525 0.11884,-105.0125 0.26409,-67.75 0.14525,37.2625 0.14525,98.2375 0,135.5 -0.14525,37.2625 -0.26409,6.775 -0.26409,-67.75 z M 49.75,2006.2507 c 14.4375,-0.1561 38.0625,-0.1561 52.5,0 14.4375,0.1562 2.625,0.284 -26.25,0.284 -28.875,0 -40.6875,-0.1278 -26.25,-0.284 z m 107.71271,-0.5007 c -0.26098,-0.6875 -0.35872,-159.65 -0.2172,-353.25 l 0.25731,-352 0.24859,352.7218 0.24859,352.7218 13.75,0.3088 13.75,0.3089 -13.78138,0.2194 c -10.27132,0.1634 -13.90225,-0.099 -14.25591,-1.0307 z m 790.74354,0.5094 c 3.68844,-0.1918 9.98844,-0.1931 14,0 4.01156,0.1903 0.99375,0.3473 -6.70625,0.3488 -7.7,0 -10.98219,-0.1541 -7.29375,-0.346 z m 50.25658,-0.5094 c -0.26091,-0.6875 -0.35876,-190.25 -0.21743,-421.25 l 0.25697,-420 0.24881,420.7411 0.24882,420.7411 52.25,0.268 52.25,0.268 -52.2814,0.2409 c -41.0839,0.1893 -52.38297,-0.027 -52.75577,-1.0091 z M 696.4508,1662 c 0,-19.525 0.13396,-27.5125 0.29768,-17.75 0.16372,9.7625 0.16372,25.7375 0,35.5 -0.16372,9.7625 -0.29768,1.775 -0.29768,-17.75 z M 399.75,1626.2596 c 3.4375,-0.1953 9.0625,-0.1953 12.5,0 3.4375,0.1953 0.625,0.355 -6.25,0.355 -6.875,0 -9.6875,-0.1597 -6.25,-0.355 z m 0.54159,-30.0021 c 3.73537,-0.1929 9.58537,-0.1915 13,0 3.41462,0.1947 0.35841,0.3525 -6.79159,0.3508 -7.15,0 -9.94379,-0.1611 -6.20841,-0.354 z M 710.39172,1500 c 0,-7.425 0.15742,-10.4625 0.34983,-6.75 0.19241,3.7125 0.19241,9.7875 0,13.5 -0.19241,3.7125 -0.34983,0.675 -0.34983,-6.75 z M 105.38854,1075.5 c 0.002,-7.15 0.16103,-9.9438 0.35396,-6.2084 0.19293,3.7354 0.19149,9.5854 -0.003,13 -0.19468,3.4146 -0.35253,0.3584 -0.35078,-6.7916 z"
         id="path9" />
      <path
         style="fill:#7a7a7a;fill-opacity:1"
         d="m 778.68114,4040.3872 c -5.95038,-3.0107 -10.67538,-5.8623 -10.5,-6.3369 2.24344,-6.0709 55.72646,-108.4383 56.81886,-108.7523 0.93842,-0.2697 7.46941,-16.3405 17.44447,-42.9257 8.76946,-23.3721 16.32402,-42.7292 16.78791,-43.0159 0.46389,-0.2867 7.35125,-13.5309 15.30525,-29.4316 l 14.46182,-28.9104 1.91765,-34.7572 1.91765,-34.7572 6.57129,-26.5 c 6.47436,-26.1091 6.76302,-27.8707 19.56797,-119.4206 9.55634,-68.3237 15.62709,-116.3684 22.93362,-181.5 l 9.93693,-88.5794 4.1073,-88.5 c 2.25901,-48.675 4.12745,-90.3 4.15209,-92.5 0.0246,-2.2 2.0177,-44.725 4.42901,-94.5 5.48735,-113.2716 6.4821,-173.9326 6.47328,-394.75 L 971,2469 h -14.95431 -14.95431 l -0.29569,-6.75 -0.29569,-6.75 -30.2523,-0.2647 -30.2523,-0.2646 0.2523,-213.7354 0.2523,-213.7353 30.25,-0.2647 30.25,-0.2646 V 2017.4853 2008 h 15 15 V 1500.0833 C 971,1201.8735 970.63024,992.02904 970.10443,991.83333 969.61187,991.65 968.01104,961.8 966.54702,925.5 c -2.41672,-59.92225 -3.07551,-69.95974 -7.15399,-109 l -4.49215,-43 -13.5366,-66.5 -13.53661,-66.5 -20.00005,-69 c -11.00004,-37.95 -20.35101,-69.45 -20.77994,-70 -0.42893,-0.55 -7.16862,-18.91751 -14.97709,-40.81668 -13.05826,-36.62246 -15.83019,-43.32111 -34.55265,-83.5 -22.35028,-47.96433 -25.17647,-53.5124 -26.76051,-52.5334 -0.61766,0.38173 -0.7751,0.18768 -0.37412,-0.46112 0.98508,-1.59388 -3.19558,-9.42286 -4.57616,-8.56961 -0.68424,0.42288 -0.83556,0.23579 -0.39103,-0.48347 0.89807,-1.45311 -27.2216,-52.37397 -28.48942,-51.59042 -0.49708,0.30722 -0.68996,-0.0273 -0.4286,-0.74336 0.68119,-1.86636 -22.82849,-43.36234 -24.37717,-43.02716 -0.69827,0.15112 -0.98781,-0.18115 -0.64342,-0.73839 0.90176,-1.45908 -56.34146,-81.23851 -57.69147,-80.40415 -0.65954,0.40762 -0.8096,0.21491 -0.37731,-0.48456 0.93805,-1.5178 -3.23727,-7.37168 -4.63971,-6.50493 -0.63653,0.3934 -0.7889,0.19843 -0.37203,-0.47607 0.40128,-0.64929 -3.49757,-7.02889 -9.03313,-14.78072 -9.32146,-13.05347 -9.65604,-13.70064 -7.8015,-15.09003 11.41881,-8.554767 18.5818,-13.324868 19.32213,-12.867317 0.49395,0.305274 10.87227,14.519657 23.06295,31.587527 13.42726,18.79916 22.59785,30.76488 23.26323,30.35366 0.65716,-0.40615 0.81413,-0.21894 0.39077,0.46607 -0.40876,0.66139 8.18329,13.57974 20.34549,30.58991 C 769.52612,197.62054 779,211.10206 779,211.3847 c 0,0.28265 12.67068,23.14922 28.15707,50.8146 15.48638,27.66539 29.39636,52.5507 30.91105,55.3007 1.51469,2.75 11.87268,24.575 23.01775,48.5 18.50449,39.72339 21.54347,47.05956 35.00385,84.5 8.10705,22.55 15.11589,40.92519 15.57519,40.83376 0.4593,-0.0914 0.91243,0.80857 1.00695,2 0.0945,1.19143 9.03118,32.54124 19.85924,69.66624 l 19.68737,67.5 13.90837,67.5 13.90837,67.5 4.91488,46 c 4.4618,41.75949 5.10743,50.93189 7.00368,99.5 1.14884,29.425 2.36827,58.3375 2.70984,64.25 l 0.62104,10.75 h 11.79865 c 7.1742,0 12.0534,0.41224 12.4487,1.05177 0.3575,0.57847 0.3186,40.40343 -0.087,88.50003 L 1018.7089,1163 H 1007.8544 997 v 422.5 422.5 h 53.5 53.5 V 2238.5 2469 H 1050.5 997 l 0.006,157.25 c 0.008,221.6037 -1.00363,283.6271 -6.43715,394.75 -2.38004,48.675 -4.4095,92.1 -4.50991,96.5 -0.1004,4.4 -2.16099,48.725 -4.57907,98.5 l -4.39651,90.5 -9.99019,87.5 c -6.67272,58.4436 -14.14202,117.2205 -22.49297,177 -12.21083,87.4101 -12.66464,90.1772 -19.4345,118.5 l -6.93173,29 -1.79677,36.25 c -1.69356,34.1677 -1.9047,36.25 -3.67577,36.25 -1.03345,0 -1.6146,0.4278 -1.29145,0.9507 0.32315,0.5228 -5.12981,12.3353 -12.11769,26.25 -11.03756,21.9785 -15.03821,31.4685 -30.47901,72.2993 -14.87629,39.3381 -18.07089,46.9677 -19.59637,46.802 -1.45648,-0.1582 -7.30779,10.5323 -29.12819,53.2182 -15.01807,29.3789 -27.07762,53.7851 -26.79901,54.2359 1.50277,2.4315 -5.13555,0.4543 -14.6681,-4.3689 z m -462.99515,-26.9803 c -3.02809,-6.0958 -5.12852,-9.2514 -5.8579,-8.8007 -0.7059,0.4363 -0.86137,0.2567 -0.40997,-0.4737 0.41308,-0.6684 -6.80047,-15.96 -16.7014,-35.4045 -16.66627,-32.731 -18.11675,-36.0649 -33.16395,-76.228 -14.56366,-38.8724 -16.84662,-44.1776 -30.65773,-71.243 -8.20728,-16.0837 -14.97348,-29.5837 -15.036,-30 -0.0625,-0.4164 -0.25316,-1.207 -0.42363,-1.757 -0.17048,-0.55 -1.27204,-16.3 -2.44793,-35 l -2.13796,-34 -6.92051,-28.8429 c -3.80628,-15.8635 -6.67691,-29.8135 -6.37918,-31 0.29772,-1.1864 -5.13492,-42.8821 -12.07253,-92.6571 -13.39294,-96.0897 -34.14627,-271.8829 -32.24284,-273.1164 0.91587,-0.5935 -1.75961,-58.6719 -12.61691,-273.8836 -2.99792,-59.4243 -4.36878,-95.7168 -4.49493,-119 -0.38789,-71.5911 -2.063,-156.4801 -3.09459,-156.824 C 130.33062,2744.9435 130,2700.4793 130,2606.9167 V 2469 H 76.5 23 V 2238.5 2008 H 76.5 130 V 1584.5 1161 H 118.5 107 V 1075.5 990 l 11.75,-0.0153 c 6.4625,-0.008 12.23829,-0.34592 12.83509,-0.75 0.71375,-0.48327 2.00708,-23.14964 3.77932,-66.23469 2.52152,-61.30133 3.0089,-68.41663 7.60317,-111 l 4.90893,-45.5 13.52359,-66.02373 13.5236,-66.02372 20.60893,-70.97628 c 16.65663,-57.3647 23.3064,-78.55143 34.67466,-110.47627 13.20417,-37.08055 15.47573,-42.53196 37.08547,-89 12.66085,-27.225 23.74621,-50.20887 24.63413,-51.07527 3.06068,-2.98652 59.24485,-104.83783 58.49812,-106.04607 -0.44788,-0.72467 -0.30713,-0.92384 0.36103,-0.5109 1.43858,0.8891 58.57287,-78.97801 57.61129,-80.53388 -0.42002,-0.67962 -0.26472,-0.86995 0.38313,-0.46956 0.64947,0.40139 6.58882,-7.00782 14.70606,-18.34549 C 430.97564,96.558472 437.35712,88 437.66758,88 c 0.31045,0 2.75355,1.606937 5.4291,3.570971 2.75459,2.022053 5.3738,3.256292 6.03849,2.845491 0.70447,-0.435387 0.90743,-0.29441 0.50758,0.352563 -0.88663,1.434604 4.99052,5.560715 6.60043,4.633884 0.69125,-0.397958 0.92322,-0.355317 0.5155,0.09476 -0.40773,0.450074 -0.22878,1.435901 0.39768,2.190731 0.88593,1.06748 0.42619,2.36499 -2.06914,5.83967 -1.76448,2.457 -2.8864,4.98784 -2.49317,5.6241 0.42963,0.69517 0.27795,0.88675 -0.38009,0.48007 -1.43858,-0.8891 -58.57287,78.97801 -57.61129,80.53388 0.41874,0.67754 0.26486,0.87004 -0.37793,0.47278 -0.63863,-0.3947 -5.176,5.03096 -11.03985,13.20118 -11.14824,15.53304 -42.81851,71.32569 -41.60346,73.29168 0.44689,0.72308 0.29698,0.91113 -0.38858,0.48743 -1.38058,-0.85325 -5.56124,6.97573 -4.57616,8.56961 0.4008,0.64852 0.24356,0.84287 -0.37343,0.46155 -0.63911,-0.395 -5.5667,7.44945 -12.30917,19.59549 -6.18388,11.13979 -11.60871,20.49638 -12.05517,20.79242 -0.44647,0.29605 -10.31647,20.95687 -21.93334,45.91294 C 260.8436,439.46988 250.14041,469.27309 221.33451,568 l -20.57004,70.5 -13.40814,65 -13.40814,65 -4.95557,45.5 c -4.68753,43.03898 -5.10066,49.06983 -7.63814,111.5 -2.05131,50.46886 -2.99695,66.37151 -4.01853,67.57874 C 156.22518,994.39137 156,1080.0606 156,1501.3287 V 2008 h 15 15 v 9.5283 9.5283 l 30.25,-0.2783 30.25,-0.2783 -0.25456,214.2351 -0.25456,214.2352 -29.74544,0.2648 -29.74544,0.2649 -0.29569,6.75 -0.29569,6.75 H 170.95431 156 v 136.4167 c 0,91.9967 0.33272,136.5275 1.02181,136.7572 0.96235,0.3208 1.8776,45.7407 3.45235,171.3261 0.35201,28.0722 1.76291,64.6485 4.4746,116 7.79635,147.6398 13.27556,264.9252 12.39028,265.2203 -1.86449,0.6215 19.15128,178.1808 32.04925,270.7797 6.89479,49.5 12.5221,91.8 12.50514,94 -0.017,2.2 3.12786,17.0164 6.9885,32.9254 3.86064,15.9089 6.81289,29.2594 6.56055,29.6677 -0.25233,0.4082 0.41163,13.7699 1.47546,29.6926 l 1.93426,28.9502 6.10237,12.1735 c 3.35631,6.6954 6.53441,11.9064 7.06245,11.5801 0.55476,-0.3429 0.68208,0.1311 0.30159,1.1226 -0.48212,1.2564 -0.30375,1.4968 0.66596,0.8974 0.86625,-0.5353 1.08519,-0.4314 0.63285,0.3005 -0.38038,0.6155 3.30293,9.1225 8.18513,18.9045 6.67663,13.3774 12.77691,28.3191 24.61288,60.2855 16.3755,44.2267 16.64959,44.8377 44.46117,99.1078 l 13.12313,25.6078 -11.79647,6.0973 -11.79647,6.0974 z M 555.11825,1733.5597 c -6.9089,-2.2492 -13.58536,-7.3872 -21.21166,-16.3237 -3.98641,-4.6712 -7.52261,-7.9733 -8.134,-7.5955 -0.65323,0.4038 -0.79218,0.2002 -0.35082,-0.5139 1.31784,-2.1323 -10.05019,-10.4944 -15.67177,-11.5278 -3.71837,-0.6836 -4.73498,-1.872 -2.68511,-3.1389 2.00049,-1.2364 7.8025,0.6033 12.84729,4.0735 l 5.03961,3.4666 h 38.1706 38.1706 l 5.43224,-3.6057 c 6.09512,-4.0457 13.27477,-5.7188 13.27477,-3.0934 0,1.5248 -0.75474,1.9075 -6.07794,3.082 -1.41786,0.3129 -3.73127,1.6377 -5.14091,2.9441 -1.40963,1.3064 -3.23207,2.6321 -4.04985,2.9459 -0.81779,0.3138 -5.38129,5.0939 -10.14112,10.6224 -4.75983,5.5285 -10.10232,11.1373 -11.8722,12.464 -8.93146,6.6952 -19.07819,8.9747 -27.59973,6.2004 z M 575,1728.1418 c 2.475,-1.2766 5.79613,-3.5182 7.3803,-4.9814 4.07881,-3.7674 15.6197,-17.2983 15.6197,-18.313 0,-0.4661 -15.75,-0.8474 -35,-0.8474 -19.25,0 -35,0.2371 -35,0.5269 0,1.1478 15.04207,18.1281 17.98893,20.3068 9.11833,6.7415 19.95781,7.9775 29.01107,3.3081 z M 384.18045,1597.75 c 0.24788,-1.7453 1.07704,-2.3224 3.69671,-2.5728 1.85743,-0.1776 3.85993,0.1599 4.45,0.75 0.76379,0.7637 0.49415,1.0728 -0.93603,1.0728 -1.10488,0 -2.88238,0.6607 -3.95,1.4682 -2.74031,2.0727 -3.62924,1.8769 -3.26068,-0.7182 z M 378,1258 c 0,-46 0.34286,-70 1,-70 0.65714,0 1,24 1,70 0,46 -0.34286,70 -1,70 -0.65714,0 -1,-24 -1,-70 z m 370,0 c 0,-46 0.34286,-70 1,-70 0.65714,0 1,24 1,70 0,46 -0.34286,70 -1,70 -0.65714,0 -1,-24 -1,-70 z m -467.68412,-82.8772 c -11.86899,-5.5114 -16.41495,-8.1923 -11.31588,-6.6734 1.375,0.4096 3.25446,0.7974 4.17658,0.8619 0.92212,0.064 1.4108,0.5473 1.08596,1.0729 -0.33975,0.5498 0.13825,0.676 1.12535,0.2972 0.94379,-0.3622 1.47534,-0.2691 1.18121,0.2068 -0.70725,1.1443 11.28749,6.3185 12.6687,5.4648 0.68302,-0.4221 0.77458,-0.1821 0.25266,0.6624 -0.59931,0.9697 -0.35895,1.1481 0.89743,0.666 0.94379,-0.3622 1.46481,-0.2521 1.15782,0.2446 -0.307,0.4968 0.007,1.105 0.69806,1.3517 0.69093,0.2467 1.03123,0.6857 0.75623,0.9756 -0.275,0.2899 -5.98285,-2.0188 -12.68412,-5.1305 z M 833,1180.4076 c 0,-0.2285 3.14163,-1.8202 6.98141,-3.5371 3.98036,-1.7798 6.70805,-3.5639 6.34549,-4.1506 -0.35219,-0.5698 -0.15096,-0.7292 0.45104,-0.3571 0.59782,0.3694 3.67263,-0.4718 6.8329,-1.8694 3.16028,-1.3976 6.16238,-2.4023 6.67135,-2.2327 0.50896,0.1697 -4.80856,2.9757 -11.81671,6.2356 C 836.50324,1180.0606 833,1181.3996 833,1180.4076 Z M 105.37817,1099 c 0,-6.325 0.16237,-8.9125 0.36082,-5.75 0.19845,3.1625 0.19845,8.3375 0,11.5 -0.19845,3.1625 -0.36082,0.575 -0.36082,-5.75 z M 353.75,1058.2596 c 3.4375,-0.1953 9.0625,-0.1953 12.5,0 3.4375,0.1953 0.625,0.355 -6.25,0.355 -6.875,0 -9.6875,-0.1597 -6.25,-0.355 z M 176.5,1031 c -0.39638,-0.6414 2.98962,-1 9.44098,-1 6.03935,0 10.05902,0.3996 10.05902,1 0,0.5961 -3.81366,1 -9.44098,1 -5.2153,0 -9.71761,-0.4476 -10.05902,-1 z m 40.08288,-1.6446 c -0.36047,-0.9394 0.12967,-2.4884 1.14301,-3.6123 3.06606,-3.4006 41.42077,-39.22645 42.37002,-39.57643 1.24039,-0.45733 1.00297,3.68542 -0.42199,7.36316 -0.64566,1.66641 -6.12392,7.68817 -12.17392,13.38167 -6.05,5.6934 -13.25,12.482 -16,15.0855 -4.39018,4.1565 -11.72661,9.003 -13.6282,9.003 -0.3618,0 -0.94182,-0.7401 -1.28892,-1.6446 z m 688.6618,-0.3572 c -2.33916,-1.0473 -5.26364,-2.9582 -6.49885,-4.2464 -1.2352,-1.2883 -8.22175,-7.8827 -15.52565,-14.6544 -13.40652,-12.42952 -15.70096,-15.31211 -16.69954,-20.98025 -0.60424,-3.42977 0.0192,-3.78031 2.87668,-1.61738 1.04353,0.78989 2.35056,1.15605 2.90451,0.81369 0.55395,-0.34236 0.71469,-0.14921 0.3572,0.42923 -0.3575,0.57843 8.01048,9.31046 18.59549,19.40451 10.58501,10.094 19.40018,18.9631 19.58926,19.709 0.66223,2.6125 -1.38287,3.0296 -5.5991,1.142 z M 241.0005,1026.75 c 3.5e-4,-1.557 2.94185,-4.9807 9.55062,-11.116 5.25257,-4.8764 9.78353,-8.6327 10.06881,-8.3474 0.28528,0.2853 -0.0373,2.3742 -0.71673,4.6421 -0.92784,3.0969 -3.03627,5.7352 -8.46886,10.5974 -7.66366,6.8589 -10.43468,7.9807 -10.43384,4.2239 z m 634.62491,-4.4952 c -6.4187,-6.2646 -10.7013,-13.4718 -8.72933,-14.6906 0.43398,-0.2682 4.9099,3.3576 9.94649,8.0574 6.65987,6.2145 9.15743,9.2041 9.15743,10.9617 0,4.0902 -3.05473,2.8157 -10.37459,-4.3285 z"
         id="path8" />
      <path
         style="fill:#6e6e6e;fill-opacity:1"
         d="M 940.18498,2462.2649 940,2456.0298 l -29.75,-0.2804 -29.75,-0.2803 29.78138,-0.2346 c 24.44572,-0.1925 29.87552,0.011 30.3068,1.1347 0.28898,0.7531 0.3581,3.7906 0.1536,6.75 l -0.37182,5.3808 z m -738.37317,-7.0132 c 8.42149,-0.1675 21.92149,-0.1671 30,8e-4 8.0785,0.1679 1.18819,0.3049 -15.31181,0.3044 -16.5,-4e-4 -23.10969,-0.1378 -14.68819,-0.3052 z M 449.25,1697.2514 c 10.3125,-0.1626 27.1875,-0.1626 37.5,0 10.3125,0.1625 1.875,0.2955 -18.75,0.2955 -20.625,0 -29.0625,-0.133 -18.75,-0.2955 z m 191,0 c 10.3125,-0.1626 27.1875,-0.1626 37.5,0 10.3125,0.1625 1.875,0.2955 -18.75,0.2955 -20.625,0 -29.0625,-0.133 -18.75,-0.2955 z M 568,1528 c 0,-15.3333 -0.22222,-18 -1.5,-18 -1.19048,0 -1.5,1.4444 -1.5,7 v 7 H 540.5 516 V 1400.5 1277 h 2.53138 c 1.49821,0 2.79492,0.7143 3.17706,1.75 0.35512,0.9625 1.1285,2.0806 1.71862,2.4847 1.68411,1.1532 29.79731,0.9374 29.08002,-0.2232 -0.3552,-0.5748 0.0637,-0.7297 1.00064,-0.3702 1.10196,0.4229 1.78772,-0.055 2.16857,-1.5114 0.46143,-1.7645 1.30888,-2.1299 4.94034,-2.1299 H 565 v 103.5 c 0,91.3333 0.17633,103.5 1.5,103.5 1.32281,0 1.5,-11.2222 1.5,-95 v -95 h 47.5 47.5 v 126 126 H 615.5 568 Z m 84.61844,-57.5519 c -0.34149,-0.89 -0.17385,-1.2914 0.39301,-0.941 0.5437,0.336 0.98855,-0.3422 0.98855,-1.5071 0,-1.1649 -0.44485,-1.8431 -0.98855,-1.5071 -0.56686,0.3504 -0.7345,-0.051 -0.39301,-0.941 0.52392,-1.3653 -1.46163,-1.5519 -16.51145,-1.5519 H 619 v 3.3333 c 0,1.8334 0.3,3.6334 0.66667,4 0.36666,0.3667 8.06481,0.6667 17.10699,0.6667 14.44731,0 16.36812,-0.1881 15.84478,-1.5519 z M 617,1402.5 c 0,-63.8333 -0.0207,-64.5 -2,-64.5 -1.97817,0 -1.99988,0.663 -1.98899,60.75 0.006,33.4125 0.28993,62.4375 0.63084,64.5 0.36456,2.2056 1.18371,3.75 1.98899,3.75 1.14473,0 1.36916,-10.5728 1.36916,-64.5 z M 377.46592,1383 c 0,-29.425 0.12752,-41.4625 0.28337,-26.75 0.15586,14.7125 0.15586,38.7875 0,53.5 -0.15585,14.7125 -0.28337,2.675 -0.28337,-26.75 z m 40.02778,-87.5 0.006,-115 2.76237,-0.1218 c 2.52145,-0.1112 2.54362,-0.084 0.25419,0.316 l -2.50817,0.4378 -0.2605,114.684 -0.26049,114.684 z m -84.82703,20.8333 C 332.3,1315.9667 332,1298.1917 332,1276.8333 V 1238 h 13.01161 13.0116 l -0.2616,39.1669 c -0.20209,30.2563 -0.54599,39.2616 -1.51161,39.5833 -0.6875,0.2291 -1.25,-0.296 -1.25,-1.1669 0,-1.3389 -1.54386,-1.5833 -10,-1.5833 -8.22222,0 -10,0.2667 -10,1.5 0,1.5616 -1.1827,1.984 -2.33333,0.8333 z M 769,1276.5 V 1237 h 12.5 12.5 v 39.5 c 0,26.468 -0.34028,39.5 -1.03138,39.5 -0.56727,0 -1.29041,-0.675 -1.60699,-1.5 -0.45447,-1.1843 -2.52988,-1.5 -9.86163,-1.5 -7.33175,0 -9.40716,0.3157 -9.86163,1.5 -0.31658,0.825 -1.03972,1.5 -1.60699,1.5 C 769.34028,1316 769,1302.968 769,1276.5 Z m -55.76161,-22.5513 0.26161,-39.0513 12.5,-0.07 12.5,-0.071 0.26161,39.1218 c 0.22509,33.6607 0.0588,39.1217 -1.19099,39.1217 -0.79892,0 -1.7307,-0.45 -2.07062,-1 -0.34141,-0.5524 -4.84372,-1 -10.05902,-1 -5.62732,0 -9.44098,0.4039 -9.44098,1 0,0.55 -0.68022,1 -1.51161,1 -1.32747,0 -1.47974,-4.757 -1.25,-39.0513 z M 706.4613,1227 c 0,-25.575 0.1295,-36.0375 0.28778,-23.25 0.15828,12.7875 0.15828,33.7125 0,46.5 -0.15828,12.7875 -0.28778,2.325 -0.28778,-23.25 z M 105.39172,1123 c 0,-7.425 0.15742,-10.4625 0.34983,-6.75 0.19241,3.7125 0.19241,9.7875 0,13.5 -0.19241,3.7125 -0.34983,0.675 -0.34983,-6.75 z m 914.04968,-28.5 c 5e-4,-15.95 0.1385,-22.335 0.3068,-14.1888 0.1683,8.1461 0.1679,21.1961 -9e-4,29 -0.1687,7.8038 -0.3064,1.1388 -0.3059,-14.8112 z M 353.75,1057.2596 c 3.4375,-0.1953 9.0625,-0.1953 12.5,0 3.4375,0.1953 0.625,0.355 -6.25,0.355 -6.875,0 -9.6875,-0.1597 -6.25,-0.355 z M 931,1032 c 0,-0.5965 3.83333,-1 9.5,-1 5.66667,0 9.5,0.4035 9.5,1 0,0.5965 -3.83333,1 -9.5,1 -5.66667,0 -9.5,-0.4035 -9.5,-1 z m -656.11609,-4.2882 c 0.43583,-0.4335 5.25274,-0.6557 10.70425,-0.4939 l 9.91184,0.2942 -10.70426,0.4939 c -5.88734,0.2717 -10.34766,0.1393 -9.91183,-0.2942 z M 113.78919,989.25859 c 3.45905,-0.19583 8.85905,-0.19422 12,0.004 3.14094,0.19781 0.31081,0.35803 -6.28919,0.35606 -6.6,-0.002 -9.16987,-0.16382 -5.71081,-0.35965 z"
         id="path7" />
      <path
         style="fill:#626262;fill-opacity:1"
         d="m 528.75,1524.253 c 6.7375,-0.173 17.7625,-0.173 24.5,0 6.7375,0.173 1.225,0.3146 -12.25,0.3146 -13.475,0 -18.9875,-0.1416 -12.25,-0.3146 z m 85.24972,-121.5526 0.49972,-59.2004 0.25842,58.4419 c 0.14213,32.143 -0.0828,58.7831 -0.49972,59.2003 -0.41698,0.4172 -0.53327,-25.8817 -0.25842,-58.4418 z M 747.4734,1257.5 c 10e-5,-38.5 0.12442,-54.1045 0.27626,-34.6767 0.15185,19.4278 0.15177,50.9278 -1.7e-4,70 -0.15195,19.0722 -0.27618,3.1767 -0.27609,-35.3233 z m -389.7194,33.7507 c 0.13969,-14.1629 0.37808,-32.0507 0.52973,-39.7507 0.15166,-7.7 0.37486,3.8875 0.49601,25.75 0.12114,21.8625 -0.11724,39.7503 -0.52974,39.7507 -0.4125,4e-4 -0.6357,-11.5871 -0.496,-25.75 z M 767,1276.5 c 0,-26.1574 0.33976,-39.4081 1,-39 0.63856,0.3947 1,14.4907 1,39 0,24.5093 -0.36144,38.6053 -1,39 -0.66024,0.4081 -1,-12.8426 -1,-39 z m -246.41562,0.75 c -0.41193,-0.4125 -21.97443,-0.9896 -47.91667,-1.2825 l -47.16771,-0.5324 48.08333,-0.2176 c 42.17076,-0.1908 48.08334,-0.033 48.08334,1.2825 0,1.7227 -0.0656,1.7681 -1.08229,0.75 z m 35.41528,-1.5 c 1.9e-4,-0.4125 33.41284,-0.6606 74.25034,-0.5513 40.8375,0.1093 71.1,0.3285 67.25,0.4872 -16.66839,0.6868 -141.50065,0.7434 -141.50034,0.064 z m -132.00009,-48.4505 c -0.27476,-25.9603 -0.15752,-46.8583 0.26054,-46.4399 0.41806,0.4183 0.64287,21.6586 0.49957,47.2005 L 424.49914,1274.5 Z M 1019.4202,1142.5 c -9e-4,-11 0.1452,-15.6364 0.3247,-10.3032 0.1794,5.3332 0.1801,14.3332 0,20 -0.1786,5.6668 -0.3254,1.3032 -0.3263,-9.6968 z m -914.04203,4.5 c 0,-6.325 0.16237,-8.9125 0.36082,-5.75 0.19845,3.1625 0.19845,8.3375 0,11.5 -0.19845,3.1625 -0.36082,0.575 -0.36082,-5.75 z m 61.59154,-59.5611 2.96971,-0.5611 0.33046,-12.1889 0.33045,-12.1889 -0.0502,12.5 -0.0502,12.5 -3.25,0.25 c -3.14816,0.2422 -3.15695,0.2324 -0.28029,-0.3111 z m 350.42433,-26.8544 c -0.29875,-0.7786 -0.35205,-2.6911 -0.11845,-4.25 0.36017,-2.4035 0.44753,-2.269 0.57458,0.8847 l 0.14983,3.7192 12.25,0.3146 12.25,0.3146 -12.28138,0.2162 c -9.81472,0.1728 -12.39049,-0.068 -12.82458,-1.1993 z m 40.39515,0.6741 c 3.45905,-0.1958 8.85905,-0.1942 12,0 3.14094,0.1978 0.31081,0.358 -6.28919,0.356 -6.6,0 -9.16987,-0.1638 -5.71081,-0.3596 z m 34,0 c 3.45905,-0.1958 8.85905,-0.1942 12,0 3.14094,0.1978 0.31081,0.358 -6.28919,0.356 -6.6,0 -9.16987,-0.1638 -5.71081,-0.3596 z m -424.82467,-6.8193 2.96452,-0.5607 0.34579,-9.6893 0.34579,-9.6893 -0.0603,10 -0.0603,10 -3.25,0.25 c -3.13858,0.2414 -3.14837,0.2308 -0.28548,-0.3107 z M 156.43772,1027.5 c -5.4e-4,-14.85 0.13863,-21.0644 0.30926,-13.8098 0.17063,7.2546 0.17107,19.4046 9.7e-4,27 -0.17009,7.5954 -0.3097,1.6598 -0.31023,-13.1902 z"
         id="path6" />
      <path
         style="fill:#575757;fill-opacity:1"
         d="m 545.6855,1704.2519 c 9.45202,-0.1642 25.20202,-0.1645 35,-6e-4 9.79797,0.1638 2.0645,0.2982 -17.1855,0.2985 -19.25,4e-4 -27.26653,-0.1337 -17.8145,-0.2979 z m 18.55525,-53.9986 71.74076,-0.2664 0.27326,-49.9936 0.27326,-49.9936 -0.014,50.2502 -0.014,50.2501 -72,0.01 -72,0.01 z M 366.37817,1611 c 0,-6.325 0.16237,-8.9125 0.36082,-5.75 0.19845,3.1625 0.19845,8.3375 0,11.5 -0.19845,3.1625 -0.36082,0.575 -0.36082,-5.75 z m 149.10629,-211 c 0,-67.925 0.11943,-95.7125 0.2654,-61.75 0.14597,33.9625 0.14597,89.5375 0,123.5 -0.14597,33.9625 -0.2654,6.175 -0.2654,-61.75 z M 377.23204,1257.25 c -0.12762,-38.6375 0.10546,-70.2501 0.51796,-70.2503 0.68018,-2e-4 0.6715,50.5431 -0.0198,115.5003 -0.14634,13.75 -0.3705,-6.6125 -0.49812,-45.25 z m 417.22267,19.25 c 2.8e-4,-21.45 0.1327,-30.0827 0.29426,-19.1838 0.16156,10.8989 0.16133,28.4489 -5.1e-4,39 -0.16185,10.5511 -0.29404,1.6338 -0.29375,-19.8162 z M 709.46758,1237 c 0,-31.075 0.1268,-43.7875 0.28178,-28.25 0.15498,15.5375 0.15498,40.9625 0,56.5 -0.15498,15.5375 -0.28178,2.825 -0.28178,-28.25 z M 113.5,1162 l -6,-0.6638 7.5,-0.05 c 4.125,-0.027 8.85,0.2937 10.5,0.7136 2.65264,0.675 2.47895,0.7576 -1.5,0.7136 -2.475,-0.027 -7.2,-0.3485 -10.5,-0.7136 z m 856.92614,-21.5 c 7.5e-4,-12.1 0.14515,-16.9126 0.32089,-10.6946 0.17573,6.218 0.17511,16.118 -10e-4,22 -0.17649,5.882 -0.32027,0.7946 -0.31951,-11.3054 z m -864.61712,19.75 c -0.16996,-0.4125 -0.0668,-10.65 0.22932,-22.75 l 0.53833,-22 0.21167,22.75 c 0.19064,20.491 0.0159,24.4156 -0.97932,22 z M 156.43674,1080 c 0,-14.575 0.1398,-20.5375 0.31066,-13.25 0.17086,7.2875 0.17086,19.2125 0,26.5 -0.17086,7.2875 -0.31066,1.325 -0.31066,-13.25 z"
         id="path5" />
      <path
         style="fill:#4b4b4b;fill-opacity:1"
         d="m 997.48594,2606.5 c 2e-5,-75.35 0.11881,-106.0274 0.26397,-68.172 0.14516,37.8555 0.14513,99.5055 -5e-5,137 -0.14518,37.4946 -0.26395,6.522 -0.26392,-68.828 z M 156.48589,2606 c 0,-75.075 0.1188,-105.7875 0.26399,-68.25 0.1452,37.5375 0.1452,98.9625 0,136.5 -0.14519,37.5375 -0.26399,6.825 -0.26399,-68.25 z M 50.320361,2007.2506 c 14.751198,-0.156 38.601198,-0.1558 52.999999,3e-4 14.3988,0.1561 2.32964,0.2836 -26.82036,0.2835 -29.15,-2e-4 -40.930838,-0.1279 -26.179639,-0.2838 z m 106.346309,0.083 c -0.36667,-0.3666 -0.55512,-159.5541 -0.41877,-353.75 l 0.24789,-353.0833 0.50211,353 0.5021,353 14,0.5432 14,0.5431 -14.08333,0.2069 c -7.74584,0.1137 -14.38334,-0.093 -14.75,-0.4599 z m 792.08333,-0.076 c 3.9875,-0.1898 10.5125,-0.1898 14.5,0 3.9875,0.1898 0.725,0.3451 -7.25,0.3451 -7.975,0 -11.2375,-0.1553 -7.25,-0.3451 z m 48.91667,0.076 c -0.36667,-0.3666 -0.55496,-190.6041 -0.41843,-422.75 l 0.24823,-422.0833 0.50177,422 0.50176,422 52.5,0.5134 52.5,0.5134 -52.5833,0.2366 c -28.9209,0.1301 -52.88337,-0.063 -53.25003,-0.4301 z m -381.92053,-461.0781 47.24614,-0.2748 0.25967,-125.4902 0.25968,-125.4902 -0.006,125.75 -0.006,125.75 -47.5,0.015 -47.5,0.015 z M 565.48169,1379.5 c 4e-5,-57.2 0.12071,-80.4531 0.26815,-51.6736 0.14745,28.7796 0.14741,75.5796 -8e-5,104 -0.14749,28.4205 -0.26812,4.8736 -0.26807,-52.3264 z m 1.75417,4.809 c -0.12973,-49.605 0.10164,-90.3997 0.51414,-90.6547 0.67941,-0.4202 0.67275,63.2108 -0.0155,148.3457 -0.14451,17.875 -0.36888,-8.0859 -0.4986,-57.691 z m 49.1988,53.691 c 0,-14.025 0.14065,-19.7625 0.31255,-12.75 0.1719,7.0125 0.1719,18.4875 0,25.5 -0.1719,7.0125 -0.31255,1.275 -0.31255,-12.75 z m -2.97542,22.75 c -0.26289,-0.6875 -0.36127,-28.4689 -0.21861,-61.7364 0.2431,-56.6925 0.36914,-60.5075 2.00937,-60.8233 1.53301,-0.2952 1.72656,0.4471 1.56092,5.9864 l -0.18909,6.3233 -0.36082,-5.75 c -0.19845,-3.1625 -0.79515,-5.75 -1.326,-5.75 -0.61265,0 -0.86835,22.4628 -0.70009,61.5002 0.14579,33.8251 0.13846,61.5001 -0.0163,61.5 -0.15477,-10e-5 -0.49648,-0.5627 -0.75938,-1.2502 z m 2.97431,-79.25 c -6.1e-4,-13.75 0.14023,-19.5137 0.31298,-12.8082 0.17275,6.7055 0.17325,17.9555 10e-4,25 -0.17214,7.0445 -0.31348,1.5582 -0.31409,-12.1918 z M 331.22026,1277.309 c -0.12114,-21.555 0.11724,-39.4 0.52974,-39.6555 0.68262,-0.4228 0.66718,29.2596 -0.0337,64.8465 -0.15166,7.7 -0.37486,-3.6359 -0.49601,-25.191 z m 298.08616,15.9437 c 6.49353,-0.1744 16.84353,-0.1738 23,0 6.15647,0.1752 0.84358,0.3179 -11.80642,0.3172 -12.65,-7e-4 -17.68711,-0.144 -11.19358,-0.3185 z M 532.75,1281.2596 c 3.4375,-0.1953 9.0625,-0.1953 12.5,0 3.4375,0.1953 0.625,0.355 -6.25,0.355 -6.875,0 -9.6875,-0.1597 -6.25,-0.355 z M 774.18598,1180.252 c 9.17729,-0.1649 24.47729,-0.1652 34,-7e-4 9.52271,0.1645 2.01402,0.2994 -16.68598,0.2998 -18.7,4e-4 -26.49131,-0.1342 -17.31402,-0.2991 z m 245.80802,-28.0477 0.4939,-10.7043 0.2942,9.9118 c 0.1618,5.4515 -0.06,10.2685 -0.4939,10.7043 -0.4335,0.4358 -0.5659,-4.0245 -0.2942,-9.9118 z M 156.43961,1133.5 c 5e-4,-15.4 0.13932,-21.5603 0.30848,-13.6895 0.16916,7.8708 0.16875,20.4708 -9.2e-4,28 -0.16966,7.5292 -0.30807,1.0895 -0.30756,-14.3105 z m 814.00178,-43 c 4.7e-4,-15.95 0.13854,-22.335 0.30682,-14.1888 0.16828,8.1461 0.16789,21.1961 -8.6e-4,29 -0.16876,7.8038 -0.30644,1.1388 -0.30596,-14.8112 z M 106.43674,1090 c 0,-14.575 0.1398,-20.5375 0.31066,-13.25 0.17086,7.2875 0.17086,19.2125 0,26.5 -0.17086,7.2875 -0.31066,1.325 -0.31066,-13.25 z m 241.22993,-30.6667 c -0.36667,-0.3666 -0.65978,-1.1541 -0.65136,-1.75 0.009,-0.667 0.31232,-0.6159 0.78827,0.1331 0.51656,0.813 4.74082,1.3221 12.73469,1.535 l 11.96173,0.3185 -12.08333,0.2151 c -6.64584,0.1182 -12.38334,-0.085 -12.75,-0.4517 z m -161.70073,-27.0616 c 5.89102,-0.2194 9.7908,-0.8093 10.32613,-1.5621 0.61254,-0.8613 0.74296,-0.7777 0.453,0.2904 -0.32565,1.1996 -2.39351,1.5124 -10.32613,1.5621 l -9.91894,0.062 z M 278,1029.3552 c 8.36922,-0.738 17.77821,-0.7951 17.34881,-0.1052 -0.25677,0.4125 -5.05279,0.6744 -10.65783,0.5819 -5.60504,-0.092 -8.61598,-0.307 -6.69098,-0.4767 z"
         id="path4" />
      <path
         style="fill:#3f3f3f;fill-opacity:1"
         d="m 129.48599,2607 c 0,-75.625 0.11875,-106.5625 0.2639,-68.75 0.14514,37.8125 0.14514,99.6875 0,137.5 -0.14515,37.8125 -0.2639,6.875 -0.2639,-68.75 z m 0.009,-1022.5 c 0,-232.65 0.11459,-327.9742 0.25465,-211.8316 0.14007,116.1427 0.14007,306.4927 1e-5,423 -0.14006,116.5074 -0.25466,21.4816 -0.25466,-211.1684 z m 427.82885,144.083 c -5.58553,-1.7766 -10.01572,-4.6261 -14.73669,-9.4786 -2.15187,-2.2119 -4.3589,-3.7457 -4.9045,-3.4085 -0.56553,0.3495 -0.67734,0.104 -0.26007,-0.5712 0.42526,-0.6881 -0.63739,-2.7431 -2.53611,-4.9045 l -3.26806,-3.7202 16.2536,-0.2751 c 8.93948,-0.1513 23.16025,-0.1513 31.60172,0 l 15.34812,0.2751 -6.1611,7.2192 c -3.3886,3.9706 -7.73609,8.3892 -9.66109,9.8191 -1.925,1.4299 -3.3929,3.0025 -3.262,3.4948 0.13091,0.4922 -0.39643,0.6515 -1.17186,0.3539 -0.77542,-0.2975 -2.23252,-0.1086 -3.238,0.4199 -3.36535,1.7688 -9.76734,2.1236 -14.00396,0.7761 z m -34.05208,-28.801 c 0.43204,-2.0576 -9.08349,-7.1096 -13.55842,-7.1984 -3.63875,-0.072 -4.25728,0.2234 -4.53323,2.1664 L 504.8609,1697 H 467.93045 431 v -30.5052 -30.5053 l -5.30521,-4.1048 -5.30522,-4.1049 -13.44478,-0.067 -13.44479,-0.066 12.5,-0.6207 12.5,-0.6207 -12.14301,-0.2027 c -9.73989,-0.1626 -12.25693,-0.4996 -12.71862,-1.7027 -0.31658,-0.825 -1.74128,-1.5 -3.166,-1.5 -1.80618,0 -2.36305,0.3784 -1.83943,1.25 0.51028,0.8494 0.20868,0.8101 -0.94098,-0.1224 -1.83173,-1.4859 -2.31969,-2.6336 -0.69196,-1.6276 0.55,0.3399 1,0.1102 1,-0.5105 0,-0.6207 -1.0125,-0.9848 -2.25,-0.8091 -1.60252,0.2276 -2.22715,0.9671 -2.1706,2.5696 0.0752,2.1304 -0.29969,2.25 -7.05,2.25 -4.21176,0 -7.62049,-0.4911 -8.3294,-1.2 -1.65891,-1.6589 -1.65891,-24.9411 0,-26.6 0.69804,-0.698 4.04444,-1.2 8,-1.2 6.16835,0 6.8,0.1887 6.8,2.0314 0,2.7263 2.65259,3.593 4.86599,1.5899 0.98532,-0.8917 2.76856,-1.6213 3.96275,-1.6213 1.19419,0 2.17126,-0.45 2.17126,-1 0,-0.6138 4.8694,-1 12.60821,-1 h 12.6082 l 6.3918,-5.0861 6.39179,-5.0861 v -27.8321 c 0,-15.3077 0.24371,-28.4672 0.54158,-29.2434 0.34986,-0.9118 -2.09481,-3.4307 -6.90604,-7.1158 -4.09619,-3.1374 -7.7149,-6.4009 -8.04158,-7.2522 C 417.26728,1514.533 417,1507.744 417,1500.2977 v -13.5387 l -19.5,-24.9871 -19.5,-24.9872 v -53.3923 c 0,-44.9707 0.21972,-53.3924 1.39301,-53.3924 0.76616,0 1.66616,-0.7118 2,-1.5818 0.33385,-0.87 0.60699,-32.82 0.60699,-71 V 1188 h 8.52475 c 7.89498,0 8.59427,-0.1662 9.46581,-2.25 2.10563,-5.0344 3.39623,-5.75 10.36968,-5.75 H 417 v 115.4193 115.4192 l 37,47.7423 37,47.7423 V 1516.6616 1527 h 37.96502 37.96501 l 0.28499,10.25 0.28498,10.25 47.38564,0.2599 c 34.1569,0.1873 47.76652,-0.056 48.75,-0.8725 1.1089,-0.9203 1.36436,-8.2825 1.36436,-39.3197 v -38.1874 l 22.47477,-28.9402 22.47477,-28.9401 0.0252,-115.2938 0.0252,-115.2938 7.25,0.2938 c 5.6469,0.2288 7.25012,0.6255 7.25053,1.7938 3.7e-4,1.0596 1.07346,1.5 3.65482,1.5 2.00986,0 3.44556,0.3375 3.19045,0.75 -0.25511,0.4125 0.0393,0.75 0.6542,0.75 0.61492,0 0.83303,0.4611 0.48469,1.0248 -0.34834,0.5636 -0.2624,0.9603 0.19098,0.8816 0.45338,-0.079 3.63683,-0.09 7.07433,-0.025 L 746,1188 v 70.5936 c 0,69.7526 0.0238,70.5999 2,71.1167 1.96822,0.5147 2,1.364 2,53.448 v 52.925 l -20,25.5653 -20,25.5652 v 14.3997 c 0,16.2316 1.02857,13.8937 -9.86087,22.4138 l -5.36086,4.1945 0.74335,84.3891 0.74336,84.3891 H 659.13249 C 623.09825,1697 622,1696.9428 622,1695.0674 c 0,-4.7322 -8.29104,-3.7328 -16.45052,1.983 l -5.72667,4.0115 -38.3893,-0.097 c -27.03262,-0.068 -38.32188,-0.4183 -38.16141,-1.1826 z M 636.75925,1600.25 637.0185,1550 H 564.00925 491 v 50.5065 50.5066 l 72.75,-0.2566 72.75,-0.2565 z M 717,1293.5 c 1.82896,-2.2038 16.53873,-2.1444 17.38854,0.07 0.3614,0.9418 1.50471,1.4421 2.85699,1.25 l 2.25447,-0.32 0.26122,-40.75 0.26121,-40.75 h -2.51121 c -1.38117,0 -2.51122,0.45 -2.51122,1 0,0.5926 -3.66667,1 -9,1 -5.33333,0 -9,-0.4074 -9,-1 0,-0.55 -1.0125,-1.0001 -2.25,-1.0002 l -2.25,-10e-5 0.24349,40.7501 c 0.13392,22.4126 0.24642,40.8627 0.25,41.0002 0.0236,0.9059 2.98377,-0.018 4.00651,-1.25 z m -316.70841,301.7575 c 3.73537,-0.1929 9.58537,-0.1915 13,0 3.41462,0.1947 0.35841,0.3525 -6.79159,0.3508 -7.15,0 -9.94379,-0.1611 -6.20841,-0.354 z M 628.25,1471.2567 c 4.2625,-0.1875 11.2375,-0.1875 15.5,0 4.2625,0.1874 0.775,0.3408 -7.75,0.3408 -8.525,0 -12.0125,-0.1534 -7.75,-0.3408 z m 8.25,-6.2567 -16,-0.5774 15.69098,-0.2113 c 9.61694,-0.1295 15.93023,0.1758 16.30902,0.7887 0.33992,0.55 0.47898,0.9049 0.30902,0.7887 C 652.63906,1465.6725 645.3,1465.3175 636.5,1465 Z M 368.25,1328.256 360,1327.9191 V 1281.9596 1236 h -16.91667 c -11.76034,0 -17.03233,0.347 -17.29614,1.1384 -0.27537,0.8261 -1.4641,0.7575 -4.33271,-0.25 -2.17427,-0.7636 -39.72851,-18.0585 -83.45385,-38.4331 L 158.5,1161.4107 158.22693,1143.7053 157.95385,1126 l 2.27308,0.015 c 1.70482,0.012 1.92415,0.2363 0.87735,0.8991 -2.01866,1.2782 -0.56362,4.0856 2.11753,4.0856 1.25652,0 4.47591,-1.558 7.1542,-3.4622 4.6746,-3.3235 4.98602,-3.4019 7.77617,-1.9591 1.59861,0.8267 3.41287,1.1901 4.0317,0.8077 0.63089,-0.39 0.8499,-0.2501 0.49858,0.3184 -0.74656,1.2079 7.14411,4.5204 8.61001,3.6144 0.5591,-0.3455 0.71548,-0.1411 0.34752,0.4543 -0.36797,0.5954 0.23716,1.3701 1.34474,1.7217 1.64624,0.5225 1.82296,0.9956 0.96827,2.5926 -0.57502,1.0745 -0.77312,2.3942 -0.44023,2.9329 0.3329,0.5386 0.0988,0.9793 -0.52018,0.9793 -0.63718,0 -0.98816,1.1893 -0.80901,2.7414 0.38351,3.3228 3.58331,4.2979 5.50032,1.6762 0.72386,-0.9899 1.3161,-1.2639 1.3161,-0.6087 0,0.6551 0.93909,1.1911 2.08686,1.1911 1.40013,0 2.45926,-0.9866 3.2185,-2.998 0.90085,-2.3867 1.54594,-2.8645 3.16314,-2.3429 1.11732,0.3604 2.594,0.6595 3.2815,0.6647 0.6875,0.01 1.25,0.3162 1.25,0.691 0,0.8101 7.53452,4.3174 9.2828,4.3211 0.66946,0 2.33274,1.0514 3.69617,2.3333 1.36651,1.2849 1.90097,2.3308 1.19098,2.3308 -0.70839,0 -1.00987,0.45 -0.66995,1 0.33992,0.55 0.14148,1 -0.44098,1 -1.80147,0 -1.16555,3.8726 0.8095,4.9296 1.02768,0.55 2.15268,0.7159 2.5,0.3685 0.34731,-0.3473 0.63148,-0.2022 0.63148,0.3224 0,2.3211 4.23916,1.1249 5.82875,-1.6448 1.14922,-2.0024 2.37396,-2.8538 3.92122,-2.7257 1.23752,0.1024 2.25003,0.4697 2.25003,0.8162 0,0.8364 7.6644,4.2671 9.5328,4.2671 0.80696,0 1.4672,0.3204 1.4672,0.712 0,0.3917 1.38037,1.2838 3.06749,1.9827 1.68711,0.6988 2.65448,1.5409 2.1497,1.8713 -2.71737,1.7786 -3.81366,9.2054 -1.11241,7.5359 0.49237,-0.3043 0.89522,-0.05 0.89522,0.5648 0,0.6283 0.54756,0.7891 1.25,0.3671 0.75424,-0.4532 0.67006,-0.037 -0.21225,1.0492 -1.3012,1.6019 -1.25262,1.9534 0.44113,3.1919 2.77955,2.0325 4.41707,1.7143 5.70307,-1.1082 0.6265,-1.375 1.51293,-2.5 1.96987,-2.5 0.45693,0 6.15978,2.475 12.67301,5.5 6.51322,3.025 12.47963,5.5069 13.25869,5.5153 1.06863,0.012 1.11321,0.208 0.18154,0.7997 -0.67922,0.4314 -1.51391,2.1792 -1.85487,3.884 -0.51699,2.585 -0.26245,3.2131 1.53293,3.7829 2.65732,0.8434 4.6081,-0.6819 7.08737,-5.5417 1.03637,-2.0314 2.61529,-3.974 3.5087,-4.3169 2.94463,-1.1299 67.64078,-0.7235 66.93374,0.4205 -1.22632,1.9842 1.54018,3.8046 5.257,3.4592 1.99014,-0.185 3.08411,-0.01 2.43104,0.3975 -0.90264,0.5579 -1.12427,17.9239 -0.92418,72.4168 0.14477,39.4256 0.26321,71.5913 0.26321,71.4793 0,-0.112 -3.7125,-0.3553 -8.25,-0.5406 z M 751,1258.0085 c 0,-68.9085 0.0309,-70.0109 2,-71.2406 1.1,-0.6869 2,-1.6536 2,-2.1482 0,-3.2318 3.4054,-3.556 37.68261,-3.5879 33.31858,-0.031 34.19866,0.019 34.81739,1.9682 0.34913,1.1 1.12945,2 1.73405,2 0.60461,0 0.80628,0.293 0.44816,0.6511 -0.35812,0.3581 0.12938,1.2915 1.08333,2.0742 1.03344,0.8479 1.1282,1.1134 0.23446,0.6569 -1.29135,-0.6596 -1.30909,-0.5308 -0.12756,0.9258 0.75485,0.9306 2.20152,1.692 3.21482,1.692 2.33967,0 4.09363,-3.1013 2.85828,-5.0539 -0.5032,-0.7953 -0.92181,-1.9334 -0.93023,-2.529 -0.008,-0.5956 5.64086,-3.7139 12.55396,-6.9295 l 12.56927,-5.8467 2.27083,2.8479 c 2.45057,3.0733 5.13035,2.9809 6.26531,-0.2161 0.34613,-0.975 1.32042,-2.5765 2.1651,-3.5589 1.2735,-1.4812 1.33294,-2.3473 0.348,-5.071 -1.53783,-4.2528 -1.49748,-5.3095 0.20274,-5.3095 2.22339,0 7.60948,-2.487 7.60948,-3.5136 0,-0.5158 0.35742,-0.7168 0.79426,-0.4469 0.43684,0.27 2.75708,-0.3879 5.1561,-1.4619 4.17055,-1.8672 4.43422,-1.8752 6.01179,-0.1819 0.90747,0.9741 1.62472,2.1837 1.59389,2.6881 -0.14341,2.3468 7.88004,0.9159 9.59183,-1.7106 0.8088,-1.241 -1.02135,-6.7065 -2.2457,-6.7065 -0.49619,0 -0.90217,-0.375 -0.90217,-0.8333 0,-0.4584 0.62574,-0.8334 1.39052,-0.8334 2.22339,0 7.60948,-2.487 7.60948,-3.5136 0,-0.5158 0.45,-0.6596 1,-0.3197 0.55,0.3399 1,0.066 1,-0.6076 0,-0.6742 0.28216,-0.9436 0.62702,-0.5987 0.76824,0.7682 7.5561,-1.972 8.44412,-3.4088 0.35268,-0.5707 1.55173,0.5056 2.66455,2.3917 1.6426,2.784 2.83145,3.5585 6.31836,4.1161 6.26187,1.0013 7.80399,-0.791 5.54289,-6.442 -0.92435,-2.3102 -1.4698,-4.4112 -1.21211,-4.6689 0.25769,-0.2577 4.53967,-2.3883 9.51552,-4.7348 4.97585,-2.3465 8.72134,-4.6326 8.32332,-5.0803 -0.39802,-0.4478 1.07633,0.5896 3.27633,2.3053 8.22455,6.4137 12.5,7.3102 12.5,2.621 0,-1.3161 0.45,-2.393 1,-2.393 0.62974,0 0.99375,6.5721 0.98313,17.75 l -0.0169,17.75 -80.23312,37.3502 -80.23313,37.3502 -8.68852,-0.4053 c -4.77869,-0.2228 -8.53363,-0.1554 -8.34431,0.1499 0.18932,0.3052 -4.2944,0.555 -9.96381,0.555 -5.66942,0 -10.07703,-0.3753 -9.7947,-0.8341 0.28233,-0.4587 -0.54912,-0.6837 -1.84767,-0.5 L 767.5,1235.5 l -0.25999,46.25 -0.25998,46.25 H 758.99001 751 Z M 156.47358,1231 c 0,-38.775 0.1242,-54.6375 0.276,-35.25 0.1518,19.3875 0.1518,51.1125 0,70.5 -0.1518,19.3875 -0.276,3.525 -0.276,-35.25 z m 813.99965,1 c 0,-38.225 0.12435,-53.8625 0.27634,-34.75 0.15199,19.1125 0.15199,50.3875 0,69.5 -0.15199,19.1125 -0.27634,3.475 -0.27634,-34.75 z m -389.16501,61.2524 c 7.04451,-0.1722 18.29451,-0.1717 25,0 6.70548,0.1727 0.94178,0.3136 -12.80822,0.3129 -13.75,-6e-4 -19.2363,-0.1419 -12.19178,-0.314 z M 1020.3917,1129 c 0,-7.425 0.1574,-10.4625 0.3499,-6.75 0.1924,3.7125 0.1924,9.7875 0,13.5 -0.1925,3.7125 -0.3499,0.675 -0.3499,-6.75 z m -862.36129,-21.691 c 0.0217,-9.8705 0.32112,-13.3099 1.04969,-12.059 0.72912,1.2518 2.28616,1.75 5.46959,1.75 H 169 v 8.3305 8.3305 l -4.25,3.0018 c -2.3375,1.651 -4.8125,3.3289 -5.5,3.7285 -0.97532,0.567 -1.24332,-2.3077 -1.21959,-13.0823 z m 805.21959,9.9854 -5.25,-3.58 v -8.2646 -8.2647 l 5.50136,-0.3426 5.50137,-0.3425 -0.001,12.25 c -7.5e-4,6.7375 -0.11386,12.2217 -0.25136,12.1872 -0.1375,-0.035 -2.6125,-1.6739 -5.5,-3.6428 z M 158,1075.3199 v -17.6801 l 2.8392,3.1801 c 1.84393,2.0653 3.77193,3.1801 5.5,3.1801 H 169 v 11 c 0,10.177 -0.14352,11 -1.91821,11 -2.61266,0 -5.08179,1.0237 -5.08179,2.107 0,0.4911 -0.9,1.793 -2,2.893 l -2,2 z m 807.84023,13.7167 c -1.67826,-1.916 -3.61562,-3.0366 -5.25,-3.0366 H 958 v -11 -11 h 2.81966 c 1.82016,0 3.68117,-0.9748 5.25,-2.75 l 2.43034,-2.75 0.28965,8.2009 c 0.15931,4.5105 0.15931,12.0645 0,16.7866 L 968.5,1092.0733 Z M 106.43772,1037.5 c -5.4e-4,-14.85 0.13863,-21.0644 0.30926,-13.8098 0.17063,7.2546 0.17107,19.4046 9.7e-4,27 -0.17009,7.5954 -0.3097,1.6598 -0.31023,-13.1902 z m 864.00453,-4.5 c 0,-16.225 0.13752,-22.8625 0.30561,-14.75 0.16808,8.1125 0.16808,21.3875 0,29.5 -0.16809,8.1125 -0.30561,1.475 -0.30561,-14.75 z M 519,1057.4343 c 0,-4.9642 -1.56048,-6.3652 -6.7597,-6.0691 -4.68261,0.2667 -4.74408,0.3148 -5.05067,3.9524 L 506.87927,1059 H 495.93963 485 v -2.8 c 0,-3.7499 -1.67317,-5.2 -6,-5.2 -4.32683,0 -6,1.4501 -6,5.2 v 2.8 h -11 -11 v -2.8 c 0,-3.7499 -1.67317,-5.2 -6,-5.2 -4.32683,0 -6,1.4501 -6,5.2 v 2.8 h -11 -11 v -2.8 c 0,-3.7499 -1.67317,-5.2 -6,-5.2 -4.32683,0 -6,1.4501 -6,5.2 v 2.8 h -11 -11 v -3 c 0,-1.65 -0.47656,-3 -1.05902,-3 -0.58246,0 -0.7809,-0.45 -0.44098,-1 0.33992,-0.55 -0.0612,-1 -0.89129,-1 -0.83013,0 -1.90986,-0.7157 -2.3994,-1.5905 -0.53395,-0.9541 -1.85418,-1.4542 -3.29969,-1.25 -1.98775,0.2809 -2.46396,0.997 -2.71999,4.0905 l -0.31036,3.75 H 360.43963 349 v -2.8089 c 0,-3.1675 -1.8257,-6.1576 -4.0274,-6.5959 -0.80993,-0.1612 -2.26111,-0.6346 -3.22484,-1.052 -2.48728,-1.0772 -6.74776,0.2076 -6.74776,2.0349 0,0.8469 -0.45,1.2618 -1,0.9219 -0.55,-0.3399 -1,-0.088 -1,0.5597 0,0.6477 -1.57765,-0.026 -3.50588,-1.4964 -1.92824,-1.4707 -4.02277,-2.3546 -4.65451,-1.9642 -0.67783,0.419 -0.87718,0.2707 -0.48635,-0.3617 0.37507,-0.6068 -3.27679,-4.1788 -8.42097,-8.2366 -6.8223,-5.3816 -8.92256,-7.5802 -8.43773,-8.8329 2.1532,-5.5635 1.22852,-10.4989 -1.87796,-10.0234 -0.61413,0.094 -1.96527,-0.1967 -3.00252,-0.6459 -2.59948,-1.126 -4.76199,0.4845 -6.13449,4.5683 l -1.15378,3.4331 -10.13515,0.2847 -10.13515,0.2847 -0.61128,-2.7847 c -0.3362,-1.5316 -0.78457,-3.3472 -0.99637,-4.0347 -0.53255,-1.7286 -5.44786,-1.6083 -5.44786,0.1334 0,0.7608 -0.91292,1.6221 -2.0287,1.9139 -1.11579,0.2917 -1.9625,0.9067 -1.88158,1.3666 0.0809,0.4598 0.0938,2.1235 0.0287,3.6969 l -0.11842,2.8608 -1.84424,-2.2776 c -1.21772,-1.5038 -2.42827,-2.0534 -3.56338,-1.6178 -0.94553,0.3628 -1.45828,1.0818 -1.13945,1.5976 0.31883,0.5159 0.0528,1.2636 -0.59113,1.6616 -0.73122,0.4519 -0.90292,0.2901 -0.45729,-0.4309 0.39244,-0.635 0.26352,-1.1545 -0.28648,-1.1545 -0.55,0 -1.27811,0.45 -1.61803,1 -0.33992,0.55 -2.03706,1 -3.77143,1 h -3.15339 l 4.73672,-4.809 c 2.60519,-2.645 4.38828,-5.1575 3.96241,-5.5834 -0.42587,-0.4258 -0.32431,-0.6835 0.22569,-0.5725 2.41661,0.4875 3.21101,-0.3302 4.90954,-5.0536 1.44371,-4.0148 1.55873,-5.3148 0.5751,-6.5 -0.67624,-0.8148 -1.68238,-1.4815 -2.23585,-1.4815 -0.55348,0 -4.90179,3.8119 -9.66291,8.4709 -7.81582,7.6482 -8.92352,8.3996 -11.40497,7.7359 l -2.74838,-0.735 3.99232,-3.8984 c 2.19577,-2.1441 3.77861,-4.2442 3.51742,-4.6668 -0.26119,-0.4226 0.052,-1.094 0.69593,-1.492 0.73122,-0.4519 0.90292,-0.2901 0.45729,0.4309 -0.39244,0.635 -0.3382,1.1545 0.12052,1.1545 1.78467,0 15.28396,-14.70366 16.75515,-18.25 l 1.55568,-3.75 25.23658,0.0366 25.23658,0.0366 19,14.9368 19,14.9368 212.09125,0.027 212.09125,0.027 16.90875,-13.1428 c 9.29981,-7.22855 17.71378,-13.97855 18.69771,-15.00002 C 812.94118,990.14195 815.04683,990 838.83807,990 h 25.76015 l 1.31424,3.75 c 0.72283,2.0625 2.92956,5.4375 4.90384,7.5 3.46819,3.6232 6.09127,5.0642 4.55076,2.5 -0.5165,-0.8597 -0.22613,-0.8243 0.92997,0.1133 0.92452,0.7498 1.48292,1.6837 1.24088,2.0754 -0.24204,0.3916 2.68948,3.8176 6.51449,7.6133 6.46211,6.4126 6.80062,6.9582 4.78054,7.7055 -1.70031,0.629 -2.85543,0.1438 -5.30109,-2.2266 -3.12382,-3.0278 -5.28447,-4.0577 -3.93636,-1.8764 0.44563,0.721 0.27393,0.8828 -0.45729,0.4309 -0.64395,-0.398 -0.95927,-1.0659 -0.7007,-1.4843 0.25857,-0.4183 -1.90296,-3.1043 -4.80341,-5.9687 -3.69917,-3.6532 -5.77515,-5.0155 -6.95381,-4.5632 -2.05719,0.7894 -2.15328,4.0709 -0.2506,8.5587 1.72937,4.0789 11.96189,14.3662 13.40355,13.4752 0.56572,-0.3497 1.26004,-0.2612 1.54295,0.1966 0.28291,0.4577 -1.40145,0.9314 -3.74301,1.0526 -3.20086,0.1657 -4.71474,-0.2849 -6.10027,-1.8159 -2.42883,-2.6839 -5.37602,-2.587 -6.50174,0.2136 -0.83138,2.0684 -0.9095,1.9975 -0.96777,-0.8776 -0.0826,-4.0741 -2.03364,-5.5747 -6.7436,-5.1869 -3.75936,0.3095 -3.8146,0.3738 -3.49159,4.0645 l 0.32821,3.75 -11.32821,-7e-4 -11.3282,-7e-4 -0.14785,-2.5577 c -0.35852,-6.2023 -7.57933,-8.5785 -10.08762,-3.3196 -0.96625,2.0258 -0.98777,3.3742 -0.0947,5.936 1.05861,3.0367 0.95316,3.4459 -1.25714,4.8787 -1.32697,0.8602 -3.3979,2.5288 -4.60206,3.7079 -1.20417,1.1792 -2.37991,1.9535 -2.61276,1.7206 -0.23284,-0.2328 -1.83512,0.8954 -3.5606,2.5073 -1.72549,1.6118 -3.13725,2.7285 -3.13725,2.4814 0,-1.0617 -9.00345,5.8582 -9.03596,6.9448 -0.0198,0.6611 -1.08779,-0.084 -2.37335,-1.6556 -1.76348,-2.1559 -2.85956,-2.6918 -4.46404,-2.1826 -1.16966,0.3712 -2.12665,1.1697 -2.12665,1.7743 0,0.6046 -0.25535,0.8439 -0.56744,0.5318 -0.81543,-0.8154 -7.8037,1.2512 -8.61698,2.5483 -0.37643,0.6004 -0.43268,2.3503 -0.125,3.8887 L 779.25,1059 H 767.625 756 v -3 c 0,-1.65 -0.47656,-3 -1.05902,-3 -0.58246,0 -0.76458,-0.4764 -0.40471,-1.0587 0.43502,-0.7039 -0.96954,-0.9552 -4.19099,-0.75 -4.81359,0.3067 -4.84731,0.3332 -5.15565,4.0587 l -0.31036,3.75 H 733.5 722.12073 l -0.31036,-3.75 -0.31037,-3.75 h -5 -5 l -0.31037,3.75 -0.31036,3.75 H 699.5 688.12073 l -0.31036,-3.75 -0.31037,-3.75 h -5 c -3.26667,0 -5.04333,0.4333 -5.125,1.25 -0.0688,0.6875 -0.18125,2.3485 -0.25,3.6912 -0.12434,2.4283 -0.18874,2.4428 -12.18842,2.75 l -12.06343,0.3088 0.31343,-4 0.31342,-4 h -5 -5 l 0.31342,4 0.31343,4 -12.06343,-0.3088 c -11.99968,-0.3072 -12.06408,-0.3217 -12.18842,-2.75 -0.0688,-1.3427 -0.18125,-2.969 -0.25,-3.614 -0.0759,-0.7124 -2.08808,-1.2031 -5.125,-1.25 l -5,-0.077 -0.3075,4.25 -0.3075,4.25 H 597.4425 586 l -0.125,-3 c -0.0688,-1.65 -0.18125,-3.5625 -0.25,-4.25 -0.0817,-0.8167 -1.85833,-1.25 -5.125,-1.25 h -5 l -0.3075,4.25 -0.3075,4.25 H 563.5 552.115 l -0.3075,-4.25 -0.3075,-4.25 h -5 -5 l -0.3075,4.25 -0.3075,4.25 H 529.9425 519 Z M 158.01531,1040.809 c -0.0139,-14.2162 0.69229,-18.7092 2.48469,-15.809 0.35101,0.5679 0.98256,0.8198 1.40345,0.5597 0.42088,-0.2601 2.68189,1.4799 5.02444,3.8668 2.63205,2.6819 3.84143,4.598 3.16566,5.0157 -0.65777,0.4065 -1.09355,4.1936 -1.09355,9.5033 v 8.8274 l -4.75,0.7116 c -2.6125,0.3914 -5.08061,1.23 -5.48469,1.8635 -0.40408,0.6336 -0.74158,-5.9089 -0.75,-14.539 z m 8.39029,-10.9057 c -2.0766,-2.1266 -3.98848,-3.6538 -4.24861,-3.3936 -0.26014,0.2601 -1.18938,-0.062 -2.06498,-0.7158 -0.87561,-0.6539 0.62117,1.1298 3.32616,3.9637 2.70499,2.8339 5.33327,4.896 5.84062,4.5825 0.50736,-0.3136 -0.77658,-2.3101 -2.85319,-4.4368 z M 963,1053.75 c 0,-0.4125 -1.125,-0.75 -2.5,-0.75 -2.46548,0 -2.5,-0.1144 -2.5,-8.2842 v -8.2841 l 5.5,-5.4317 5.5,-5.4317 v 14.4659 14.4658 h -3 c -1.65,0 -3,-0.3375 -3,-0.75 z m -743.5,-21.7027 c 1.65,-0.4114 4.6875,-1.7597 6.75,-2.9964 l 3.75,-2.2485 v 3.0988 3.0988 l -6.75,-0.1024 c -5.13475,-0.078 -6.03211,-0.2813 -3.75,-0.8503 z m 678.29039,-2.0725 c 0.32297,-2.2005 0.76848,-2.7559 1.63437,-2.0372 0.6547,0.5433 3.18946,1.8948 5.6328,3.0032 l 4.44244,2.0153 -6.07681,0.022 -6.0768,0.022 z m -691.5348,-3.5501 c 0.4099,-3.6365 0.18011,-4.6982 -1.11994,-5.1746 -0.89961,-0.3296 -1.99551,-1.1957 -2.43534,-1.9247 -1.11105,-1.8414 -5.35686,-1.6628 -6.09332,0.2564 -0.33385,0.87 -0.60699,3.345 -0.60699,5.5 V 1029 h -9.2813 -9.28131 L 171.5,1023 c -3.26557,-3.3 -6.63897,-6 -7.49646,-6 -0.85748,0 -2.44657,1.0125 -3.5313,2.25 l -1.97224,2.25 -0.28114,-12.9189 c -0.17243,-7.9235 0.11758,-13.31754 0.75,-13.94996 C 159.53599,994.06401 160,992.79 160,991.8 c 0,-1.70737 2.37836,-1.8 46.21584,-1.8 h 46.21584 l -5.18479,5.25 c -2.85163,2.8875 -5.16126,5.625 -5.1325,6.0833 0.0288,0.4584 -0.28237,1.1334 -0.69138,1.5 -0.40901,0.3667 -0.41996,0.1042 -0.0243,-0.5833 0.39564,-0.6875 0.34535,-1.25 -0.11175,-1.25 -1.50325,0 -17.36693,16.5867 -16.59856,17.355 0.41286,0.4129 0.052,0.4826 -0.80193,0.1549 -2.33474,-0.8959 -9.9147,7.6661 -9.20144,10.3936 0.4998,1.9112 0.12877,2.0965 -4.19843,2.0965 h -4.74668 z m 706.47724,2.489 c 0.42164,-1.6124 -1.12743,-3.7706 -6.81859,-9.5 -6.61023,-6.6547 -10.26072,-9.4014 -8.31875,-6.2592 0.44563,0.721 0.27393,0.8828 -0.45729,0.4309 -0.64395,-0.398 -0.9615,-1.0623 -0.70566,-1.4763 0.25585,-0.4139 -3.51436,-4.7137 -8.37823,-9.555 -6.09941,-6.07119 -9.26399,-8.55905 -10.19886,-8.01796 -0.7455,0.43148 -1.01697,0.41138 -0.60327,-0.0447 0.4137,-0.45605 0.006,-1.6532 -0.90499,-2.66033 C 874.74325,990.05882 876.16093,990 920.48477,990 c 42.4413,0 45.89202,0.12815 47.12318,1.75 0.94901,1.25016 1.33753,5.61994 1.36025,15.2992 l 0.0318,13.5492 -3.46395,-0.4044 c -3.0777,-0.3593 -4.1192,0.2206 -9.34041,5.2008 L 950.31917,1031 h -9.60479 -9.6048 l -0.30479,-4.75 c -0.30293,-4.721 -0.32808,-4.7519 -4.12458,-5.0645 -4.94033,-0.4068 -6.68021,1.1395 -6.68021,5.9369 0,3.8417 -0.0362,3.8776 -3.90638,3.8776 -3.46794,0 -3.84514,-0.2342 -3.36079,-2.0863 z"
         id="path3" />
      <path
         style="fill:#333333;fill-opacity:1"
         d="m 161.37407,2916.5 c 0.002,-6.05 0.16696,-8.3961 0.36601,-5.2135 0.19905,3.1826 0.1972,8.1326 -0.004,11 -0.20131,2.8674 -0.36417,0.2635 -0.36191,-5.7865 z M 133.42179,2902 c 0,-11.275 0.14584,-15.8875 0.32409,-10.25 0.17825,5.6375 0.17825,14.8625 0,20.5 -0.17825,5.6375 -0.32409,1.025 -0.32409,-10.25 z m 834.9984,-4.5 c -8.9e-4,-11 0.14522,-15.6364 0.32467,-10.3032 0.17945,5.3332 0.18018,14.3332 0.002,20 -0.17857,5.6668 -0.3254,1.3032 -0.32628,-9.6968 z m 28.0016,-23.5 c 0,-11.275 0.14584,-15.8875 0.32409,-10.25 0.17825,5.6375 0.17825,14.8625 0,20.5 -0.17825,5.6375 -0.32409,1.025 -0.32409,-10.25 z m -836,-21 c 0,-11.275 0.14584,-15.8875 0.32409,-10.25 0.17825,5.6375 0.17825,14.8625 0,20.5 -0.17825,5.6375 -0.32409,1.025 -0.32409,-10.25 z m -28,-24 c 0,-11.275 0.14584,-15.8875 0.32409,-10.25 0.17825,5.6375 0.17825,14.8625 0,20.5 -0.17825,5.6375 -0.32409,1.025 -0.32409,-10.25 z m 837,-4 c 0,-11.275 0.14584,-15.8875 0.32409,-10.25 0.17825,5.6375 0.17825,14.8625 0,20.5 -0.17825,5.6375 -0.32409,1.025 -0.32409,-10.25 z m 27.9984,-23.5 c -8.9e-4,-11 0.14522,-15.6364 0.32467,-10.3032 0.17945,5.3332 0.18018,14.3332 0.002,20 -0.17857,5.6668 -0.3254,1.3032 -0.32628,-9.6968 z M 159.42179,2780 c 0,-11.275 0.14584,-15.8875 0.32409,-10.25 0.17825,5.6375 0.17825,14.8625 0,20.5 -0.17825,5.6375 -0.32409,1.025 -0.32409,-10.25 z m -28.20067,-18.55 c -0.15078,-10.2628 -0.61646,-15.5112 -1.46398,-16.5 -0.80589,-0.9402 -0.62032,-0.9003 0.5278,0.1135 1.57337,1.3893 1.73649,3.2278 1.46399,16.5 L 131.44225,2776.5 Z M 970.24673,2621.276 970,2470.0521 l -15.25,-0.3041 -15.25,-0.3041 15.28138,-0.222 c 11.4724,-0.1666 15.39991,0.09 15.7569,1.0281 0.26153,0.6875 0.35843,68.975 0.21534,151.75 l -0.26016,150.5 z M 22.666667,2469.3333 c -0.926071,-0.926 -0.843008,-461.1063 0.08333,-461.6788 0.4125,-0.255 0.635592,103.4395 0.495759,230.4322 l -0.254241,230.8958 53.254241,0.2677 53.254244,0.2677 -53.083336,0.2411 c -29.195834,0.1325 -53.383334,-0.059 -53.75,-0.4257 z M 164.25,2469.2567 c 4.2625,-0.1875 11.2375,-0.1875 15.5,0 4.2625,0.1874 0.775,0.3408 -7.75,0.3408 -8.525,0 -12.0125,-0.1534 -7.75,-0.3408 z m 886.5042,0 53.2543,-0.2721 -0.2543,-230.9413 c -0.1398,-127.0177 0.084,-230.6028 0.4979,-230.1891 0.4137,0.4137 0.6387,104.4537 0.5,231.2 L 1104.5,2469.5 l -53.5,0.013 -53.5,0.013 z M 939,2462.5151 v -5.4849 l -29.25,-0.2808 -29.25,-0.2808 29.75,-0.2343 L 940,2456 v 6 c 0,3.3 -0.225,6 -0.5,6 -0.275,0 -0.5,-2.4682 -0.5,-5.4849 z m -737.75,-6.263 c 8.1125,-0.168 21.3875,-0.168 29.5,0 8.1125,0.1681 1.475,0.3057 -14.75,0.3057 -16.225,0 -22.8625,-0.1376 -14.75,-0.3057 z M 246.24769,2241.7649 246,2027.0298 l -29.75,-0.2804 -29.75,-0.2803 29.78138,-0.2346 c 23.07997,-0.1817 29.88827,0.047 30.25639,1.0155 0.26124,0.6875 0.35858,97.55 0.2163,215.25 l -0.25869,214 z M 879.49657,2241 l 0.003,-214.5 29.71128,-0.2648 29.71129,-0.2648 0.33308,-8.7352 0.33308,-8.7352 0.20563,9.25 L 940,2027 h -29.99771 -29.99771 l -0.25572,214.25 -0.25572,214.25 z m 90.99785,-587 c 0,-194.425 0.11501,-273.9625 0.25556,-176.75 0.14056,97.2125 0.14056,256.2875 0,353.5 -0.14055,97.2125 -0.25556,17.675 -0.25556,-176.75 z M 554,1728.8597 c -5.57441,-2.1856 -14.25506,-9.9865 -21.83403,-19.6213 L 528.83194,1705 h 34.08403 c 18.74622,0 34.08403,0.2876 34.08403,0.6391 0,0.9197 -10.71609,13.3453 -14.39157,16.6874 -8.50715,7.7356 -19.27169,10.1939 -28.60843,6.5332 z m 19.79171,-2.1115 c 4.62833,-2.1651 10.16047,-7.197 17.05141,-15.5093 L 595.18624,1706 H 563.59312 C 546.2169,1706 532,1706.2134 532,1706.4743 c 0,1.1066 12.31795,14.6664 15.59123,17.1631 8.28504,6.3193 17.10381,7.3664 26.20048,3.1108 z M 520.5,1698.423 c -5.31016,-3.6818 -12.24121,-6.1129 -13.53014,-4.7458 -0.42665,0.4525 -0.99221,1.7228 -1.25679,2.8228 -0.35985,1.496 -0.5103,1.2991 -0.59707,-0.7814 -0.22424,-5.3767 6.52163,-4.8117 15.69599,1.3147 l 5.9402,3.9667 h 36.5795 36.5795 l 5.68248,-3.9806 c 5.91189,-4.1413 10.75361,-5.6787 14.31939,-4.547 2.09769,0.6658 2.87156,3.9246 1.1802,4.97 -0.49871,0.3082 -0.68745,-0.2782 -0.41943,-1.3031 1.15682,-4.4237 -7.13586,-3.1503 -14.6528,2.2501 L 600.99537,1702 563.24769,1701.945 525.5,1701.89 Z m -136.44978,-72.8292 c -0.70736,-1.3217 -0.98148,-2.896 -0.60915,-3.4984 0.82404,-1.3334 4.55893,-1.4659 4.55893,-0.1618 0,0.5134 1.2375,1.0759 2.75,1.25 1.96901,0.2265 2.84075,0.9554 3.06955,2.5664 0.17575,1.2375 -0.14762,2.25 -0.71861,2.25 -0.571,0 -0.77915,-0.675 -0.46257,-1.5 0.37867,-0.9868 -0.0328,-1.5 -1.20264,-1.5 -0.97804,0 -2.57283,-0.7191 -3.54398,-1.598 -2.37232,-2.1469 -4.26721,-0.9721 -2.81343,1.7443 0.59604,1.1138 0.89794,2.2108 0.67087,2.4378 -0.22706,0.2271 -0.9916,-0.6685 -1.69897,-1.9903 z m -0.66069,-25.0211 c -0.30123,-0.785 -0.39961,-2.4725 -0.21861,-3.75 0.2792,-1.9706 0.93536,-2.3357 4.32908,-2.4082 l 4,-0.086 -3.75,0.393 c -3.17452,0.3327 -3.75,0.7588 -3.75,2.7765 0,3.0038 1.39972,3.9297 3.00914,1.9905 0.67966,-0.819 2.27265,-1.489 3.53998,-1.489 1.35362,0 2.4929,-0.722 2.76155,-1.75 0.34415,-1.3169 0.48604,-1.1932 0.57333,0.5 0.0894,1.735 -0.42824,2.25 -2.26156,2.25 -1.30765,0 -2.93775,0.675 -3.62244,1.5 -1.57395,1.8965 -3.89656,1.9331 -4.61047,0.073 z m 184.03924,-53.8977 c -0.27965,-0.7288 -0.35892,-5.5663 -0.17615,-10.75 l 0.3323,-9.425 0.20754,10.2597 0.20754,10.2597 47.75,-0.2597 47.75,-0.2597 0.51787,-38.5 0.51788,-38.5 0.23212,38.05 c 0.17403,28.5255 -0.0683,38.3504 -0.96787,39.25 -1.84192,1.8419 -95.66314,1.7202 -96.37123,-0.125 z M 377.2,1328.8 c -0.91089,-0.9109 -1.2,-18.3778 -1.2,-72.5 0,-39.215 0.3375,-71.3001 0.75,-71.3001 0.4125,-10e-5 0.75,32.2498 0.75,71.6665 0,56.4443 0.26551,71.7552 1.25,72.0834 0.99213,0.3309 1.25,-14.1442 1.25,-70.1665 0,-46.3889 0.34278,-70.5833 1,-70.5833 1.09072,0 1.47584,137.5964 0.39301,140.4182 -0.72178,1.881 -2.52928,2.0455 -4.19301,0.3818 z m 369.50124,0.5679 c -0.38568,-0.3857 -0.5933,-32.4637 -0.46138,-71.2846 l 0.23986,-70.5833 0.51014,70.4168 c 0.39754,54.8736 0.78457,70.5083 1.75341,70.8311 0.98153,0.3271 1.29945,-14.445 1.51013,-70.1669 l 0.26687,-70.5811 -0.0101,70.7364 c -0.009,63.0665 -0.17806,70.7688 -1.55889,71.0346 -0.85182,0.1641 -1.86432,-0.017 -2.25,-0.403 z m -34.1436,-35.2746 c -0.30822,-0.4987 0.33475,-0.6727 1.42883,-0.3866 1.2623,0.3301 2.21548,-0.069 2.60837,-1.0932 0.87823,-2.2887 17.89262,-2.3915 18.76679,-0.1135 0.31658,0.825 1.26472,1.5 2.10699,1.5 1.34961,0 1.53138,-4.7397 1.53138,-39.9304 v -39.9305 l -2.25,-0.4334 c -1.92141,-0.37 -1.84676,-0.4532 0.51122,-0.5695 l 2.76121,-0.1362 -0.26121,40.75 -0.26122,40.75 -2.25447,0.3201 c -1.35228,0.1921 -2.49559,-0.3082 -2.85699,-1.25 -0.84981,-2.2145 -15.55958,-2.2739 -17.38854,-0.07 -1.39264,1.678 -3.59053,1.9716 -4.44236,0.5933 z M 291.08059,1190.085 c -1.15473,-0.7423 -1.20413,-1.5345 -0.26492,-4.2487 l 1.15447,-3.3363 -0.44601,3.1797 c -0.84398,6.0169 4.01576,4.8847 6.94847,-1.6189 1.00713,-2.2335 2.43781,-4.0608 3.17927,-4.0608 1.04807,0 0.99971,0.3895 -0.21727,1.75 -0.86097,0.9625 -2.5643,3.3219 -3.78517,5.2431 -2.34925,3.6968 -4.242,4.5877 -6.56884,3.0919 z M 835,1182.7383 c 0,-0.8213 5.4306,-3.956 13.07734,-7.5485 l 13.07733,-6.1439 2.76161,3.0236 c 2.43495,2.6659 2.91342,2.8406 4.04511,1.477 0.70592,-0.8506 0.8909,-1.5565 0.41105,-1.5687 -0.47984,-0.012 0.2425,-0.879 1.6052,-1.926 2.34402,-1.8011 2.40648,-2.1006 1.1582,-5.5527 -0.72569,-2.0068 -1.12589,-3.8424 -0.88934,-4.0789 0.23656,-0.2366 1.02428,1.3703 1.75051,3.5707 1.13376,3.4354 1.10743,4.2488 -0.18631,5.755 -0.82868,0.9648 -1.78989,2.5518 -2.13602,3.5268 -1.1339,3.194 -3.8145,3.2897 -6.25941,0.2235 l -2.26492,-2.8405 -11.74644,5.4222 c -6.46054,2.9821 -12.34437,6.0167 -13.07517,6.7435 -1.10152,1.0955 -1.32874,1.0813 -1.32874,-0.083 z m -556.24909,-6.2517 C 272.28892,1173.469 266.62365,1171 266.16143,1171 c -0.46222,0 -1.35298,1.125 -1.97948,2.5 -1.7095,3.752 -6.56195,2.7261 -6.79416,-1.4363 -0.0617,-1.1063 0.27578,-1.7716 0.75,-1.4785 0.47422,0.293 0.86221,1.1331 0.86221,1.8668 0,2.6267 2.76763,2.3536 4.86251,-0.4799 l 2.11935,-2.8666 7.75907,3.5792 c 16.7384,7.7213 19.70418,9.2247 18.25907,9.256 -0.825,0.018 -6.78709,-2.4365 -13.24909,-5.4541 z M 1003.25,1163.261 c 3.1625,-0.1984 8.3375,-0.1984 11.5,0 3.1625,0.1985 0.575,0.3608 -5.75,0.3608 -6.325,0 -8.9125,-0.1623 -5.75,-0.3608 z M 969.21608,1144.25 C 969.08163,1132.8941 968.62224,1126 968,1126 c -0.55,0 -1,1.125 -1,2.5 0,4.0477 -3.57508,3.6893 -10.1439,-1.017 l -4.6439,-3.3272 -9.3561,4.4359 c -8.01119,3.7983 -9.31973,4.7574 -9.10307,6.6721 0.20172,1.7828 0.0528,1.9321 -0.73469,0.7362 -0.54324,-0.825 -0.99461,-2.0047 -1.00303,-2.6216 -0.008,-0.6169 4.65902,-3.2081 10.37209,-5.7582 l 10.3874,-4.6365 5.21309,3.5081 c 5.38565,3.6243 8.21956,4.4306 7.93746,2.2582 -0.34567,-2.662 0.13538,-3.75 1.65798,-3.75 2.7677,0 0.95609,-2.3787 -4.90116,-6.4355 L 957,1114.629 l 0.20564,-9.0645 0.20563,-9.0645 0.33159,8.6331 0.3316,8.6332 5.46277,3.6271 5.46277,3.627 v -12.337 -12.337 l -3.25,0.2852 c -1.7875,0.1569 -2.35,0.035 -1.25,-0.2703 3.24408,-0.901 4.19734,-2.3479 2.42353,-3.6786 -0.86705,-0.6505 -1.86352,-2.295 -2.21436,-3.6544 -0.61334,-2.3766 -0.5444,-2.3573 1.7905,0.5 l 2.4284,2.9717 0.036,-16.809 c 0.0371,-17.3264 -0.25563,-18.3745 -3.77074,-13.5022 -0.7518,1.0421 -2.55661,1.8112 -4.25,1.8112 H 958 v 10.9336 10.9336 l 2.75,0.4165 c 2.55956,0.3878 2.52493,0.427 -0.5,0.5665 L 957,1087 v -12 -12 h 3.53138 c 2.45153,0 3.72807,-0.5351 4.17459,-1.75 0.35377,-0.9625 1.23964,-2.1099 1.96862,-2.5497 1.96837,-1.1876 1.61083,-2.6393 -0.92459,-3.7539 -2.10726,-0.9264 -2.07554,-0.9649 0.5,-0.6065 l 2.75,0.3828 v -14.5772 -14.5772 l -5.5,5.4317 -5.5,5.4317 v 8.2177 c 0,8.1972 0.007,8.2188 2.75,8.6343 2.55956,0.3878 2.52493,0.427 -0.5,0.5665 L 957,1054 v -9.2813 -9.2813 l 6,-5.9374 c 6.19584,-6.1312 7.0279,-7.5 4.55902,-7.5 -0.79254,0 -1.76291,-0.5209 -2.15637,-1.1575 -0.49016,-0.7931 -0.0365,-0.98 1.44098,-0.5936 2.13104,0.5572 2.15637,0.4028 2.15637,-13.1425 0,-8.66224 -0.40615,-14.11255 -1.10362,-14.81002 -0.79095,-0.79095 -0.79957,-1.62674 -0.0304,-2.95 1.01641,-1.74865 1.07482,-1.73788 1.10362,0.20362 0.0167,1.1275 0.36791,2.4775 0.78041,3 0.4125,0.5225 0.50974,38.975 0.21608,85.45 -0.29365,46.475 -0.63115,76.2875 -0.75,66.25 z M 157.2254,1077.809 c -0.14802,-54.9598 0.1179,-83.90314 0.7746,-84.309 0.55,-0.33992 1.08324,-3.17898 1.18498,-6.30902 l 0.18498,-5.69098 0.37439,5.45482 c 0.2059,3.00015 -0.11756,6.37515 -0.71882,7.5 -0.67206,1.2573 -0.98386,6.86068 -0.80936,14.54518 l 0.28383,12.5 1.97224,-2.25 c 1.08473,-1.2375 2.67382,-2.25 3.5313,-2.25 0.85749,0 4.23089,2.7 7.49646,6 l 5.93739,6 H 186.7187 196 v -3.9182 c 0,-2.155 0.27314,-4.63 0.60699,-5.5 0.75096,-1.957 5.25975,-2.0927 5.99357,-0.1803 0.29578,0.7708 1.40666,1.6286 2.46861,1.9063 1.06196,0.2777 1.8953,1.1096 1.85188,1.8486 -0.0594,1.0104 -0.20401,1.0337 -0.58333,0.094 -0.27741,-0.6875 -1.59189,-1.25 -2.92105,-1.25 -1.34236,0 -2.30553,-0.5293 -2.16667,-1.1906 0.1375,-0.6548 -0.47698,-1.3512 -1.36552,-1.5474 -1.64991,-0.3644 -2.88448,3.215 -2.88448,8.363 0,2.3451 -0.12861,2.375 -10.22309,2.375 h -10.2231 l -6.14303,-6.0884 -6.14302,-6.0884 -2.63388,2.6338 c -1.44863,1.4487 -2.63388,2.9663 -2.63388,3.3726 0,0.4063 2.475,3.183 5.5,6.1704 l 5.5,5.4317 v 9.1553 9.1553 l -5,0.6633 c -4.07916,0.5411 -5,1.0253 -5,2.6288 0,1.0811 0.41968,1.9656 0.93261,1.9656 0.51294,0 1.21826,0.9 1.56739,2 0.47236,1.4883 1.51303,2 4.06739,2 H 170 v 12 12 h -2.8 c -1.54,0 -3.34,0.54 -4,1.2 -0.80282,0.8028 -1.2,0.8382 -1.2,0.107 0,-1.2605 2.30513,-2.307 5.08179,-2.307 1.77469,0 1.91821,-0.823 1.91821,-11 v -11 h -2.6608 c -1.72807,0 -3.65607,-1.1148 -5.5,-3.1801 L 158,1057.6398 v 17.8712 c 0,15.6727 0.17447,17.6327 1.41824,15.9317 0.78003,-1.0668 1.7795,-1.5783 2.22104,-1.1368 0.44154,0.4416 0.18776,1.183 -0.56396,1.6475 -0.77423,0.4786 -1.08988,1.5663 -0.7281,2.5091 0.35126,0.9153 1.06074,1.4034 1.57662,1.0846 0.51588,-0.3189 1.22062,-0.1224 1.56608,0.4366 0.34586,0.5596 -0.27481,1.0163 -1.38121,1.0163 -1.10513,0 -2.46801,-0.7875 -3.02861,-1.75 -0.72863,-1.251 -1.02795,2.1809 -1.04969,12.0352 -0.034,15.3969 -0.48103,14.8034 6.96959,9.2518 3.43053,-2.5561 3.51114,-2.7808 4.06103,-11.3224 l 0.56103,-8.7146 0.18897,9.1282 0.18897,9.1282 -5.5,3.788 c -5.4143,3.729 -6.7103,5.8006 -4.25,6.7933 0.75553,0.3049 0.56687,0.5356 -0.47693,0.5834 -1.55632,0.071 -1.75633,1.8324 -2.02459,17.8289 -0.16372,9.7625 -0.39911,-19.9109 -0.52308,-65.941 z m 7.0246,-24.3245 4.75,-0.7116 v -8.6706 -8.6706 l -5.5,-5.4317 -5.5,-5.4317 0.0153,15.9659 c 0.008,8.7812 0.34592,15.4474 0.75,14.8138 0.40408,-0.6335 2.87219,-1.4721 5.48469,-1.8635 z m 763.30598,90.6471 c -1.87937,-0.4034 -3.63041,-1.8071 -4.84205,-3.8817 -1.04392,-1.7875 -1.64317,-3.2499 -1.33166,-3.2499 0.3115,0 1.27935,1.3787 2.15076,3.0639 1.14559,2.2153 2.19127,2.9855 3.77568,2.7808 1.20521,-0.1556 2.75379,0.067 3.44129,0.4952 1.87493,1.1672 3.24175,-0.1301 3.31768,-3.1489 0.0664,-2.6403 0.0879,-2.6491 1.1422,-0.4648 0.7988,1.655 0.75002,2.6172 -0.19013,3.75 -1.32215,1.5931 -2.57973,1.7035 -7.46377,0.6554 z m -734.51594,-6.4473 c -0.022,-0.4487 0.38918,-1.6178 0.91377,-2.598 0.82977,-1.5504 -0.33453,-2.3753 -8.95299,-6.3425 l -9.9068,-4.5604 -4.79701,3.4346 c -5.16755,3.6998 -9.53216,4.1884 -10.11178,1.132 -0.18253,-0.9625 0.15112,-1.75 0.74145,-1.75 0.59032,0 1.07332,0.675 1.07332,1.5 0,2.3229 1.90822,1.8068 7.46247,-2.0186 l 5.10883,-3.5186 10.46435,4.662 c 5.75539,2.5641 10.61207,4.7827 10.79261,4.9302 0.18054,0.1475 -0.36394,1.5455 -1.20996,3.1066 -0.84603,1.5611 -1.55624,2.4713 -1.57826,2.0227 z m 827.20246,-86.4035 -0.2425,-65.21924 -12.25,-0.31456 -12.25,-0.31456 12.2814,-0.21622 c 9.0681,-0.15965 12.4064,0.11082 12.7591,1.03378 0.2628,0.6875 0.3578,30.275 0.2111,65.75 l -0.2666,64.5 z m -502.08246,5.9692 c 0.15756,-3.6921 0.16626,-3.6998 0.56336,-0.5 l 0.40332,3.25 h 10.87914 10.87914 l 0.3075,-4.25 0.3075,-4.25 4.38586,-0.3141 c 2.41223,-0.1728 4.75299,0.052 5.20169,0.5 0.4487,0.4477 -1.41244,0.6582 -4.13586,0.4676 L 542,1051.807 v 4.5965 4.5965 h -12 -12 z m 45.03399,3.0037 11.69403,-0.3162 0.30597,-4.2188 c 0.30573,-4.2154 0.30936,-4.2189 4.69183,-4.5328 2.41223,-0.1728 4.75299,0.052 5.20169,0.5 0.4487,0.4477 -1.41244,0.6582 -4.13586,0.4676 L 576,1051.807 v 4.5965 4.5965 l -12.25,-0.215 -12.25,-0.2151 z m 34,0 11.69403,-0.3162 0.30597,-4.2188 c 0.28392,-3.9146 0.52219,-4.2291 3.30597,-4.3634 2.85043,-0.1376 2.8629,-0.1218 0.25,0.3164 -2.51714,0.4221 -2.75,0.8366 -2.75,4.8947 V 1061 l -12.25,-0.215 -12.25,-0.2151 z M 382.16004,1056.25 c 0.15756,-3.6921 0.16626,-3.6998 0.56336,-0.5 l 0.40332,3.25 H 394.06336 405 v -2.8 c 0,-3.7499 1.67317,-5.2 6,-5.2 4.32683,0 6,1.4501 6,5.2 v 2.8 h 11 11 v -2.8 c 0,-3.7499 1.67317,-5.2 6,-5.2 4.32683,0 6,1.4501 6,5.2 v 2.8 h 11 11 v -2.8 c 0,-3.7499 1.67317,-5.2 6,-5.2 4.32683,0 6,1.4501 6,5.2 v 2.8 h 10.93963 10.93964 l 0.31036,-3.6727 c 0.17071,-2.02 0.88412,-3.7862 1.58537,-3.925 0.70125,-0.1388 0.81375,-0.024 0.25,0.256 -0.56375,0.2796 -1.025,2.2709 -1.025,4.425 V 1060 h -11.93963 -11.93964 l -0.31036,-3.75 c -0.30886,-3.7318 -0.33221,-3.75 -4.81037,-3.75 -4.47816,0 -4.50151,0.018 -4.81037,3.75 l -0.31036,3.75 H 462 450.12073 l -0.31036,-3.75 c -0.30886,-3.7318 -0.33221,-3.75 -4.81037,-3.75 -4.47816,0 -4.50151,0.018 -4.81037,3.75 l -0.31036,3.75 H 428 416.12073 l -0.31036,-3.75 c -0.30886,-3.7318 -0.33221,-3.75 -4.81037,-3.75 -4.47816,0 -4.50151,0.018 -4.81037,3.75 l -0.31036,3.75 H 393.93963 382 Z m 243.62915,3.0086 c 3.45905,-0.1958 8.85905,-0.1942 12,0 3.14094,0.1978 0.31081,0.358 -6.28919,0.356 -6.6,0 -9.16987,-0.1638 -5.71081,-0.3596 z m 34,0 c 3.45905,-0.1958 8.85905,-0.1942 12,0 3.14094,0.1978 0.31081,0.358 -6.28919,0.356 -6.6,0 -9.16987,-0.1638 -5.71081,-0.3596 z M 687,1055.9035 v -4.0965 l -4.95169,0.3465 c -2.72342,0.1906 -4.58456,-0.02 -4.13586,-0.4676 0.4487,-0.4478 2.78946,-0.6728 5.20169,-0.5 4.27392,0.3061 4.39373,0.409 4.69436,4.0329 l 0.30851,3.7187 11.69149,0.3162 11.6915,0.3162 -12.25,0.2151 L 687,1060 Z m 34,0 v -4.0965 l -4.95169,0.3465 c -2.72342,0.1906 -4.58456,-0.02 -4.13586,-0.4676 0.4487,-0.4478 2.78946,-0.6728 5.20169,-0.5 4.27392,0.3061 4.39373,0.409 4.69436,4.0329 l 0.30851,3.7187 11.69149,0.3162 11.6915,0.3162 -12.25,0.2151 L 721,1060 Z m 34.16004,0.3465 c 0.15756,-3.6921 0.16626,-3.6998 0.56336,-0.5 l 0.40332,3.25 h 11.36331 c 9.98133,0 11.41894,-0.2128 11.82064,-1.75 0.34415,-1.3169 0.48604,-1.1932 0.57333,0.5 0.11443,2.2195 -0.0533,2.25 -12.384,2.25 H 755 Z m -407.71798,-3.4978 c -0.61585,-2.777 -1.54803,-4.3606 -2.69206,-4.5734 -1.05077,-0.1954 -1.75,0.2907 -1.75,1.2165 0,0.9053 -0.57373,1.3218 -1.38949,1.0087 -0.80334,-0.3082 -1.17599,-1.3496 -0.88337,-2.4686 0.37048,-1.4167 -0.008,-1.9354 -1.41051,-1.9354 -1.05415,0 -2.45663,0.54 -3.11663,1.2 -0.91182,0.9118 -1.2,0.9164 -1.2,0.019 0,-1.5357 4.49427,-2.6519 6.74776,-1.6759 0.96373,0.4174 2.41491,0.8908 3.22484,1.052 2.19415,0.4368 4.0274,3.4248 4.0274,6.5642 v 2.7771 l 11.75,0.3167 11.75,0.3167 -12.05794,0.2151 -12.05794,0.215 z m -25.96846,-9.6302 c -6.06452,-4.7421 -12.26321,-9.5956 -13.77488,-10.7855 -2.67843,-2.1083 -2.71327,-2.2657 -1.36706,-6.1731 1.38299,-4.0142 0.79865,-6.98 -1.13924,-5.7823 -0.56715,0.3505 -1.755,-0.087 -2.63968,-0.9712 -2.14546,-2.1455 -4.27474,-0.4087 -5.13757,4.1906 L 296.77742,1027 h -11.38871 c -10.18556,0 -11.38709,-0.1849 -11.3734,-1.75 0.0113,-1.2919 0.22927,-1.4128 0.83265,-0.4618 0.59776,0.9422 3.45822,1.2108 10.64774,1 l 9.83042,-0.2882 1.15363,-3.4331 c 1.3723,-4.0838 3.53482,-5.6943 6.13433,-4.5683 1.03725,0.4492 2.38839,0.7399 3.00252,0.6459 2.60409,-0.3986 3.7958,2.8605 2.62622,7.1822 -1.35302,4.9996 -2.00468,4.2076 13.21938,16.0659 7.62533,5.9396 11.19735,8.1687 11.73469,7.3231 0.42487,-0.6687 0.77248,-0.7657 0.77248,-0.2157 0,3.6154 -2.21193,2.6634 -12.49577,-5.378 z m 582.23591,-12.9327 -5.61129,-2.8304 -0.39928,2.5705 c -0.23511,1.5137 -0.46088,0.7515 -0.54911,-1.8537 L 897,1023.6514 l 2.25,2.0573 c 2.69489,2.4641 8.0878,5.2913 10.09335,5.2913 0.79347,0 1.74169,-0.7792 2.10716,-1.7316 0.70038,-1.8252 -0.60745,-3.1877 -29.95051,-31.20228 -7.7,-7.3514 -11.3,-11.1632 -8,-8.47065 10.99758,8.97316 39.5,36.68203 39.5,38.40033 0,0.9318 -0.82782,2.4434 -1.8396,3.359 -1.72645,1.5625 -2.18472,1.4908 -7.45089,-1.1655 z M 215.09918,1029.75 c -0.46001,-1.2375 -0.65307,-2.7325 -0.42902,-3.3222 0.44762,-1.1782 34.71876,-33.47401 40.32984,-38.00533 l 3.5,-2.82649 -2.5,2.79223 c -1.375,1.53573 -10.9375,10.71131 -21.25,20.39019 -14.38927,13.5051 -18.75,18.1647 -18.75,20.0348 0,2.169 0.32656,2.3715 2.97112,1.8426 1.63412,-0.3268 4.78412,-1.7387 7,-3.1376 2.21588,-1.3988 4.02888,-2.1304 4.02888,-1.6258 0,1.5007 -8.64447,6.1076 -11.46029,6.1076 -1.78613,0 -2.86688,-0.7068 -3.44053,-2.25 z M 951,1031.1451 c 0,-0.9802 10.53515,-11.1451 11.551,-11.1451 0.3689,0 -1.94094,2.7 -5.13297,6 -6.04749,6.252 -6.41803,6.5491 -6.41803,5.1451 z m -699.48786,-7.9371 c 6.93852,-6.6376 9.48786,-10.4678 9.48786,-14.2551 0,-3.4461 -2.17727,-2.1408 -11.33753,6.7971 -5.21215,5.0856 -9.14805,8.2265 -9.3984,7.5 -0.23766,-0.6897 -2.0743,-1.2577 -4.0974,-1.2672 l -3.66667,-0.017 13.11028,-12.4383 c 12.18766,-11.56304 14.74275,-14.84047 15.61317,-20.0272 0.27667,-1.64859 0.44626,-1.71975 0.96523,-0.40499 1.36779,3.46512 -2.99806,9.5746 -14.59698,20.42669 -11.46235,10.7244 -11.63899,10.9555 -8.92805,11.6805 2.50369,0.6696 3.58559,-0.063 11.42223,-7.7313 4.76112,-4.659 9.10943,-8.4709 9.66291,-8.4709 0.55347,0 1.57065,0.68 2.2604,1.5111 2.19219,2.6414 -1.37222,9.6762 -8.33204,16.4442 -5.99715,5.8319 -6.09423,6.0075 -3.33152,6.0258 1.5651,0.01 4.16857,-0.9231 5.78549,-2.0745 3.26955,-2.3281 5.1939,-2.0363 6.83865,1.0369 0.88852,1.6602 0.80478,2.0565 -0.43459,2.0565 -0.86851,0 -1.53518,-0.8685 -1.53518,-2 0,-1.1 -0.45,-2 -1,-2 -0.55,0 -1.9,0.9 -3,2 -1.50667,1.5067 -3.29498,1.9896 -7.25,1.958 l -5.25,-0.042 z m 585.73786,6.053 c 3.1625,-0.1984 8.3375,-0.1984 11.5,0 3.1625,0.1985 0.575,0.3608 -5.75,0.3608 -6.325,0 -8.9125,-0.1623 -5.75,-0.3608 z m 25.56037,-3.011 c -0.29586,-3.5747 -0.49261,-3.7649 -4.20858,-4.0692 -2.4137,-0.1976 -4.25159,0.1832 -4.82614,1 -0.7297,1.0374 -0.84174,0.9988 -0.52448,-0.1808 0.50825,-1.8897 7.34407,-2.5808 9.31862,-0.9421 0.78661,0.6529 1.45873,2.5944 1.4936,4.3145 0.0583,2.8751 0.13639,2.946 0.96777,0.8776 1.12021,-2.7869 4.06979,-2.9009 6.46884,-0.25 1.10719,1.2234 3.07997,2 5.08075,2 h 3.27078 l -6.0092,-5.7318 C 867.84947,1017.552 865,1012.788 865,1008.4849 c 0,-4.4444 3.06475,-3.8471 8.9321,1.7409 12.23309,11.6507 12.56694,11.8951 15.01571,10.9892 2.12681,-0.7867 1.46244,-1.621 -9.38173,-11.7809 -6.49076,-6.0811 -12.31318,-12.43078 -13.11835,-14.30622 -1.60508,-3.73865 -1.91443,-8.72141 -0.59219,-9.5386 0.47055,-0.29082 0.64242,0.58615 0.38193,1.94882 -0.91124,4.76682 1.99642,8.92461 15.14872,21.6619 12.67181,12.2719 13.00626,12.7016 9.92283,12.75 -1.75504,0.027 -3.48134,0.5198 -3.83622,1.094 -0.36737,0.5944 -4.65346,-2.6353 -9.95309,-7.5 C 868.34814,1007.1251 866,1005.6644 866,1008.3779 c 0,3.5279 3.40273,8.6852 9.81246,14.8721 l 6.99308,6.75 h -5.49248 c -4.42089,0 -5.83358,-0.4212 -7.24082,-2.1591 -1.854,-2.2896 -4.6222,-1.7164 -3.6718,0.7603 0.34433,0.8972 -0.14741,1.3988 -1.37146,1.3988 -1.48325,0 -1.97737,-0.8352 -2.21861,-3.75 z M 106.37817,1000 c 0,-6.325 0.16237,-8.9125 0.36082,-5.75 0.19845,3.1625 0.19845,8.3375 0,11.5 -0.19845,3.1625 -0.36082,0.575 -0.36082,-5.75 z M 113.75,988.2596 c 3.4375,-0.19527 9.0625,-0.19527 12.5,0 3.4375,0.19527 0.625,0.35504 -6.25,0.35504 -6.875,0 -9.6875,-0.15977 -6.25,-0.35504 z"
         id="path2" />
    </g>
  </g>
</svg>
