<?xml version="1.0" encoding="UTF-8" standalone="no"?>
<!-- Created with Inkscape (http://www.inkscape.org/) -->

<svg
   version="1.1"
   id="svg1"
   width="1127"
   height="4126"
   viewBox="0 0 1127 4126"
   sodipodi:docname="Icebreaker_f11.svg"
   inkscape:version="1.4.3 (0d15f75, 2025-12-25)"
   xmlns:inkscape="http://www.inkscape.org/namespaces/inkscape"
   xmlns:sodipodi="http://sodipodi.sourceforge.net/DTD/sodipodi-0.dtd"
   xmlns="http://www.w3.org/2000/svg"
   xmlns:svg="http://www.w3.org/2000/svg">
  <defs
     id="defs1" />
  <sodipodi:namedview
     id="namedview1"
     pagecolor="#505050"
     bordercolor="#eeeeee"
     borderopacity="1"
     inkscape:showpageshadow="0"
     inkscape:pageopacity="0"
     inkscape:pagecheckerboard="0"
     inkscape:deskcolor="#505050"
     inkscape:zoom="0.19752787"
     inkscape:cx="564.4773"
     inkscape:cy="2063"
     inkscape:window-width="1920"
     inkscape:window-height="1017"
     inkscape:window-x="-8"
     inkscape:window-y="-8"
     inkscape:window-maximized="1"
     inkscape:current-layer="g1" />
  <g
     inkscape:groupmode="layer"
     inkscape:label="Image"
     id="g1">
    <g
       id="g2"
       transform="translate(-4.9799936e-4)">
      <path
         style="fill:#dadada;fill-opacity:1"
         d="m 878.49086,2241 c 0,-117.425 0.11659,-165.4625 0.25909,-106.75 0.1425,58.7125 0.1425,154.7875 0,213.5 -0.1425,58.7125 -0.25909,10.675 -0.25909,-106.75 z"
         id="path16" />
      <path
         style="fill:#cecece;fill-opacity:1"
         d="m 1105.4915,2238.5 c 0,-126.5 0.1163,-178.1014 0.2585,-114.6699 0.1421,63.4316 0.1421,166.9316 -10e-5,230 -0.1421,63.0685 -0.2584,11.1699 -0.2584,-115.3301 z M 534.82139,1686.2505 c 16.12677,-0.1545 42.22677,-0.1544 58,2e-4 15.77324,0.1547 2.57861,0.2811 -29.32139,0.281 -31.9,-2e-4 -44.80537,-0.1267 -28.67861,-0.2812 z M 416.40249,1397 c 0,-8.525 0.15337,-12.0125 0.34082,-7.75 0.18745,4.2625 0.18745,11.2375 0,15.5 -0.18745,4.2625 -0.34082,0.775 -0.34082,-7.75 z m 0.0677,-130.5 c -1.2e-4,-34.1 0.12549,-48.1949 0.27912,-31.3221 0.15364,16.8728 0.15374,44.7728 2.3e-4,62 -0.15352,17.2272 -0.27922,3.4221 -0.27935,-30.6779 z M 134.37817,1145 c 0,-6.325 0.16237,-8.9125 0.36082,-5.75 0.19845,3.1625 0.19845,8.3375 0,11.5 -0.19845,3.1625 -0.36082,0.575 -0.36082,-5.75 z"
         id="path15" />
      <path
         style="fill:#c2c2c2;fill-opacity:1"
         d="m 359.29571,1611.2559 c 4.28763,-0.1879 11.03763,-0.1868 15,0 3.96236,0.1893 0.45429,0.3431 -7.79571,0.3417 -8.25,0 -11.49193,-0.1563 -7.20429,-0.3442 z m 392.95429,8e-4 c 4.2625,-0.1875 11.2375,-0.1875 15.5,0 4.2625,0.1874 0.775,0.3408 -7.75,0.3408 -8.525,0 -12.0125,-0.1534 -7.75,-0.3408 z M 134.37817,1123 c 0,-6.325 0.16237,-8.9125 0.36082,-5.75 0.19845,3.1625 0.19845,8.3375 0,11.5 -0.19845,3.1625 -0.36082,0.575 -0.36082,-5.75 z"
         id="path14" />
      <path
         style="fill:#b6b6b6;fill-opacity:1"
         d="m 21.491498,2238.5 c 10e-6,-126.5 0.116321,-178.1014 0.25847,-114.6699 0.142148,63.4316 0.14214,166.9316 -1.9e-5,230 C 21.607791,2416.8986 21.491488,2365 21.491498,2238.5 Z m 225.999382,3 c 1e-5,-117.7 0.1166,-165.7015 0.25908,-106.6701 0.14249,59.0315 0.14248,155.3315 -2e-5,214 -0.1425,58.6686 -0.25907,10.3701 -0.25906,-107.3299 z M 134.38536,1100 c 0,-6.875 0.15977,-9.6875 0.35504,-6.25 0.19527,3.4375 0.19527,9.0625 0,12.5 -0.19527,3.4375 -0.35504,0.625 -0.35504,-6.25 z"
         id="path13" />
      <path
         style="fill:#aaaaaa;fill-opacity:1"
         d="M 969.24639,2607.7775 969,2471.0549 l -14.25,-0.3072 -14.25,-0.3072 14.28138,-0.2202 c 10.67135,-0.1646 14.40163,0.096 14.75708,1.0297 0.26163,0.6875 0.35838,62.45 0.215,137.25 l -0.26069,136 z M 49.75,2470.2507 c 14.4375,-0.1561 38.0625,-0.1561 52.5,0 14.4375,0.1562 2.625,0.284 -26.25,0.284 -28.875,0 -40.6875,-0.1278 -26.25,-0.284 z m 115,0.01 c 3.9875,-0.1898 10.5125,-0.1898 14.5,0 3.9875,0.1898 0.725,0.3451 -7.25,0.3451 -7.975,0 -11.2375,-0.1553 -7.25,-0.3451 z m 860,-0.01 c 14.4375,-0.1561 38.0625,-0.1561 52.5,0 14.4375,0.1562 2.625,0.284 -26.25,0.284 -28.875,0 -40.6875,-0.1278 -26.25,-0.284 z M 969.49534,1582.5 c 0,-233.2 0.1146,-328.4508 0.25465,-211.6684 0.14005,116.7824 0.14005,307.5824 -10e-6,424 -0.14005,116.4176 -0.25464,20.8684 -0.25464,-212.3316 z M 154.4681,1073 c 0,-31.625 0.12658,-44.5625 0.28128,-28.75 0.15471,15.8125 0.15471,41.6875 0,57.5 -0.1547,15.8125 -0.28128,2.875 -0.28128,-28.75 z m -20.09403,4.5 c 0.002,-6.05 0.16696,-8.3961 0.36601,-5.2135 0.19905,3.1826 0.1972,8.1326 -0.004,11 -0.20131,2.8674 -0.36417,0.2635 -0.36191,-5.7865 z m -29,-71 c 0.002,-6.05 0.16696,-8.39607 0.36601,-5.2135 0.19905,3.1826 0.1972,8.1326 -0.004,11 -0.20131,2.8674 -0.36417,0.2635 -0.36191,-5.7865 z"
         id="path12" />
      <path
         style="fill:#9e9e9e;fill-opacity:1"
         d="m 128.48594,2607.5 c 2e-5,-75.35 0.11881,-106.0274 0.26397,-68.172 0.14516,37.8555 0.14513,99.5055 -5e-5,137 -0.14518,37.4946 -0.26395,6.522 -0.26392,-68.828 z m 0.009,-1023 c 0,-232.1 0.1146,-326.9008 0.25467,-210.6684 0.14007,116.2323 0.14006,306.1323 -1e-5,422 -0.14006,115.8676 -0.25466,20.7684 -0.25466,-211.3316 z m 374.02254,30.2235 c -1.64018,-0.5747 -3.55268,-1.6155 -4.25,-2.3128 -1.59687,-1.5969 -1.69621,-9.4107 -0.11964,-9.4107 0.81718,0 0.97546,-2.2402 0.54901,-7.7703 -0.32956,-4.2737 -0.23194,-8.3645 0.21694,-9.0908 1.2203,-1.9745 21.42957,-2.6346 22.9928,-0.751 0.77865,0.9382 1.05962,6.0174 0.87118,15.7485 L 522.5,1615.5 l -8.5,0.1342 c -4.675,0.074 -9.84196,-0.3359 -11.48214,-0.9107 z m 118.63375,-144.594 c -0.74162,-0.478 -1.18546,-1.7152 -0.98631,-2.7493 0.33581,-1.7437 1.48614,-1.8802 15.8484,-1.8802 H 651.5 v 2.5 2.5 l -14.5,0.2494 c -7.975,0.1371 -15.10678,-0.1418 -15.84839,-0.6199 z M 524.75,1279.9199 c -0.9625,-0.5606 -1.75,-1.6719 -1.75,-2.4696 0,-1.2473 -6.85726,-1.4503 -49,-1.4503 h -49 v -48 -48 h -11.34699 c -9.91165,0 -11.63869,0.253 -13.65301,2 -2.01033,1.7436 -3.74136,2 -13.5,2 -9.75864,0 -11.48967,-0.2564 -13.5,-2 -2.21043,-1.9171 -3.69864,-1.9977 -35.90301,-1.9442 l -33.59699,0.056 -4.36699,5.5303 c -2.93529,3.7171 -4.90236,5.3719 -6,5.0474 -2.91691,-0.8623 -129.59101,-59.8498 -130.98784,-60.9962 -1.11723,-0.917 -1.29095,-10.4138 -0.99059,-54.1525 0.20033,-29.1724 0.72406,-53.6031 1.16385,-54.2906 0.62721,-0.9805 15.90954,-1.25 70.88369,-1.25 h 70.08409 l 20.27249,12.5 20.27248,12.5 h 220.08907 220.08907 l 20.00133,-12.5067 20.00134,-12.5066 71.244,0.2566 L 966.5,1020.5 v 53.2666 53.2665 l -67.29763,31.513 c -37.01369,17.3322 -67.71021,31.2581 -68.21448,30.9464 -0.50427,-0.3116 -2.35912,-2.575 -4.12189,-5.0296 L 823.66096,1180 h -32.96245 c -31.66947,0 -33.09483,0.082 -36.33747,2.0859 -3.00467,1.857 -4.61692,2.049 -14.69229,1.75 -9.14191,-0.2713 -11.6531,-0.6723 -13.06444,-2.0859 -1.41684,-1.4191 -3.52794,-1.75 -11.16604,-1.75 h -9.41888 l -0.25969,47.75 -0.2597,47.75 -75.25,0.2563 c -66.5155,0.2266 -75.25,0.4326 -75.25,1.7748 0,0.8351 -1.15429,1.9573 -2.5651,2.4937 -3.38039,1.2852 -25.44174,1.2016 -27.6849,-0.1049 z m 14.03321,-52.3404 c 0.2106,-8.8643 -0.0458,-12.1292 -1,-12.7346 -1.86456,-1.1832 -19.57086,-1.0289 -21.84895,0.1903 -1.72169,0.9214 -1.93426,2.1763 -1.93426,11.4182 0,5.7107 0.27845,11.1086 0.61877,11.9955 0.52905,1.3787 2.3054,1.5718 12.25,1.3318 L 538.5,1239.5 Z M 134.38536,1055 c 0,-6.875 0.15977,-9.6875 0.35504,-6.25 0.19527,3.4375 0.19527,9.0625 0,12.5 -0.19527,3.4375 -0.35504,0.625 -0.35504,-6.25 z m -29,-26 c 0,-6.875 0.15977,-9.6875 0.35504,-6.25 0.19527,3.4375 0.19527,9.0625 0,12.5 -0.19527,3.4375 -0.35504,0.625 -0.35504,-6.25 z"
         id="path11" />
      <path
         style="fill:#929292;fill-opacity:1"
         d="m 157.47409,1229.5 c 1e-4,-39.6 0.12411,-55.6544 0.27559,-35.6764 0.15148,19.9779 0.15141,52.3779 -1.7e-4,72 -0.15157,19.622 -0.27551,3.2764 -0.27542,-36.3236 z M 105.37817,1052 c 0,-6.325 0.16237,-8.9125 0.36082,-5.75 0.19845,3.1625 0.19845,8.3375 0,11.5 -0.19845,3.1625 -0.36082,0.575 -0.36082,-5.75 z m 29,-20 c 0,-6.325 0.16237,-8.9125 0.36082,-5.75 0.19845,3.1625 0.19845,8.3375 0,11.5 -0.19845,3.1625 -0.36082,0.575 -0.36082,-5.75 z"
         id="path10" />
      <path
         style="fill:#868686;fill-opacity:1"
         d="m 998.48584,2606.5 c 3e-5,-74.8 0.11886,-105.2524 0.26407,-67.672 0.14521,37.5804 0.14519,98.7804 -5e-5,136 -0.14524,37.2196 -0.26405,6.472 -0.26402,-68.328 z M 157.48579,2606 c 0,-74.525 0.11884,-105.0125 0.26409,-67.75 0.14525,37.2625 0.14525,98.2375 0,135.5 -0.14525,37.2625 -0.26409,6.775 -0.26409,-67.75 z M 49.75,2006.2507 c 14.4375,-0.1561 38.0625,-0.1561 52.5,0 14.4375,0.1562 2.625,0.284 -26.25,0.284 -28.875,0 -40.6875,-0.1278 -26.25,-0.284 z m 107.71271,-0.5007 c -0.26098,-0.6875 -0.35872,-159.65 -0.2172,-353.25 l 0.25731,-352 0.24859,352.7218 0.24859,352.7218 13.75,0.3088 13.75,0.3089 -13.78138,0.2194 c -10.27132,0.1634 -13.90225,-0.099 -14.25591,-1.0307 z m 790.74354,0.5094 c 3.68844,-0.1918 9.98844,-0.1931 14,0 4.01156,0.1903 0.99375,0.3473 -6.70625,0.3488 -7.7,0 -10.98219,-0.1541 -7.29375,-0.346 z m 50.25658,-0.5094 c -0.26091,-0.6875 -0.35876,-190.25 -0.21743,-421.25 l 0.25697,-420 0.24881,420.7411 0.24882,420.7411 52.25,0.268 52.25,0.268 -52.2814,0.2409 c -41.0839,0.1893 -52.38297,-0.027 -52.75577,-1.0091 z M 523.38536,1600 c 0,-6.875 0.15977,-9.6875 0.35504,-6.25 0.19527,3.4375 0.19527,9.0625 0,12.5 -0.19527,3.4375 -0.35504,0.625 -0.35504,-6.25 z m 189.08373,-247 c 0,-32.725 0.12615,-46.1125 0.28033,-29.75 0.15419,16.3625 0.15419,43.1375 0,59.5 -0.15418,16.3625 -0.28033,2.975 -0.28033,-29.75 z M 449.75,1276.2509 c 13.3375,-0.1576 35.1625,-0.1576 48.5,0 13.3375,0.1575 2.425,0.2864 -24.25,0.2864 -26.675,0 -37.5875,-0.1289 -24.25,-0.2864 z m 143,-5e-4 c 20.4875,-0.1511 54.0125,-0.1511 74.5,0 20.4875,0.1511 3.725,0.2747 -37.25,0.2747 -40.975,0 -57.7375,-0.1236 -37.25,-0.2747 z M 105.38854,1075.5 c 0.002,-7.15 0.16103,-9.9438 0.35396,-6.2084 0.19293,3.7354 0.19149,9.5854 -0.003,13 -0.19468,3.4146 -0.35253,0.3584 -0.35078,-6.7916 z m 29,-67 c 0.002,-7.15 0.16103,-9.94379 0.35396,-6.2084 0.19293,3.7354 0.19149,9.5854 -0.003,13 -0.19468,3.4146 -0.35253,0.3584 -0.35078,-6.7916 z"
         id="path9" />
      <path
         style="fill:#7a7a7a;fill-opacity:1"
         d="m 778.68114,4040.3872 c -5.95038,-3.0107 -10.67538,-5.8623 -10.5,-6.3369 2.24344,-6.0709 55.72646,-108.4383 56.81886,-108.7523 0.93842,-0.2697 7.46941,-16.3405 17.44447,-42.9257 8.76946,-23.3721 16.32402,-42.7292 16.78791,-43.0159 0.46389,-0.2867 7.35125,-13.5309 15.30525,-29.4316 l 14.46182,-28.9104 1.91765,-34.7572 1.91765,-34.7572 6.57129,-26.5 c 6.47436,-26.1091 6.76302,-27.8707 19.56797,-119.4206 9.55634,-68.3237 15.62709,-116.3684 22.93362,-181.5 l 9.93693,-88.5794 4.1073,-88.5 c 2.25901,-48.675 4.12745,-90.3 4.15209,-92.5 0.0246,-2.2 2.0177,-44.725 4.42901,-94.5 5.48735,-113.2716 6.4821,-173.9326 6.47328,-394.75 L 971,2469 h -14.95431 -14.95431 l -0.29569,-6.75 -0.29569,-6.75 -30.2523,-0.2647 -30.2523,-0.2646 0.2523,-213.7354 0.2523,-213.7353 30.25,-0.2647 30.25,-0.2646 V 2017.4853 2008 h 15 15 V 1583.5 1159 h 11 11 v -38.8358 c 0,-21.3597 0.29943,-59.2323 0.66539,-84.1613 l 0.6654,-45.32539 -12.6654,0.67709 -12.66539,0.67709 0.0109,-2.76585 C 969.0169,987.74463 967.88004,958.15 966.48452,923.5 964.20209,866.82807 963.49299,856.13062 959.42501,817 l -4.52222,-43.5 -13.53757,-66.5 -13.53757,-66.5 -20.00005,-69 c -11.00004,-37.95 -20.35101,-69.45 -20.77994,-70 -0.42893,-0.55 -7.16862,-18.91751 -14.97709,-40.81668 -13.05826,-36.62246 -15.83019,-43.32111 -34.55265,-83.5 -22.35028,-47.96433 -25.17647,-53.5124 -26.76051,-52.5334 -0.61766,0.38173 -0.7751,0.18768 -0.37412,-0.46112 0.98508,-1.59388 -3.19558,-9.42286 -4.57616,-8.56961 -0.68424,0.42288 -0.83556,0.23579 -0.39103,-0.48347 0.89807,-1.45311 -27.2216,-52.37397 -28.48942,-51.59042 -0.49708,0.30722 -0.68996,-0.0273 -0.4286,-0.74336 0.68119,-1.86636 -22.82849,-43.36234 -24.37717,-43.02716 -0.69827,0.15112 -0.98781,-0.18115 -0.64342,-0.73839 0.90176,-1.45908 -56.34146,-81.23851 -57.69147,-80.40415 -0.65954,0.40762 -0.8096,0.21491 -0.37731,-0.48456 0.93805,-1.5178 -3.23727,-7.37168 -4.63971,-6.50493 -0.63653,0.3934 -0.7889,0.19843 -0.37203,-0.47607 0.40128,-0.64929 -3.49757,-7.02889 -9.03313,-14.78072 -9.32146,-13.05347 -9.65604,-13.70064 -7.8015,-15.09003 11.41881,-8.554767 18.5818,-13.324868 19.32213,-12.867317 0.49395,0.305274 10.87227,14.519657 23.06295,31.587527 13.42726,18.79916 22.59785,30.76488 23.26323,30.35366 0.65716,-0.40615 0.81413,-0.21894 0.39077,0.46607 -0.40876,0.66139 8.18329,13.57974 20.34549,30.58991 C 769.52612,197.62054 779,211.10206 779,211.3847 c 0,0.28265 12.67068,23.14922 28.15707,50.8146 15.48638,27.66539 29.39636,52.5507 30.91105,55.3007 1.51469,2.75 11.87268,24.575 23.01775,48.5 18.50449,39.72339 21.54347,47.05956 35.00385,84.5 8.10705,22.55 15.11589,40.92519 15.57519,40.83376 0.4593,-0.0914 0.91243,0.80857 1.00695,2 0.0945,1.19143 9.03118,32.54124 19.85924,69.66624 l 19.68737,67.5 13.90837,67.5 13.90837,67.5 4.91488,46 c 4.4618,41.75949 5.10743,50.93189 7.00368,99.5 1.14884,29.425 2.36827,58.3375 2.70984,64.25 l 0.62104,10.75 h 11.79865 c 7.1742,0 12.0534,0.41224 12.4487,1.05177 0.3575,0.57847 0.3186,40.40343 -0.087,88.50003 L 1018.7085,1163 h -11.1045 -11.1044 l 0.25234,422.5 0.25234,422.5 H 1050.5023 1104 V 2238.5 2469 H 1050.5 997 l 0.006,157.25 c 0.008,221.6037 -1.00363,283.6271 -6.43715,394.75 -2.38004,48.675 -4.4095,92.1 -4.50991,96.5 -0.1004,4.4 -2.16099,48.725 -4.57907,98.5 l -4.39651,90.5 -9.99019,87.5 c -6.67272,58.4436 -14.14202,117.2205 -22.49297,177 -12.21083,87.4101 -12.66464,90.1772 -19.4345,118.5 l -6.93173,29 -1.79677,36.25 c -1.69356,34.1677 -1.9047,36.25 -3.67577,36.25 -1.03345,0 -1.6146,0.4278 -1.29145,0.9507 0.32315,0.5228 -5.12981,12.3353 -12.11769,26.25 -11.03756,21.9785 -15.03821,31.4685 -30.47901,72.2993 -14.87629,39.3381 -18.07089,46.9677 -19.59637,46.802 -1.45648,-0.1582 -7.30779,10.5323 -29.12819,53.2182 -15.01807,29.3789 -27.07762,53.7851 -26.79901,54.2359 1.50277,2.4315 -5.13555,0.4543 -14.6681,-4.3689 z m -462.99515,-26.9803 c -3.02809,-6.0958 -5.12852,-9.2514 -5.8579,-8.8007 -0.7059,0.4363 -0.86137,0.2567 -0.40997,-0.4737 0.41308,-0.6684 -6.80047,-15.96 -16.7014,-35.4045 -16.66627,-32.731 -18.11675,-36.0649 -33.16395,-76.228 -14.56366,-38.8724 -16.84662,-44.1776 -30.65773,-71.243 -8.20728,-16.0837 -14.97348,-29.5837 -15.036,-30 -0.0625,-0.4164 -0.25316,-1.207 -0.42363,-1.757 -0.17048,-0.55 -1.27204,-16.3 -2.44793,-35 l -2.13796,-34 -6.92051,-28.8429 c -3.80628,-15.8635 -6.67691,-29.8135 -6.37918,-31 0.29772,-1.1864 -5.13492,-42.8821 -12.07253,-92.6571 -13.39294,-96.0897 -34.14627,-271.8829 -32.24284,-273.1164 0.91587,-0.5935 -1.75961,-58.6719 -12.61691,-273.8836 -2.99792,-59.4243 -4.36878,-95.7168 -4.49493,-119 -0.38789,-71.5911 -2.063,-156.4801 -3.09459,-156.824 C 130.33062,2744.9435 130,2700.4793 130,2606.9167 V 2469 H 76.5 23 V 2238.5 2008 H 76.5 130 V 1584.5 1161 H 118.5 107 V 1075.5 990 h 12.53138 c 9.15381,0 12.63481,-0.33691 12.91509,-1.25 0.21104,-0.6875 1.56068,-30.5 2.99922,-66.25 2.45834,-61.09391 2.91043,-67.73426 7.52317,-110.5 l 4.90765,-45.5 13.52359,-66.02373 13.5236,-66.02372 20.60893,-70.97628 c 16.65663,-57.3647 23.3064,-78.55143 34.67466,-110.47627 13.20417,-37.08055 15.47573,-42.53196 37.08547,-89 12.66085,-27.225 23.74621,-50.20887 24.63413,-51.07527 3.06068,-2.98652 59.24485,-104.83783 58.49812,-106.04607 -0.44788,-0.72467 -0.30713,-0.92384 0.36103,-0.5109 1.43858,0.8891 58.57287,-78.97801 57.61129,-80.53388 -0.42002,-0.67962 -0.26472,-0.86995 0.38313,-0.46956 0.64947,0.40139 6.58882,-7.00782 14.70606,-18.34549 C 430.97564,96.558472 437.35712,88 437.66758,88 c 0.31045,0 2.75355,1.606937 5.4291,3.570971 2.75459,2.022053 5.3738,3.256292 6.03849,2.845491 0.70447,-0.435387 0.90743,-0.29441 0.50758,0.352563 -0.88663,1.434604 4.99052,5.560715 6.60043,4.633884 0.69125,-0.397958 0.92322,-0.355317 0.5155,0.09476 -0.40773,0.450074 -0.22878,1.435901 0.39768,2.190731 0.88593,1.06748 0.42619,2.36499 -2.06914,5.83967 -1.76448,2.457 -2.8864,4.98784 -2.49317,5.6241 0.42963,0.69517 0.27795,0.88675 -0.38009,0.48007 -1.43858,-0.8891 -58.57287,78.97801 -57.61129,80.53388 0.41874,0.67754 0.26486,0.87004 -0.37793,0.47278 -0.63863,-0.3947 -5.176,5.03096 -11.03985,13.20118 -11.14824,15.53304 -42.81851,71.32569 -41.60346,73.29168 0.44689,0.72308 0.29698,0.91113 -0.38858,0.48743 -1.38058,-0.85325 -5.56124,6.97573 -4.57616,8.56961 0.4008,0.64852 0.24356,0.84287 -0.37343,0.46155 -0.63911,-0.395 -5.5667,7.44945 -12.30917,19.59549 -6.18388,11.13979 -11.60871,20.49638 -12.05517,20.79242 -0.44647,0.29605 -10.31647,20.95687 -21.93334,45.91294 -29.1055,62.52624 -39.80754,92.32716 -68.60899,191.0488 l -20.56795,70.5 -13.80414,67.5 -13.80415,67.5 -4.63186,44 c -4.22217,40.10821 -4.87052,49.79346 -7.33017,109.5 L 158.5,992.5 145.75,992.77988 133,993.05975 V 1075.5299 1158 h 11.5 11.5 v 425 425 h 15 15 v 9.5283 9.5283 l 30.25,-0.2783 30.25,-0.2783 -0.25456,214.2351 -0.25456,214.2352 -29.74544,0.2648 -29.74544,0.2649 -0.29569,6.75 -0.29569,6.75 H 170.95431 156 v 136.4167 c 0,91.9967 0.33272,136.5275 1.02181,136.7572 0.96235,0.3208 1.8776,45.7407 3.45235,171.3261 0.35201,28.0722 1.76291,64.6485 4.4746,116 7.79635,147.6398 13.27556,264.9252 12.39028,265.2203 -1.86449,0.6215 19.15128,178.1808 32.04925,270.7797 6.89479,49.5 12.5221,91.8 12.50514,94 -0.017,2.2 3.12786,17.0164 6.9885,32.9254 3.86064,15.9089 6.81289,29.2594 6.56055,29.6677 -0.25233,0.4082 0.41163,13.7699 1.47546,29.6926 l 1.93426,28.9502 6.10237,12.1735 c 3.35631,6.6954 6.53441,11.9064 7.06245,11.5801 0.55476,-0.3429 0.68208,0.1311 0.30159,1.1226 -0.48212,1.2564 -0.30375,1.4968 0.66596,0.8974 0.86625,-0.5353 1.08519,-0.4314 0.63285,0.3005 -0.38038,0.6155 3.30293,9.1225 8.18513,18.9045 6.67663,13.3774 12.77691,28.3191 24.61288,60.2855 16.3755,44.2267 16.64959,44.8377 44.46117,99.1078 l 13.12313,25.6078 -11.79647,6.0973 -11.79647,6.0974 z M 496.5567,1682.7775 c -1.10456,-1.577 -1.5567,-4.6267 -1.5567,-10.5 V 1664 h -5.38922 c -8.01961,0 -9.50291,-1.6581 -9.84008,-11 l -0.2707,-7.5 -63.70771,-6 c -43.85857,-4.1306 -64.11035,-6.4034 -65,-7.2948 -1.31422,-1.3168 -3.91113,-17.3967 -2.68744,-16.6404 0.3677,0.2272 1.22462,-0.2569 1.90429,-1.0758 1.05714,-1.2738 7.2524,-1.4949 42.8633,-1.53 l 41.62756,-0.041 2.23278,-4.709 c 1.47413,-3.109 4.44226,-6.5333 8.73546,-10.078 3.57647,-2.953 6.21469,-5.835 5.86271,-6.4045 -0.37128,-0.6008 -0.15306,-0.7346 0.51977,-0.3188 1.21117,0.7486 13.14928,-7.9862 13.14928,-9.621 0,-1.9961 -2.16297,-4.804 -3.20468,-4.1602 -0.67331,0.4161 -0.82081,0.2238 -0.37791,-0.4929 0.94146,-1.5233 -13.22014,-19.3736 -14.66277,-18.482 -0.64623,0.3994 -0.76836,0.1796 -0.31119,-0.5601 0.92055,-1.4895 -2.29986,-5.2983 -3.73161,-4.4134 -0.59127,0.3654 -0.71517,0.1363 -0.29443,-0.5445 0.43063,-0.6967 -2.15323,-4.7864 -6.34549,-10.0434 -3.88956,-4.8774 -7.07192,-9.3839 -7.07192,-10.0143 0,-0.6305 -0.65539,-2.1465 -1.45642,-3.369 -2.15782,-3.2933 -3.10762,-17.6207 -1.53943,-23.2217 1.70433,-6.0873 8.27656,-13.2394 15.50978,-16.8782 10.00504,-5.0332 24.16047,-4.5127 30.67306,1.1278 0.92784,0.8036 2.23487,1.1225 2.90451,0.7087 0.73184,-0.4524 0.95959,-0.3352 0.57093,0.2937 -0.94745,1.533 30.07909,30.7101 34.7177,32.6483 3.38107,1.4127 10.08967,1.6145 53.66527,1.6145 h 49.80115 l 3.32672,-2.7413 c 1.8297,-1.5077 10.50474,-9.4376 19.27786,-17.6221 8.77312,-8.1845 17.21062,-15.3199 18.75,-15.8566 1.53938,-0.5366 2.79887,-1.3605 2.79887,-1.8308 0,-1.4173 7.10195,-2.9377 13.75,-2.9436 3.4375,0 6.25,0.4214 6.25,0.9433 0,0.5219 2.5875,1.7288 5.75,2.6821 9.31418,2.8076 15.95407,10.1754 16.91416,18.7685 0.25197,2.2553 0.82137,6.7994 1.26532,10.098 1.06738,7.9307 -0.40882,11.9378 -8.01874,21.7666 -3.39521,4.3852 -5.7046,8.2604 -5.30652,8.9045 0.40063,0.6483 0.26423,0.8681 -0.31606,0.5095 -1.43175,-0.8849 -4.65216,2.9239 -3.73161,4.4134 0.45683,0.7392 0.33505,0.9595 -0.30995,0.5609 -1.44655,-0.894 -19.60839,21.9532 -18.66481,23.4799 0.44367,0.7179 0.29662,0.9106 -0.37711,0.4942 -1.06292,-0.6569 -3.20468,2.1786 -3.20468,4.2428 0,0.5504 4.91947,4.8602 10.93216,9.5775 11.49004,9.0144 17.75818,15.4712 18.71321,19.2764 l 0.57145,2.2768 h 41.83488 c 41.05551,0 41.86167,0.038 43.27226,2.0521 1.95198,2.7869 1.11724,14.7847 -1.18769,17.0709 -1.3346,1.3237 -13.37159,2.7038 -65.28885,7.4852 l -63.65258,5.8622 -0.36238,7.1764 c -0.47207,9.3483 -1.98445,11.151 -9.69533,11.5567 L 631.5,1664.5 l -0.29044,8.25 c -0.15975,4.5375 -0.70405,8.25 -1.20956,8.25 -0.50551,0 -1.04981,-3.7125 -1.20956,-8.25 l -0.29044,-8.25 -27.43085,-0.2664 c -19.75534,-0.1919 -27.62854,0.053 -28.13737,0.8768 -0.38859,0.6287 -0.70206,3.2236 -0.6966,5.7664 0.005,2.5428 -0.3203,6.3107 -0.72392,8.3732 l -0.73384,3.75 h -7.32969 c -4.41373,0 -7.61037,-0.4541 -8.03522,-1.1416 -0.38804,-0.6278 -0.9771,-4.7903 -1.30902,-9.25 L 553.5,1664.5 525.75,1664.2342 498,1663.9684 v 8.5815 c 0,4.7199 0.46583,9.452 1.03518,10.5158 1.45835,2.725 -0.52991,2.4938 -2.47848,-0.2882 z M 582,1630.5 V 1620 h -19 -19 v 10.5 10.5 h 19 19 z m -152.5,-2.1702 -9,-8.5799 -0.29624,7.2455 c -0.16293,3.985 -0.0488,7.4929 0.25359,7.7953 0.48526,0.4852 10.58054,1.7578 16.04265,2.0222 1.39926,0.068 -0.70333,-2.4804 -7,-8.4831 z m 274.25,7.0723 3.25,-0.4927 v -7.5772 c 0,-6.5969 -0.19262,-7.4172 -1.48899,-6.3413 -0.81894,0.6796 -1.2616,1.6036 -0.98369,2.0533 0.27792,0.4497 -0.0216,1.1432 -0.66552,1.5412 -0.73122,0.4519 -0.90292,0.2901 -0.45729,-0.4309 1.9135,-3.0961 -1.6585,-0.448 -7.93133,5.8799 l -6.97318,7.0344 6,-0.5869 c 3.3,-0.3229 7.4625,-0.8087 9.25,-1.0798 z M 416,1627.8776 c 0,-8.0722 0.85955,-8.0779 -8.75,0.059 -2.8875,2.4449 -5.25,4.7859 -5.25,5.2023 0,0.4163 2.3625,0.9223 5.25,1.1243 2.8875,0.202 6.0375,0.4505 7,0.5522 1.52018,0.1607 1.75,-0.7504 1.75,-6.9374 z m 23.65281,5.2912 c -0.91145,-1.0071 -1.39999,-2.0883 -1.08566,-2.4026 0.31434,-0.3144 -0.35968,-2.6156 -1.49782,-5.114 C 435.9312,1623.1538 435,1620.41 435,1619.5549 c 0,-1.2338 -1.23924,-1.5549 -6,-1.5549 -3.3,0 -6,0.322 -6,0.7157 0,1.0194 9.25324,10.2843 10.27143,10.2843 0.46563,0 0.5229,-0.5625 0.12726,-1.25 -0.39564,-0.6875 -0.38469,-0.95 0.0243,-0.5833 0.40901,0.3666 0.66226,0.9712 0.56277,1.3434 -0.2529,0.9463 5.17663,6.4899 6.3563,6.4899 0.53234,0 0.22217,-0.824 -0.68927,-1.8312 z m 37.74648,0.233 c 0.58564,-1.5261 -3.32316,-7.4339 -6.8615,-10.3704 -1.32788,-1.1021 -1.53779,-0.8501 -1.53779,1.8462 0,2.2629 0.48174,3.1543 1.75,3.2384 1.66667,0.1105 1.66667,0.1378 0,0.5733 -2.14315,0.5601 -2.32514,2.3107 -0.24021,2.3107 0.83038,0 2.28039,0.9 3.22224,2 2.07018,2.4178 2.86044,2.5044 3.66726,0.4018 z M 657,1634 c 1.21296,-0.7839 1.06944,-0.9723 -0.75,-0.9847 -1.2375,-0.01 -2.25,-0.4653 -2.25,-1.0153 0,-0.55 0.9,-1 2,-1 2.76241,0 2.53212,-1.9678 -0.25,-2.1362 l -2.25,-0.1362 2.25,-0.4333 c 1.74736,-0.3366 2.25,-1.1154 2.25,-3.4863 0,-2.6336 -0.21118,-2.8776 -1.53779,-1.7766 -3.53834,2.9365 -7.44714,8.8443 -6.8615,10.3704 0.68099,1.7747 5.03425,2.1266 7.39929,0.5982 z m 33.82142,-2.3157 c 1.76756,-1.8237 2.9509,-3.5787 2.62963,-3.8999 -0.32126,-0.3213 -0.0346,-0.9237 0.63693,-1.3388 0.78026,-0.4822 0.96347,-0.3379 0.50751,0.3999 -0.39244,0.635 -0.33066,1.1545 0.13729,1.1545 1.01791,0 9.26722,-8.2677 9.26722,-9.2879 0,-0.3916 -2.48912,-0.7121 -5.53138,-0.7121 -4.36666,0 -5.6611,0.3685 -6.14737,1.75 -1.55499,4.4177 -4.4096,10.1866 -5.31862,10.7484 -1.1906,0.7358 -1.35691,4.5016 -0.1988,4.5016 0.44211,0 2.25002,-1.4921 4.01759,-3.3157 z m 34.16427,1.6071 c 0.89987,-0.7957 -9.47235,-9.2257 -10.78763,-8.7677 -0.71606,0.2494 -1.05852,0.06 -0.76101,-0.4218 0.29751,-0.4814 -0.12912,-1.4314 -0.94806,-2.111 -1.29482,-1.0746 -1.48899,-0.3119 -1.48899,5.849 v 7.0848 l 6.75,-0.6019 c 3.7125,-0.3311 6.96856,-0.7952 7.23569,-1.0314 z m -339.84529,-7.747 -6.6404,-6.4556 -0.3046,5.6128 c -0.36425,6.7123 0.23562,7.2622 7.945,7.2831 l 5.6404,0.015 z m 362.27781,5.8486 C 748.6216,1630.9312 749,1629.3255 749,1624.6806 v -6.1054 l -4.95508,4.8806 c -2.7253,2.6843 -4.68077,5.3244 -4.3455,5.8669 0.33528,0.5425 0.15636,0.7062 -0.39759,0.3638 -0.55395,-0.3423 -1.86098,0.024 -2.90451,0.8137 -1.72173,1.3033 -1.37274,1.4391 3.77089,1.468 3.11752,0.017 6.38002,-0.2413 7.25,-0.5752 z m -372.62049,-6.643 -0.29772,-6.25 -7.25,-0.2938 -7.25,-0.2938 v 5.989 5.989 l 4.75,0.3746 c 2.6125,0.206 6.00897,0.4556 7.54772,0.5548 l 2.79771,0.1802 z m 20,0 -0.29772,-6.25 -6.25,-0.2977 c -3.4375,-0.1638 -6.25,0.048 -6.25,0.471 0,1.0448 11.22668,12.3267 12.26641,12.3267 0.45597,0 0.69505,-2.8125 0.53131,-6.25 z m 10.7986,0.6279 c 3.52202,-3.0922 6.40368,-6.0172 6.40368,-6.5 0,-0.4829 -3.15,-0.8779 -7,-0.8779 h -7 v 6.5 c 0,3.575 0.26834,6.5 0.59632,6.5 0.32797,0 3.47797,-2.53 7,-5.6221 z m 323.2014,-0.6279 -0.29772,-6.25 -6.75,-0.2957 c -3.7125,-0.1626 -6.76033,0.062 -6.77295,0.5 -0.0278,0.9647 12.1939,12.2155 13.32067,12.2624 0.43874,0.018 0.66374,-2.7792 0.5,-6.2167 z m 10.42328,0.5313 c 3.17845,-3.1453 5.779,-6.0918 5.779,-6.5477 0,-0.456 -2.8125,-0.6951 -6.25,-0.5313 l -6.25,0.2977 -0.29772,6.25 c -0.16374,3.4375 0.0482,6.25 0.47101,6.25 0.42279,0 3.36926,-2.5734 6.54771,-5.7187 z M 764.13957,1630 c 2.83172,0 2.86043,-0.061 2.86043,-6.0438 v -6.0438 l -7.25,0.2938 -7.25,0.2938 -0.30143,6.393 -0.30143,6.3929 4.691,-0.6429 c 2.58005,-0.3537 5.9782,-0.643 7.55143,-0.643 z m -407.33731,-6.2406 c -0.23361,-4.0504 -0.69974,-5.3162 -2.05226,-5.5734 -1.49713,-0.2846 -1.75,0.4727 -1.75,5.2407 0,4.9539 0.22807,5.5733 2.05226,5.5733 1.84706,0 2.02204,-0.524 1.75,-5.2406 z M 774,1623.4267 c 0,-4.768 -0.25287,-5.5253 -1.75,-5.2407 -1.35252,0.2572 -1.81865,1.523 -2.05226,5.5734 -0.27204,4.7166 -0.0971,5.2406 1.75,5.2406 1.82419,0 2.05226,-0.6194 2.05226,-5.5733 z m -320.24484,2.8233 c 0.293,-0.89 -1.05236,-1.25 -4.67183,-1.25 -3.93147,0 -5.08333,0.3523 -5.08333,1.5548 0,1.228 0.9819,1.4907 4.67183,1.25 2.61107,-0.1704 4.85335,-0.8562 5.08333,-1.5548 z M 465,1624.3129 v -3.6871 l -3,2.8742 c -1.65,1.5808 -3,3.24 -3,3.6871 0,0.4471 1.35,0.8129 3,0.8129 2.7909,0 3,-0.257 3,-3.6871 z m 203,2.8742 c 0,-0.4471 -1.35,-2.1063 -3,-3.6871 l -3,-2.8742 v 3.6871 c 0,3.4301 0.2091,3.6871 3,3.6871 1.65,0 3,-0.3658 3,-0.8129 z m -216,-7.2535 c 0,-1.663 -0.53521,-2.0047 -2.74145,-1.75 -1.65345,0.1908 -2.87316,1.0109 -3.07332,2.0664 -0.25774,1.359 0.35471,1.75 2.74145,1.75 2.43958,0 3.07332,-0.4261 3.07332,-2.0664 z m 226.75,-0.1836 c -0.22917,-0.6875 -1.91667,-1.25 -3.75,-1.25 -1.83333,0 -3.52083,0.5625 -3.75,1.25 -0.28889,0.8667 0.86111,1.25 3.75,1.25 2.88889,0 4.03889,-0.3833 3.75,-1.25 z m -155.89424,-3.1609 c 0.72516,-0.4481 1.09624,-1.6647 0.82462,-2.7033 -0.28438,-1.0875 -0.0764,-1.6306 0.49033,-1.2803 1.35766,0.8391 0.65604,-27.1854 -0.71484,-28.5525 -0.57428,-0.5727 -4.84928,-1.2166 -9.5,-1.4308 -4.65073,-0.2142 -7.55587,-0.046 -6.45587,0.3742 1.2679,0.4841 -0.0133,0.7161 -3.5,0.6336 -4.65587,-0.11 -5.47896,0.1369 -5.3629,1.6092 0.0754,0.9566 -0.2621,1.4926 -0.75,1.191 -0.48791,-0.3015 -0.8871,2.9883 -0.8871,7.3108 0,4.3224 -0.48571,8.3447 -1.07936,8.9384 -1.33848,1.3384 -0.20876,9.8366 1.4957,11.2512 3.74528,3.1083 21.67921,4.9825 25.43942,2.6585 z M 582,1610 v -7 h -19 -19 v 7 7 h 19 19 z m -141,1.7226 c 0,-0.9323 2.16079,-1.27 7.99946,-1.25 5.71801,0.02 7.99962,0.3839 8,1.2774 3.6e-4,0.841 1.7185,1.2506 5.25054,1.2519 h 5.25 L 467.1912,1601 c -0.23714,-9.2149 -0.62004,-12 -1.65004,-12 -1.49406,0 -15.70669,11.0663 -22.29116,17.3564 -4.05251,3.8714 -5.40867,6.6436 -3.25,6.6436 0.55,0 1,-0.5748 1,-1.2774 z m 36,-4.2226 c 0,-3.025 -0.45,-5.5 -1,-5.5 -0.55,0 -1,2.475 -1,5.5 0,3.025 0.45,5.5 1,5.5 0.55,0 1,-2.475 1,-5.5 z m 3,0 c 0,-3.025 -0.45,-5.5 -1,-5.5 -0.55,0 -1,2.475 -1,5.5 0,3.025 0.45,5.5 1,5.5 0.55,0 1,-2.475 1,-5.5 z m 187,4 c 0,-1.2083 1.55556,-1.5 8,-1.5 6.44444,0 8,0.2917 8,1.5 0,0.9333 0.94444,1.5 2.5,1.5 3.05633,0 3.13327,-0.9252 0.36918,-4.4392 -3.07547,-3.9098 -22.96056,-19.6964 -24.26667,-19.265 -0.67985,0.2245 -1.29419,4.8388 -1.60251,12.0363 l -0.5,11.6723 h 3.75 c 2.66569,0 3.75,-0.4359 3.75,-1.5022 z m -193.96959,-17.25 c 0.029,-1.6667 0.0789,-1.6667 1.04969,0 1.23012,2.112 2.9199,2.298 2.9199,0.3214 0,-0.7857 0.75627,-2.1848 1.6806,-3.1091 1.57414,-1.5742 1.57414,-1.7402 0,-2.6212 -1.13179,-0.6333 -1.6806,-2.2305 -1.6806,-4.8908 0,-2.1727 -0.45,-3.9503 -1,-3.9503 -0.55,0 -1,1.5712 -1,3.4915 0,2.4085 -0.62036,3.879 -2,4.7406 -2.09907,1.3109 -2.93031,7.7679 -1,7.7679 0.55,0 1.01368,-0.7875 1.03041,-1.75 z M 649.07332,1593 c 0.50968,0 0.92668,0.675 0.92668,1.5 0,2.4195 1.72778,1.7208 2.40362,-0.972 0.76398,-3.0439 -0.36796,-13.3879 -1.54461,-14.1151 -0.47245,-0.292 -0.85901,1.2056 -0.85901,3.3281 0,2.1224 -0.54929,4.4083 -1.22063,5.0796 -0.67135,0.6714 -1.28472,2.8989 -1.36304,4.95 -0.0783,2.0512 0.054,2.9419 0.29396,1.9794 0.24,-0.9625 0.85336,-1.75 1.36303,-1.75 z m -169.28261,-30.9907 c 0.15989,-5.2199 0.69644,-9.8965 1.19233,-10.3923 0.90535,-0.9054 -3.48562,-7.617 -4.98327,-7.617 -1.00257,0 -18.4004,15.7152 -18.83589,17.0141 -0.18487,0.5515 1.56007,3.2674 3.87764,6.0355 l 4.21376,5.0329 7.12236,-0.2913 L 479.5,1571.5 Z m 183.65435,4.399 c 2.50522,-3.0754 4.55494,-5.9451 4.55494,-6.3771 0,-0.432 -3.85726,-4.2873 -8.57169,-8.5674 l -8.57169,-7.782 -2.97395,2.974 c -2.62126,2.6212 -2.84994,3.3001 -1.92831,5.7242 0.5751,1.5126 1.04564,6.2459 1.04564,10.5184 0,4.2726 0.3,8.0683 0.66667,8.4349 0.36666,0.3667 3.04194,0.6667 5.94506,0.6667 5.19881,0 5.34706,-0.084 9.83333,-5.5917 z m -198.84289,-15.1469 c 4.65055,-4.2562 9.29066,-8.0475 10.31135,-8.4251 1.31384,-0.486 2.6742,0.1677 4.65823,2.2386 1.54134,1.6088 3.48152,2.9251 4.31151,2.9251 1.02514,0 0.52442,-1.0422 -1.56143,-3.25 -1.68878,-1.7875 -3.05205,-4.0535 -3.0295,-5.0355 0.0226,-0.9821 3.9035,-5.2213 8.62434,-9.4204 4.72083,-4.1992 8.74447,-8.3457 8.94142,-9.2145 0.27921,-1.2317 -0.16132,-1.1258 -2,0.4805 -1.29695,1.1331 -5.73309,5.0156 -9.85809,8.6278 -5.9556,5.2153 -7.91184,6.4091 -9.5,5.7975 -2.64353,-1.018 -18.9345,-18.8842 -18.03732,-19.7814 0.38347,-0.3835 2.31878,1.1013 4.3007,3.2994 14.23359,15.7864 14.24265,15.7945 16.03598,14.3 0.93535,-0.7795 5.18938,-4.4854 9.4534,-8.2354 l 7.75277,-6.8181 -11.16663,-10.6249 c -6.14164,-5.8438 -11.54369,-10.625 -12.00456,-10.625 -0.46088,0 -3.73086,2.5875 -7.26664,5.75 -3.53577,3.1625 -6.78539,5.75 -7.22137,5.75 -0.43598,0 2.3205,-3.1372 6.12552,-6.9716 3.80502,-3.8344 6.59315,-7.2967 6.19584,-7.694 -0.39731,-0.3974 -3.62277,2.1522 -7.16769,5.6656 -3.54492,3.5134 -6.77827,6.0551 -7.18522,5.6481 -0.40695,-0.4069 2.05574,-3.2302 5.47265,-6.2739 3.41691,-3.0437 6.21257,-5.9131 6.21257,-6.3765 0,-0.4634 -1.573,-1.3617 -3.49555,-1.9962 -3.97614,-1.3123 -3.84517,-1.3864 -14.33949,8.1109 -5.32234,4.8166 -5.98788,5.7897 -4.69428,6.8633 0.82901,0.688 1.24258,1.6792 0.91903,2.2027 -0.33707,0.5454 -1.3198,0.2899 -2.30142,-0.5985 -1.57401,-1.4245 -2.26688,-1.0435 -8.53008,4.6895 l -6.81692,6.2398 0.71725,4.2454 c 0.39449,2.335 1.02145,4.2454 1.39324,4.2454 0.37179,0 3.72783,-2.7544 7.45787,-6.1209 3.73004,-3.3665 7.06436,-5.8384 7.40961,-5.4932 0.34525,0.3453 -2.71284,3.7534 -6.79577,7.5736 -4.08292,3.8201 -6.84964,6.9671 -6.14827,6.9931 0.70138,0.026 4.22226,-2.6942 7.82419,-6.0451 3.60193,-3.3508 6.85308,-5.7819 7.22478,-5.4022 0.37169,0.3796 -2.36958,3.4587 -6.09172,6.8424 -3.72214,3.3838 -6.75964,6.4868 -6.75,6.8956 0.0269,1.1396 18.15554,23.7567 19.04209,23.7567 0.42845,0 4.72013,-3.6 9.53705,-8 4.81692,-4.4 9.24862,-7.982 9.84822,-7.9599 0.59959,0.022 -3.40983,4.2829 -8.90983,9.4685 -5.5,5.1857 -9.40451,9.4427 -8.67668,9.46 0.72782,0.017 5.12831,-3.451 9.77885,-7.7072 z m -1.78678,-22.1303 c -4.77653,-5.2971 -8.31037,-9.7657 -7.85296,-9.9301 1.41636,-0.5093 18.55258,18.3755 17.32803,19.0961 -0.43476,0.2559 -4.69853,-3.8688 -9.47507,-9.166 z m 199.24606,19.778 c -4.6412,-4.3259 -8.15229,-8.1516 -7.80243,-8.5015 0.34986,-0.3498 4.25894,2.6778 8.68683,6.7282 4.42789,4.0503 8.45627,7.3642 8.95196,7.3642 1.00825,0 19.10219,-22.298 19.10219,-23.5405 0,-0.4354 -2.7758,-3.3036 -6.16845,-6.3738 -3.39264,-3.0702 -5.8883,-5.8623 -5.5459,-6.2047 0.3424,-0.3424 3.43097,1.8791 6.86348,4.9367 8.23715,7.3374 9.57803,6.258 1.57904,-1.2711 -7.76254,-7.3066 -7.25938,-8.75 0.636,-1.8244 6.38743,5.6028 7.66443,5.3957 7.53872,-1.2222 -0.0562,-2.9565 -0.922,-4.2488 -5.57612,-8.3222 -5.28336,-4.6242 -5.58802,-4.7513 -7.4182,-3.0951 -2.08965,1.8912 -2.67788,0.5967 -0.65857,-1.4492 1.00381,-1.017 -0.32562,-2.735 -6.75,-8.7229 -7.53367,-7.0219 -8.22341,-7.431 -11.83259,-7.0177 -2.10792,0.2414 -4.10819,0.7145 -4.44503,1.0514 -0.33684,0.3368 2.50075,3.7497 6.30577,7.5841 3.80502,3.8344 6.26657,6.9716 5.47013,6.9716 -0.79645,0 -4.44195,-2.9709 -8.1011,-6.602 -3.65916,-3.6312 -6.93522,-6.1455 -7.28012,-5.5874 -0.3449,0.5581 2.62534,3.9538 6.60053,7.5461 3.97519,3.5923 6.88969,6.8694 6.47665,7.2824 -0.41303,0.413 -3.84074,-2.3151 -7.61711,-6.0626 -3.77638,-3.7474 -7.3027,-6.6477 -7.83627,-6.445 -0.53357,0.2027 -5.98686,5.1541 -12.11843,11.0031 l -11.14831,10.6347 10.15539,8.7937 10.1554,8.7938 3.54098,-3.9284 c 11.0923,-12.3059 14.33908,-15.5968 14.86707,-15.0688 0.89338,0.8934 -15.43188,18.9425 -18.03777,19.9425 -0.93882,0.3602 -5.27736,-2.7386 -11.7994,-8.4279 -5.67306,-4.9487 -10.47114,-8.5281 -10.66241,-7.9543 -0.358,1.074 0.5674,1.9821 12.03714,11.8119 3.76314,3.2251 6.73911,6.5863 6.75,7.6238 0.0107,1.0206 -1.12401,3.2147 -2.52162,4.8756 -3.48937,4.1469 -2.17055,4.8509 1.82769,0.9756 3.10512,-3.0096 3.38751,-3.0885 6.06937,-1.6972 1.547,0.8026 5.99005,4.401 9.87345,7.9965 3.8834,3.5954 7.33294,6.2516 7.66566,5.9027 0.33271,-0.3488 -3.19242,-4.1737 -7.83362,-8.4997 z m -8.0412,-10.7526 c -0.0232,-1.5407 15.78246,-19.1565 17.18802,-19.1565 1.29672,0 -2.01905,4.2329 -10.18342,13 -3.8414,4.125 -6.99347,6.8954 -7.0046,6.1565 z M 517,1539 v -8 h -2.9349 c -4.27391,0 -8.13301,-1.7059 -11.74951,-5.1939 l -3.1844,-3.0713 -8.8156,7.8113 c -4.84857,4.2963 -8.96019,8.1648 -9.13693,8.5967 -0.17674,0.4319 0.94826,2.3764 2.5,4.3212 l 2.82134,3.5359 15.25,10e-5 H 517 Z m 124.62314,5.75 c 4.90036,-5.5918 5.2046,-4.8201 -5.61516,-14.243 l -10.03348,-8.7382 -4.39748,4.0534 c -2.64716,2.4401 -5.8263,4.3215 -7.98725,4.7269 L 610,1531.2226 v 7.8887 7.8887 h 14.82569 c 14.12389,0 14.91902,-0.1065 16.79745,-2.25 z M 521,1538.5 c 0,-4.3333 -0.42222,-7.5 -1,-7.5 -0.57778,0 -1,3.1667 -1,7.5 0,4.3333 0.42222,7.5 1,7.5 0.57778,0 1,-3.1667 1,-7.5 z m 24,0 V 1531 H 533.5 522 v 6.8333 c 0,3.7584 0.3,7.1334 0.66667,7.5 0.36666,0.3667 5.54166,0.6667 11.5,0.6667 H 545 Z m 4,0 c 0,-4.3333 -0.42222,-7.5 -1,-7.5 -0.57778,0 -1,3.1667 -1,7.5 0,4.3333 0.42222,7.5 1,7.5 0.57778,0 1,-3.1667 1,-7.5 z m 27,0 V 1531 H 563.5 551 v 7.5 7.5 h 12.5 12.5 z m 4,-0.559 c 0,-3.9607 -0.42938,-6.941 -1,-6.941 -0.57847,0 -1,3.1863 -1,7.559 0,4.7847 0.36702,7.3322 1,6.941 0.55,-0.3399 1,-3.7415 1,-7.559 z m 24,0.559 V 1531 H 592.5 581 v 6.8333 c 0,3.7584 0.3,7.1334 0.66667,7.5 0.36666,0.3667 5.54166,0.6667 11.5,0.6667 H 604 Z m 4,0 c 0,-4.3333 -0.42222,-7.5 -1,-7.5 -0.57778,0 -1,3.1667 -1,7.5 0,4.3333 0.42222,7.5 1,7.5 0.57778,0 1,-3.1667 1,-7.5 z m -173.06831,-29.5375 5.43168,-4.9468 -2.356,-2.5079 c -3.11539,-3.3161 -4.43834,-3.1646 -6.8814,0.7884 -2.1901,3.5436 -3.94889,11.7331 -2.50378,11.6584 0.4828,-0.025 3.32207,-2.2714 6.3095,-4.9921 z m 260.55278,-0.3787 c -0.11407,-1.8788 -1.18705,-4.6615 -2.3844,-6.1837 l -2.177,-2.7676 -2.174,2.174 -2.17401,2.174 3.91542,4.0097 c 2.15348,2.2054 4.20476,4.0098 4.55841,4.0098 0.35364,0 0.54966,-1.5373 0.43558,-3.4162 z m -245.93815,-13.1432 6.95368,-6.5593 -4.45752,0.6043 c -4.58764,0.622 -11.15853,3.2241 -14.35668,5.6853 -1.7409,1.3397 -1.72787,1.5059 0.32258,4.1126 1.17523,1.4941 2.68746,2.7165 3.36052,2.7165 0.67305,0 4.35289,-2.9517 8.17742,-6.5594 z m 238.02295,4.4829 c 1.8478,-2.0418 1.83785,-2.1099 -0.59501,-4.07 -3.24953,-2.618 -9.60291,-5.4867 -13.97426,-6.3096 -3.46685,-0.6526 -3.4337,-0.5971 3.5,5.8593 3.85,3.5849 7.49276,6.5358 8.09501,6.5574 0.60226,0.022 1.94067,-0.895 2.97426,-2.0371 z M 708.92971,1342.25 c -0.0401,-40.4069 -0.43887,-69.8922 -0.92971,-68.75 -0.53355,1.2416 -0.85943,-3.3085 -0.85943,-12 0,-8.6915 0.32588,-13.2416 0.85943,-12 0.51372,1.1955 0.8877,-7.5298 0.92971,-21.691 0.0434,-14.6373 0.45244,-23.9272 1.07029,-24.309 0.66424,-0.4105 1,34.6563 1,104.441 0,69.3727 -0.33968,105.059 -1,105.059 -0.65658,0 -1.02414,-24.2969 -1.07029,-70.75 z m -269.91313,-46.1099 c -6.49283,-3.3925 -12.71161,-9.7307 -16.32667,-16.6401 -2.90647,-5.5551 -3.14002,-6.7415 -3.14964,-16 -0.008,-7.5684 0.40177,-10.7295 1.68463,-13 1.65989,-2.9378 1.69585,-2.724 1.73506,10.3157 0.0423,14.0757 0.80481,17.1843 4.21498,17.1843 1.15752,0 2.60418,0.6779 3.21482,1.5064 0.88821,1.2051 1.80885,1.3051 4.60364,0.5 5.73003,-1.6507 6.26808,-1.4127 4.5066,1.9936 -1.80284,3.4863 -1.03514,3.8514 2.03461,0.9675 2.14291,-2.0132 2.18626,-2.0141 4.55304,-0.098 l 2.38952,1.9349 -3.73858,1.7828 c -2.05623,0.9806 -3.73859,2.1336 -3.73859,2.5624 0,1.3156 4.19639,3.1432 4.87717,2.1242 2.70423,-4.0478 5.30564,-6.4874 6.07323,-5.6955 0.49117,0.5067 1.28644,2.4657 1.76726,4.3533 1.26122,4.9512 2.81541,4.8074 4.27209,-0.3954 0.6986,-2.4951 1.61804,-4.5366 2.04322,-4.5366 0.42517,0 2.05419,1.5581 3.62004,3.4625 2.62308,3.1902 3.03304,3.3595 5.21254,2.153 l 2.36555,-1.3096 -3.61555,-2.2345 c -4.2434,-2.6225 -4.43887,-3.3752 -1.25349,-4.8266 1.95716,-0.8917 2.7524,-0.705 4.63908,1.0895 2.32788,2.2141 2.3551,2.0173 0.39187,-2.8343 -0.7364,-1.8198 1.06178,-1.9346 5.58788,-0.3568 2.77724,0.9681 3.42014,0.8916 4.19892,-0.5 0.84392,-1.508 7.82019,-2.4923 7.82019,-1.1034 0,0.2969 -0.86057,2.2094 -1.91237,4.25 -2.34521,4.5499 -7.12461,9.1177 -13.08763,12.5081 -4.07714,2.3181 -5.72004,2.5888 -17.48342,2.8803 -12.04171,0.2985 -13.31102,0.1506 -17.5,-2.0381 z m 221.87305,0.3901 c -7.53078,-2.7718 -16.50698,-10.2097 -19.84228,-16.4417 -1.09494,-2.0459 -0.93468,-2.0885 7.86455,-2.0885 7.66059,0 9.67411,0.3679 13.68412,2.5 3.43171,1.8247 6.24221,2.5 10.40398,2.5 4.16177,0 6.97227,-0.6753 10.40398,-2.5 3.95373,-2.1022 6.05527,-2.5 13.20795,-2.5 6.5146,0 8.34088,-0.2927 7.80038,-1.25 -0.54488,-0.9651 -0.41548,-0.9818 0.56779,-0.073 3.11779,2.881 -9.35011,15.8213 -18.56598,19.2694 -6.44203,2.4103 -19.73623,2.7145 -25.52449,0.584 z M 739.45522,1253 c 0,-21.725 0.13209,-30.6125 0.29353,-19.75 0.16144,10.8625 0.16144,28.6375 0,39.5 -0.16144,10.8625 -0.29353,1.975 -0.29353,-19.75 z m -394.29533,-58.5292 c -22.18706,-6.2247 -40.5545,-11.5321 -40.81653,-11.7941 -0.26203,-0.262 -0.10898,-0.6733 0.34011,-0.9139 0.88954,-0.4766 80.02872,21.6161 81.03435,22.6217 0.33853,0.3385 0.42801,0.7929 0.19885,1.0097 -0.22917,0.2168 -18.56972,-4.6987 -40.75678,-10.9234 z M 741,1205.1059 c 0,-0.5658 1.6875,-1.4914 3.75,-2.0569 2.0625,-0.5654 20.4,-5.701 40.75,-11.4123 20.35,-5.7114 37.1875,-10.2161 37.41667,-10.0105 1.06299,0.9536 -3.30063,2.3331 -39.63673,12.5304 -21.32897,5.9857 -39.56744,11.1295 -40.52994,11.4306 -0.9625,0.3012 -1.75,0.085 -1.75,-0.4813 z M 248.36662,1172.871 c -24.58935,-11.4834 -44.88533,-21.0564 -45.10218,-21.2732 -0.21686,-0.2169 0.71675,-0.3276 2.07468,-0.2461 1.35793,0.082 2.21332,0.5623 1.90088,1.0682 -0.31433,0.509 0.19844,0.6258 1.14789,0.2615 0.94379,-0.3622 1.47369,-0.2664 1.17755,0.2127 -0.72582,1.1744 9.19584,5.3715 10.61885,4.492 0.73772,-0.4559 0.84307,-0.2394 0.30617,0.6293 -0.59931,0.9697 -0.35895,1.1481 0.89743,0.666 0.94379,-0.3622 1.47534,-0.2691 1.18121,0.2068 -0.70725,1.1443 11.28749,6.3185 12.6687,5.4648 0.58917,-0.3641 0.78441,-0.198 0.43388,0.3692 -0.78132,1.2642 11.05196,6.5666 12.56612,5.6308 0.58917,-0.3641 0.78563,-0.1999 0.43658,0.3648 -0.80657,1.3051 10.92494,6.6479 12.48289,5.685 0.76534,-0.473 0.87713,-0.2675 0.33319,0.6126 -0.59931,0.9697 -0.35895,1.1481 0.89743,0.666 0.94379,-0.3622 1.47534,-0.2691 1.18121,0.2068 -0.70725,1.1443 11.28749,6.3185 12.6687,5.4648 0.58917,-0.3641 0.78441,-0.198 0.43388,0.3692 -0.78132,1.2642 11.05196,6.5666 12.56612,5.6308 0.58917,-0.3641 0.7908,-0.2083 0.44807,0.3463 -0.80369,1.3004 3.82237,3.4266 5.80228,2.6669 1.46617,-0.5626 1.96295,-1.8042 1.54694,-3.8662 -0.11097,-0.55 0.13184,-0.6664 0.53957,-0.2587 0.40773,0.4078 1.37666,0.2141 2.15319,-0.4304 1.05478,-0.8754 0.98305,-0.2725 -0.2836,2.3837 -1.22845,2.5761 -2.33922,3.5554 -4.0326,3.5554 -1.28542,0 -22.45569,-9.3955 -47.04503,-20.879 z m 579.66572,17.7919 -1.07617,-3.0871 2.05896,2.2101 c 1.90079,2.0402 2.30576,2.1045 5.27191,0.8365 6.98364,-2.9855 8.62941,-3.9486 8.12967,-4.7572 -0.28632,-0.4632 0.25161,-0.546 1.1954,-0.1838 1.25638,0.4821 1.49674,0.3037 0.89743,-0.666 -0.52888,-0.8557 -0.4309,-1.0848 0.27685,-0.6474 1.52556,0.9428 15.33094,-5.3691 14.54051,-6.6481 -0.35405,-0.5729 -0.15039,-0.7288 0.45949,-0.3519 1.39195,0.8603 15.35956,-5.3228 14.64308,-6.4821 -0.29334,-0.4747 0.23885,-0.5667 1.18264,-0.2045 1.25638,0.4821 1.49674,0.3037 0.89743,-0.666 -0.52192,-0.8445 -0.43036,-1.0845 0.25266,-0.6624 1.38121,0.8537 13.37595,-4.3205 12.6687,-5.4648 -0.29413,-0.4759 0.23742,-0.569 1.18121,-0.2068 1.25638,0.4821 1.49674,0.3037 0.89743,-0.666 -0.52888,-0.8557 -0.4309,-1.0848 0.27685,-0.6474 1.52556,0.9428 15.33094,-5.3691 14.54051,-6.6481 -0.35405,-0.5729 -0.15039,-0.7288 0.45949,-0.3519 1.39195,0.8603 15.35956,-5.3228 14.64308,-6.4821 -0.29334,-0.4747 0.23885,-0.5667 1.18264,-0.2045 1.25638,0.4821 1.49674,0.3037 0.89743,-0.666 -0.52192,-0.8445 -0.43036,-1.0845 0.25266,-0.6624 1.38121,0.8537 13.37595,-4.3205 12.6687,-5.4648 -0.29413,-0.4759 0.23742,-0.569 1.18121,-0.2068 1.25638,0.4821 1.49674,0.3037 0.89743,-0.666 -0.52888,-0.8557 -0.4309,-1.0848 0.27685,-0.6474 1.39195,0.8603 15.35956,-5.3228 14.64308,-6.4821 -0.29334,-0.4747 0.23885,-0.5667 1.18264,-0.2045 1.25638,0.4821 1.49674,0.3037 0.89743,-0.666 -0.54796,-0.8866 -0.43251,-1.0858 0.34923,-0.6027 0.64229,0.397 3.6407,-0.4104 6.66315,-1.7941 l 5.49535,-2.5159 -0.25863,-54.3013 L 967.5,1019.5 l -72.41542,-0.2566 c -59.54295,-0.211 -72.78598,-0.016 -74.5,1.0977 -7.36377,4.7842 -18.58458,11.6148 -18.58458,11.3133 0,-0.1977 2.70546,-2.4849 6.01212,-5.0828 3.37824,-2.654 5.72008,-5.1959 5.34549,-5.802 -0.39989,-0.647 -0.19757,-0.7887 0.50562,-0.3541 0.66112,0.4086 2.86234,-0.6141 5.04841,-2.3455 l 3.87617,-3.07 h 74.11422 74.11422 l -0.25813,57.6038 -0.25812,57.6038 -68.09459,31.7712 c -37.45203,17.4742 -69.26512,31.7712 -70.69575,31.7712 -2.00742,0 -2.84681,-0.7047 -3.67732,-3.0871 z M 187.5,1144.4101 c -7.15,-3.5417 -12.1,-6.1429 -11,-5.7803 1.1,0.3626 2.75446,0.6907 3.67658,0.729 0.92212,0.038 1.49235,0.3679 1.26717,0.7322 -0.63612,1.0293 11.57489,6.0088 12.88954,5.2562 0.64169,-0.3673 0.81043,-0.2769 0.37499,0.2009 -0.43545,0.4778 1.13955,1.8796 3.5,3.1151 9.46411,4.9538 1.46291,1.7759 -10.70828,-4.2531 z m -29.25,-13.4413 -2.25,-0.9044 v -57.5498 -57.5498 l 76.03659,0.054 c 44.53837,0.032 75.80719,0.4251 75.48282,0.9499 -0.30457,0.4928 3.27896,3.8888 7.96341,7.5467 4.68445,3.6579 8.51718,6.844 8.51718,7.0802 0,0.2363 -1.81674,-0.7173 -4.0372,-2.119 -2.22046,-1.4017 -4.58296,-2.2352 -5.25,-1.8522 -0.66704,0.383 -0.86086,0.3098 -0.43071,-0.1627 0.43016,-0.4725 -1.57399,-2.3447 -4.45366,-4.1604 L 304.59268,1019 h -71.1739 c -59.1135,0 -71.36694,0.2326 -72.31317,1.3728 -0.82925,0.9991 -1.06667,16.3746 -0.87245,56.5002 0.14676,30.32 0.26684,55.0988 0.26684,55.0638 0,-0.035 -1.0125,-0.4705 -2.25,-0.968 z M 105.37817,1099 c 0,-6.325 0.16237,-8.9125 0.36082,-5.75 0.19845,3.1625 0.19845,8.3375 0,11.5 -0.19845,3.1625 -0.36082,0.575 -0.36082,-5.75 z"
         id="path8" />
      <path
         style="fill:#6e6e6e;fill-opacity:1"
         d="M 940.18498,2462.2649 940,2456.0298 l -29.75,-0.2804 -29.75,-0.2803 29.78138,-0.2346 c 24.44572,-0.1925 29.87552,0.011 30.3068,1.1347 0.28898,0.7531 0.3581,3.7906 0.1536,6.75 l -0.37182,5.3808 z m -738.37317,-7.0132 c 8.42149,-0.1675 21.92149,-0.1671 30,8e-4 8.0785,0.1679 1.18819,0.3049 -15.31181,0.3044 -16.5,-4e-4 -23.10969,-0.1378 -14.68819,-0.3052 z M 511.8105,1664.2519 c 7.87078,-0.1691 20.47078,-0.1687 28,9e-4 7.52923,0.1697 1.0895,0.3081 -14.3105,0.3076 -15.4,-5e-4 -21.56027,-0.1393 -13.6895,-0.3085 z m 75,0 c 7.87078,-0.1691 20.47078,-0.1687 28,9e-4 7.52923,0.1697 1.0895,0.3081 -14.3105,0.3076 -15.4,-5e-4 -21.56027,-0.1393 -13.6895,-0.3085 z M 394.18498,1625.2977 394,1619.0954 l -6.25,-0.355 -6.25,-0.355 6.28138,-0.1927 c 7.26624,-0.2229 7.50475,0.049 6.9604,7.9265 l -0.37182,5.3808 z M 416.43674,1355 c 0,-14.575 0.1398,-20.5375 0.31066,-13.25 0.17086,7.2875 0.17086,19.2125 0,26.5 -0.17086,7.2875 -0.31066,1.325 -0.31066,-13.25 z m 31.20274,-7.6939 C 447.28777,1346.9544 447,1335.9417 447,1322.8333 V 1299 h 11.5 11.5 v 23.941 c 0,15.8885 -0.35899,24.1628 -1.06731,24.6006 -0.5877,0.3632 -1.31415,-0.2843 -1.61663,-1.441 -0.50299,-1.9234 -1.25648,-2.1006 -8.93269,-2.1006 -6.63262,0 -8.38337,0.3009 -8.38337,1.441 0,1.6706 -1.42728,2.7984 -2.36052,1.8651 z m 213.02719,0.027 C 660.3,1346.9667 660,1335.9417 660,1322.8333 V 1299 h 11.5 11.5 v 24.5 c 0,17.0649 -0.33189,24.5 -1.09362,24.5 -0.60149,0 -1.32897,-0.9 -1.61663,-2 -0.47055,-1.7994 -1.36402,-2 -8.90638,-2 -7.7167,0 -8.38337,0.159 -8.38337,2 0,1.9922 -1.06554,2.6011 -2.33333,1.3333 z m 52.57172,-93.3846 0.26161,-39.0513 12.5,-0.071 12.5,-0.071 0.5,39.1225 c 0.46354,36.2701 0.37671,39.1226 -1.19098,39.1221 -0.93004,-3e-4 -1.9691,-0.4505 -2.30902,-1.0005 -0.34141,-0.5524 -4.84372,-1 -10.05902,-1 -5.62732,0 -9.44098,0.4039 -9.44098,1 0,0.55 -0.68022,1 -1.51161,1 -1.32747,0 -1.47974,-4.757 -1.25,-39.0513 z m -290.43568,6.9536 c -0.16649,-7.7537 0.0115,-14.2909 0.39561,-14.5271 0.38407,-0.2361 0.83407,6.1085 1,14.0993 0.16592,7.9907 -0.0121,14.5279 -0.39561,14.5271 -0.38351,-9e-4 -0.83351,-6.3456 -1,-14.0993 z M 394.75,1204.2575 c 3.9875,-0.1898 10.5125,-0.1898 14.5,0 3.9875,0.1898 0.725,0.3451 -7.25,0.3451 -7.975,0 -11.2375,-0.1553 -7.25,-0.3451 z m 324.5,9e-4 c 3.7125,-0.1924 9.7875,-0.1924 13.5,0 3.7125,0.1925 0.675,0.3499 -6.75,0.3499 -7.425,0 -10.4625,-0.1574 -6.75,-0.3499 z m -581,-46.9974 c 3.1625,-0.1984 8.3375,-0.1984 11.5,0 3.1625,0.1985 0.575,0.3608 -5.75,0.3608 -6.325,0 -8.9125,-0.1623 -5.75,-0.3608 z M 105.39172,1123 c 0,-7.425 0.15742,-10.4625 0.34983,-6.75 0.19241,3.7125 0.19241,9.7875 0,13.5 -0.19241,3.7125 -0.34983,0.675 -0.34983,-6.75 z m 866.07612,-50.5 c 1.4e-4,-31.35 0.12689,-44.0305 0.28166,-28.1788 0.15477,15.8517 0.15466,41.5017 -2.6e-4,57 -0.15491,15.4983 -0.28154,2.5288 -0.2814,-28.8212 z m 47.97356,22 c 5e-4,-15.95 0.1385,-22.335 0.3068,-14.1888 0.1683,8.1461 0.1679,21.1961 -9e-4,29 -0.1687,7.8038 -0.3064,1.1388 -0.3059,-14.8112 z M 993.44052,1023 c 0,-15.675 0.13824,-22.0875 0.3072,-14.25 0.16896,7.8375 0.16896,20.6625 0,28.5 -0.16896,7.8375 -0.3072,1.425 -0.3072,-14.25 z M 113.75,989.2596 c 3.4375,-0.19527 9.0625,-0.19527 12.5,0 3.4375,0.19527 0.625,0.35504 -6.25,0.35504 -6.875,0 -9.6875,-0.15977 -6.25,-0.35504 z"
         id="path7" />
      <path
         style="fill:#626262;fill-opacity:1"
         d="m 683.43125,1323.5 c 6.6e-4,-13.2 0.14295,-18.4617 0.31621,-11.6927 0.17326,6.7691 0.17273,17.5691 -0.001,24 -0.17391,6.431 -0.31567,0.8927 -0.31502,-12.3073 z m -259.62987,-64.25 c -0.16576,-8.1125 -0.067,-29.15 0.21948,-46.75 l 0.52086,-32 0.22914,46.75 c 0.12603,25.7125 0.0273,46.75 -0.21948,46.75 -0.24674,0 -0.58424,-6.6375 -0.75,-14.75 z M 1019.4202,1142.5 c -9e-4,-11 0.1452,-15.6364 0.3247,-10.3032 0.1794,5.3332 0.1801,14.3332 0,20 -0.1786,5.6668 -0.3254,1.3032 -0.3263,-9.6968 z m -42.13369,15.7599 c 3.18258,-0.199 8.13258,-0.1972 11,0 2.86742,0.2013 0.26349,0.3642 -5.78651,0.3619 -6.05,0 -8.39607,-0.1669 -5.21349,-0.366 z M 105.37817,1147 c 0,-6.325 0.16237,-8.9125 0.36082,-5.75 0.19845,3.1625 0.19845,8.3375 0,11.5 -0.19845,3.1625 -0.36082,0.575 -0.36082,-5.75 z"
         id="path6" />
      <path
         style="fill:#575757;fill-opacity:1"
         d="m 554.30194,1620.2539 c 5.39107,-0.1802 13.94107,-0.1794 19,0 5.05893,0.1811 0.64806,0.3285 -9.80194,0.3276 -10.45,-10e-4 -14.58913,-0.1492 -9.19806,-0.3293 z M 524.38536,1600 c 0,-6.875 0.15977,-9.6875 0.35504,-6.25 0.19527,3.4375 0.19527,9.0625 0,12.5 -0.19527,3.4375 -0.35504,0.625 -0.35504,-6.25 z m 29.36464,3.2549 c 5.0875,-0.1815 13.4125,-0.1815 18.5,0 5.0875,0.1815 0.925,0.33 -9.25,0.33 -10.175,0 -14.3375,-0.1485 -9.25,-0.33 z m -18.4346,-78.0038 c 10.34848,-0.1626 26.99848,-0.1624 37,6e-4 10.00153,0.163 1.5346,0.2961 -18.8154,0.2957 -20.35,-3e-4 -28.53307,-0.1336 -18.1846,-0.2963 z M 113.5,1162 l -6,-0.6638 7.5,-0.05 c 4.125,-0.027 8.85,0.2937 10.5,0.7136 2.65264,0.675 2.47895,0.7576 -1.5,0.7136 -2.475,-0.027 -7.2,-0.3485 -10.5,-0.7136 z m -7.69098,-1.75 c -0.16996,-0.4125 -0.0668,-10.65 0.22932,-22.75 l 0.53833,-22 0.21167,22.75 c 0.19064,20.491 0.0159,24.4156 -0.97932,22 z M 872.75,1019.2505 c 17.1875,-0.1534 45.3125,-0.1534 62.5,0 17.1875,0.1535 3.125,0.279 -31.25,0.279 -34.375,0 -48.4375,-0.1255 -31.25,-0.279 z"
         id="path5" />
      <path
         style="fill:#4b4b4b;fill-opacity:1"
         d="m 997.48594,2606.5 c 2e-5,-75.35 0.11881,-106.0274 0.26397,-68.172 0.14516,37.8555 0.14513,99.5055 -5e-5,137 -0.14518,37.4946 -0.26395,6.522 -0.26392,-68.828 z M 156.48589,2606 c 0,-75.075 0.1188,-105.7875 0.26399,-68.25 0.1452,37.5375 0.1452,98.9625 0,136.5 -0.14519,37.5375 -0.26399,6.825 -0.26399,-68.25 z M 50.320361,2007.2506 c 14.751198,-0.156 38.601198,-0.1558 52.999999,3e-4 14.3988,0.1561 2.32964,0.2836 -26.82036,0.2835 -29.15,-2e-4 -40.930838,-0.1279 -26.179639,-0.2838 z m 106.346309,0.083 c -0.36667,-0.3666 -0.55512,-159.5541 -0.41877,-353.75 l 0.24789,-353.0833 0.50211,353 0.5021,353 14,0.5432 14,0.5431 -14.08333,0.2069 c -7.74584,0.1137 -14.38334,-0.093 -14.75,-0.4599 z m 792.08333,-0.076 c 3.9875,-0.1898 10.5125,-0.1898 14.5,0 3.9875,0.1898 0.725,0.3451 -7.25,0.3451 -7.975,0 -11.2375,-0.1553 -7.25,-0.3451 z m 48.91667,0.076 c -0.36667,-0.3666 -0.55496,-190.6041 -0.41843,-422.75 l 0.24823,-422.0833 0.50177,422 0.50176,422 52.5,0.5134 52.5,0.5134 -52.5833,0.2366 c -28.9209,0.1301 -52.88337,-0.063 -53.25003,-0.4301 z M 416.28651,1611.2599 c 3.18258,-0.199 8.13258,-0.1972 11,0 2.86742,0.2013 0.26349,0.3642 -5.78651,0.3619 -6.05,0 -8.39607,-0.1669 -5.21349,-0.366 z m 179.50268,-86.0013 c 3.45905,-0.1958 8.85905,-0.1942 12,0 3.14094,0.1978 0.31081,0.358 -6.28919,0.356 -6.6,0 -9.16987,-0.1638 -5.71081,-0.3596 z M 711.48169,1308.5 c 4e-5,-57.2 0.12071,-80.4531 0.26815,-51.6736 0.14745,28.7796 0.14741,75.5796 -8e-5,104 -0.14749,28.4205 -0.26812,4.8736 -0.26807,-52.3264 z m -265.05044,15 c 6.6e-4,-13.2 0.14295,-18.4617 0.31621,-11.6927 0.17326,6.7691 0.17273,17.5691 -10e-4,24 -0.17391,6.431 -0.31567,0.8927 -0.31502,-12.3073 z m 259.56558,-62.2971 0.49682,-15.7029 0.2809,14.9223 c 0.15449,8.2072 -0.0691,15.2735 -0.49683,15.7029 -0.42775,0.4293 -0.55415,-6.2857 -0.28089,-14.9223 z m 66.81614,-80.9514 c 8.97214,-0.1659 23.37214,-0.1656 32,7e-4 8.62787,0.1663 1.28703,0.3021 -16.31297,0.3017 -17.6,-4e-4 -24.65916,-0.1365 -15.68703,-0.3024 z m 247.18103,-28.0472 0.4939,-10.7043 0.2942,9.9118 c 0.1618,5.4515 -0.06,10.2685 -0.4939,10.7043 -0.4335,0.4358 -0.5659,-4.0245 -0.2942,-9.9118 z m -858.88153,-21.5688 c -0.81638,-0.9837 -1.05704,-14.4495 -0.86232,-48.25 l 0.27011,-46.8855 0.23987,47.05 c 0.17837,34.9864 0.54755,47.3577 1.43987,48.25 0.66,0.66 0.9401,1.2 0.62244,1.2 -0.31765,0 -1.08714,-0.614 -1.70997,-1.3645 z M 967.46563,1073.5 c 1.6e-4,-29.15 0.12787,-40.9308 0.2838,-26.1796 0.15592,14.7512 0.15579,38.6012 -3e-4,53 -0.15609,14.3988 -0.28367,2.3296 -0.2835,-26.8204 z M 106.43674,1090 c 0,-14.575 0.1398,-20.5375 0.31066,-13.25 0.17086,7.2875 0.17086,19.2125 0,26.5 -0.17086,7.2875 -0.31066,1.325 -0.31066,-13.25 z M 233.5,1020 l -72,-0.5199 71.69098,-0.24 c 46.97595,-0.1573 71.90405,0.1046 72.30902,0.7599 0.33992,0.55 0.47898,0.892 0.30902,0.7599 C 305.63906,1020.6279 273.1,1020.2859 233.5,1020 Z m -100.10544,-13.5 c 0.002,-7.7 0.15853,-10.71781 0.34883,-6.70625 0.1903,4.01155 0.18902,10.31155 -0.003,14.00005 -0.19185,3.6884 -0.34755,0.4062 -0.34599,-7.2938 z"
         id="path4" />
      <path
         style="fill:#3f3f3f;fill-opacity:1"
         d="m 129.48599,2607 c 0,-75.625 0.11875,-106.5625 0.2639,-68.75 0.14514,37.8125 0.14514,99.6875 0,137.5 -0.14515,37.8125 -0.2639,6.875 -0.2639,-68.75 z m 0.009,-1022.5 c 0,-232.65 0.11459,-327.9742 0.25465,-211.8316 0.14007,116.1427 0.14007,306.4927 1e-5,423 -0.14006,116.5074 -0.25466,21.4816 -0.25466,-211.1684 z m 372.57741,99.3477 C 500.34253,1681.9905 500,1680.332 500,1673.8114 V 1666 h 26 26 l 0.006,4.75 c 0.006,5.5385 1.72157,12.4303 3.35574,13.4847 0.62628,0.4041 4.34608,0.7416 8.26624,0.75 5.24304,0.011 7.4689,-0.396 8.41859,-1.5403 0.71007,-0.8556 1.49799,-5.1306 1.75093,-9.5 L 574.25697,1666 H 600.62849 627 v 7.941 c 0,4.6396 0.45196,8.2203 1.08713,8.6129 0.77601,0.4796 0.76188,0.9973 -0.0494,1.809 -0.818,0.8184 -18.33757,1.2173 -62.51439,1.4234 l -61.37789,0.2862 z M 669,1650.5 v -5.5 l 3.75,-0.014 c 2.0625,-0.01 4.7625,-0.2849 6,-0.6166 2.15382,-0.5772 2.25,-0.3415 2.25,5.5137 V 1656 h -6 -6 z M 546,1631 v -9 h 17.61663 17.61663 l -0.60297,2.25 c -0.33164,1.2375 -0.60913,5.2875 -0.61664,9 L 580,1640 h -17 -17 z m 0,-21 v -5 h 17.5 17.5 v 5 5 H 563.5 546 Z m -87.29928,-0.036 c -0.49143,-1.8792 -1.04101,-1.9843 -7.11664,-1.3619 -8.17046,0.8371 -8.5842,-0.489 -1.79148,-5.7419 2.58907,-2.0022 7.0699,-5.528 9.9574,-7.8351 l 5.25,-4.1947 v 10.585 V 1612 h -2.88337 c -2.05957,0 -3.03552,-0.5818 -3.41591,-2.0365 z M 662,1601.345 c 0,-10.4761 0.0325,-10.6255 1.93699,-8.902 1.08883,0.9854 2.4701,1.4234 3.15451,1.0005 0.71994,-0.445 0.95967,-0.3353 0.58659,0.2683 -0.83699,1.3543 2.8916,4.6722 4.28367,3.8118 0.59829,-0.3697 0.96414,-0.1839 0.81302,0.413 -0.15113,0.5968 1.97522,3.088 4.72522,5.5359 l 5,4.4507 -8.34362,0.038 c -7.48543,0.034 -8.39741,0.2441 -8.86663,2.0384 -0.28766,1.1 -1.14553,2 -1.90638,2 C 662.2921,1612 662,1609.7502 662,1601.345 Z m 12.75,-10.9334 c -4.98701,-3.9667 -5.75,-5.0273 -5.75,-7.9926 V 1579 h 6 6 v 8 c 0,4.4 -0.1125,7.9967 -0.25,7.9926 -0.1375,0 -2.8375,-2.0656 -6,-4.581 z m -210.5804,-22.3961 c -1.26135,-1.706 -2.76131,-2.7678 -3.37461,-2.3888 -0.68039,0.4205 -0.81983,0.2225 -0.36341,-0.516 0.40733,-0.6591 0.26192,-1.7751 -0.32312,-2.48 -0.79503,-0.958 -0.19511,-2.1236 2.375,-4.6147 1.89129,-1.8331 3.22389,-3.6805 2.96132,-4.1054 -0.26257,-0.4248 0.0495,-1.098 0.69342,-1.496 0.73122,-0.4519 0.90292,-0.2901 0.45729,0.4309 -1.51239,2.4471 1.00806,0.9786 4.93478,-2.8752 3.86362,-3.7919 4.19442,-3.9247 5.60438,-2.25 1.20955,1.4366 1.38919,3.8038 0.93187,12.2797 l -0.56652,10.5 -5.5299,0.2933 c -5.16358,0.2739 -5.68032,0.09 -7.8005,-2.7778 z m 185.14365,2.2213 c -1.60824,-1.0525 -2.00157,-19.9485 -0.44759,-21.5025 1.40074,-1.4007 1.50167,-3.0794 0.13434,-2.2343 -1.62773,1.006 -1.13977,-0.1417 0.69196,-1.6276 0.93058,-0.7548 1.40831,-0.8977 1.06162,-0.3176 -0.34668,0.5801 2.94519,4.3254 7.31527,8.3229 l 7.9456,7.2681 -3.59266,4.3843 c -1.97596,2.4114 -3.35172,4.7743 -3.05725,5.2507 0.67475,1.0918 -8.44741,1.5056 -10.05129,0.456 z m -204.71523,-26.9167 -8.69104,-10.8201 6.54651,-6.0636 c 3.60058,-3.3349 6.54651,-6.744 6.54651,-7.5756 0,-2.0624 -4.59094,-6.2316 -5.94228,-5.3965 -0.59969,0.3707 -0.83463,1.0876 -0.52209,1.5933 0.31253,0.5057 -0.0277,0.6908 -0.75617,0.4113 -0.72843,-0.2796 -3.32049,1.5256 -5.76015,4.0114 -2.43965,2.4858 -4.81026,4.5197 -5.26803,4.5197 -0.45776,0 -0.72768,-1.7732 -0.5998,-3.9404 0.12787,-2.1672 0.63672,-3.6905 1.13078,-3.3852 1.09411,0.6762 8.82839,-6.6863 8.16001,-7.7678 -0.26119,-0.4226 0.052,-1.094 0.69593,-1.492 0.68558,-0.4237 0.90422,-0.2923 0.52756,0.3172 -0.3538,0.5725 0.36417,1.3108 1.59549,1.6409 3.76273,1.0084 4.73875,0.7136 4.73875,-1.4317 0,-1.1325 -0.41891,-1.8001 -0.9309,-1.4837 -0.512,0.3164 -1.25914,0.01 -1.66033,-0.691 -0.40118,-0.6965 -0.37253,-0.9441 0.0637,-0.5502 0.88512,0.7992 5.18458,-4.1952 4.75279,-5.5211 -0.15112,-0.464 0.227,-0.5335 0.84027,-0.1545 1.26005,0.7787 9.12179,-6.4285 8.35885,-7.6629 -0.27106,-0.4386 0.91336,-0.3072 2.63204,0.2919 l 3.12488,1.0893 -5.59063,5.6496 c -3.07485,3.1073 -5.57566,6.0865 -5.55736,6.6206 0.0542,1.5821 3.67946,5.471 5.10012,5.471 0.72204,0 4.04162,-2.7046 7.37685,-6.0101 l 6.06405,-6.0102 3.9158,4.0102 c 3.76055,3.8511 6.44527,5.3705 4.87697,2.7601 -0.4969,-0.8271 -0.17037,-0.7789 0.96515,0.1425 0.94387,0.7659 1.46865,1.64 1.16617,1.9424 -0.30247,0.3025 1.71674,2.8452 4.48713,5.6504 l 5.03708,5.1005 -3.47238,3.3655 c -1.90981,1.8511 -3.24152,3.7391 -2.95936,4.1957 0.28216,0.4565 -0.0901,0.5987 -0.82717,0.3158 -0.7371,-0.2828 -2.64466,0.8473 -4.23903,2.5115 -3.2385,3.3802 -4.69953,3.7248 -6.51551,1.5367 -0.67967,-0.8189 -1.70429,-1.1994 -2.27696,-0.8455 -0.6331,0.3913 -0.73835,0.1535 -0.26853,-0.6067 0.82678,-1.3377 -8.21247,-11.3321 -9.51891,-10.5246 -0.39541,0.2443 -0.65724,-0.2761 -0.58184,-1.1566 0.0754,-0.8804 -0.58601,-2.0702 -1.4698,-2.6438 -2.10816,-1.3684 -6.8174,1.9314 -6.86168,4.808 -0.0302,1.9613 7.85553,10.6944 9.61449,10.6476 0.46975,-0.013 1.07909,0.2369 1.35409,0.5543 0.275,0.3173 -0.0625,0.2532 -0.75,-0.1424 -2.40452,-1.3837 -1.21878,0.8463 2.44494,4.5983 l 3.69495,3.784 -2.70895,2.8275 c -1.48992,1.5552 -2.36514,3.206 -1.94494,3.6686 0.4202,0.4625 0.15844,0.4906 -0.58169,0.062 -0.89704,-0.519 -2.93257,0.7845 -6.10547,3.9097 l -4.75978,4.6882 z m 224.71439,9.0342 c 0.40653,-0.4066 -1.61958,-3.1276 -4.50247,-6.0467 -4.91672,-4.9786 -7.83691,-6.8871 -6.20863,-4.0576 0.40104,0.6969 0.33012,0.8948 -0.16027,0.4474 -0.98775,-0.9013 -1.3657,-6.7689 -0.39746,-6.1705 0.34105,0.2108 2.77393,-1.8035 5.40641,-4.4761 3.1943,-3.2431 4.52738,-5.307 4.00784,-6.2051 -0.42816,-0.7401 -0.40003,-1.0019 0.0625,-0.5817 0.94072,0.8546 6.48938,-4.0404 6.46238,-5.7011 -0.02,-1.2319 -4.35274,-5.5456 -5.62367,-5.599 -0.47248,-0.02 -4.74814,4.1254 -9.50148,9.2117 -7.4493,7.9711 -8.85832,9.0687 -10.2062,7.95 -0.86007,-0.7138 -2.103,-0.9645 -2.76207,-0.5572 -0.72261,0.4466 -0.93675,0.3174 -0.53943,-0.3255 0.36239,-0.5863 -2.29104,-3.656 -5.8965,-6.8214 l -6.55539,-5.7553 5.07679,-5.1407 c 2.79224,-2.8273 4.82932,-5.3881 4.52685,-5.6906 -0.30248,-0.3024 0.2223,-1.1765 1.16617,-1.9424 1.13552,-0.9214 1.46205,-0.9696 0.96515,-0.1425 -1.56844,2.6107 1.11658,1.0908 4.87787,-2.7611 l 3.9167,-4.011 6.56134,6.511 c 3.60874,3.5811 7.23754,6.5111 8.06401,6.5111 1.95585,0 4.94714,-3.5217 4.94714,-5.8243 0,-0.9909 -1.26212,-3.0107 -2.80472,-4.4886 -2.93922,-2.816 -4.82133,-3.5687 -3.59305,-1.4371 0.39615,0.6875 -0.3806,0.2499 -1.7261,-0.9724 -1.3455,-1.2224 -2.5151,-3.1349 -2.5991,-4.25 -0.22162,-2.9421 3.79587,-2.6434 6.75066,0.5019 1.39653,1.4865 3.002,2.2893 3.89383,1.9471 0.83464,-0.3203 1.18582,-0.2506 0.78042,0.1548 -0.40541,0.4054 0.7333,2.2569 2.53048,4.1143 2.04241,2.111 3.26758,4.3853 3.26758,6.0658 0,2.3518 0.39642,2.6885 3.16578,2.6885 1.94743,0 4.13183,0.9062 5.67597,2.3548 1.48677,1.3947 3.01108,2.0452 3.73873,1.5955 0.75967,-0.4695 0.97252,-0.3451 0.55772,0.3261 -0.36895,0.597 -0.21348,1.3681 0.34549,1.7135 0.55897,0.3455 1.01631,1.9375 1.01631,3.5377 0,2.303 -0.34695,2.7765 -1.66404,2.2711 -1.20826,-0.4637 -1.43984,-0.2758 -0.8455,0.6859 0.56055,0.907 0.43369,1.0866 -0.40248,0.5698 -0.67157,-0.4151 -0.95695,-1.0188 -0.63417,-1.3415 0.68682,-0.6869 -6.42956,-8.2129 -7.76581,-8.2129 -1.26549,0 -5.64975,4.2787 -5.67072,5.5342 -0.0295,1.7678 10.72366,11.7439 11.88505,11.0262 2.18702,-1.3517 0.94893,0.4904 -7.47477,11.1211 -4.71484,5.9502 -9.53586,11.177 -10.71337,11.6152 -1.17752,0.4382 -1.80832,0.4641 -1.40178,0.058 z m -184.25515,-10.0086 c -1.87768,-2.3871 -1.93511,-2.8232 -0.5704,-4.3312 0.83463,-0.9222 1.17902,-2.0499 0.76532,-2.506 -0.4137,-0.456 -0.14906,-0.4803 0.58809,-0.054 0.86545,0.5005 2.63678,-0.4285 5,-2.6224 8.12668,-7.5445 7.89285,-7.4315 10.43386,-5.0443 2.63134,2.472 8.77903,5.2122 11.69375,5.2122 1.81704,0 2.03212,0.6351 2.03212,6 v 6 h -13.92742 c -13.88079,0 -13.93441,-0.01 -16.01532,-2.6543 z M 611,1539.1583 v -5.8417 l 3.95493,-1.185 c 2.17522,-0.6517 5.41116,-2.4104 7.19099,-3.9082 2.77767,-2.3376 8.4704,-4.0296 7.32563,-2.1774 -0.78614,1.272 6.32659,7.1956 7.69204,6.4061 0.73503,-0.425 0.991,-0.3927 0.56883,0.072 -0.42218,0.4645 0.67361,2.3315 2.43507,4.1489 l 3.20265,3.3043 -2.35938,2.5115 c -2.2989,2.447 -2.71384,2.5114 -16.18507,2.5114 H 611 Z M 524,1538.5 v -5.5 h 9.5 9.5 v 5.5 5.5 h -9.5 -9.5 z m 29,0 v -5.5 h 10.5 10.5 v 5.5 5.5 H 563.5 553 Z m 30,0 v -5.5 h 9.5 9.5 v 5.5 5.5 h -9.5 -9.5 z m -72.5,-16.0047 c -1.65,-0.7378 -5.23308,-3.6261 -7.96241,-6.4184 -4.66336,-4.771 -7.55074,-6.6323 -5.93628,-3.8269 0.41793,0.7262 0.33791,0.9008 -0.19098,0.4167 -0.50068,-0.4584 -0.91033,-1.2465 -0.91033,-1.7515 0,-0.505 -2.34757,-3.28 -5.21683,-6.1667 -2.86926,-2.8867 -20.53176,-24.9014 -39.25,-48.9217 L 417,1412.1537 l 0.13618,-71.8269 c 0.0749,-39.5047 0.31197,-70.7018 0.52681,-69.3268 0.63759,4.0806 5.58297,13.966 6.65523,13.3033 0.58108,-0.3591 0.67267,-0.098 0.22148,0.6325 -1.60621,2.5989 14.05579,15.0642 18.92737,15.0642 1.2813,0 1.53601,3.4993 1.76515,24.25 l 0.26778,24.25 2.84126,0.3252 c 2.47738,0.2836 2.75691,0.06 2.18262,-1.75 -0.62665,-1.9744 -0.29421,-2.0752 6.84134,-2.0752 6.62175,0 7.57434,0.2342 8.13478,2 0.37924,1.1949 1.5134,2.0003 2.81739,2.0007 l 2.18261,6e-4 v -24.6868 -24.6868 l 5.5,-3.3281 c 3.025,-1.8304 5.43831,-3.9918 5.3629,-4.8031 -0.0754,-0.8112 0.1908,-1.2723 0.59155,-1.0246 1.12443,0.6949 6.57783,-5.5841 8.00931,-9.2219 l 1.27888,-3.25 h 15.01844 c 12.52052,0 15.2102,0.2623 16.17139,1.5768 0.94851,1.2971 3.76099,1.6074 15.86052,1.75 8.08917,0.095 14.70745,-0.1643 14.70729,-0.5768 -1.5e-4,-0.4125 0.56222,-0.6375 1.24972,-0.5 0.6875,0.1375 1.20604,-0.425 1.15231,-1.25 -0.0859,-1.3182 4.90857,-1.4394 41.21629,-1 l 41.31399,0.5 2.89946,4.573 c 3.06122,4.8282 9.49054,10.5724 14.91795,13.3282 l 3.25,1.6502 V 1323.5257 1349 h 2.59362 c 1.71864,0 2.76339,-0.6492 3.09686,-1.9244 0.42728,-1.6339 1.59284,-1.9735 7.72256,-2.25 7.09215,-0.3199 7.21144,-0.2846 6.77144,2.0035 -0.39551,2.0568 -0.11087,2.2907 2.43382,2 l 2.8817,-0.3291 0.26827,-25 0.26827,-25 4.26562,-1.7597 c 5.31473,-2.1924 11.04604,-6.8578 14.81317,-12.0582 l 2.88467,-3.9822 0.16667,66.1501 c 0.0917,36.3825 0.20416,66.7838 0.25,67.5585 0.0458,0.7746 -14.09153,19.5621 -31.41636,41.75 -17.32484,22.1878 -31.49984,40.6415 -31.5,41.0082 -1.7e-4,0.3666 -0.40996,1.0416 -0.91064,1.5 -0.52889,0.4841 -0.60891,0.3095 -0.19098,-0.4167 0.39564,-0.6875 0.34229,-1.25 -0.11856,-1.25 -1.12235,0 -13.28774,12.3181 -13.00346,13.1667 0.12283,0.3666 -0.18632,1.0416 -0.687,1.5 -0.52889,0.4841 -0.60891,0.3095 -0.19098,-0.4167 1.65436,-2.8748 -1.18572,-0.8249 -7.9664,5.75 l -7.21913,7 -50.35658,-0.082 c -39.82065,-0.064 -50.98426,-0.3622 -53.35658,-1.4231 z M 653.38722,1469.75 c 0.80355,-1.2754 0.80319,-2.2246 -10e-4,-3.5 -0.97809,-1.5506 -2.97159,-1.75 -17.49489,-1.75 -16.38903,0 -16.39105,3e-4 -16.72009,2.3227 -0.7314,5.1624 -0.43883,5.2479 16.94958,4.9522 14.12346,-0.2402 16.30337,-0.4958 17.26672,-2.0249 z m -222.88733,38.2422 c 0.4336,-1.3707 1.46795,-3.5317 2.29855,-4.8022 1.35504,-2.0727 1.66723,-2.1529 3.03903,-0.7811 1.3718,1.3718 1.35572,1.7201 -0.15649,3.3911 -0.92694,1.0243 -1.34686,2.2354 -0.93316,2.6915 0.4137,0.456 0.16997,0.4933 -0.54162,0.083 -0.7116,-0.4105 -2.01401,-0.1487 -2.89425,0.5819 -1.41716,1.1761 -1.51016,1.0428 -0.81206,-1.1639 z m 10.72262,-8.5489 c -3.12527,-2.189 -2.8172,-2.977 2.09321,-5.3541 6.44131,-3.1182 7.54378,-2.5537 3.36689,1.7238 -2.04781,2.0971 -3.41414,4.1221 -3.03628,4.5 1.21801,1.218 -0.1377,0.7316 -2.42382,-0.8697 z M 680,1495.9439 c -4.16036,-3.6264 -4.27358,-3.8455 -1.5,-2.9031 4.43774,1.5078 8.20444,4.6494 7,5.8384 -0.66103,0.6525 -2.52534,-0.3424 -5.5,-2.9353 z M 156.47409,1229.5 c 1e-4,-39.6 0.12411,-55.6544 0.27559,-35.6764 0.15148,19.9779 0.15141,52.3779 -1.7e-4,72 -0.15157,19.622 -0.27551,3.2764 -0.27542,-36.3236 z m 813.99966,1 c -9e-5,-39.05 0.124,-55.1705 0.27575,-35.8234 0.15176,19.3471 0.15184,51.2971 1.7e-4,71 -0.15166,19.7029 -0.27582,3.8734 -0.27592,-35.1766 z m -524.4761,68.25 c 10e-4,-0.4125 5.51485,-0.6714 12.25235,-0.5753 12.43366,0.1773 10.95424,0.5676 -4.00235,1.0559 -4.53879,0.1482 -8.25129,-0.068 -8.25,-0.4806 z m 215.2984,-0.3794 c 0.69252,-0.6925 20.89375,-0.5141 21.5986,0.1907 0.24128,0.2413 -4.66132,0.4387 -10.89465,0.4387 -6.23333,0 -11.05011,-0.2832 -10.70395,-0.6294 z M 712.45522,1254 c 0,-21.725 0.13209,-30.6125 0.29353,-19.75 0.16144,10.8625 0.16144,28.6375 0,39.5 -0.16144,10.8625 -0.29353,1.975 -0.29353,-19.75 z m -257.74403,33.2264 c -0.37591,-1.8349 -1.44862,-3.5217 -2.44091,-3.8381 -0.97365,-0.3105 -3.39133,-1.4163 -5.37262,-2.4574 -1.98129,-1.0411 -3.89379,-1.6014 -4.25,-1.2452 -0.35621,0.3562 -0.64766,0.1226 -0.64766,-0.519 0,-0.8313 3.88095,-1.1667 13.5,-1.1667 7.425,0 13.5,0.2159 13.5,0.4797 0,0.756 -7.76486,4.5203 -9.32447,4.5203 -0.77227,0 -2.05429,1.6875 -2.84892,3.75 l -1.44478,3.75 z M 665,1279.5554 c -2.32171,-1.3787 -1.75475,-1.4871 7.95,-1.52 8.21521,-0.028 10.18945,0.2252 9.23165,1.1829 -1.87631,1.8764 -14.18293,2.1178 -17.18165,0.3371 z M 417.115,1231.25 417,1204 h -14.44098 c -7.94254,0 -14.66751,-0.3665 -14.94438,-0.8145 -0.27687,-0.448 -18.08574,-5.7355 -39.57527,-11.75 l -39.07188,-10.9355 29.95623,-0.2646 29.95622,-0.2645 2.51458,2.5145 c 2.41981,2.4198 2.98905,2.5146 15.10548,2.5146 12.09697,0 12.68898,-0.098 15.09091,-2.5 2.32304,-2.323 3.18694,-2.5001 12.20454,-2.5009 l 9.70455,-8e-4 -0.5,31.7508 c -0.44642,28.3487 -0.70152,32.1795 -2.38061,35.7509 -1.03434,2.2 -2.22009,5.575 -2.635,7.5 -0.41511,1.9259 -0.80611,-8.7554 -0.86939,-23.75 z m 289.1131,-19 L 706,1181 h 8.92857 c 6.47307,0 9.328,0.3994 10.38095,1.4524 0.79881,0.7988 1.73096,1.1738 2.07143,0.8333 0.34048,-0.3405 0.61905,-0.094 0.61905,0.5476 0,0.8288 3.7484,1.1667 12.9433,1.1667 11.67993,0 13.07603,-0.1895 14.30325,-1.9416 1.29433,-1.8479 2.78093,-1.941 30.8067,-1.9288 16.19571,0.01 28.32175,0.3671 26.94675,0.8001 -1.375,0.433 -18.25,5.1882 -37.5,10.5672 -19.25,5.379 -35.22937,10.1318 -35.50971,10.5618 -0.28035,0.4299 -6.87723,0.9301 -14.65975,1.1115 -7.78251,0.1814 -13.64075,0.016 -13.01831,-0.3664 1.52204,-0.9363 -1.80963,-2.2106 -3.7914,-1.4502 -1.22455,0.4699 -1.52956,4.0602 -1.7719,20.857 -0.22765,15.7791 -0.34343,13.3425 -0.52083,-10.9606 z M 1020.3917,1129 c 0,-7.425 0.1574,-10.4625 0.3499,-6.75 0.1924,3.7125 0.1924,9.7875 0,13.5 -0.1925,3.7125 -0.3499,0.675 -0.3499,-6.75 z m -886.95398,-82.5 c -5.4e-4,-14.85 0.13863,-21.0644 0.30926,-13.8098 0.17063,7.2546 0.17107,19.4046 9.7e-4,27 -0.17009,7.5954 -0.3097,1.6598 -0.31023,-13.1902 z m -27,-9 c -5.4e-4,-14.85 0.13863,-21.0644 0.30926,-13.8098 0.17063,7.2546 0.17107,19.4046 9.7e-4,27 -0.17009,7.5954 -0.3097,1.6598 -0.31023,-13.1902 z"
         id="path3" />
      <path
         style="fill:#333333;fill-opacity:1"
         d="m 161.37407,2916.5 c 0.002,-6.05 0.16696,-8.3961 0.36601,-5.2135 0.19905,3.1826 0.1972,8.1326 -0.004,11 -0.20131,2.8674 -0.36417,0.2635 -0.36191,-5.7865 z M 133.42179,2902 c 0,-11.275 0.14584,-15.8875 0.32409,-10.25 0.17825,5.6375 0.17825,14.8625 0,20.5 -0.17825,5.6375 -0.32409,1.025 -0.32409,-10.25 z m 834.9984,-4.5 c -8.9e-4,-11 0.14522,-15.6364 0.32467,-10.3032 0.17945,5.3332 0.18018,14.3332 0.002,20 -0.17857,5.6668 -0.3254,1.3032 -0.32628,-9.6968 z m 28.0016,-23.5 c 0,-11.275 0.14584,-15.8875 0.32409,-10.25 0.17825,5.6375 0.17825,14.8625 0,20.5 -0.17825,5.6375 -0.32409,1.025 -0.32409,-10.25 z m -836,-21 c 0,-11.275 0.14584,-15.8875 0.32409,-10.25 0.17825,5.6375 0.17825,14.8625 0,20.5 -0.17825,5.6375 -0.32409,1.025 -0.32409,-10.25 z m -28,-24 c 0,-11.275 0.14584,-15.8875 0.32409,-10.25 0.17825,5.6375 0.17825,14.8625 0,20.5 -0.17825,5.6375 -0.32409,1.025 -0.32409,-10.25 z m 837,-4 c 0,-11.275 0.14584,-15.8875 0.32409,-10.25 0.17825,5.6375 0.17825,14.8625 0,20.5 -0.17825,5.6375 -0.32409,1.025 -0.32409,-10.25 z m 27.9984,-23.5 c -8.9e-4,-11 0.14522,-15.6364 0.32467,-10.3032 0.17945,5.3332 0.18018,14.3332 0.002,20 -0.17857,5.6668 -0.3254,1.3032 -0.32628,-9.6968 z M 159.42179,2780 c 0,-11.275 0.14584,-15.8875 0.32409,-10.25 0.17825,5.6375 0.17825,14.8625 0,20.5 -0.17825,5.6375 -0.32409,1.025 -0.32409,-10.25 z m -28.20067,-18.55 c -0.15078,-10.2628 -0.61646,-15.5112 -1.46398,-16.5 -0.80589,-0.9402 -0.62032,-0.9003 0.5278,0.1135 1.57337,1.3893 1.73649,3.2278 1.46399,16.5 L 131.44225,2776.5 Z M 970.24673,2621.276 970,2470.0521 l -15.25,-0.3041 -15.25,-0.3041 15.28138,-0.222 c 11.4724,-0.1666 15.39991,0.09 15.7569,1.0281 0.26153,0.6875 0.35843,68.975 0.21534,151.75 l -0.26016,150.5 z M 22.666667,2469.3333 c -0.926071,-0.926 -0.843008,-461.1063 0.08333,-461.6788 0.4125,-0.255 0.635592,103.4395 0.495759,230.4322 l -0.254241,230.8958 53.254241,0.2677 53.254244,0.2677 -53.083336,0.2411 c -29.195834,0.1325 -53.383334,-0.059 -53.75,-0.4257 z M 164.25,2469.2567 c 4.2625,-0.1875 11.2375,-0.1875 15.5,0 4.2625,0.1874 0.775,0.3408 -7.75,0.3408 -8.525,0 -12.0125,-0.1534 -7.75,-0.3408 z m 886.5042,0 53.2543,-0.2721 -0.2543,-230.9413 c -0.1398,-127.0177 0.084,-230.6028 0.4979,-230.1891 0.4137,0.4137 0.6387,104.4537 0.5,231.2 L 1104.5,2469.5 l -53.5,0.013 -53.5,0.013 z M 939,2462.5151 v -5.4849 l -29.25,-0.2808 -29.25,-0.2808 29.75,-0.2343 L 940,2456 v 6 c 0,3.3 -0.225,6 -0.5,6 -0.275,0 -0.5,-2.4682 -0.5,-5.4849 z m -737.75,-6.263 c 8.1125,-0.168 21.3875,-0.168 29.5,0 8.1125,0.1681 1.475,0.3057 -14.75,0.3057 -16.225,0 -22.8625,-0.1376 -14.75,-0.3057 z M 246.24769,2241.7649 246,2027.0298 l -29.75,-0.2804 -29.75,-0.2803 29.78138,-0.2346 c 23.07997,-0.1817 29.88827,0.047 30.25639,1.0155 0.26124,0.6875 0.35858,97.55 0.2163,215.25 l -0.25869,214 z M 879.49657,2241 l 0.003,-214.5 29.71128,-0.2648 29.71129,-0.2648 0.33308,-8.7352 0.33308,-8.7352 0.20563,9.25 L 940,2027 h -29.99771 -29.99771 l -0.25572,214.25 -0.25572,214.25 z m 90.99785,-587 c 0,-194.425 0.11501,-273.9625 0.25556,-176.75 0.14056,97.2125 0.14056,256.2875 0,353.5 -0.14055,97.2125 -0.25556,17.675 -0.25556,-176.75 z m -470.77234,31.9972 c 0.83523,-1.1283 0.75927,-1.986 -0.30476,-3.4412 C 498.48071,1681.2751 498,1677.9692 498,1672.8089 V 1665 h 27.5 27.5 v 4.5572 c 0,2.5064 0.50342,6.5564 1.11871,9 l 1.11872,4.4428 h 7.83428 7.83428 l 1.04143,-3.75 c 0.57278,-2.0625 1.04394,-6.1125 1.047,-9 L 573,1665 h 27.5 27.5 v 7.4182 c 0,4.08 0.30147,8.2038 0.66994,9.1641 0.45675,1.1902 0.29765,1.5157 -0.5,1.0227 C 627.43561,1682.1512 627,1678.9253 627,1673.941 V 1666 h -26.37151 -26.37152 l -0.45989,7.9444 c -0.25294,4.3694 -1.04086,8.6444 -1.75093,9.5 -0.94969,1.1443 -3.17555,1.5516 -8.41859,1.5403 -3.92016,-0.01 -7.63996,-0.3459 -8.26624,-0.75 -1.63417,-1.0544 -3.34924,-7.9462 -3.35574,-13.4847 L 552,1666 h -26 -26 v 7.8 c 0,4.759 0.47063,8.2706 1.20714,9.0071 0.94286,0.9429 0.79065,1.5888 -0.69523,2.95 -1.11673,1.0231 -1.44291,1.1223 -0.78983,0.2401 z m -4.16538,-2.2197 c -1.0822,-1.5451 -1.5567,-4.5729 -1.5567,-9.9336 0,-7.6444 -0.0238,-7.7147 -2.75,-8.1276 -2.55956,-0.3878 -2.52493,-0.427 0.5,-0.5665 L 495,1665 v 8.2775 c 0,5.8733 0.45214,8.923 1.5567,10.5 0.85619,1.2224 1.33171,2.2225 1.05671,2.2225 -0.275,0 -1.20052,-1.0001 -2.05671,-2.2225 z m 168.52663,-39.1446 c 0.22917,-0.2019 4.46667,-0.6236 9.41667,-0.9371 5.35621,-0.3392 7.98784,-0.2309 6.5,0.2674 -2.41693,0.8096 -16.76036,1.4131 -15.91667,0.6697 z m -119.41666,-4.2996 C 544.3,1639.9667 544,1635.4667 544,1630.3333 V 1621 h 19 19 v 10 10 h -18.33333 c -10.08334,0 -18.63334,-0.3 -19,-0.6667 z m 35.34698,-7.0833 c 0.008,-3.7125 0.285,-7.7625 0.61664,-9 l 0.60297,-2.25 H 563.61663 546 v 9 9 h 17 17 z m -148.62648,2.0205 2.88717,-0.4298 -5.35301,-5.4204 c -2.94415,-2.9811 -5.93088,-5.4203 -6.63717,-5.4203 -0.87178,0 -1.28416,1.5821 -1.28416,4.9267 0,3.8512 0.38202,5.0265 1.75,5.384 1.31691,0.3441 1.19317,0.486 -0.5,0.5733 -2.1301,0.1098 -2.25,-0.257 -2.25,-6.884 0,-3.85 0.34876,-7 0.77503,-7 0.42626,0 4.1275,3.375 8.22497,7.5 l 7.44994,7.5 -3.97497,-0.1498 c -3.23623,-0.122 -3.43839,-0.2297 -1.0878,-0.5797 z M 698,1628.5 c 4.09747,-4.125 7.79871,-7.5 8.22497,-7.5 0.42627,0 0.77503,3.15 0.77503,7 0,6.627 -0.1199,6.9938 -2.25,6.884 -1.69317,-0.087 -1.81691,-0.2292 -0.5,-0.5733 1.4273,-0.373 1.75,-1.591 1.75,-6.6051 v -6.1478 l -6.53826,6.4711 -6.53826,6.4711 2.78826,0.6317 c 2.45043,0.5551 2.30664,0.646 -1.18671,0.75 L 690.55006,1636 Z m -223.73736,4.549 c -0.65256,-1.045 -2.21612,-2.0972 -3.47456,-2.3383 l -2.28808,-0.4383 2.25,-0.1362 c 2.79769,-0.1693 3.03419,-3.1362 0.25,-3.1362 -1.33333,0 -2,-0.6667 -2,-2 0,-2.7304 0.68065,-2.5256 3.81456,1.1475 3.84043,4.5012 4.38987,5.6648 3.4597,7.3269 -0.69601,1.2437 -1.01079,1.1771 -2.01162,-0.4254 z m 175.42998,0.5924 c -0.50508,-1.3163 6.04429,-10.4967 7.55738,-10.5934 0.4125,-0.026 0.75,0.8207 0.75,1.8824 0,1.2406 -0.80404,2.0447 -2.25,2.25 -2.84483,0.4041 -2.59062,2.1161 0.44098,2.9699 2.19779,0.619 2.20625,0.6551 0.17565,0.75 -1.23953,0.058 -2.3525,0.9377 -2.65638,2.0997 -0.59376,2.2706 -3.2309,2.6915 -4.01763,0.6414 z M 430.5,1626 l -6.94636,-7 h 5.72318 c 5.39317,0 5.72318,0.14 5.72318,2.4286 0,1.3357 0.70714,3.1357 1.57143,4 0.86428,0.8643 1.082,1.5714 0.48382,1.5714 -0.59818,0 -1.83867,-1.575 -2.75664,-3.5 -1.35413,-2.8396 -2.22936,-3.5 -4.63881,-3.5 -2.96837,0 -2.96889,0 -1.09573,2.25 5.69829,6.8414 7.84392,8.7089 8.61362,7.4967 0.52489,-0.8266 0.79684,-0.4885 0.807,1.0033 0.008,1.2375 -0.10926,2.25 -0.26151,2.25 -0.15225,0 -3.40268,-3.15 -7.22318,-7 z m 265,0 5.93739,-6 h -4.13536 c -2.37262,0 -4.35036,0.5328 -4.63975,1.25 -0.30132,0.7467 -0.53617,0.5454 -0.58333,-0.5 -0.0664,-1.4719 0.83008,-1.75 5.64216,-1.75 h 5.72111 L 697,1625.5 c -3.54322,3.575 -6.66614,6.5 -6.93981,6.5 -0.27367,0 2.17424,-2.7 5.43981,-6 z M 388,1624.5 382.56832,1619 H 388.28416 394 v 5.5 c 0,3.025 -0.12787,5.5 -0.28416,5.5 -0.15629,0 -2.72842,-2.475 -5.71584,-5.5 z m 5,-0.5 v -4 h -4.20295 -4.20295 l 3.9059,4 c 2.14824,2.2 4.03957,4 4.20295,4 0.16338,0 0.29705,-1.8 0.29705,-4 z m 340,5.5206 c 0,-0.2637 2.09012,-2.4012 4.64472,-4.75 l 4.64471,-4.2706 -4.89471,-0.5929 -4.89472,-0.5929 5.96584,-0.1571 L 744.43168,1619 739,1624.5 c -5.36094,5.4284 -6,5.9631 -6,5.0206 z M 360.18025,1624.25 360,1619 l 7.25,0.1959 7.25,0.1958 -6.69703,0.3486 -6.69702,0.3487 -0.37273,4.7055 -0.37272,4.7055 z M 766,1624.5457 v -4.4543 l -6.75,-0.3498 -6.75,-0.3499 7.25,-0.1958 L 767,1619 v 5 c 0,2.75 -0.225,5 -0.5,5 -0.275,0 -0.5,-2.0044 -0.5,-4.4543 z m -221.5912,-8.9228 c -0.29063,-0.7573 -0.38901,-3.5698 -0.21861,-6.25 L 544.5,1604.5 l 18.75,-0.2721 18.75,-0.272 v 6.522 6.5221 h -18.53138 c -14.81455,0 -18.63738,-0.2762 -19.05982,-1.3771 z M 581,1610 v -5 H 563.5 546 v 5 5 h 17.5 17.5 z m -189.58878,2.2502 c 28.57412,-0.1906 41.32184,-0.6137 42.27289,-1.403 1.07473,-0.8919 1.22894,-0.7842 0.73179,0.5114 -0.57211,1.4909 -4.44878,1.6195 -42.27289,1.4029 L 350.5,1612.5231 Z m 66.32109,-1.1659 c -0.44425,-1.6988 -1.17774,-1.8543 -6.47947,-1.3735 -6.91681,0.6272 -9.74383,-0.3566 -7.9248,-2.7578 1.85786,-2.4525 20.27861,-16.953 21.53624,-16.953 0.77129,0 1.13572,3.1826 1.13572,9.9182 0,5.455 0.27314,10.63 0.60699,11.5 0.49796,1.2977 -0.19959,1.5818 -3.88337,1.5818 -3.58346,0 -4.59153,-0.3869 -4.99131,-1.9157 z M 465,1601.4149 v -10.585 l -5.25,4.1947 c -2.8875,2.3071 -7.36833,5.8329 -9.9574,7.8351 -6.79272,5.2529 -6.37898,6.579 1.79148,5.7419 6.07563,-0.6224 6.62521,-0.5173 7.11664,1.3619 0.38039,1.4547 1.35634,2.0365 3.41591,2.0365 H 465 Z m 195.39301,10.0033 c 0.33385,-0.87 0.60699,-6.045 0.60699,-11.5 0,-6.4274 0.37963,-9.9182 1.07861,-9.9182 2.21735,0 23.11863,17.7407 25.03574,21.25 0.75977,1.3908 0.56219,1.75 -0.96253,1.75 -1.07755,0 -2.14782,-0.8767 -2.44157,-2 -0.46929,-1.7946 -1.36401,-2 -8.71025,-2 -7.34624,0 -8.24096,0.2054 -8.71025,2 -0.37592,1.4375 -1.36402,2 -3.51337,2 -2.31597,0 -2.85347,-0.3567 -2.38337,-1.5818 z M 665.28975,1610 c 0.4691,-1.7938 1.38309,-2.0044 8.86663,-2.0426 l 8.34362,-0.043 -4.5,-3.9791 c -2.475,-2.1886 -7.0875,-6.0242 -10.25,-8.5237 L 662,1590.867 v 10.5663 c 0,8.3298 0.29283,10.5664 1.38337,10.5664 0.76085,0 1.61872,-0.9 1.90638,-2 z m 48.52757,2.2509 c 11.72452,-0.1601 30.62452,-0.1599 42,4e-4 11.37547,0.1604 1.78268,0.2914 -21.31732,0.2911 -23.1,-2e-4 -32.40721,-0.1314 -20.68268,-0.2915 z m -38.57987,-19.4763 c -3.9944,-3.3455 -7.05718,-6.2882 -6.80617,-6.5392 0.66707,-0.6671 11.8497,8.3331 13.32719,10.7262 0.69216,1.1211 1.14216,2.0063 1,1.9672 -0.14216,-0.039 -3.52662,-2.8086 -7.52102,-6.1542 z m -204.20704,0.011 c -0.0192,-1.7129 0.70768,-3.1098 1.96959,-3.7852 1.39464,-0.7464 2.04535,-2.1948 2.14983,-4.7852 0.13685,-3.3929 0.18743,-3.4548 0.58367,-0.7148 0.2386,1.65 1.12108,3.7656 1.96106,4.7013 1.37846,1.5355 1.3216,1.9627 -0.58366,4.3848 -1.5261,1.9402 -2.1109,2.2307 -2.1109,1.0488 0,-2.1528 -1.63657,-2.0882 -2.9199,0.1151 -0.87368,1.5 -1.02363,1.3622 -1.04969,-0.9648 z M 650,1593.7408 c 0,-0.9028 -0.70343,-2.0351 -1.56319,-2.5162 -1.41758,-0.7933 -1.41758,-0.9957 0,-2.1722 0.89133,-0.7397 1.63197,-3.0713 1.72323,-5.4248 0.15672,-4.0422 0.16854,-4.0552 0.57129,-0.6276 0.2262,1.925 0.82918,3.9275 1.33997,4.45 1.3327,1.3633 1.0925,3.7493 -0.6031,5.9911 -1.23958,1.6389 -1.4682,1.6856 -1.4682,0.2997 z m -188.6834,-27.1362 -4.1834,-5.446 8.83986,-8.0793 c 4.86193,-4.4436 9.25352,-8.0793 9.75909,-8.0793 1.87772,0 5.49218,4.829 4.62262,6.176 -0.47012,0.7282 -1.07977,5.599 -1.35477,10.824 l -0.5,9.5 -6.5,0.2753 -6.5,0.2753 z M 478.07731,1560 c 0.48034,-8.7364 0.31238,-10.783 -1,-12.1847 -1.46345,-1.5631 -2.17311,-1.1299 -9.83108,6 l -8.25376,7.6847 3.75376,4.7916 c 3.75109,4.7883 3.75769,4.7915 9.25377,4.5 l 5.5,-0.2916 z m 170.27466,11.2347 c -0.70851,-0.4534 -1.27732,-4.8161 -1.48574,-11.3955 -0.29593,-9.3417 -0.10378,-10.9192 1.55301,-12.75 1.03991,-1.149 2.18665,-2.0892 2.54832,-2.0892 1.10378,0 16.03244,14.0994 16.03244,15.1418 0,0.5362 -1.9125,3.3985 -4.25,6.3607 -3.99753,5.0659 -4.51732,5.3883 -8.75,5.4264 -2.475,0.022 -5.01661,-0.2901 -5.64803,-0.6942 z m 13.35726,-5.6926 4.20923,-5.4503 -7.62747,-7.0282 c -7.44772,-6.8626 -7.66193,-6.979 -9.0901,-4.94 -1.84064,2.6279 -1.74766,20.9084 0.11236,22.0912 0.65271,0.415 2.76175,0.7598 4.68675,0.7661 3.0625,0.01 4.02615,-0.6698 7.70923,-5.4388 z m -197.95387,-15.1832 c 6.62247,-6.3388 9.25384,-9.5371 9.25,-11.2431 -0.004,-1.5967 -2.84467,-5.4773 -8.60259,-11.75 -4.72847,-5.1512 -9.00347,-9.3658 -9.5,-9.3658 -2.23788,0 -0.29658,2.9287 7.7567,11.702 l 8.65947,9.4336 -2.40947,2.2563 c -1.32521,1.2409 -5.40692,5.0683 -9.07047,8.5052 l -6.66099,6.249 -9.59579,-11.8231 -9.59578,-11.823 7.1976,-6.7592 c 4.72903,-4.441 6.85952,-7.0972 6.21185,-7.7449 -0.64766,-0.6477 -3.45688,1.2696 -8.19082,5.5902 -3.96279,3.6167 -7.16218,6.202 -7.10977,5.7449 0.0524,-0.457 2.93453,-3.306 6.4047,-6.331 6.0224,-5.2498 7.85829,-8 5.34041,-8 -0.63777,0 -3.78439,2.5036 -6.99249,5.5637 -3.2081,3.06 -6.22817,5.3193 -6.71126,5.0208 -0.48308,-0.2986 -1.15934,-1.9479 -1.50279,-3.6652 -0.56301,-2.815 -0.11737,-3.5797 4.52862,-7.7708 7.79436,-7.0312 8.66186,-7.5392 10.40463,-6.0928 1.98844,1.6503 3.14255,0.3103 1.70936,-1.9846 -1.00076,-1.6025 -0.174,-2.6974 6.45305,-8.5465 6.7162,-5.9277 7.95143,-6.6384 10.61275,-6.1061 1.65654,0.3313 3.2445,0.835 3.52881,1.1193 0.28431,0.2843 -2.31575,3.375 -5.77793,6.8682 -4.23717,4.2752 -5.90208,6.5941 -5.09327,7.0939 0.74469,0.4603 3.72988,-1.68 7.85084,-5.6286 L 469.5,1494.5 l -6.25,6.5269 c -5.63877,5.8886 -7.53802,8.9731 -5.5251,8.9731 0.3987,0 3.6612,-2.8951 7.25,-6.4335 l 6.5251,-6.4334 11.45432,10.7846 11.45431,10.7846 -3.912,3.3989 c -2.15161,1.8693 -6.08357,5.3113 -8.7377,7.6488 -2.65413,2.3375 -5.1548,4.25 -5.55704,4.25 -0.40224,0 -4.32471,-4.0437 -8.71662,-8.9859 C 460.30053,1516.929 457,1514.3667 457,1516.874 c 0,1.8074 17.40885,20.126 19.12647,20.126 0.98362,0 5.87671,-3.6 10.87353,-8 8.41092,-7.4063 10,-8.6187 10,-7.6296 0,0.2037 -4.00193,3.8206 -8.89318,8.0375 -4.89124,4.2169 -9.11391,8.5112 -9.38369,9.5429 -0.2988,1.1425 0.70645,3.3753 2.57187,5.7125 l 3.06239,3.8367 -3.4763,-3.25 c -1.91197,-1.7875 -4.29005,-3.25 -5.28462,-3.25 -0.99457,0 -6.14815,3.874 -11.45239,8.6089 L 454.5,1559.2177 Z M 469,1539.1557 c 0,-0.2543 -3.6,-4.4013 -8,-9.2155 -4.4,-4.8142 -8,-9.5106 -8,-10.4364 0,-1.7316 3.72012,-5.4223 5.5,-5.4564 0.55,-0.011 4.59337,4.0244 8.98527,8.9667 4.39191,4.9422 8.39103,8.9859 8.88695,8.9859 0.49592,0 4.28432,-3.0274 8.41865,-6.7277 l 7.51697,-6.7276 -10.40392,-9.7371 -10.40392,-9.7371 -6.02691,5.9648 c -3.31479,3.2806 -6.61766,5.9647 -7.3397,5.9647 -1.42066,0 -5.04591,-3.8889 -5.10012,-5.471 -0.0183,-0.5341 2.49379,-3.5247 5.58241,-6.6459 5.14697,-5.2012 5.43937,-5.7309 3.50326,-6.3453 -1.66053,-0.5271 -3.59859,0.6601 -9.0599,5.5497 -6.31767,5.6564 -6.89334,6.491 -6.35026,9.2064 0.58543,2.9272 0.53006,2.9742 -2.80578,2.3861 -3.05446,-0.5386 -3.94072,-0.099 -8.653,4.2959 -3.69544,3.4461 -5.25,5.6551 -5.25,7.46 0,3.4309 0.96193,3.2362 5.05383,-1.0229 1.89539,-1.9728 4.71261,-4.4991 6.26049,-5.6139 l 2.81431,-2.0269 2.43569,2.2882 c 1.33962,1.2585 2.43568,2.9687 2.43568,3.8004 0,0.8316 -2.94593,4.2407 -6.54651,7.5756 l -6.54651,6.0636 8.62934,10.7427 8.62933,10.7427 7.91718,-7.1836 c 4.35444,-3.951 7.91717,-7.3917 7.91717,-7.6461 z m 191.51757,10.2956 C 651.57679,1541.1054 649.27561,1540.3998 646,1545 c -1.1749,1.65 -2.64382,3 -3.26426,3 -0.62044,0 0.3102,-1.4839 2.06809,-3.2976 1.75789,-1.8137 3.19617,-4.0523 3.19617,-4.9748 0,-0.9224 -4.46272,-5.6258 -9.91715,-10.4519 -5.45443,-4.8261 -9.76221,-8.9297 -9.57284,-9.119 0.18936,-0.1894 4.76458,3.518 10.16714,8.2386 5.40257,4.7206 10.58002,8.5879 11.50544,8.5938 2.2733,0.015 20.11385,-19.7004 19.18592,-21.2019 -0.45379,-0.7342 -4.09227,2.4719 -9.9186,8.7401 l -9.2019,9.8996 -8.51347,-7.2278 c -4.6824,-3.9753 -9.01827,-7.836 -9.63525,-8.5795 -0.88662,-1.0683 1.25402,-3.5674 10.21178,-11.9219 l 11.33356,-10.5703 7.06498,7.065 c 4.474,4.474 7.51085,6.7894 8.28076,6.3136 0.82523,-0.5101 -1.14624,-3.1792 -6.1373,-8.3092 l -7.35307,-7.5578 6.10649,5.1551 c 3.35858,2.8353 6.67618,5.8416 7.37245,6.6805 1.58625,1.9113 3.02106,1.9655 3.02106,0.114 0,-0.7763 -2.94485,-4.1098 -6.5441,-7.4079 l -6.54411,-5.9965 3.56716,-1.1773 c 3.56468,-1.1764 3.5727,-1.1722 11.54411,6.0139 4.38732,3.9551 7.97694,7.5034 7.97694,7.8851 0,0.3818 -0.48921,1.1833 -1.08713,1.7812 -1.59337,1.5934 0.79926,2.7967 2.59594,1.3056 1.14476,-0.9501 2.49541,-0.2374 6.94358,3.6639 5.54466,4.8629 5.84402,5.5394 4.6793,10.5738 l -0.63169,2.7304 -5.5,-4.9371 c -5.23713,-4.7011 -8,-6.1183 -8,-4.1036 0,0.5061 2.8125,3.4291 6.25,6.4955 3.4375,3.0665 5.90859,5.5774 5.49131,5.5799 -0.41728,0 -3.46971,-2.4878 -6.78319,-5.534 -8.51788,-7.8307 -9.95961,-5.8147 -1.62741,2.2756 l 6.62782,6.4355 -8.13308,10.1637 c -11.23684,14.0424 -10.27634,13.1625 -12.59234,11.5353 -1.07373,-0.7544 -4.90545,-4.136 -8.51495,-7.5147 l -6.56271,-6.143 8.42165,-9.357 c 7.7004,-8.5556 9.81424,-11.8569 7.59193,-11.8569 -0.45704,0 -4.70318,4.2997 -9.43588,9.5548 -6.06065,6.7297 -8.54994,10.2318 -8.41902,11.8443 0.16426,2.0232 2.28947,4.2283 16.13587,16.7423 0.6,0.5423 0.6,0.8407 0,0.8099 -0.5225,-0.027 -4.54209,-3.4018 -8.93243,-7.5 z m 20.24445,-7.8748 8.26202,-10.4119 -6.01202,-5.7345 c -3.30661,-3.154 -6.00425,-6.2285 -5.99474,-6.8323 0.0192,-1.2209 4.33523,-5.5978 5.51996,-5.5978 0.41544,0 3.05202,2.1375 5.85906,4.75 l 5.1037,4.75 0.33475,-2.9399 c 0.27728,-2.4353 -0.40152,-3.5511 -3.95433,-6.5 -2.84567,-2.362 -5.31403,-3.5601 -7.33475,-3.5601 -2.68566,0 -3.04567,-0.3387 -3.04567,-2.8656 0,-2.2583 -1.37738,-4.109 -6.5,-8.7335 -3.8243,-3.4525 -7.4262,-5.8748 -8.75,-5.8845 -3.42907,-0.025 -2.75619,1.3082 3.25,6.4394 3.1092,2.6563 5.5,5.5296 5.5,6.6101 0,2.3943 -2.95103,5.9341 -4.94714,5.9341 -0.82647,0 -4.43896,-2.9095 -8.02776,-6.4656 l -6.5251,-6.4656 -10.40057,9.7348 -10.40057,9.7348 8.31319,7.2308 c 4.57225,3.9769 8.62692,7.2308 9.01039,7.2308 0.38347,0 4.39876,-4.05 8.92288,-9 4.52411,-4.95 8.68626,-9 9.24922,-9 1.34655,0 5.77148,4.2187 5.76889,5.5 -10e-4,0.55 -3.81615,5.1685 -8.47785,10.2633 l -8.47582,9.2632 6.74512,6.4535 c 3.70982,3.5494 7.19512,6.4659 7.74512,6.481 0.55,0.015 4.71791,-4.6579 9.26202,-10.3845 z m -196.72999,1.6735 -3.11357,-3.75 3.43876,-3 c 1.89131,-1.65 5.97595,-5.2061 9.07697,-7.9024 l 5.63822,-4.9024 2.71379,2.5302 c 3.80548,3.5481 6.91255,4.9746 10.83491,4.9746 H 516 v 7.9 7.9 H 501.5728 487.14561 Z M 515,1539 c 0,-5.3649 -0.21508,-6 -2.03212,-6 -2.90606,0 -9.05961,-2.7376 -11.67362,-5.1933 l -2.23303,-2.0978 -4.28061,3.5958 c -2.35434,1.9777 -6.00577,5.0847 -8.11428,6.9044 l -3.83365,3.3085 2.15623,2.7412 2.15624,2.7412 H 501.07258 515 Z m 95.66667,7.3333 C 610.3,1545.9667 610,1542.4648 610,1538.5514 c 0,-6.9071 0.0747,-7.1214 2.55301,-7.3265 3.40944,-0.2822 6.28781,-1.8412 10.15467,-5.5 l 3.20767,-3.0352 4.29233,3.5579 c 2.36077,1.9569 6.76732,5.8095 9.79232,8.5614 l 5.5,5.0034 -3.44617,3.5938 -3.44616,3.5938 H 624.9705 c -7.50044,0 -13.93717,-0.3 -14.30383,-0.6667 z m 30.40902,-3.9363 2.42431,-2.603 -6.5,-5.9552 c -10.54991,-9.6656 -10.37625,-9.5936 -14.47597,-5.994 -1.91998,1.6857 -5.29833,3.6065 -7.50745,4.2684 L 611,1533.3166 v 5.8417 5.8417 h 13.82569 c 13.60575,0 13.86425,-0.041 16.25,-2.603 z m -88.87753,2.7648 c -0.90275,-0.5852 -1.20931,-2.8086 -1,-7.2529 L 551.5,1531.5 l 11.79446,-0.2821 11.79446,-0.2821 -0.29446,7.2821 -0.29446,7.2821 -10.5,0.2528 c -5.775,0.1391 -11.08583,-0.1269 -11.80184,-0.591 z M 574,1538.5 V 1533 H 563.5 553 v 5.5 5.5 h 10.5 10.5 z m -51,-0.5338 v -7.0339 l 10.75,0.2839 10.75,0.2838 0.29569,6.75 0.29569,6.75 H 534.04569 523 Z m 20,0.5338 v -5.5 h -9.5 -9.5 v 5.5 5.5 h 9.5 9.5 z m 39,-0.5 v -7 h 10.5 10.5 v 7 7 H 592.5 582 Z m 20,0.5 v -5.5 h -9.5 -9.5 v 5.5 5.5 h 9.5 9.5 z m -92.5,-15.0486 c -1.65,-0.762 -8.66205,-6.9128 -15.58233,-13.6684 -14.08949,-13.7543 -12.8357,-13.1306 3.58233,1.7821 6.05,5.4953 12.25867,10.5412 13.79705,11.2132 2.08046,0.9087 15.60626,1.2217 52.79442,1.2217 h 49.99736 l 14.20558,-13.2736 c 14.23058,-13.2969 29.16582,-26.0567 21.70559,-18.544 -1.925,1.9386 -10.57889,10.1156 -19.23086,18.1711 L 615.03827,1525 l -51.26913,-0.082 c -41.44596,-0.066 -51.84394,-0.347 -54.26914,-1.467 z m -80.2589,-14.2123 c 0.30581,-2.28 1.5535,-5.5463 2.77264,-7.2584 l 2.2166,-3.1129 2.38483,2.2404 c 1.31166,1.2322 2.38483,2.5415 2.38483,2.9096 0,0.368 -2.32086,2.6261 -5.15746,5.018 l -5.15746,4.3488 z m 7.34698,-4.3816 c 0.35671,-0.5772 -0.0102,-1.7082 -0.81545,-2.5134 -1.28535,-1.2854 -1.64831,-1.1822 -2.97419,0.8459 -0.8306,1.2705 -1.85178,3.39 -2.26929,4.71 l -0.75912,2.3999 3.08474,-2.1965 c 1.69661,-1.2081 3.3766,-2.6688 3.73331,-3.2459 z m 254.05299,2.4667 c -3.79575,-3.4926 -3.82772,-3.582 -1.95258,-5.4571 1.87513,-1.8752 1.94343,-1.8562 4.17114,1.1569 1.26559,1.7118 2.12705,4.1194 1.95258,5.4571 -0.30909,2.3699 -0.35076,2.3583 -4.17114,-1.1569 z m -251.74092,-7.9305 -2.37437,-2.5274 2.48711,-1.9315 c 2.48953,-1.9333 14.92634,-6.3289 15.70471,-5.5505 0.42766,0.4276 -8.51649,9.0861 -11.66124,11.2888 -1.51103,1.0583 -2.14269,0.8639 -4.15621,-1.2794 z M 446.5,1496 c 4.10285,-4.2017 3.58011,-4.9547 -1.78212,-2.5673 -5.59308,2.4902 -6.2701,3.197 -4.78113,4.9911 1.82801,2.2026 2.16846,2.0769 6.56325,-2.4238 z m 231.5,0.01 c -3.575,-3.2555 -6.01766,-5.9387 -5.42814,-5.9626 2.39357,-0.097 10.11717,3.1304 12.92814,5.4024 l 3,2.4248 -2,2.0272 -2,2.0272 z m 6,-0.03 c -1.375,-1.0537 -3.85,-2.3746 -5.5,-2.9352 -2.77358,-0.9424 -2.66036,-0.7233 1.5,2.9031 2.97466,2.5929 4.83897,3.5878 5.5,2.9353 0.66374,-0.6552 0.15934,-1.6315 -1.5,-2.9032 z m -64.3314,-24.7016 c -0.26378,-0.4259 7.01537,-0.7744 16.1759,-0.7744 H 652.5 v -2.5 -2.5 h -16.70144 c -9.18579,0 -16.35146,-0.3493 -15.92372,-0.7763 0.42774,-0.4269 7.89497,-0.6519 16.59384,-0.5 13.79077,0.2409 15.95731,0.5004 16.91861,2.0263 0.80331,1.2751 0.8033,2.2249 -7e-5,3.5 -0.96285,1.5283 -3.13846,1.7848 -17.17078,2.0244 -8.83752,0.1509 -16.28405,-0.074 -16.54784,-0.5 z m 88.0814,-57.6062 c -0.4125,-1.0075 -0.75,-31.3375 -0.75,-67.4 v -65.5683 l -2.88467,3.9822 c -3.76713,5.2004 -9.49844,9.8658 -14.81317,12.0582 l -4.26562,1.7597 -0.26827,25 -0.26827,25 -2.75,0.3164 c -2.21488,0.2549 -2.75,-0.086 -2.75,-1.75 0,-1.8884 -0.59291,-2.0664 -6.88337,-2.0664 -6.04236,0 -6.94727,0.2444 -7.40638,2 -0.35342,1.3515 -1.36401,2 -3.11663,2 H 659 v -25.4797 -25.4797 l -3.75,-1.933 c -5.61613,-2.8949 -11.9428,-8.7273 -14.85207,-13.6916 l -2.58797,-4.42 h -40.54474 c -37.40816,0 -40.65423,0.1354 -41.96014,1.75 -1.27735,1.5793 -1.30906,1.5305 -0.32506,-0.5 l 1.09035,-2.25 h 41.31534 41.31534 l 3.03985,4.8901 c 3.49019,5.6145 11.56866,12.3969 16.83689,14.1356 2.60691,0.8603 3.30369,1.4928 2.51427,2.2822 -0.72949,0.7295 -1.09206,9.1597 -1.09206,25.3921 0,23.6333 0.0549,24.3 2,24.3 1.33333,0 2,-0.6667 2,-2 0,-1.8244 0.66667,-2 7.59362,-2 6.75262,0 7.65154,0.2215 8.11663,2 0.29327,1.1215 1.36402,2 2.43759,2 1.83785,0 1.9107,-1.0063 1.81758,-25.107 l -0.097,-25.107 4.95535,-2.2958 c 6.67235,-3.0914 12.75194,-8.7737 16.54277,-15.4619 L 708.5,1274.5 l 0.26279,35.25 c 0.38361,51.4562 -0.14826,106.0297 -1.01279,103.9182 z M 445.66667,1348.3333 C 445.3,1347.9667 445,1336.9417 445,1323.8333 445,1302.8301 444.81334,1300 443.42807,1300 c -2.37761,0 -10.44413,-4.8672 -14.76667,-8.9099 -2.11123,-1.9745 -5.45875,-6.7401 -7.43893,-10.5901 -3.36771,-6.5477 -3.60429,-7.6138 -3.66141,-16.5 -0.0519,-8.0811 0.31233,-10.3215 2.43894,-15 2.45377,-5.3983 2.50976,-6.0825 3.02769,-37 l 0.52768,-31.5 0.22232,31.7832 0.22231,31.7833 -2.66485,5.2167 c -2.31499,4.5319 -2.66014,6.3984 -2.62893,14.2168 0.0318,7.9756 0.39139,9.7439 3.15898,15.536 1.71768,3.5948 5.0382,8.361 7.37893,10.5915 4.60907,4.3921 12.66819,9.3725 15.16616,9.3725 1.35545,0 1.58839,3.1004 1.82193,24.25 l 0.26778,24.25 2.25,-0.079 c 1.2375,-0.044 2.25,0.2938 2.25,0.75 0,0.9866 -4.37594,1.1201 -5.33333,0.1627 z m 19.84689,-1.2906 c -0.52618,-1.6578 -1.72211,-2.0099 -7.81739,-2.3013 l -7.19617,-0.344 7.63337,-0.1987 c 7.03352,-0.1831 7.67718,-0.031 8.19092,1.9334 0.40975,1.5669 1.1034,1.9893 2.61663,1.5936 1.13249,-0.2962 2.05908,-0.1306 2.05908,0.3679 0,1.8485 -4.86178,0.9173 -5.48644,-1.0509 z M 470,1299.0649 c 0,-0.4812 2.1375,-2.1018 4.75,-3.6014 5.75298,-3.3023 11.72072,-9.6299 13.87675,-14.7135 l 1.59041,-3.75 16.14142,0.2227 16.14142,0.2227 -15.63896,0.3021 -15.63897,0.3022 -1.28868,3.2251 c -1.86721,4.6731 -8.56521,11.7332 -14.65271,15.445 -2.90438,1.7709 -5.28068,2.8262 -5.28068,2.3451 z m -16.01287,-9.7228 c -1.81126,-5.6636 -2.42193,-5.8511 -5.78117,-1.7758 -2.02438,2.4559 -3.58602,3.5018 -4.63028,3.1011 -2.47775,-0.9508 -1.87025,-2.1565 2.02167,-4.0124 2.94197,-1.403 3.38097,-1.9762 2.40969,-3.1465 -2.04786,-2.4675 -4.9996,-2.8252 -7.16239,-0.8679 -1.98584,1.7972 -1.99581,1.7853 -0.76589,-0.9141 1.65227,-3.6263 0.91979,-4.106 -4.0135,-2.6279 -3.11462,0.9332 -4.41237,0.9543 -5.28069,0.086 -0.63318,-0.6332 -0.911,-1.3915 -0.61738,-1.6851 0.29361,-0.2936 12.05997,-0.4136 26.14746,-0.2667 21.92583,0.2287 25.48611,0.4734 24.72808,1.699 -0.74042,1.1973 -1.55722,1.2306 -4.9847,0.2037 -4.99081,-1.4952 -6.49628,-0.8265 -4.89701,2.1752 1.05446,1.9792 1.00681,2.0576 -0.4964,0.8176 -1.35789,-1.1202 -2.21311,-1.1438 -4.66372,-0.1287 -3.89759,1.6145 -3.78372,2.606 0.59606,5.1901 3.1886,1.8813 3.39483,2.2354 1.81649,3.1187 -1.44223,0.8071 -2.36301,0.3025 -4.84696,-2.6561 -1.68657,-2.0088 -3.36909,-3.6524 -3.73894,-3.6523 -0.36984,0 -1.21171,1.6875 -1.8708,3.75 -1.76808,5.5328 -2.6023,5.8674 -3.96962,1.5921 z m 5.6884,-6.3421 c 1.55961,0 9.32447,-3.7643 9.32447,-4.5203 0,-0.2638 -6.075,-0.4797 -13.5,-0.4797 -9.61905,0 -13.5,0.3354 -13.5,1.1667 0,0.6416 0.29145,0.8752 0.64766,0.519 0.35621,-0.3562 2.26871,0.2041 4.25,1.2452 1.98129,1.0411 4.39897,2.1469 5.37262,2.4574 0.99229,0.3164 2.065,2.0032 2.44091,3.8381 l 0.67064,3.2736 1.44478,-3.75 c 0.79463,-2.0625 2.07665,-3.75 2.84892,-3.75 z m 206.72289,-1.3261 c -1.70587,-0.6456 -4.18087,-1.9378 -5.5,-2.8714 -2.30309,-1.6301 -1.82714,-1.6997 11.97402,-1.75 12.33969,-0.045 14.20494,0.1493 13.18806,1.3746 -1.57765,1.901 -9.64941,4.5919 -13.48864,4.4968 -1.68952,-0.042 -4.46757,-0.6043 -6.17344,-1.25 z m 15.78323,-2.4556 c 0.9578,-0.9577 -1.01644,-1.2107 -9.23165,-1.1829 -9.70475,0.033 -10.27171,0.1413 -7.95,1.52 2.99872,1.7807 15.30534,1.5393 17.18165,-0.3371 z M 707.5,1246.9494 c -0.6149,-1.5061 -0.80745,-10.5318 -0.5,-23.4372 0.46295,-19.4328 0.63753,-21.0143 2.35622,-21.3438 1.02092,-0.1958 2.37092,0.1868 3,0.8502 0.88193,0.9301 0.63293,1.0519 -1.08764,0.5323 l -2.23142,-0.6739 -0.26858,23.2609 c -0.19282,16.6994 -0.55066,22.57 -1.26858,20.8115 z m 33.16667,-40.6161 C 740.3,1205.9667 740,1204.9371 740,1204.0453 c 0,-1.2812 8.15036,-3.8962 38.85258,-12.4658 21.36892,-5.9644 39.35259,-10.6723 39.96371,-10.462 0.61111,0.2104 -16.64561,5.3325 -38.34828,11.3825 -36.36979,10.1387 -42.17554,12.2408 -38.21801,13.8377 0.69783,0.2816 0.77145,0.5393 0.16667,0.5834 -0.59584,0.043 -1.38334,-0.2211 -1.75,-0.5878 z M 386,1203.8603 c -0.825,-0.4978 -19.26395,-5.8714 -40.97545,-11.9415 -21.7115,-6.07 -39.674,-11.2349 -39.91667,-11.4776 -0.24267,-0.2427 0.15232,-0.4412 0.87775,-0.4412 2.31105,0 80.47474,22.1438 81.4477,23.0742 1.34976,1.2907 0.32986,1.85 -1.43333,0.7861 z m -5.70841,-19.6028 c 3.73537,-0.1929 9.58537,-0.1915 13,0 3.41462,0.1947 0.35841,0.3525 -6.79159,0.3508 -7.15,0 -9.94379,-0.1611 -6.20841,-0.354 z m 360.14361,-0.01 c 8.19479,-0.1989 13.50866,-0.7606 14.5,-1.5327 1.37809,-1.0733 1.40104,-1.0099 0.19236,0.5313 -1.19958,1.5296 -3.026,1.7226 -14.5,1.5327 L 727.5,1184.5653 Z M 1003.25,1163.261 c 3.1625,-0.1984 8.3375,-0.1984 11.5,0 3.1625,0.1985 0.575,0.3608 -5.75,0.3608 -6.325,0 -8.9125,-0.1623 -5.75,-0.3608 z M 992.47611,1080 c 0,-43.175 0.1231,-60.8375 0.27355,-39.25 0.15046,21.5875 0.15046,56.9125 0,78.5 -0.15045,21.5875 -0.27355,3.925 -0.27355,-39.25 z m -859.23738,34.75 0.23872,-42.25 0.27222,41.7163 0.27222,41.7163 10.73905,0.3213 10.73906,0.3213 -11.25,0.2124 L 133,1157 Z M 155.46758,1073 c 0,-31.075 0.1268,-43.7875 0.28178,-28.25 0.15498,15.5375 0.15498,40.9625 0,56.5 -0.15498,15.5375 -0.28178,2.825 -0.28178,-28.25 z m 817.00026,-0.5 c 1.4e-4,-31.35 0.12689,-44.0305 0.28166,-28.1788 0.15477,15.8517 0.15466,41.5017 -2.6e-4,57 -0.15491,15.4983 -0.28154,2.5288 -0.2814,-28.8212 z m 47.77466,-21.2192 -0.2425,-65.21924 -12.25,-0.31456 -12.25,-0.31456 12.2814,-0.21622 c 9.0681,-0.15965 12.4064,0.11082 12.7591,1.03378 0.2628,0.6875 0.3578,30.275 0.2111,65.75 l -0.2666,64.5 z M 454.25,1044.25 c 60.3625,-0.1423 159.1375,-0.1423 219.5,0 60.3625,0.1424 10.975,0.2589 -109.75,0.2589 -120.725,0 -170.1125,-0.1165 -109.75,-0.2589 z m -147.86263,-28.2626 c -0.67023,-0.6703 -26.40313,-0.9239 -76.10466,-0.75 -41.30062,0.1444 -74.88338,-0.075 -74.62836,-0.4874 0.25503,-0.4125 34.13203,-0.75 75.28222,-0.75 65.28542,0 74.97716,0.1911 76.06343,1.5 1.39949,1.6863 0.94658,2.0466 -0.61263,0.4874 z m 552.86263,-1.737 c 20.7625,-0.151 54.7375,-0.151 75.5,0 20.7625,0.1509 3.775,0.2744 -37.75,0.2744 -41.525,0 -58.5125,-0.1235 -37.75,-0.2744 z M 106.37817,1000 c 0,-6.325 0.16237,-8.9125 0.36082,-5.75 0.19845,3.1625 0.19845,8.3375 0,11.5 -0.19845,3.1625 -0.36082,0.575 -0.36082,-5.75 z M 113.75,988.2596 c 3.4375,-0.19527 9.0625,-0.19527 12.5,0 3.4375,0.19527 0.625,0.35504 -6.25,0.35504 -6.875,0 -9.6875,-0.15977 -6.25,-0.35504 z"
         id="path2" />
    </g>
  </g>
</svg>
