<?xml version="1.0" encoding="UTF-8" standalone="no"?>
<!-- Created with Inkscape (http://www.inkscape.org/) -->

<svg
   version="1.1"
   id="svg1"
   width="1127"
   height="4126"
   viewBox="0 0 1127 4126"
   sodipodi:docname="Icebreaker_f0.svg"
   inkscape:version="1.4.3 (0d15f75, 2025-12-25)"
   xmlns:inkscape="http://www.inkscape.org/namespaces/inkscape"
   xmlns:sodipodi="http://sodipodi.sourceforge.net/DTD/sodipodi-0.dtd"
   xmlns="http://www.w3.org/2000/svg"
   xmlns:svg="http://www.w3.org/2000/svg">
  <defs
     id="defs1" />
  <sodipodi:namedview
     id="namedview1"
     pagecolor="#505050"
     bordercolor="#eeeeee"
     borderopacity="1"
     inkscape:showpageshadow="0"
     inkscape:pageopacity="0"
     inkscape:pagecheckerboard="0"
     inkscape:deskcolor="#505050"
     inkscape:zoom="0.19752787"
     inkscape:cx="564.4773"
     inkscape:cy="2063"
     inkscape:window-width="1920"
     inkscape:window-height="1017"
     inkscape:window-x="-8"
     inkscape:window-y="-8"
     inkscape:window-maximized="1"
     inkscape:current-layer="g1" />
  <g
     inkscape:groupmode="layer"
     inkscape:label="Image"
     id="g1">
    <g
       id="g2"
       transform="translate(-7e-5)">
      <path
         style="fill:#cecece;fill-opacity:1"
         d="m 726.39994,2504.5 c 10e-4,-8.25 0.15629,-11.4919 0.34419,-7.2043 0.1879,4.2876 0.18676,11.0376 -0.003,15 -0.1893,3.9624 -0.34304,0.4543 -0.34164,-7.7957 z M 448.4508,2376 c 0,-19.525 0.13396,-27.5125 0.29768,-17.75 0.16372,9.7625 0.16372,25.7375 0,35.5 -0.16372,9.7625 -0.29768,1.775 -0.29768,-17.75 z m 41.2992,-36.7459 c 5.6375,-0.1782 14.8625,-0.1782 20.5,0 5.6375,0.1783 1.025,0.3241 -10.25,0.3241 -11.275,0 -15.8875,-0.1458 -10.25,-0.3241 z m 127,0 c 5.6375,-0.1782 14.8625,-0.1782 20.5,0 5.6375,0.1783 1.025,0.3241 -10.25,0.3241 -11.275,0 -15.8875,-0.1458 -10.25,-0.3241 z m -80.04453,-19.9594 5.20546,-0.3961 0.36292,-6.1993 0.36292,-6.1993 -0.0684,6.5 -0.0684,6.5 -5.5,0.095 -5.5,0.095 z m 127,0 5.20546,-0.3961 0.36292,-6.1993 0.36292,-6.1993 -0.0684,6.5 -0.0684,6.5 -5.5,0.095 -5.5,0.095 z"
         id="path15" />
      <path
         style="fill:#c2c2c2;fill-opacity:1"
         d="m 693.23501,3527.8333 c -0.17973,-24.2184 -0.52902,-31.7853 -1.48501,-32.171 -0.97906,-0.3951 -0.97226,-0.5215 0.0314,-0.5834 0.70477,-0.043 1.49893,0.488 1.7648,1.1809 0.26588,0.6928 0.35751,15.2053 0.20363,32.25 l -0.2798,30.9902 z M 728.44956,2436 c 0,-18.975 0.13447,-26.7375 0.29883,-17.25 0.16436,9.4875 0.16436,25.0125 0,34.5 -0.16436,9.4875 -0.29883,1.725 -0.29883,-17.25 z m 0.005,-317.5 c 2.8e-4,-21.45 0.1327,-30.0827 0.29426,-19.1838 0.16156,10.8989 0.16133,28.4489 -5.1e-4,39 -0.16185,10.5511 -0.29404,1.6338 -0.29375,-19.8162 z M 543.25,1991.2512 c 10.8625,-0.1614 28.6375,-0.1614 39.5,0 10.8625,0.1615 1.975,0.2936 -19.75,0.2936 -21.725,0 -30.6125,-0.1321 -19.75,-0.2936 z"
         id="path14" />
      <path
         style="fill:#b6b6b6;fill-opacity:1"
         d="m 697,2522.9444 c 12.75149,-1.119 28.79274,-1.0888 29.5,0.056 0.4051,0.6555 -6.03459,0.9467 -18.69098,0.8452 C 691.65305,2523.716 689.888,2523.5689 697,2522.9448 Z m 34.5,0.056 c -0.39841,-0.6446 3.48962,-1 10.94098,-1 7.03935,0 11.55902,0.391 11.55902,1 0,0.6057 -4.31366,1 -10.94098,1 -6.2153,0 -11.20793,-0.4319 -11.55902,-1 z m -33.19806,-3.7461 c 5.39107,-0.1802 13.94107,-0.1794 19,0 5.05893,0.1811 0.64806,0.3285 -9.80194,0.3276 -10.45,0 -14.58913,-0.1492 -9.19806,-0.3293 z m 36.94806,0.01 c 3.1625,-0.1984 8.3375,-0.1984 11.5,0 3.1625,0.1985 0.575,0.3608 -5.75,0.3608 -6.325,0 -8.9125,-0.1623 -5.75,-0.3608 z M 451.44421,2353.5 l 0.0558,-11 7.75328,-0.068 7.75329,-0.068 -7.46987,0.359 -7.46988,0.359 -0.3392,10.7086 -0.3392,10.7085 z M 489.75,2342.2541 c 5.6375,-0.1782 14.8625,-0.1782 20.5,0 5.6375,0.1783 1.025,0.3241 -10.25,0.3241 -11.275,0 -15.8875,-0.1458 -10.25,-0.3241 z m 127,0 c 5.6375,-0.1782 14.8625,-0.1782 20.5,0 5.6375,0.1783 1.025,0.3241 -10.25,0.3241 -11.275,0 -15.8875,-0.1458 -10.25,-0.3241 z m -151.5,-36.9974 c 4.2625,-0.1875 11.2375,-0.1875 15.5,0 4.2625,0.1874 0.775,0.3408 -7.75,0.3408 -8.525,0 -12.0125,-0.1534 -7.75,-0.3408 z m 54,0 c 4.2625,-0.1875 11.2375,-0.1875 15.5,0 4.2625,0.1874 0.775,0.3408 -7.75,0.3408 -8.525,0 -12.0125,-0.1534 -7.75,-0.3408 z m 73,0 c 4.2625,-0.1875 11.2375,-0.1875 15.5,0 4.2625,0.1874 0.775,0.3408 -7.75,0.3408 -8.525,0 -12.0125,-0.1534 -7.75,-0.3408 z m 54,0 c 4.2625,-0.1875 11.2375,-0.1875 15.5,0 4.2625,0.1874 0.775,0.3408 -7.75,0.3408 -8.525,0 -12.0125,-0.1534 -7.75,-0.3408 z M 390.42614,2190.5 c 7.5e-4,-12.1 0.14515,-16.9126 0.32089,-10.6946 0.17573,6.218 0.17511,16.118 -10e-4,22 -0.17649,5.882 -0.32027,0.7946 -0.31951,-11.3054 z M 764.25,2176.2528 c 7.0125,-0.1719 18.4875,-0.1719 25.5,0 7.0125,0.1719 1.275,0.3125 -12.75,0.3125 -14.025,0 -19.7625,-0.1406 -12.75,-0.3125 z M 898.4357,1958.5 c 5.7e-4,-14.3 0.14102,-20.0109 0.31211,-12.691 0.17108,7.32 0.17062,19.02 -10e-4,26 -0.17166,6.9801 -0.31164,0.991 -0.31107,-13.309 z"
         id="path13" />
      <path
         style="fill:#aaaaaa;fill-opacity:1"
         d="m 773.4768,3477.5 c -7e-5,-44.55 0.12269,-62.9211 0.27281,-40.8246 0.15012,22.0965 0.15018,58.5465 1.4e-4,81 -0.15005,22.4535 -0.27288,4.3746 -0.27295,-40.1754 z M 408.75,2583.2596 c 3.4375,-0.1953 9.0625,-0.1953 12.5,0 3.4375,0.1953 0.625,0.355 -6.25,0.355 -6.875,0 -9.6875,-0.1597 -6.25,-0.355 z m 295.54159,0 c 3.73537,-0.1929 9.58537,-0.1915 13,0 3.41462,0.1947 0.35841,0.3525 -6.79159,0.3508 -7.15,0 -9.94379,-0.1611 -6.20841,-0.354 z M 746.38536,2563 c 0,-6.875 0.15977,-9.6875 0.35504,-6.25 0.19527,3.4375 0.19527,9.0625 0,12.5 -0.19527,3.4375 -0.35504,0.625 -0.35504,-6.25 z m -45.93065,-122.5 c 2.8e-4,-21.45 0.1327,-30.0827 0.29426,-19.1838 0.16156,10.8989 0.16133,28.4489 -5.1e-4,39 -0.16185,10.5511 -0.29404,1.6338 -0.29375,-19.8162 z m 45.92705,-101 c 0.002,-6.6 0.16382,-9.1699 0.35965,-5.7108 0.19583,3.459 0.19422,8.859 -0.004,12 -0.19781,3.1409 -0.35803,0.3108 -0.35606,-6.2892 z m -45.92705,-220 c 2.8e-4,-21.45 0.1327,-30.0827 0.29426,-19.1838 0.16156,10.8989 0.16133,28.4489 -5.1e-4,39 -0.16185,10.5511 -0.29404,1.6338 -0.29375,-19.8162 z M 746.38536,2017 c 0,-6.875 0.15977,-9.6875 0.35504,-6.25 0.19527,3.4375 0.19527,9.0625 0,12.5 -0.19527,3.4375 -0.35504,0.625 -0.35504,-6.25 z m 152.0394,-12 c 0,-11.825 0.14466,-16.6625 0.32145,-10.75 0.1768,5.9125 0.1768,15.5875 0,21.5 -0.17679,5.9125 -0.32145,1.075 -0.32145,-10.75 z M 543.25,2019.2512 c 10.8625,-0.1614 28.6375,-0.1614 39.5,0 10.8625,0.1615 1.975,0.2936 -19.75,0.2936 -21.725,0 -30.6125,-0.1321 -19.75,-0.2936 z m -310.05058,-609.995 c 4.78468,-0.1829 12.88468,-0.1838 18,0 5.11532,0.1818 1.20058,0.3315 -8.69942,0.3325 -9.9,0 -14.08526,-0.1477 -9.30058,-0.3306 z M 262.41318,1389.5 c 10e-4,-9.9 0.1507,-13.8147 0.33256,-8.6994 0.18186,5.1153 0.181,13.2153 -0.002,18 -0.18291,4.7847 -0.3317,0.5994 -0.33065,-9.3006 z m -157.03911,-383 c 0.002,-6.05 0.16696,-8.39607 0.36601,-5.2135 0.19905,3.1826 0.1972,8.1326 -0.004,11 -0.20131,2.8674 -0.36417,0.2635 -0.36191,-5.7865 z"
         id="path12" />
      <path
         style="fill:#9e9e9e;fill-opacity:1"
         d="m 554.19942,3715.2562 c 4.78468,-0.1829 12.88468,-0.1838 18,0 5.11532,0.1818 1.20058,0.3315 -8.69942,0.3325 -9.9,0 -14.08526,-0.1477 -9.30058,-0.3306 z M 687.25,3491.0365 c -2.43397,-3.0861 -2.93151,-6.4973 -1.1117,-7.622 0.78501,-0.4851 0.96717,-3.572 0.5869,-9.9459 -0.62694,-10.5084 -0.17151,-11.4686 5.43962,-11.4686 2.6987,0 4.05795,0.5477 4.8,1.9343 0.56935,1.0638 1.03518,7.3934 1.03518,14.0657 0,6.6723 -0.46583,13.0019 -1.03518,14.0657 -1.63012,3.0459 -6.9449,2.4829 -9.71482,-1.0292 z M 128.49749,1953.5 c 0,-435.05 0.11363,-613.1746 0.25251,-395.8324 0.13888,217.3422 0.13888,573.2922 0,791 -0.13888,217.7078 -0.25251,39.8824 -0.25251,-395.1676 z m 587.78416,644.1551 c 0.14902,-0.7884 -3.09017,-1.3139 -10.2016,-1.6551 -10.1439,-0.4868 -10.44281,-0.5688 -11.28284,-3.0985 -0.51809,-1.5602 -0.46007,-3.658 0.1452,-5.25 L 695.9505,2585 H 710.5 725.0495 l 0.97525,2.5651 c 1.41408,3.7193 1.2913,4.137 -2.10985,7.1772 -3.41602,3.0535 -7.98979,4.7988 -7.63325,2.9128 z m -295.84255,-0.616 c -0.5285,-0.5285 -5.456,-1.091 -10.95,-1.25 L 399.5,2595.5 v -5 -5 h 15.5 15.5 l 0.32053,3.3461 c 0.53371,5.5717 -7.03197,11.5425 -10.38143,8.193 z m 328.77532,-17.9561 c 0.0567,-0.3206 -0.20663,-1.2797 -0.5852,-2.1312 -0.37856,-0.8514 -0.5625,-7.8264 -0.40875,-15.5 L 748.5,2547.5 l 3.35942,-0.3215 c 2.34679,-0.2246 4.02701,0.3056 5.57419,1.7591 1.21812,1.1444 2.42798,1.8675 2.68857,1.6069 0.26059,-0.2606 0.57881,1.0853 0.70714,2.9908 0.13356,1.9833 -0.23432,3.4647 -0.86038,3.4647 -0.74386,0 -0.99378,3.489 -0.78132,10.9074 0.17181,5.999 0.0874,10.7735 -0.18762,10.6099 -0.275,-0.1636 -2.61245,0.028 -5.19434,0.4256 -2.58189,0.3977 -4.64794,0.4608 -4.59124,0.1401 z m -378.20528,-1.572 c -0.67967,-0.8189 -1.70429,-1.1994 -2.27696,-0.8455 -0.63746,0.394 -0.73773,0.1525 -0.25857,-0.6228 0.43044,-0.6965 0.33498,-1.5535 -0.21214,-1.9045 -0.61889,-0.3971 -0.80408,-5.4849 -0.49013,-13.4654 0.48578,-12.3482 0.59282,-12.8608 2.86621,-13.7251 3.10218,-1.1794 8.36245,-0.087 8.36245,1.7363 0,0.7887 0.3375,1.2254 0.75,0.9705 0.4125,-0.2549 0.75,5.5255 0.75,12.8455 0,7.32 -0.3375,13.1004 -0.75,12.8455 -0.4125,-0.2549 -0.75,0.1855 -0.75,0.9789 0,0.7933 -1.0125,1.7137 -2.25,2.0453 -3.40933,0.9137 -4.3919,0.7667 -5.74086,-0.8587 z m 315.63446,-16.7101 c -1.01193,-3.778 -0.72411,-28.7819 0.35451,-30.7974 0.83397,-1.5583 1.52534,-1.7138 4.20391,-0.9456 1.76319,0.5057 3.5917,1.609 4.06335,2.4518 0.47165,0.8428 1.29104,1.2645 1.82087,0.937 0.52982,-0.3274 0.83966,6e-4 0.68854,0.729 -0.15113,0.7284 0.17549,1.2492 0.72581,1.1574 0.5847,-0.097 0.85459,1.669 0.64931,4.25 -0.19321,2.4293 -0.75598,4.4169 -1.25059,4.4169 -0.49462,0 -0.89931,4.0197 -0.89931,8.9326 0,9.7116 0.35576,9.145 -6.62005,10.5437 -2.67201,0.5357 -3.20856,0.2951 -3.73635,-1.6754 z M 565.51048,2530.275 c -1.09423,-0.2827 -2.58225,-1.3601 -3.3067,-2.3945 -0.72445,-1.0343 -2.19167,-1.8805 -3.26048,-1.8805 -1.79485,0 -1.9433,-0.7639 -1.9433,-10 0,-8.0359 0.28276,-10 1.43963,-10 0.93988,0 1.54738,-1.2941 1.75,-3.7277 0.29707,-3.568 0.50175,-3.7602 4.77575,-4.4846 2.76461,-0.4687 4.85944,-0.364 5.5,0.2748 1.33076,1.3272 1.96879,24.4827 0.79899,28.9971 -0.89924,3.4703 -2.12191,4.1535 -5.75389,3.2154 z M 695,2520.3146 c 15.90692,-0.7189 31.77492,-0.7515 31.34804,-0.065 -0.25634,0.4125 -8.87702,0.6619 -19.15706,0.5541 -10.28004,-0.1077 -15.76598,-0.328 -12.19098,-0.4895 z m 40.25,-0.054 c 3.1625,-0.1984 8.3375,-0.1984 11.5,0 3.1625,0.1985 0.575,0.3608 -5.75,0.3608 -6.325,0 -8.9125,-0.1623 -5.75,-0.3608 z M 746,2467.5 c 0,-0.825 -0.45,-1.5 -1,-1.5 -0.55,0 -1,-1.7734 -1,-3.941 0,-2.1675 0.45,-4.2191 1,-4.559 0.55,-0.3399 1,-2.4062 1,-4.5918 v -3.9737 l 11.25,0.2827 11.25,0.2828 0.31629,3.8493 c 0.25476,3.1006 0.65747,3.7601 2.07041,3.3906 1.4477,-0.3786 1.79279,0.288 1.9754,3.8159 0.1217,2.3511 -0.25482,4.5689 -0.83672,4.9285 -0.5819,0.3597 -0.80229,1.0676 -0.48975,1.5733 0.31253,0.5057 -0.0846,0.669 -0.88254,0.3628 -0.79793,-0.3062 -1.74786,-0.076 -2.11096,0.5114 C 768.13902,2468.5841 763.6218,2469 756.94098,2469 747.88233,2469 746,2468.7419 746,2467.5 Z M 479.41508,2385 c 0,-10.175 0.1485,-14.3375 0.32999,-9.25 0.18149,5.0875 0.18149,13.4125 0,18.5 -0.18149,5.0875 -0.32999,0.925 -0.32999,-9.25 z m 41,0 c 0,-10.175 0.1485,-14.3375 0.32999,-9.25 0.18149,5.0875 0.18149,13.4125 0,18.5 -0.18149,5.0875 -0.32999,0.925 -0.32999,-9.25 z m 86,0 c 0,-10.175 0.1485,-14.3375 0.32999,-9.25 0.18149,5.0875 0.18149,13.4125 0,18.5 -0.18149,5.0875 -0.32999,0.925 -0.32999,-9.25 z m 41,0 c 0,-10.175 0.1485,-14.3375 0.32999,-9.25 0.18149,5.0875 0.18149,13.4125 0,18.5 -0.18149,5.0875 -0.32999,0.925 -0.32999,-9.25 z m -168.04101,-31.5 c 0.002,-6.05 0.16696,-8.3961 0.36601,-5.2135 0.19905,3.1826 0.1972,8.1326 -0.004,11 -0.20131,2.8674 -0.36417,0.2635 -0.36191,-5.7865 z m 41,0 c 0.002,-6.05 0.16696,-8.3961 0.36601,-5.2135 0.19905,3.1826 0.1972,8.1326 -0.004,11 -0.20131,2.8674 -0.36417,0.2635 -0.36191,-5.7865 z m 58,0 c 0.002,-6.05 0.16696,-8.3961 0.36601,-5.2135 0.19905,3.1826 0.1972,8.1326 -0.004,11 -0.20131,2.8674 -0.36417,0.2635 -0.36191,-5.7865 z m 28,0 c 0.002,-6.05 0.16696,-8.3961 0.36601,-5.2135 0.19905,3.1826 0.1972,8.1326 -0.004,11 -0.20131,2.8674 -0.36417,0.2635 -0.36191,-5.7865 z m 41,0 c 0.002,-6.05 0.16696,-8.3961 0.36601,-5.2135 0.19905,3.1826 0.1972,8.1326 -0.004,11 -0.20131,2.8674 -0.36417,0.2635 -0.36191,-5.7865 z m -274.4808,2.0031 c -4.95826,-2.695 -5.62157,-4.9409 -5.16938,-17.5031 0.22767,-6.325 0.67938,-12.175 1.00379,-13 0.32441,-0.825 0.53905,-1.7755 0.47697,-2.1123 -0.13304,-0.7218 8.8619,0.8468 9.71316,1.6939 0.32021,0.3186 0.72974,6.3572 0.91007,13.4191 0.33597,13.156 -0.43771,16.9993 -3.42208,16.9993 -0.83811,0 -1.24572,0.45 -0.9058,1 0.78452,1.2694 0.56648,1.2278 -2.60673,-0.4969 z m 379.10673,0 -3.5,-1.2594 -0.5,-15.04 c -0.275,-8.272 -0.275,-15.0233 0,-15.0029 1.91383,0.1422 3.03439,-0.335 2.56607,-1.0928 -0.31774,-0.5141 0.90903,-0.5636 2.89092,-0.1166 1.89358,0.4271 3.71419,0.5052 4.0458,0.1736 0.3316,-0.3316 0.33826,0.087 0.0148,0.9297 -0.33432,0.8712 0.29019,2.3275 1.44714,3.3745 2.16615,1.9603 2.68949,5.0095 1.03527,6.0319 -0.55917,0.3456 -1,5.0416 -1,10.6526 0,9.1747 -0.17043,10.0792 -1.98875,10.5547 -1.09382,0.286 -1.74226,0.9189 -1.44099,1.4064 0.30128,0.4875 0.40872,0.8326 0.23876,0.767 -0.16996,-0.066 -1.88402,-0.6861 -3.80902,-1.3787 z m -2.77062,-322.4639 c 0.0485,-0.2959 -0.22159,-1.2348 -0.60016,-2.0863 -0.37856,-0.8514 -0.5625,-7.8264 -0.40875,-15.5 L 748.5,2001.5 l 3.36982,-0.3223 c 5.67298,-0.5426 11.58316,6.9693 8.16928,10.3832 -0.5285,0.5285 -1.091,5.456 -1.25,10.95 l -0.2891,9.9891 -4.67938,0.5381 c -2.57365,0.296 -4.63971,0.296 -4.59124,0 z m -378.70804,-2.0145 c -0.98375,-1.087 -2.12457,-1.7688 -2.53515,-1.5151 -0.74073,0.4578 -0.23492,-24.8616 0.54454,-27.2585 0.24533,-0.7544 2.18921,-1.25 4.9027,-1.25 6.29327,0 6.79369,1.3396 6.39445,17.1182 -0.25738,10.1724 -0.65039,13.1621 -1.82788,13.9049 -2.43429,1.5357 -5.56273,1.1176 -7.47866,-0.9995 z M 105.38536,1029 c 0,-6.875 0.15977,-9.6875 0.35504,-6.25 0.19527,3.4375 0.19527,9.0625 0,12.5 -0.19527,3.4375 -0.35504,0.625 -0.35504,-6.25 z"
         id="path11" />
      <path
         style="fill:#929292;fill-opacity:1"
         d="m 105.37817,1052 c 0,-6.325 0.16237,-8.9125 0.36082,-5.75 0.19845,3.1625 0.19845,8.3375 0,11.5 -0.19845,3.1625 -0.36082,0.575 -0.36082,-5.75 z"
         id="path10" />
      <path
         style="fill:#868686;fill-opacity:1"
         d="m 749.78919,3439.2586 c 3.45905,-0.1958 8.85905,-0.1942 12,0 3.14094,0.1978 0.31081,0.358 -6.28919,0.356 -6.6,0 -9.16987,-0.1638 -5.71081,-0.3596 z M 875.37407,3124.5 c 0.002,-6.05 0.16696,-8.3961 0.36601,-5.2135 0.19905,3.1826 0.1972,8.1326 -0.004,11 -0.20131,2.8674 -0.36417,0.2635 -0.36191,-5.7865 z m 123.12341,-1171 c 0,-433.95 0.11363,-611.3254 0.25252,-394.1676 0.13888,217.1578 0.13888,572.2078 0,789 -0.13889,216.7922 -0.25252,39.1176 -0.25252,-394.8324 z M 408.75,2584.2596 c 3.4375,-0.1953 9.0625,-0.1953 12.5,0 3.4375,0.1953 0.625,0.355 -6.25,0.355 -6.875,0 -9.6875,-0.1597 -6.25,-0.355 z m 295.54159,0 c 3.73537,-0.1929 9.58537,-0.1915 13,0 3.41462,0.1947 0.35841,0.3525 -6.79159,0.3508 -7.15,0 -9.94379,-0.1611 -6.20841,-0.354 z m -10,-10 c 3.73537,-0.1929 9.58537,-0.1915 13,0 3.41462,0.1947 0.35841,0.3525 -6.79159,0.3508 -7.15,0 -9.94379,-0.1611 -6.20841,-0.354 z M 747.38536,2563 c 0,-6.875 0.15977,-9.6875 0.35504,-6.25 0.19527,3.4375 0.19527,9.0625 0,12.5 -0.19527,3.4375 -0.35504,0.625 -0.35504,-6.25 z m -62,-17 c 0,-6.875 0.15977,-9.6875 0.35504,-6.25 0.19527,3.4375 0.19527,9.0625 0,12.5 -0.19527,3.4375 -0.35504,0.625 -0.35504,-6.25 z m 44.01458,-41.5 c 10e-4,-8.25 0.15629,-11.4919 0.34419,-7.2043 0.1879,4.2876 0.18676,11.0376 -0.003,15 -0.1893,3.9624 -0.34304,0.4543 -0.34164,-7.7957 z M 489.75,2366.2541 c 5.6375,-0.1782 14.8625,-0.1782 20.5,0 5.6375,0.1783 1.025,0.3241 -10.25,0.3241 -11.275,0 -15.8875,-0.1458 -10.25,-0.3241 z m 127,0 c 5.6375,-0.1782 14.8625,-0.1782 20.5,0 5.6375,0.1783 1.025,0.3241 -10.25,0.3241 -11.275,0 -15.8875,-0.1458 -10.25,-0.3241 z M 747.38536,2339 c 0,-6.875 0.15977,-9.6875 0.35504,-6.25 0.19527,3.4375 0.19527,9.0625 0,12.5 -0.19527,3.4375 -0.35504,0.625 -0.35504,-6.25 z m -5.95411,-138.5 c 6.6e-4,-13.2 0.14295,-18.4617 0.31621,-11.6927 0.17326,6.7691 0.17273,17.5691 -0.001,24 -0.17391,6.431 -0.31567,0.8927 -0.31502,-12.3073 z m -401.24028,-32.2468 c 6.98004,-0.1716 18.68004,-0.1721 26,0 7.31997,0.1711 1.60903,0.3115 -12.69097,0.3121 -14.3,6e-4 -20.28906,-0.1394 -13.30903,-0.3111 z M 747.38536,2017 c 0,-6.875 0.15977,-9.6875 0.35504,-6.25 0.19527,3.4375 0.19527,9.0625 0,12.5 -0.19527,3.4375 -0.35504,0.625 -0.35504,-6.25 z m 131.92106,-648.7473 c 6.49353,-0.1744 16.84353,-0.1738 23,0 6.15647,0.1752 0.84358,0.3179 -11.80642,0.3172 -12.65,-7e-4 -17.68711,-0.144 -11.19358,-0.3185 z M 105.38854,1075.5 c 0.002,-7.15 0.16103,-9.9438 0.35396,-6.2084 0.19293,3.7354 0.19149,9.5854 -0.003,13 -0.19468,3.4146 -0.35253,0.3584 -0.35078,-6.7916 z"
         id="path9" />
      <path
         style="fill:#7a7a7a;fill-opacity:1"
         d="m 778.68114,4040.3872 c -5.95038,-3.0107 -10.67538,-5.8623 -10.5,-6.3369 2.24344,-6.0709 55.72646,-108.4383 56.81886,-108.7523 0.93842,-0.2697 7.46941,-16.3405 17.44447,-42.9257 8.76946,-23.3721 16.32402,-42.7292 16.78791,-43.0159 0.46389,-0.2867 7.35125,-13.5309 15.30525,-29.4316 l 14.46182,-28.9104 1.91765,-34.7572 1.91765,-34.7572 6.57129,-26.5 c 6.47436,-26.1091 6.76302,-27.8707 19.56797,-119.4206 9.55634,-68.3237 15.62709,-116.3684 22.93362,-181.5 l 9.93693,-88.5794 4.09821,-88 c 2.25401,-48.4 4.13215,-90.475 4.17365,-93.5 0.0415,-3.025 2.05728,-45.5427 4.47952,-94.4838 2.42223,-48.941 4.34797,-95.291 4.27941,-103 -0.10681,-12.0094 -0.38135,-9.2913 -1.91746,18.9838 -4.42521,81.4547 -14.09707,167.7317 -30.99632,276.5 -9.72039,62.5631 -33.32032,203 -34.11345,203 -1.11454,0 -1.73725,-8.3058 -2.92394,-39 l -1.14052,-29.5 2.57051,-14 c 1.41378,-7.7 8.45723,-47.525 15.65211,-88.5 l 13.08161,-74.5 0.99824,-56.5 c 0.54902,-31.075 1.17182,-59.2 1.38398,-62.5 0.2922,-4.5448 0.0603,-3.8172 -0.9562,3 -0.73809,4.95 -1.38066,9.7875 -1.42794,10.75 -0.0473,0.9625 -0.57552,1.75 -1.17387,1.75 -0.68923,0 -0.88429,-1.3742 -0.53229,-3.75 0.30558,-2.0625 0.76689,-7.35 1.02512,-11.75 0.45954,-7.83 0.43367,-7.7626 -1.2177,3.1716 -1.74872,11.5788 -3.19175,15.5458 -3.18109,8.7451 0.003,-2.1542 0.897,-17.8667 1.98582,-34.9167 1.08883,-17.05 1.98607,-31.6375 1.99386,-32.4167 0.0512,-5.1108 -1.44663,3.7441 -5.95937,35.2321 -2.82244,19.6938 -9.38095,58.6169 -14.57446,86.4958 -5.19352,27.8788 -9.44483,51.0263 -9.44737,51.4388 -0.003,0.4125 -0.50471,0.75 -1.11594,0.75 -0.80069,0 -0.9381,-6.359 -0.4916,-22.75 1.46712,-53.8576 1.58658,-65.7273 0.64165,-63.75 -0.52567,1.1 -4.38337,18.875 -8.57266,39.5 -10.00877,49.2758 -9.49796,47 -10.54893,47 -0.54229,0 -0.9448,-19.3119 -0.98482,-47.25 -0.0433,-30.2439 -0.40549,-46.5302 -1.00624,-45.25 -0.51621,1.1 -6.07601,22.1777 -12.3551,46.8394 -6.27909,24.6617 -11.67628,45.0992 -11.99375,45.4167 -0.31748,0.3175 -0.75665,0.3897 -0.97595,0.1606 -0.21929,-0.2292 0.0283,-19.1985 0.55028,-42.154 0.52195,-22.9556 0.81388,-44.2371 0.64872,-47.2922 -0.28115,-5.201 -1.2159,-2.5732 -14.66924,41.2373 -7.90294,25.7357 -14.76544,47.2197 -15.25,47.7422 -1.26241,1.3612 -1.07176,-8.4614 1.04714,-53.95 1.02477,-22 1.69575,-40.1769 1.49106,-40.3931 -0.20469,-0.2162 -0.59856,0.2338 -0.87527,1 -0.27671,0.7662 -7.65799,22.0931 -16.40284,47.3931 -17.96393,51.972 -43.1664,115.3819 -72.74301,183.0227 l -18.37484,42.0227 -0.99366,20.4773 c -0.54651,11.2625 -1.00175,21.9241 -1.01164,23.6923 l -0.018,3.215 -10.25,0.285 -10.25,0.285 -0.5,29.5 c -0.43253,25.5193 -0.73467,29.929 -2.23903,32.6791 -0.95647,1.7486 -2.64397,3.4664 -3.75,3.8174 -1.42241,0.4515 -2.01097,1.5111 -2.01097,3.6205 0,1.6403 -0.73347,4.4225 -1.62994,6.1827 -2.50669,4.9218 -29.07392,50.4944 -44.49885,76.332 l -13.80954,23.1317 -1.48507,21.1398 c -0.81678,11.6268 -1.81621,21.6755 -2.22095,22.3304 -0.40474,0.6548 -6.45413,8.6501 -13.4431,17.7671 l -12.7072,16.5765 -1.56285,9.9614 c -1.53029,9.7539 -6.6425,52.7613 -6.6425,55.8812 0,0.9263 -0.84816,1.5802 -2.04966,1.5802 -1.88901,0 -2.00879,-0.4507 -1.5283,-5.75 0.28675,-3.1625 0.78239,-11.375 1.10143,-18.25 0.31903,-6.875 0.78995,-14.3 1.04647,-16.5 l 0.46641,-4 -1.97717,4.25 c -2.29482,4.9328 -4.22541,5.6156 -3.53418,1.25 0.26125,-1.65 0.68875,-4.35 0.95,-6 0.26125,-1.65 0.14875,-2.9991 -0.25,-2.9981 -1.50081,0 -7.07521,9.7517 -9.29177,16.2481 -1.2667,3.7125 -2.66987,6.75 -3.11816,6.75 -0.44829,0 -0.81518,-1.9125 -0.81532,-4.25 l -2.5e-4,-4.25 -4.49975,-0.096 -4.49975,-0.096 v 4.5459 c 0,5.5761 -0.973,4.6433 -4.02016,-3.8541 -2.1705,-6.0527 -7.3343,-15 -8.65705,-15 -0.31962,0 -0.27565,2.7 0.0977,6 0.78872,6.9713 -0.33425,7.7353 -2.92509,1.9898 -0.99459,-2.2056 -1.9518,-3.8667 -2.12713,-3.6914 -0.17533,0.1753 0.0806,2.9924 0.5687,6.2602 0.48812,3.2678 1.18295,13.0679 1.54407,21.778 0.61875,14.9243 0.55254,15.8165 -1.14948,15.4887 -1.57829,-0.3039 -2.08451,-2.8687 -4.01392,-20.3365 -4.12807,-37.3733 -5.39911,-45.3215 -7.80301,-48.7944 -1.21613,-1.7569 -2.76287,-3.0708 -3.43721,-2.9196 -0.67434,0.1511 -0.94391,-0.1818 -0.59904,-0.7398 0.88644,-1.4343 -11.34349,-17.2364 -12.694,-16.4017 -0.65549,0.4051 -0.80773,0.2135 -0.38013,-0.4784 0.40283,-0.6518 -1.21304,-3.6575 -3.71252,-6.9057 l -4.4258,-5.7517 -1.46474,-21.4987 -1.46474,-21.4988 -10.29159,-17 c -18.3069,-30.24 -44.5498,-75.6193 -52.48389,-90.7554 -4.65227,-8.8752 -8.16004,-14.4924 -8.80226,-14.0955 -0.6344,0.3921 -0.7752,0.1866 -0.34694,-0.5063 0.40105,-0.6489 -3.03793,-8.3697 -7.75231,-17.4046 l -8.4731,-16.2382 -1.2415,-33 -1.2415,-33 -17.46626,-39.9428 c -29.64476,-67.7934 -56.96805,-136.563 -74.80007,-188.2635 -13.55224,-39.2921 -15.98022,-45.5769 -16.22564,-42 -0.15873,2.3135 0.60615,23.5414 1.69974,47.1732 1.0936,23.6318 1.78597,43.1693 1.53861,43.4167 -0.24736,0.2473 -0.68796,0.2115 -0.97912,-0.08 -0.29115,-0.2912 -6.87322,-21.1787 -14.62681,-46.4167 -7.75359,-25.238 -14.53296,-46.3373 -15.06526,-46.8873 -0.62433,-0.6451 -0.76027,4.5011 -0.38303,14.5 1.282,33.9794 1.80515,79 0.91801,79 -0.50427,0 -6.2936,-21.1424 -12.86519,-46.9832 L 251.5,3075.0336 l -0.61448,23.7332 c -0.33796,13.0533 -0.67546,34.1957 -0.75,46.9832 -0.0745,12.7875 -0.48191,23.25 -0.90528,23.25 -0.42337,0 -4.81087,-19.7997 -9.75,-43.9994 -4.93913,-24.1997 -9.35729,-43.9997 -9.81814,-44 -0.46084,-3e-4 -0.5931,1.6869 -0.29391,3.7494 1.04874,7.2295 1.85528,84.7836 0.87098,83.75 -1.68496,-1.7694 -20.01207,-103.9093 -24.76153,-138 -4.37536,-31.4054 -6.81104,-44.3832 -5.81813,-31 1.53103,20.6362 4.09879,66.0688 3.75374,66.4167 -0.93217,0.9398 -1.43366,-1.0389 -2.88672,-11.3902 -0.83826,-5.9716 -1.80106,-11.1205 -2.13956,-11.442 -0.3385,-0.3215 -0.35357,1.2155 -0.0335,3.4155 1.39436,9.5841 1.84262,19.5 0.88151,19.5 -0.55,0 -1.31599,-3.372 -1.70218,-7.4933 -0.3862,-4.1213 -1.10957,-8.7338 -1.60748,-10.25 -0.81185,-2.4722 -0.85065,-2.3954 -0.3759,0.7433 0.29116,1.925 0.9995,29.375 1.57409,61 l 1.0447,57.5 15.80619,91 15.8062,91 -1.52429,32.5 c -0.83836,17.875 -1.68899,32.6875 -1.8903,32.9167 -0.20131,0.2291 -0.64224,0.1404 -0.97985,-0.1972 -0.33761,-0.3376 -5.72959,-30.9001 -11.98217,-67.9167 -25.82567,-152.8931 -40.07398,-252.3771 -46.1609,-322.3028 -2.0587,-23.65 -3.86197,-40.525 -4.00726,-37.5 -0.14529,3.025 1.07372,30.7 2.7089,61.5 6.69143,126.0382 12.24004,245.9384 11.39431,246.2203 -1.86449,0.6215 19.15128,178.1808 32.04925,270.7797 6.89479,49.5 12.5221,91.8 12.50514,94 -0.017,2.2 3.12786,17.0164 6.9885,32.9254 3.86064,15.9089 6.81289,29.2594 6.56055,29.6677 -0.25233,0.4082 0.41163,13.7699 1.47546,29.6926 l 1.93426,28.9502 6.10237,12.1735 c 3.35631,6.6954 6.53441,11.9064 7.06245,11.5801 0.55476,-0.3429 0.68208,0.1311 0.30159,1.1226 -0.48212,1.2564 -0.30375,1.4968 0.66596,0.8974 0.86625,-0.5353 1.08519,-0.4314 0.63285,0.3005 -0.38038,0.6155 3.30293,9.1225 8.18513,18.9045 6.67663,13.3774 12.77691,28.3191 24.61288,60.2855 16.3755,44.2267 16.64959,44.8377 44.46117,99.1078 l 13.12313,25.6078 -11.79647,6.0973 -11.79647,6.0974 -4.7208,-9.5034 c -3.02809,-6.0958 -5.12852,-9.2514 -5.8579,-8.8007 -0.7059,0.4363 -0.86137,0.2567 -0.40997,-0.4737 0.41308,-0.6684 -6.80047,-15.96 -16.7014,-35.4045 -16.66627,-32.731 -18.11675,-36.0649 -33.16395,-76.228 -14.56366,-38.8724 -16.84662,-44.1776 -30.65773,-71.243 -8.20728,-16.0837 -14.97348,-29.5837 -15.036,-30 -0.0625,-0.4164 -0.25316,-1.207 -0.42363,-1.757 -0.17048,-0.55 -1.27204,-16.3 -2.44793,-35 l -2.13796,-34 -6.92051,-28.8429 c -3.80628,-15.8635 -6.67691,-29.8135 -6.37918,-31 0.29772,-1.1864 -5.13492,-42.8821 -12.07253,-92.6571 -13.39294,-96.0897 -34.14627,-271.8829 -32.24284,-273.1164 0.91587,-0.5935 -1.75961,-58.6719 -12.61691,-273.8836 -2.99792,-59.4243 -4.36878,-95.7168 -4.49493,-119 -0.38789,-71.5911 -2.063,-156.4801 -3.09459,-156.824 C 130.32514,2744.9417 130,2494.3677 130,1952.9167 V 1161 H 118.5 107 V 1075.5 990 l 11.75,-0.0153 c 6.4625,-0.008 12.23829,-0.34592 12.83509,-0.75 0.71375,-0.48327 2.00708,-23.14964 3.77932,-66.23469 2.52152,-61.30133 3.0089,-68.41663 7.60317,-111 l 4.90893,-45.5 13.52359,-66.02373 13.5236,-66.02372 20.60893,-70.97628 c 16.65663,-57.3647 23.3064,-78.55143 34.67466,-110.47627 13.20417,-37.08055 15.47573,-42.53196 37.08547,-89 12.66085,-27.225 23.74621,-50.20887 24.63413,-51.07527 3.06068,-2.98652 59.24485,-104.83783 58.49812,-106.04607 -0.44788,-0.72467 -0.30713,-0.92384 0.36103,-0.5109 1.43858,0.8891 58.57287,-78.97801 57.61129,-80.53388 -0.42002,-0.67962 -0.26472,-0.86995 0.38313,-0.46956 0.64947,0.40139 6.58882,-7.00782 14.70606,-18.34549 C 430.97564,96.558472 437.35712,88 437.66758,88 c 0.31045,0 2.75355,1.606937 5.4291,3.570971 2.75459,2.022053 5.3738,3.256292 6.03849,2.845491 0.70447,-0.435387 0.90743,-0.29441 0.50758,0.352563 -0.88663,1.434604 4.99052,5.560715 6.60043,4.633884 0.69125,-0.397958 0.92322,-0.355317 0.5155,0.09476 -0.40773,0.450074 -0.22878,1.435901 0.39768,2.190731 0.88593,1.06748 0.42619,2.36499 -2.06914,5.83967 -1.76448,2.457 -2.8864,4.98784 -2.49317,5.6241 0.42963,0.69517 0.27795,0.88675 -0.38009,0.48007 -1.43858,-0.8891 -58.57287,78.97801 -57.61129,80.53388 0.41874,0.67754 0.26486,0.87004 -0.37793,0.47278 -0.63863,-0.3947 -5.176,5.03096 -11.03985,13.20118 -11.14824,15.53304 -42.81851,71.32569 -41.60346,73.29168 0.44689,0.72308 0.29698,0.91113 -0.38858,0.48743 -1.38058,-0.85325 -5.56124,6.97573 -4.57616,8.56961 0.4008,0.64852 0.24356,0.84287 -0.37343,0.46155 -0.63911,-0.395 -5.5667,7.44945 -12.30917,19.59549 -6.18388,11.13979 -11.60871,20.49638 -12.05517,20.79242 -0.44647,0.29605 -10.31647,20.95687 -21.93334,45.91294 C 260.8436,439.46988 250.14041,469.27309 221.33451,568 l -20.57004,70.5 -13.40814,65 -13.40814,65 -4.95557,45.5 c -4.68753,43.03898 -5.10066,49.06983 -7.63814,111.5 -2.05131,50.46886 -2.99695,66.37151 -4.01853,67.57874 -1.05543,1.24724 -1.33595,8.47406 -1.33595,34.41666 0,18.0609 0.22741,32.6105 0.50536,32.3326 0.27796,-0.278 1.61213,-16.0325 2.96484,-35.0101 5.631,-78.99914 7.70134,-99.53886 13.63966,-135.3179 13.33514,-80.34571 29.54158,-155.92119 44.60363,-208 4.13579,-14.3 7.90349,-26.675 8.37266,-27.5 1.53383,-2.69713 1.03111,3.03851 -2.53284,28.8979 -3.05913,22.19642 -4.34597,28.31874 -11.44399,54.44608 -7.81189,28.75503 -17.80294,73.39835 -26.12464,116.7335 l -4.14355,21.57748 2.42175,21.92252 c 1.33196,12.05739 2.67989,21.24752 2.9954,20.42252 0.31552,-0.825 2.01964,-10.8375 3.78696,-22.25 1.76731,-11.4125 3.6375,-20.75 4.15598,-20.75 0.85616,0 0.66868,3.88535 -0.72379,15 -0.81649,6.51714 1.34137,-0.0138 2.56064,-7.75 1.44961,-9.19774 3.19102,-9.54495 2.50765,-0.5 l -0.50997,6.75 1.4867,-6.42124 c 1.46041,-6.3077 2.08381,-7.8242 2.87565,-6.99543 0.21895,0.22917 -0.21706,13.24167 -0.96891,28.91667 -1.21787,25.39064 -1.90542,31.84864 -6.30199,59.19323 l -4.93499,30.69322 3.80256,36.30675 3.80257,36.3068 -4.85188,37.4062 -4.85187,37.4061 7.05671,30.0939 c 3.88118,16.5516 10.52273,48.8015 14.75899,71.6665 l 7.70229,41.5726 -4.48715,34.7192 -4.48716,34.7191 1.95995,8.2082 1.95995,8.2082 23.72142,0.2681 L 261,1371.0362 V 1389.5181 1408 h -19.10699 c -14.86458,0 -19.00472,0.2775 -18.64638,1.25 0.25334,0.6875 1.96575,7.4116 3.80537,14.9425 l 3.34476,13.6924 -3.33066,42.8076 -3.33065,42.8075 5.64035,58 c 3.1022,31.9 5.63452,61.825 5.62737,66.5 -0.007,4.675 -1.12245,31.9 -2.47846,60.5 -3.89366,82.122 -4.77467,126.2274 -4.9039,245.5 -0.21994,202.9869 4.35009,434.9488 11.92933,605.5 2.21956,49.9453 3.39552,66.6263 8.46781,120.1155 l 5.89031,62.1155 10.08975,58.8845 c 8.73565,50.9819 11.63742,65.4606 21.62184,107.8845 6.34266,26.95 17.83925,73.075 25.548,102.5 11.93818,45.5692 16.5377,61.1343 31.02764,105 15.1528,45.8724 19.2004,56.7998 37.04056,100 21.8228,52.8441 48.26868,114.1014 71.2336,165 15.55717,34.4804 36.98756,88.1638 47.61588,119.2785 3.52796,10.3282 6.5549,18.117 6.72655,17.3084 0.17164,-0.8085 -0.84086,-9.4217 -2.25,-19.1403 -2.75992,-19.0346 -3.09187,-23.4062 -1.66268,-21.8966 1.47865,1.5618 18.61184,56.4989 23.99837,76.95 5.42001,20.5783 10.46746,45.919 14.62778,73.4388 2.13692,14.1354 3.21421,18.5871 5.68701,23.5 4.9379,9.8107 11.98807,22.0033 13.1813,22.7959 1.35566,0.9004 7.84812,0.9934 10.06134,0.1441 2.08358,-0.7995 4.83714,-6.0968 3.93116,-7.5627 -0.40964,-0.6628 -0.24754,-0.8483 0.39448,-0.4515 0.66416,0.4104 3.30251,-3.4515 6.7546,-9.8873 l 5.66475,-10.5608 2.80215,-18.7082 c 6.59533,-44.033 13.95919,-74.824 29.43296,-123.0701 11.32337,-35.3054 11.71062,-35.5978 7.52303,-5.6799 -1.60948,11.4989 -2.75835,21.075 -2.55304,21.2803 0.38642,0.3864 0.743,-0.591 9.93667,-27.2386 9.30694,-26.9759 29.63674,-77.4183 44.13175,-109.5 22.64388,-50.1175 47.38776,-107.3604 70.11759,-162.2111 19.7503,-47.6606 22.79069,-55.8459 38.81596,-104.5 14.75118,-44.7858 19.44772,-60.6724 30.97878,-104.7889 7.47539,-28.6 18.79659,-74.05 25.15822,-101 10.24398,-43.3969 12.75457,-55.9753 21.9556,-110 10.376,-60.9237 10.39592,-61.0731 15.92852,-119.5 4.50236,-47.547 6.00962,-68.7041 8.05029,-113 7.23387,-157.0224 11.20942,-342.2319 12.23512,-570 0.61935,-137.5336 -0.16961,-184.7173 -4.79058,-286.5 l -3.04181,-67 5.91464,-61 5.91464,-61 -3.39047,-41.5 -3.39047,-41.5 3.53513,-14.2269 C 902.40919,1416.4482 904,1409.3607 904,1408.5231 904,1407.2139 901.40226,1407 885.5,1407 H 867 v -18.5 -18.5 h 23.46146 23.46145 l 1.10256,-4.25 c 0.60641,-2.3375 1.49689,-5.7466 1.97885,-7.5758 0.63253,-2.4005 -0.38883,-13.0757 -3.67151,-38.3744 l -4.54782,-35.0487 7.17492,-39.1255 c 3.94621,-21.5191 10.58418,-53.7506 14.75105,-71.6256 l 7.57613,-32.5 -4.81206,-37.3963 -4.81207,-37.3963 3.75961,-36.6081 3.7596,-36.60822 -5.0591,-31.99554 c -4.33874,-27.43966 -5.2198,-35.48412 -6.18758,-56.49554 -1.42725,-30.98705 -0.87138,-36.74306 2.09282,-21.67069 1.50752,7.66545 2.22962,6.72841 1.0946,-1.42043 -0.49096,-3.52488 -0.695,-6.62085 -0.45341,-6.87992 0.97239,-1.04277 2.09554,2.53369 3.38689,10.7849 1.59473,10.18977 2.37433,8.13574 1.16288,-3.06386 -0.46108,-4.2625 -0.48261,-7.75 -0.0479,-7.75 1.02138,0 1.27323,1.24196 4.35986,21.5 2.4409,16.02002 4.14592,23.88919 4.44176,20.5 0.072,-0.825 1.15217,-10.45066 2.40036,-21.39035 l 2.26943,-19.89035 -6.24209,-31.60965 C 929.66291,794.79772 923.64396,768.19246 915.08548,736.63018 908.00104,710.50393 906.80332,704.7469 903.58859,681.36848 901.61486,667.01504 900,654.67027 900,653.93566 c 0,-4.17345 2.65041,3.32861 9.39977,26.60628 13.07478,45.09324 27.55307,110.25285 39.61176,178.27294 10.58603,59.71318 12.2606,74.21505 18.49167,160.13892 1.41408,19.4996 2.77934,35.6621 3.03393,35.9167 0.25458,0.2545 0.46287,-13.7497 0.46287,-31.1205 0,-17.6854 -0.39408,-31.73001 -0.89557,-31.91667 C 969.61187,991.65 968.01104,961.8 966.54702,925.5 c -2.41672,-59.92225 -3.07551,-69.95974 -7.15399,-109 l -4.49215,-43 -13.5366,-66.5 -13.53661,-66.5 -20.00005,-69 c -11.00004,-37.95 -20.35101,-69.45 -20.77994,-70 -0.42893,-0.55 -7.16862,-18.91751 -14.97709,-40.81668 -13.05826,-36.62246 -15.83019,-43.32111 -34.55265,-83.5 -22.35028,-47.96433 -25.17647,-53.5124 -26.76051,-52.5334 -0.61766,0.38173 -0.7751,0.18768 -0.37412,-0.46112 0.98508,-1.59388 -3.19558,-9.42286 -4.57616,-8.56961 -0.68424,0.42288 -0.83556,0.23579 -0.39103,-0.48347 0.89807,-1.45311 -27.2216,-52.37397 -28.48942,-51.59042 -0.49708,0.30722 -0.68996,-0.0273 -0.4286,-0.74336 0.68119,-1.86636 -22.82849,-43.36234 -24.37717,-43.02716 -0.69827,0.15112 -0.98781,-0.18115 -0.64342,-0.73839 0.90176,-1.45908 -56.34146,-81.23851 -57.69147,-80.40415 -0.65954,0.40762 -0.8096,0.21491 -0.37731,-0.48456 0.93805,-1.5178 -3.23727,-7.37168 -4.63971,-6.50493 -0.63653,0.3934 -0.7889,0.19843 -0.37203,-0.47607 0.40128,-0.64929 -3.49757,-7.02889 -9.03313,-14.78072 -9.32146,-13.05347 -9.65604,-13.70064 -7.8015,-15.09003 11.41881,-8.554767 18.5818,-13.324868 19.32213,-12.867317 0.49395,0.305274 10.87227,14.519657 23.06295,31.587527 13.42726,18.79916 22.59785,30.76488 23.26323,30.35366 0.65716,-0.40615 0.81413,-0.21894 0.39077,0.46607 -0.40876,0.66139 8.18329,13.57974 20.34549,30.58991 C 769.52612,197.62054 779,211.10206 779,211.3847 c 0,0.28265 12.67068,23.14922 28.15707,50.8146 15.48638,27.66539 29.39636,52.5507 30.91105,55.3007 1.51469,2.75 11.87268,24.575 23.01775,48.5 18.50449,39.72339 21.54347,47.05956 35.00385,84.5 8.10705,22.55 15.11589,40.92519 15.57519,40.83376 0.4593,-0.0914 0.91243,0.80857 1.00695,2 0.0945,1.19143 9.03118,32.54124 19.85924,69.66624 l 19.68737,67.5 13.90837,67.5 13.90837,67.5 4.91488,46 c 4.4618,41.75949 5.10743,50.93189 7.00368,99.5 1.14884,29.425 2.36827,58.3375 2.70984,64.25 l 0.62104,10.75 h 11.79865 c 7.1742,0 12.0534,0.41224 12.4487,1.05177 0.3575,0.57847 0.3186,40.40343 -0.087,88.50003 L 1018.7089,1163 H 1007.8544 997 l 0.006,810.25 c 0.004,522.2628 -0.3704,836.7295 -1.05214,884.75 -0.89126,62.7786 -1.7385,88.424 -5.38501,163 -2.38004,48.675 -4.4095,92.1 -4.50991,96.5 -0.1004,4.4 -2.16099,48.725 -4.57907,98.5 l -4.39651,90.5 -9.99019,87.5 c -6.67272,58.4436 -14.14202,117.2205 -22.49297,177 -12.21083,87.4101 -12.66464,90.1772 -19.4345,118.5 l -6.93173,29 -1.79677,36.25 c -1.69356,34.1677 -1.9047,36.25 -3.67577,36.25 -1.03345,0 -1.6146,0.4278 -1.29145,0.9507 0.32315,0.5228 -5.12981,12.3353 -12.11769,26.25 -11.03756,21.9785 -15.03821,31.4685 -30.47901,72.2993 -14.87629,39.3381 -18.07089,46.9677 -19.59637,46.802 -1.45648,-0.1582 -7.30779,10.5323 -29.12819,53.2182 -15.01807,29.3789 -27.07762,53.7851 -26.79901,54.2359 1.50277,2.4315 -5.13555,0.4543 -14.6681,-4.3689 z m -249.07718,-405.829 c -0.33706,-1.343 -3.49324,-7.2372 -7.01372,-13.0983 -4.9317,-8.2106 -6.68186,-12.1833 -7.62502,-17.3082 -1.8672,-10.146 -2.39617,-10.1961 -5.17609,-0.4907 -1.71844,5.9995 -2.21545,9.237 -1.54713,10.078 0.54154,0.6814 1.45315,0.9494 2.02582,0.5955 0.6331,-0.3913 0.73835,-0.1535 0.26853,0.6067 -0.93221,1.5083 8.2981,11.2792 9.78633,10.3594 0.57803,-0.3573 0.66648,-0.092 0.21367,0.6406 -0.49499,0.8009 0.9633,3.0126 4.0579,6.1545 2.65681,2.6974 5.00877,4.9043 5.22657,4.9043 0.2178,0 0.12021,-1.0988 -0.21686,-2.4418 z m 79.78067,-9.636 10.88462,-12.0565 -2.22895,-7.6828 c -3.24584,-11.188 -3.53053,-11.3053 -5.3553,-2.2074 -1.33389,6.6505 -2.81283,10.1246 -8.02006,18.8393 -6.01242,10.0624 -8.32139,15.1988 -6.82132,15.1746 0.36101,-0.01 5.55446,-5.4361 11.54101,-12.0672 z M 325,3730.6735 c 0,-0.1796 -4.55015,-13.5671 -10.11144,-29.75 -5.56129,-16.1829 -14.69187,-44.7235 -20.29018,-63.4235 l -10.17874,-34 -10.70982,0.3676 C 267.21235,3604.0906 263,3603.854 263,3603.2662 c 0,-1.1078 23.16901,-2.5031 24.12544,-1.4529 0.344,0.3777 5.21125,15.8834 10.81611,34.4572 8.03836,26.638 23.83607,77.9448 28.4751,92.4795 0.43935,1.3766 0.30377,2.25 -0.34926,2.25 -0.58707,0 -1.06739,-0.1469 -1.06739,-0.3265 z m 476,-0.6597 c 0,-0.7624 3.79874,-13.5649 8.44164,-28.45 4.6429,-14.8851 13.42001,-43.4534 19.50468,-63.4851 6.08467,-20.0318 11.17918,-36.5375 11.32114,-36.6795 0.78651,-0.7865 23.73254,1.0506 23.73254,1.9001 0,0.6432 -3.73959,0.7903 -10.44203,0.4107 l -10.44204,-0.5913 -1.00437,3.1906 c -0.55241,1.7549 -4.87237,16.2407 -9.59992,32.1907 -8.51238,28.7194 -28.97585,90.1192 -30.64535,91.95 -0.52865,0.5797 -0.86629,0.4097 -0.86629,-0.4362 z m -71.25,-334.7615 c 7.8375,-0.169 20.6625,-0.169 28.5,0 7.8375,0.1689 1.425,0.3072 -14.25,0.3072 -15.675,0 -22.0875,-0.1383 -14.25,-0.3072 z M 602,2573.5 c 0,-1.2584 2.1491,-1.5 13.34189,-1.5 18.85057,0 40.65811,1.1559 40.65811,2.155 0,0.4648 -12.15,0.845 -27,0.845 -23.33333,0 -27,-0.2037 -27,-1.5 z m -53.55203,-31.788 c -0.87505,-1.0081 -1.14114,-4.6803 -0.57692,-7.962 0.0709,-0.4125 1.78102,-0.75 3.80021,-0.75 2.01919,0 4.49306,-0.7437 5.49749,-1.6527 1.69847,-1.5371 2.18716,-1.5362 6.98516,0.013 4.61127,1.4893 5.33646,1.5055 6.83125,0.1527 1.45124,-1.3133 9.08286,-1.5134 57.72695,-1.5134 55.22651,0 56.06236,0.03 56.578,2.0014 0.28785,1.1007 0.11534,1.7492 -0.38337,1.441 -0.49871,-0.3079 -0.90674,1.7165 -0.90674,4.499 V 2543 l -67.25,-0.038 c -51.38925,-0.029 -67.49812,-0.3239 -68.30203,-1.25 z M 452.25,2503.2512 c 10.8625,-0.1614 28.6375,-0.1614 39.5,0 10.8625,0.1615 1.975,0.2936 -19.75,0.2936 -21.725,0 -30.6125,-0.1321 -19.75,-0.2936 z M 491,2439 c 0,-2.2 -0.45,-4 -1,-4 -0.55,0 -1,0.45 -1,1 0,0.55 -1.03539,1 -2.30088,1 -2.21937,0 -2.29423,-0.2745 -2.1134,-7.75 0.10311,-4.2625 0.2385,-10.51 0.30087,-13.8834 0.0914,-4.943 0.45305,-6.2214 1.86341,-6.5872 3.09659,-0.8031 3.77142,0.1325 3.40633,4.7229 -0.31944,4.0164 -0.13293,4.4977 1.74298,4.4977 1.15538,0 2.10069,0.45 2.10069,1 0,0.55 -0.9,1 -2,1 -1.1,0 -2,0.45 -2,1 0,0.55 0.9,1 2,1 1.87302,0 2,0.6667 2,10.5 0,8.6667 -0.2619,10.5 -1.5,10.5 -1.08333,0 -1.5,-1.1111 -1.5,-4 z m 15,-6.5 c 0,-9.8333 0.12698,-10.5 2,-10.5 1.55556,0 2,-0.6667 2,-3 0,-2.3333 -0.44444,-3 -2,-3 -1.1,0 -2,-0.45 -2,-1 0,-0.55 0.95625,-1 2.125,-1 1.84412,0 2.04285,-0.4108 1.50349,-3.1075 -0.59636,-2.9819 -0.51049,-3.0797 2.12295,-2.4187 1.50946,0.3788 2.83564,0.7799 2.94709,0.8914 0.11144,0.1114 0.38489,6.3749 0.60767,13.9187 0.37915,12.8392 0.28641,13.7161 -1.45058,13.7161 -1.02059,0 -1.85562,-0.45 -1.85562,-1 0,-0.55 -0.675,-1 -1.5,-1 -1.08333,0 -1.5,1.1111 -1.5,4 0,2.8889 -0.41667,4 -1.5,4 -1.2381,0 -1.5,-1.8333 -1.5,-10.5 z m 112,6.5 c 0,-2.2 -0.45,-4 -1,-4 -0.55,0 -1,0.45 -1,1 0,0.55 -1.06003,1 -2.35562,1 h -2.35562 l 0.40504,-13.7161 c 0.22278,-7.5438 0.5231,-13.8341 0.6674,-13.9784 0.14429,-0.1443 1.33287,-0.3846 2.64129,-0.5339 2.24089,-0.2558 2.36349,0 2.1127,4.4784 -0.2369,4.2265 -0.0375,4.75 1.80928,4.75 1.14154,0 2.07553,0.45 2.07553,1 0,0.55 -0.9,1 -2,1 -1.1,0 -2,0.45 -2,1 0,0.55 0.9,1 2,1 1.87302,0 2,0.6667 2,10.5 0,8.6667 -0.2619,10.5 -1.5,10.5 -1.08333,0 -1.5,-1.1111 -1.5,-4 z m 15,-6.5 c 0,-9.8333 0.12698,-10.5 2,-10.5 1.55556,0 2,-0.6667 2,-3 0,-2.3333 -0.44444,-3 -2,-3 -1.1,0 -2,-0.45 -2,-1 0,-0.55 0.95625,-1 2.125,-1 1.84412,0 2.04285,-0.4108 1.50349,-3.1075 -0.59636,-2.9819 -0.51049,-3.0797 2.12295,-2.4187 1.50946,0.3788 2.83564,0.7799 2.94709,0.8914 0.11144,0.1114 0.38489,6.3749 0.60767,13.9187 0.37915,12.8392 0.28641,13.7161 -1.45058,13.7161 -1.02059,0 -1.85562,-0.45 -1.85562,-1 0,-0.55 -0.675,-1 -1.5,-1 -1.08333,0 -1.5,1.1111 -1.5,4 0,2.8889 -0.41667,4 -1.5,4 -1.2381,0 -1.5,-1.8333 -1.5,-10.5 z m -163.36971,-24.75 c -0.80125,-2.9898 -0.8061,-80.621 -0.005,-84.625 0.76577,-3.8289 3.46224,-4.167 5.72239,-0.7176 1.36721,2.0867 1.38254,2.4823 0.11501,2.9687 -1.24902,0.4793 -1.4624,6.3204 -1.4624,40.0335 0,25.2362 0.36066,39.6953 1,40.0904 0.55,0.3399 1,1.4915 1,2.559 0,2.986 -5.55897,2.7163 -6.36971,-0.309 z m 54.09685,0.3146 c -0.29262,-1.119 0.08,-2.1604 0.88337,-2.4686 2.05853,-0.79 2.06946,-79.1021 0.0112,-80.2963 -2.23298,-1.2956 -0.17711,-5.2997 2.72107,-5.2997 1.89609,0 2.53993,0.6635 3.03222,3.125 0.34375,1.7188 0.625,17.0188 0.625,34 0,26.7778 0.19906,30.875 1.5,30.875 1.21569,0 1.5,1.6111 1.5,8.5 0,6.8403 -0.28917,8.5 -1.48095,8.5 -0.81452,0 -1.7633,1.125 -2.10841,2.5 -0.80291,3.199 -5.88236,3.6281 -6.6835,0.5646 z m 72.90315,-0.3146 c -0.80125,-2.9898 -0.8061,-80.621 -0.005,-84.625 0.7523,-3.7615 3.51264,-4.1943 5.81213,-0.9113 1.3698,1.9557 1.37641,2.3111 0.0567,3.0497 -1.28568,0.7195 -1.49383,6.3248 -1.49383,40.2273 0,25.1821 0.36072,39.6142 1,40.0093 0.55,0.3399 1,1.4915 1,2.559 0,2.986 -5.55897,2.7163 -6.36971,-0.309 z m 54.09685,0.3146 c -0.29262,-1.119 0.08,-2.1604 0.88337,-2.4686 2.05853,-0.79 2.06946,-79.1021 0.0112,-80.2963 -2.23298,-1.2956 -0.17711,-5.2997 2.72107,-5.2997 1.89609,0 2.53993,0.6635 3.03222,3.125 0.34375,1.7188 0.625,17.0188 0.625,34 0,26.7778 0.19906,30.875 1.5,30.875 1.21569,0 1.5,1.6111 1.5,8.5 0,6.8403 -0.28917,8.5 -1.48095,8.5 -0.81452,0 -1.7633,1.125 -2.10841,2.5 -0.80291,3.199 -5.88236,3.6281 -6.6835,0.5646 z M 462.25,2400.3377 c -2.13516,-0.8615 -1.52329,-6.1162 0.79799,-6.8529 3.81401,-1.2105 6.59571,3.4715 3.75201,6.3152 -1.25034,1.2503 -2.43653,1.3905 -4.55,0.5377 z m 127,0 c -2.13516,-0.8615 -1.52329,-6.1162 0.79799,-6.8529 3.81401,-1.2105 6.59571,3.4715 3.75201,6.3152 -1.25034,1.2503 -2.43653,1.3905 -4.55,0.5377 z m -127,-26 c -0.6875,-0.2774 -1.25,-1.7687 -1.25,-3.314 0,-3.2065 1.50266,-4.1316 4.75,-2.9245 2.44026,0.9071 2.96962,3.7812 1.05,5.7008 -1.25034,1.2503 -2.43653,1.3905 -4.55,0.5377 z m 127,0 c -0.6875,-0.2774 -1.25,-1.7687 -1.25,-3.314 0,-3.2065 1.50266,-4.1316 4.75,-2.9245 2.44026,0.9071 2.96962,3.7812 1.05,5.7008 -1.25034,1.2503 -2.43653,1.3905 -4.55,0.5377 z M 455.66667,2337.3333 C 455.3,2336.9667 455,2333.3525 455,2329.3019 c 0,-5.7154 0.34558,-7.4973 1.54313,-7.9568 2.06994,-0.7943 3.11436,0.3974 1.6402,1.8716 C 456.75004,2324.65 456.58726,2336 458,2336 c 0.55,0 1,0.45 1,1 0,1.1247 -2.31086,1.3558 -3.33333,0.3333 z m 6.08333,-0.4362 c 1.59019,-1.6501 1.64114,-12.106 0.0667,-13.6804 -1.48792,-1.4879 -0.42225,-2.6631 1.68254,-1.8554 1.29564,0.4972 1.53202,2.0259 1.29313,8.3627 -0.25815,6.8473 -0.52627,7.7962 -2.29234,8.1122 -1.61754,0.2895 -1.76096,0.1099 -0.75,-0.9391 z m 120.91667,0.4362 C 582.3,2336.9667 582,2333.3525 582,2329.3019 c 0,-5.7154 0.34558,-7.4973 1.54313,-7.9568 2.06994,-0.7943 3.11436,0.3974 1.6402,1.8716 C 583.75004,2324.65 583.58726,2336 585,2336 c 0.55,0 1,0.45 1,1 0,1.1247 -2.31086,1.3558 -3.33333,0.3333 z m 6.08333,-0.4362 c 1.59019,-1.6501 1.64114,-12.106 0.0667,-13.6804 -1.48792,-1.4879 -0.42225,-2.6631 1.68254,-1.8554 1.29564,0.4972 1.53202,2.0259 1.29313,8.3627 -0.25815,6.8473 -0.52627,7.7962 -2.29234,8.1122 -1.61754,0.2895 -1.76096,0.1099 -0.75,-0.9391 z m 33.5,-13.9283 c -1.2375,-0.4974 -2.25,-1.401 -2.25,-2.008 0,-0.607 -0.70714,-0.3965 -1.57143,0.4678 -1.99164,1.9916 -4.42857,2.0309 -4.42857,0.071 0,-0.825 0.675,-1.5 1.5,-1.5 0.825,0 1.5,-0.45 1.5,-1 0,-0.55 0.675,-1 1.5,-1 1.13333,0 1.5,-1.2222 1.5,-5 0,-3.7778 -0.36667,-5 -1.5,-5 -0.825,0 -1.5,-0.45 -1.5,-1 0,-1.148 0.51616,-1.2105 10,-1.2105 9.48384,0 10,0.062 10,1.2105 0,0.55 -0.675,1 -1.5,1 -0.825,0 -1.5,0.45 -1.5,1 0,0.55 0.675,1 1.5,1 0.825,0 1.5,0.45 1.5,1 0,0.55 -0.675,1 -1.5,1 -0.825,0 -1.5,0.45 -1.5,1 0,0.55 0.675,1 1.5,1 0.825,0 1.5,0.45 1.5,1 0,0.55 -0.675,1 -1.5,1 -0.825,0 -1.5,0.45 -1.5,1 0,0.55 0.44486,1 0.98857,1 1.24034,0 5.01143,3.1772 5.01143,4.2222 0,0.4278 -0.9,0.7778 -2,0.7778 -1.11111,0 -2,-0.6667 -2,-1.5 0,-1.9883 -0.97151,-1.8963 -2.63976,0.25 -1.29547,1.6667 -1.42501,1.6667 -2.72048,0 -0.74814,-0.9625 -2.60062,-1.75 -4.11663,-1.75 -2.26406,0 -2.66298,0.3572 -2.23338,2 0.28766,1.1 0.45264,1.9715 0.36663,1.9366 -0.086,-0.035 -1.16888,-0.4703 -2.40638,-0.9678 z M 631,2313 v -5 h -4 -4 v 4.3333 c 0,5.2085 0.37737,5.6667 4.66667,5.6667 C 631,2318 631,2318 631,2313 Z m -144,8.5838 c 0,-0.7789 1.35,-2.0137 3,-2.7441 2.72666,-1.2069 3,-1.7613 3,-6.0838 0,-3.5608 -0.37693,-4.7559 -1.5,-4.7559 -0.825,0 -1.5,-0.45 -1.5,-1 0,-1.148 0.51616,-1.2105 10,-1.2105 9.48384,0 10,0.062 10,1.2105 0,0.55 -0.675,1 -1.5,1 -0.825,0 -1.5,0.45 -1.5,1 0,0.55 0.675,1 1.5,1 0.825,0 1.5,0.45 1.5,1 0,0.55 -0.675,1 -1.5,1 -0.825,0 -1.5,0.45 -1.5,1 0,0.55 0.675,1 1.5,1 0.825,0 1.5,0.45 1.5,1 0,0.55 -0.675,1 -1.5,1 -0.825,0 -1.5,0.45 -1.5,1 0,0.55 0.44486,1 0.98857,1 1.24034,0 5.01143,3.1772 5.01143,4.2222 0,0.4278 -0.9,0.7778 -2,0.7778 -1.11111,0 -2,-0.6667 -2,-1.5 0,-0.825 -0.40186,-1.5 -0.89301,-1.5 -0.49116,0 -1.15203,0.675 -1.46862,1.5 -0.31658,0.825 -1.26472,1.5 -2.10699,1.5 -0.84226,0 -1.53138,-0.675 -1.53138,-1.5 0,-1 -1,-1.5 -3,-1.5 -2,0 -3,0.5 -3,1.5 0,0.8333 -0.88889,1.5 -2,1.5 -1.15152,0 -2,-0.6667 -2,-1.5714 0,-1.4286 -0.14286,-1.4286 -1.57143,0 -1.95605,1.956 -4.42857,2.0427 -4.42857,0.1552 z M 504,2313 v -5 h -4 -4 v 4.3333 c 0,5.2085 0.37737,5.6667 4.66667,5.6667 H 504 Z M 105.37817,1099 c 0,-6.325 0.16237,-8.9125 0.36082,-5.75 0.19845,3.1625 0.19845,8.3375 0,11.5 -0.19845,3.1625 -0.36082,0.575 -0.36082,-5.75 z M 541.52251,764.25 c 0.25988,-1.5125 1.39615,-11.18929 2.52504,-21.50397 1.85711,-16.96834 2.41642,-19.63431 5.87436,-28 2.102,-5.08532 4.13538,-11.49603 4.51862,-14.24603 0.77238,-5.54234 7.26517,-42.61623 8.12515,-46.39464 0.3081,-1.35368 0.91164,-2.00574 1.38839,-1.5 0.88353,0.93725 9.04593,45.31059 9.04593,49.17646 0,1.22578 1.82995,6.61382 4.06656,11.97343 3.78711,9.07511 4.2384,11.21183 6.56734,31.09408 2.20291,18.80634 2.41734,23.62464 0.98209,22.06734 -0.21121,-0.22917 -3.13621,-7.05689 -6.5,-15.17271 C 572.62225,738.48922 572,736.27803 572,730.01051 c 0,-6.03858 -0.50045,-7.98881 -3.71929,-14.49397 -2.0456,-4.1341 -4.06412,-7.51654 -4.4856,-7.51654 -1.29104,0 -6.90975,12.00549 -6.17506,13.19425 0.4181,0.67649 0.23507,0.83424 -0.46554,0.40124 C 556.32189,721.0809 556,722.92825 556,728.22134 c 0,6.16994 -0.56941,8.68891 -3.57359,15.80902 -1.96548,4.6583 -4.93247,11.73214 -6.59332,15.71964 -3.0533,7.33061 -5.17806,9.54874 -4.31058,4.5 z m -24.52629,-57.8 c -0.002,-1.0725 1.56526,-13.875 3.48296,-28.45 4.14641,-31.51357 2.86927,-7.68602 20.52855,-383 4.87998,-103.7145 10.63969,-192.95182 12.58067,-194.91667 1.17866,-1.193159 1.27311,1.57815 0.40811,11.97429 -3.31282,39.81569 -6.92187,106.17472 -15.49705,284.94238 -3.57484,74.525 -6.95466,144.95 -7.51071,156.5 -3.73189,77.51616 -5.06458,96.7686 -8.61814,124.5 -2.00862,15.675 -4.03872,28.9275 -4.51133,29.45 -0.51013,0.56398 -0.86082,0.15765 -0.86306,-1 z m 92.00333,1.3 c -2.5e-4,-0.1375 -1.59246,-11.725 -3.53823,-25.75 -3.61545,-26.05981 -5.69705,-56.75662 -9.93442,-146.5 -4.0271,-85.2903 -13.62668,-284.02552 -14.5393,-301 -2.95234,-54.91273 -7.6742,-127.56755 -8.56247,-131.75 -0.34059,-1.6037 -0.15297,-2.75 0.4501,-2.75 1.67172,0 2.2616,5.2117 5.09324,45 3.87168,54.40201 4.38428,64.06834 12.03784,227 1.09802,23.375 3.34728,71.525 4.99836,107 3.03561,65.22309 4.89734,102.75898 7.4894,151 1.16152,21.61713 5.04648,58.24566 7.9813,75.25 0.26105,1.5125 0.0359,2.75 -0.50037,2.75 -0.53625,0 -0.9752,-0.1125 -0.97545,-0.25 z M 461.62383,226.38287 c -3.69759,-4.18943 -6.44693,-7.8931 -6.10964,-8.2304 0.6178,-0.61779 11.61504,10.8426 13.52779,14.09753 2.3593,4.01481 -1.13689,1.24962 -7.41815,-5.86713 z M 658,233.33065 c 0,-0.59717 0.69548,-1.66296 1.54551,-2.36842 0.85003,-0.70546 1.30518,-1.90893 1.01145,-2.67438 -0.29373,-0.76545 -0.16233,-1.16199 0.29199,-0.8812 1.11093,0.68659 8.52731,-6.98882 7.83513,-8.1088 -0.30004,-0.48547 0.3233,-0.94813 1.3852,-1.02812 2.60566,-0.19627 2.4288,0.91372 -0.59875,3.75796 -1.48655,1.39653 -2.28938,3.002 -1.94715,3.89383 0.32028,0.83464 0.2484,1.1836 -0.15972,0.77547 -0.40813,-0.40812 -2.68191,1.16179 -5.05285,3.48869 -2.37095,2.3269 -4.31081,3.74214 -4.31081,3.14497 z"
         id="path8" />
      <path
         style="fill:#6e6e6e;fill-opacity:1"
         d="m 695,3527.5 c 0,-27.1128 0.2309,-32.5 1.39301,-32.5 2.24269,0 2.60699,-2.3756 2.60699,-17 0,-14.6244 -0.3643,-17 -2.60699,-17 C 695.2309,3461 695,3455.6128 695,3428.5 V 3396 h 38.5 38.5 v 82 82 H 733.5 695 Z m 72.81741,-86.7949 c 0.32022,-1.6586 -0.6463,-1.7836 -12.73544,-1.6461 -11.93408,0.1357 -13.08197,0.3086 -13.08197,1.9705 0,1.6761 1.01788,1.8077 12.73545,1.6461 11.37477,-0.1568 12.77247,-0.3674 13.08196,-1.9705 z M 250.37407,3127.5 c 0.002,-6.05 0.16696,-8.3961 0.36601,-5.2135 0.19905,3.1826 0.1972,8.1326 -0.004,11 -0.20131,2.8674 -0.36417,0.2635 -0.36191,-5.7865 z m 273.43019,-553.2616 0.30427,-13.2615 39.11263,0.2615 c 30.21296,0.2021 39.20738,0.546 39.52907,1.5116 0.22904,0.6875 -0.29606,1.25 -1.1669,1.25 -1.33889,0 -1.58333,1.5439 -1.58333,10 0,8.4561 0.24444,10 1.58333,10 0.87084,0 1.3961,0.5625 1.16726,1.25 -0.31968,0.9604 -9.54882,1.3658 -39.83334,1.75 L 523.5,2587.5 Z M 380.38854,2562.5 c 0.002,-7.15 0.16103,-9.9438 0.35396,-6.2084 0.19293,3.7354 0.19149,9.5854 -0.003,13 -0.19468,3.4146 -0.35253,0.3584 -0.35078,-6.7916 z m 50.94479,-34 c 0,-0.825 0.40927,-1.5 0.90949,-1.5 0.50749,0 0.79464,-4.9726 0.64967,-11.25 l -0.25982,-11.25 39.18366,-0.2616 c 33.71494,-0.2251 39.18367,-0.059 39.18367,1.191 0,0.7989 -0.45,1.7307 -1,2.0706 -0.55241,0.3414 -1,4.8437 -1,10.059 0,5.6273 0.40395,9.441 1,9.441 0.55,0 1,0.675 1,1.5 0,1.3082 -5.09259,1.5 -39.83333,1.5 -34.74074,0 -39.83334,-0.1918 -39.83334,-1.5 z m 266.96861,-39.2461 c 5.39107,-0.1802 13.94107,-0.1794 19,0 5.05893,0.1811 0.64806,0.3285 -9.80194,0.3276 -10.45,0 -14.58913,-0.1492 -9.19806,-0.3293 z M 400,2440.3666 c 0,-37.4095 0.0825,-39.1549 1.87323,-39.6232 1.4407,-0.3767 1.76012,-0.057 1.38337,1.3834 -0.45497,1.7398 0.23068,1.8732 9.62677,1.8732 8.32589,0 10.11663,-0.2655 10.11663,-1.5 0,-0.825 0.675,-1.5 1.5,-1.5 1.30786,0 1.5,5.0278 1.5,39.25 v 39.25 h -13 -13 z m 301.77188,-0.4305 -0.27188,-39.5639 2.17908,0.4169 c 1.36858,0.2619 1.97969,0.9365 1.64301,1.8139 -0.43601,1.1363 1.25709,1.397 9.07092,1.397 7.87288,0 9.60699,-0.2708 9.60699,-1.5 0,-0.825 0.675,-1.5 1.5,-1.5 1.30786,0 1.5,5.0278 1.5,39.25 v 39.25 h -12.47812 -12.47812 z m -236.98269,-13.6775 c 3.45905,-0.1958 8.85905,-0.1942 12,0 3.14094,0.1978 0.31081,0.358 -6.28919,0.356 -6.6,0 -9.16987,-0.1638 -5.71081,-0.3596 z m 59,0 c 3.45905,-0.1958 8.85905,-0.1942 12,0 3.14094,0.1978 0.31081,0.358 -6.28919,0.356 -6.6,0 -9.16987,-0.1638 -5.71081,-0.3596 z m 68,0 c 3.45905,-0.1958 8.85905,-0.1942 12,0 3.14094,0.1978 0.31081,0.358 -6.28919,0.356 -6.6,0 -9.16987,-0.1638 -5.71081,-0.3596 z m 59,0 c 3.45905,-0.1958 8.85905,-0.1942 12,0 3.14094,0.1978 0.31081,0.358 -6.28919,0.356 -6.6,0 -9.16987,-0.1638 -5.71081,-0.3596 z M 489.75,2405.2541 c 5.6375,-0.1782 14.8625,-0.1782 20.5,0 5.6375,0.1783 1.025,0.3241 -10.25,0.3241 -11.275,0 -15.8875,-0.1458 -10.25,-0.3241 z m 127,0 c 5.6375,-0.1782 14.8625,-0.1782 20.5,0 5.6375,0.1783 1.025,0.3241 -10.25,0.3241 -11.275,0 -15.8875,-0.1458 -10.25,-0.3241 z M 380.38536,2339 c 0,-6.875 0.15977,-9.6875 0.35504,-6.25 0.19527,3.4375 0.19527,9.0625 0,12.5 -0.19527,3.4375 -0.35504,0.625 -0.35504,-6.25 z m -40.19439,-180.7468 c 6.98004,-0.1716 18.68004,-0.1721 26,0 7.31997,0.1711 1.60903,0.3115 -12.69097,0.3121 -14.3,6e-4 -20.28906,-0.1394 -13.30903,-0.3111 z m 82.43589,-0.4585 c 0.41849,-0.6771 -3.2695,-0.8949 -10.99863,-0.6496 L 400,2157.5143 v -39.2572 c 0,-34.2285 0.19214,-39.2571 1.5,-39.2571 0.825,0 1.5,0.414 1.5,0.92 0,0.506 4.5,0.92 10,0.92 5.5,0 10,-0.414 10,-0.92 0,-0.506 0.675,-0.92 1.5,-0.92 1.30794,0 1.5,5.0426 1.5,39.3834 0,38.5514 -0.0423,39.3944 -2.00138,39.9067 -1.2111,0.3167 -1.75277,0.1211 -1.37176,-0.4954 z M 702,2118.25 c 0,-38.9583 0.0153,-39.25 2.05902,-39.25 1.13246,0 1.7809,0.45 1.44098,1 -0.39556,0.64 2.82295,1 8.94098,1 5.70601,0 9.55902,-0.4031 9.55902,-1 0,-0.55 0.675,-1 1.5,-1 1.30786,0 1.5,5.0278 1.5,39.25 v 39.25 H 714.5 702 Z M 379.99574,2016.2965 c -0.27266,-7.262 -0.14378,-12.85 0.28639,-12.4179 0.43017,0.4321 0.65325,6.3737 0.49573,13.2035 L 380.49147,2029.5 Z M 524,2005.5 V 1993 h 39.5 c 26.46798,0 39.5,0.3403 39.5,1.0314 0,0.5672 -0.675,1.2904 -1.5,1.607 -1.18768,0.4557 -1.5,2.5536 -1.5,10.0756 0,7.367 0.29087,9.3884 1.29547,9.0029 0.75688,-0.2905 1.35467,0.2887 1.43785,1.393 0.1374,1.8239 -1.23821,1.8901 -39.29547,1.8901 H 524 Z m 351.19942,-597.2438 c 4.78468,-0.1829 12.88468,-0.1838 18,0 5.11532,0.1818 1.20058,0.3315 -8.69942,0.3325 -9.9,0 -14.08526,-0.1477 -9.30058,-0.3306 z m -648.893,-39.0035 c 6.49353,-0.1744 16.84353,-0.1738 23,0 6.15647,0.1752 0.84358,0.3179 -11.80642,0.3172 -12.65,-7e-4 -17.68711,-0.144 -11.19358,-0.3185 z M 105.39172,1123 c 0,-7.425 0.15742,-10.4625 0.34983,-6.75 0.19241,3.7125 0.19241,9.7875 0,13.5 -0.19241,3.7125 -0.34983,0.675 -0.34983,-6.75 z m 914.04968,-28.5 c 5e-4,-15.95 0.1385,-22.335 0.3068,-14.1888 0.1683,8.1461 0.1679,21.1961 -9e-4,29 -0.1687,7.8038 -0.3064,1.1388 -0.3059,-14.8112 z M 113.78919,989.25859 c 3.45905,-0.19583 8.85905,-0.19422 12,0.004 3.14094,0.19781 0.31081,0.35803 -6.28919,0.35606 -6.6,-0.002 -9.16987,-0.16382 -5.71081,-0.35965 z"
         id="path7" />
      <path
         style="fill:#626262;fill-opacity:1"
         d="m 713.68378,3560.2515 c 10.55108,-0.1618 28.10108,-0.162 39,-5e-4 10.89892,0.1616 2.26622,0.294 -19.18378,0.2943 -21.45,3e-4 -30.3673,-0.1319 -19.81622,-0.2938 z M 772.47693,3478 c 0,-44.825 0.12274,-63.1625 0.27275,-40.75 0.15002,22.4125 0.15002,59.0875 0,81.5 -0.15001,22.4125 -0.27275,4.075 -0.27275,-40.75 z m -79.03824,-53 c 0,-15.125 0.13899,-21.3125 0.30888,-13.75 0.16988,7.5625 0.16988,19.9375 0,27.5 -0.16989,7.5625 -0.30888,1.375 -0.30888,-13.75 z M 250.42877,3157.675 c -0.27965,-0.7288 -0.37452,-5.5663 -0.21083,-10.75 l 0.29762,-9.425 0.49222,10.7521 c 0.27072,5.9137 0.3656,10.7512 0.21084,10.75 -0.15477,0 -0.5102,-0.5984 -0.78985,-1.3271 z m 284.87765,-597.4223 c 6.49353,-0.1744 16.84353,-0.1738 23,0 6.15647,0.1752 0.84358,0.3179 -11.80642,0.3172 -12.65,-7e-4 -17.68711,-0.144 -11.19358,-0.3185 z M 399.45471,2441.5 c 2.8e-4,-21.45 0.1327,-30.0827 0.29426,-19.1838 0.16156,10.8989 0.16133,28.4489 -5.1e-4,39 -0.16185,10.5511 -0.29404,1.6338 -0.29375,-19.8162 z m 302,-1 c 2.8e-4,-21.45 0.1327,-30.0827 0.29426,-19.1838 0.16156,10.8989 0.16133,28.4489 -5.1e-4,39 -0.16185,10.5511 -0.29404,1.6338 -0.29375,-19.8162 z m 49.8318,7.7599 c 3.18258,-0.199 8.13258,-0.1972 11,0 2.86742,0.2013 0.26349,0.3642 -5.78651,0.3619 -6.05,0 -8.39607,-0.1669 -5.21349,-0.366 z M 402.99775,2403.25 c -10e-4,-0.4125 3.26126,-0.6268 7.25,-0.4763 12.45505,0.4701 13.66496,0.8998 3.00225,1.0663 -5.6375,0.088 -10.25101,-0.1775 -10.25225,-0.59 z M 399.45522,2119 c 0,-21.725 0.13209,-30.6125 0.29353,-19.75 0.16144,10.8625 0.16144,28.6375 0,39.5 -0.16144,10.8625 -0.29353,1.975 -0.29353,-19.75 z m 301.99949,-0.5 c 2.8e-4,-21.45 0.1327,-30.0827 0.29426,-19.1838 0.16156,10.8989 0.16133,28.4489 -5.1e-4,39 -0.16185,10.5511 -0.29404,1.6338 -0.29375,-19.8162 z m -473.99458,-120 c 2.2e-4,-24.75 0.13031,-34.7318 0.28909,-22.1817 0.15877,12.55 0.15859,32.8 -4e-4,45 -0.159,12.1999 -0.2889,1.9317 -0.28869,-22.8183 z m 316.22365,19.7515 c 10.55108,-0.1618 28.10108,-0.162 39,-5e-4 10.89892,0.1616 2.26622,0.294 -19.18378,0.2943 -21.45,3e-4 -30.3673,-0.1319 -19.81622,-0.2938 z m 322.31364,-629.049 0.49743,-17.7025 0.27754,16.925 c 0.15266,9.3088 -0.0712,17.2749 -0.49742,17.7025 -0.42623,0.4276 -0.55113,-7.1887 -0.27755,-16.925 z M 1019.4202,1142.5 c -9e-4,-11 0.1452,-15.6364 0.3247,-10.3032 0.1794,5.3332 0.1801,14.3332 0,20 -0.1786,5.6668 -0.3254,1.3032 -0.3263,-9.6968 z m -914.04203,4.5 c 0,-6.325 0.16237,-8.9125 0.36082,-5.75 0.19845,3.1625 0.19845,8.3375 0,11.5 -0.19845,3.1625 -0.36082,0.575 -0.36082,-5.75 z M 156,1029 c 0,-15.5833 0.21509,-28.1182 0.47798,-27.8554 0.67584,0.6759 0.75077,54.96 0.0768,55.634 C 156.24965,1057.0837 156,1044.5833 156,1029 Z"
         id="path6" />
      <path
         style="fill:#575757;fill-opacity:1"
         d="m 694.44687,3527 c 0,-17.875 0.1356,-25.1875 0.30134,-16.25 0.16573,8.9375 0.16573,23.5625 0,32.5 -0.16574,8.9375 -0.30134,1.625 -0.30134,-16.25 z m 3.93849,-49 c 0,-6.875 0.15977,-9.6875 0.35504,-6.25 0.19527,3.4375 0.19527,9.0625 0,12.5 -0.19527,3.4375 -0.35504,0.625 -0.35504,-6.25 z M 693.5,3429.4053 c 0,-17.8225 0.3375,-32.4047 0.75,-32.4049 0.4125,-2e-4 0.75,14.373 0.75,31.9406 0,17.5675 -0.3375,32.1497 -0.75,32.4049 -0.4125,0.2551 -0.75,-14.1181 -0.75,-31.9406 z m 182.31434,-325.9074 c -0.17289,-5.7762 0.0232,-10.5012 0.43566,-10.5 0.4125,0 0.75,4.7271 0.75,10.5021 0,5.775 -0.19605,10.5 -0.43566,10.5 -0.23962,0 -0.57712,-4.7259 -0.75,-10.5021 z M 687.99767,2564.25 c -10e-4,-0.4125 3.93621,-0.6295 8.75,-0.4823 15.53435,0.4751 17.06149,0.8786 4.00233,1.0576 -7.0125,0.096 -12.75105,-0.1628 -12.75233,-0.5753 z M 582.2991,2543.2547 c 4.83951,-0.1837 12.48951,-0.1828 17,0 4.5105,0.1849 0.5509,0.3352 -8.7991,0.334 -9.35,0 -13.0404,-0.1524 -8.2009,-0.3361 z m 69,0 c 4.83951,-0.1837 12.48951,-0.1828 17,0 4.5105,0.1849 0.5509,0.3352 -8.7991,0.334 -9.35,0 -13.0404,-0.1524 -8.2009,-0.3361 z M 599.25,2478.2506 c 16.3625,-0.1542 43.1375,-0.1542 59.5,0 16.3625,0.1542 2.975,0.2803 -29.75,0.2803 -32.725,0 -46.1125,-0.1261 -29.75,-0.2803 z M 727.45471,2440.5 c 2.8e-4,-21.45 0.1327,-30.0827 0.29426,-19.1838 0.16156,10.8989 0.16133,28.4489 -5.1e-4,39 -0.16185,10.5511 -0.29404,1.6338 -0.29375,-19.8162 z M 489.75,2403.2541 c 5.6375,-0.1782 14.8625,-0.1782 20.5,0 5.6375,0.1783 1.025,0.3241 -10.25,0.3241 -11.275,0 -15.8875,-0.1458 -10.25,-0.3241 z m 127,0 c 5.6375,-0.1782 14.8625,-0.1782 20.5,0 5.6375,0.1783 1.025,0.3241 -10.25,0.3241 -11.275,0 -15.8875,-0.1458 -10.25,-0.3241 z M 751.43125,2200.5 c 6.6e-4,-13.2 0.14295,-18.4617 0.31621,-11.6927 0.17326,6.7691 0.17273,17.5691 -0.001,24 -0.17391,6.431 -0.31567,0.8927 -0.31502,-12.3073 z m -23.97654,-82 c 2.8e-4,-21.45 0.1327,-30.0827 0.29426,-19.1838 0.16156,10.8989 0.16133,28.4489 -5.1e-4,39 -0.16185,10.5511 -0.29404,1.6338 -0.29375,-19.8162 z M 543.68378,1992.2515 c 10.55108,-0.1618 28.10108,-0.162 39,-5e-4 10.89892,0.1616 2.26622,0.294 -19.18378,0.2943 -21.45,3e-4 -30.3673,-0.1319 -19.81622,-0.2938 z M 227.5701,1954.25 c -0.38713,-16.6777 -0.28297,-30.0097 0.24806,-31.75 0.60471,-1.9818 0.97166,7.7763 1.08113,28.75 0.0911,17.4625 -0.0205,31.75 -0.24806,31.75 -0.22757,0 -0.71408,-12.9375 -1.08113,-28.75 z m 671.61389,-71.75 c -0.11076,-2.2 -0.42056,-6.475 -0.68845,-9.5 -0.43335,-4.8934 -0.37218,-5.1341 0.55467,-2.1829 0.57296,1.8244 0.88276,6.0994 0.68845,9.5 -0.22851,3.9989 -0.42443,4.77 -0.55467,2.1829 z M 866.2,1406.8 c -1.34572,-1.3457 -1.7688,-35.3294 -0.45,-36.1468 0.4125,-0.2557 0.75,7.7053 0.75,17.691 V 1406.5 l 19,0.5335 19,0.5334 -18.55,0.2166 c -13.34764,0.1558 -18.88654,-0.12 -19.75,-0.9835 z m -652.54749,-36.55 c -0.25604,-0.4125 6.5799,-0.6341 15.19098,-0.4925 28.90224,0.4753 31.82417,0.8339 8.46553,1.039 -12.75504,0.1119 -23.40047,-0.134 -23.65651,-0.5465 z M 113.5,1162 l -6,-0.6638 7.5,-0.05 c 4.125,-0.027 8.85,0.2937 10.5,0.7136 2.65264,0.675 2.47895,0.7576 -1.5,0.7136 -2.475,-0.027 -7.2,-0.3485 -10.5,-0.7136 z m -7.69098,-1.75 c -0.16996,-0.4125 -0.0668,-10.65 0.22932,-22.75 l 0.53833,-22 0.21167,22.75 c 0.19064,20.491 0.0159,24.4156 -0.97932,22 z"
         id="path5" />
      <path
         style="fill:#4b4b4b;fill-opacity:1"
         d="m 876.37407,3124.5 c 0.002,-6.05 0.16696,-8.3961 0.36601,-5.2135 0.19905,3.1826 0.1972,8.1326 -0.004,11 -0.20131,2.8674 -0.36417,0.2635 -0.36191,-5.7865 z M 997.49749,1953 c 0,-434.775 0.11363,-612.6375 0.25251,-395.25 0.13888,217.3875 0.13888,573.1125 0,790.5 -0.13888,217.3875 -0.25251,39.525 -0.25251,-395.25 z M 543.25,2587.2512 c 10.8625,-0.1614 28.6375,-0.1614 39.5,0 10.8625,0.1615 1.975,0.2936 -19.75,0.2936 -21.725,0 -30.6125,-0.1321 -19.75,-0.2936 z m 12.5,-43.9916 c 3.4375,-0.1953 9.0625,-0.1953 12.5,0 3.4375,0.1953 0.625,0.355 -6.25,0.355 -6.875,0 -9.6875,-0.1597 -6.25,-0.355 z m 60,0 c 5.0875,-0.1815 13.4125,-0.1815 18.5,0 5.0875,0.1815 0.925,0.33 -9.25,0.33 -10.175,0 -14.3375,-0.1485 -9.25,-0.33 z m -164.06622,-13.0034 c 10.55108,-0.1618 28.10108,-0.162 39,-5e-4 10.89892,0.1616 2.26622,0.294 -19.18378,0.2943 -21.45,3e-4 -30.3673,-0.1319 -19.81622,-0.2938 z M 426.45522,2441 c 0,-21.725 0.13209,-30.6125 0.29353,-19.75 0.16144,10.8625 0.16144,28.6375 0,39.5 -0.16144,10.8625 -0.29353,1.975 -0.29353,-19.75 z m -5.1e-4,-322.5 c 2.8e-4,-21.45 0.1327,-30.0827 0.29426,-19.1838 0.16156,10.8989 0.16133,28.4489 -5.1e-4,39 -0.16185,10.5511 -0.29404,1.6338 -0.29375,-19.8162 z M 228.43466,2008 c 0,-14.025 0.14065,-19.7625 0.31255,-12.75 0.1719,7.0125 0.1719,18.4875 0,25.5 -0.1719,7.0125 -0.31255,1.275 -0.31255,-12.75 z m 650.87176,-638.7473 c 6.49353,-0.1744 16.84353,-0.1738 23,0 6.15647,0.1752 0.84358,0.3179 -11.80642,0.3172 -12.65,-7e-4 -17.68711,-0.144 -11.19358,-0.3185 z m 140.68758,-217.0484 0.4939,-10.7043 0.2942,9.9118 c 0.1618,5.4515 -0.06,10.2685 -0.4939,10.7043 -0.4335,0.4358 -0.5659,-4.0245 -0.2942,-9.9118 z M 106.43674,1090 c 0,-14.575 0.1398,-20.5375 0.31066,-13.25 0.17086,7.2875 0.17086,19.2125 0,26.5 -0.17086,7.2875 -0.31066,1.325 -0.31066,-13.25 z"
         id="path4" />
      <path
         style="fill:#3f3f3f;fill-opacity:1"
         d="m 545.58587,3704.25 c -0.33362,-5.9125 -0.78195,-13.3121 -0.99628,-16.4435 -0.35649,-5.2084 -0.20649,-5.7197 1.76036,-6 1.79718,-0.2562 2.13031,-0.9335 2.02975,-4.1268 -0.17021,-5.4054 1.37504,-3.4141 5.09962,6.5716 2.42551,6.5029 3.49407,8.2487 5.04869,8.2487 1.55066,0 2.07882,-0.8546 2.47199,-4 0.41261,-3.3008 0.89328,-4.0139 2.75,-4.0794 1.95852,-0.069 2.25,0.4207 2.25,3.7814 0,4.1051 1.96223,5.9042 4.31231,3.9538 0.70776,-0.5874 2.35073,-4.1253 3.65104,-7.8619 1.30032,-3.7366 2.99625,-7.6939 3.76875,-8.7939 1.3324,-1.8973 1.39558,-1.8459 1.23025,1 -0.28464,4.8999 -0.0598,5.5 2.06077,5.5 1.96887,0 2.00686,0.4089 1.41706,15.25 -0.33334,8.3875 -0.77962,15.8125 -0.99174,16.5 -0.28924,0.9375 -4.74506,1.25 -17.82082,1.25 H 546.19246 Z M 129.49749,1953 c 0,-435.325 0.11363,-613.4125 0.25251,-395.75 0.13888,217.6625 0.13888,573.8375 0,791.5 -0.13888,217.6625 -0.25251,39.575 -0.25251,-395.75 z M 611,2581 c 0,-3.9468 0.0499,-4.0007 3.75,-4.0492 2.0625,-0.027 12.25005,-0.1396 22.63899,-0.25 16.65153,-0.177 19.01793,-0.4048 19.97752,-1.9233 0.75731,-1.1983 0.77039,-2.0406 0.043,-2.768 -0.64262,-0.6426 -11.52251,-1.2932 -28.23118,-1.6881 l -27.18561,-0.6425 0.21108,-2.7703 c 0.1161,-1.5236 0.56775,-2.5498 1.00366,-2.2804 0.43591,0.2694 0.79256,-0.6818 0.79256,-2.1138 v -2.6036 l -17.25,0.2946 -17.25,0.2946 v -8 -8 l 57.25,0.2661 57.25,0.266 v 6.984 c 0,3.8411 0.37323,6.9839 0.8294,6.9839 0.45617,0 0.79367,1.0125 0.75,2.25 -0.0458,1.297 0.45005,2.1441 1.1706,2 0.6875,-0.1375 1.25,0.2 1.25,0.75 0,0.6133 4.83333,1 12.5,1 H 713 v 4.5 4.5 h -15 -15 v 5.5 5.5 H 647 611 Z M 733.19401,2528.6958 727,2522.4462 V 2505.7231 2489 H 707.5 688 v 19 c 0,12.7059 -0.35082,19 -1.05902,19 -0.58246,0 -0.85042,0.3375 -0.59548,0.75 0.25495,0.4125 -24.99126,0.6589 -56.10267,0.5474 -45.06972,-0.1614 -56.74119,-0.4663 -57.42718,-1.5 -0.47353,-0.7136 -0.81604,-6.9224 -0.76114,-13.7974 0.0549,-6.875 0.0132,-12.95 -0.0927,-13.5 -0.10588,-0.55 -0.2531,-1.675 -0.32716,-2.5 -0.0741,-0.825 -0.60313,-1.4188 -1.17572,-1.3196 -0.61637,0.1067 -0.8777,-1.2191 -0.64059,-3.25 0.24357,-2.0865 -0.0342,-3.4304 -0.70893,-3.4304 -0.61018,0 -1.10941,1.3234 -1.10941,2.941 0,1.6175 -0.45,3.2191 -1,3.559 -0.59512,0.3678 -1,-0.8229 -1,-2.941 0,-2.8923 -0.37464,-3.559 -2,-3.559 -1.7037,0 -2,-0.6667 -2,-4.5 0,-3.8333 0.2963,-4.5 2,-4.5 1.77778,0 2,-0.6667 2,-6 0,-3.3333 0.44444,-6 1,-6 0.55073,0 0.99996,2.5833 0.99992,5.75 l -8e-5,5.75 60.25008,0.1195 c 33.13754,0.066 71.38758,0.2907 85.00008,0.5 L 738,2480.5 v 4.25 4.25 h -4.5 -4.5 v 16.3296 16.3296 l 5.62322,6.2138 c 3.09277,3.4177 5.43008,6.407 5.19401,6.6431 -0.23606,0.2361 -3.21651,-2.3831 -6.62322,-5.8203 z m -4.37812,-56.348 c -0.23269,-0.4663 2.18854,-3.2817 5.38052,-6.2565 3.19197,-2.9748 5.80359,-4.9844 5.80359,-4.4659 0,1.4347 -10.69986,11.6929 -11.18411,10.7224 z M 495.8201,2432.1869 c 0.22795,-6.6319 -0.0599,-9.782 -1,-10.9419 -0.96155,-1.1865 -0.98059,-1.4249 -0.0701,-0.8779 0.84545,0.5079 1.25,0.054 1.25,-1.4017 0,-1.3198 -0.78269,-2.3573 -2.02306,-2.6817 -1.55104,-0.4056 -1.9745,-1.2587 -1.81493,-3.6564 l 0.20814,-3.1273 6.56493,0.2963 c 8.21225,0.3707 10.4459,1.0643 7.31492,2.2716 -2.86202,1.1036 -3.0309,4.9151 -0.25,5.6424 1.1,0.2876 2,0.8122 2,1.1658 0,0.3535 -0.9,1.2049 -2,1.8918 -1.76935,1.105 -2,2.3321 -2,10.6399 v 9.3908 l -4.25,0.3507 -4.25,0.3507 z m 127,0 c 0.22795,-6.6319 -0.0599,-9.782 -1,-10.9419 -0.96155,-1.1865 -0.98059,-1.4249 -0.0701,-0.8779 0.84545,0.5079 1.25,0.054 1.25,-1.4017 0,-1.3198 -0.78269,-2.3573 -2.02306,-2.6817 -1.55104,-0.4056 -1.9745,-1.2587 -1.81493,-3.6564 l 0.20814,-3.1273 6.56493,0.2963 c 8.21225,0.3707 10.4459,1.0643 7.31492,2.2716 -2.86202,1.1036 -3.0309,4.9151 -0.25,5.6424 1.1,0.2876 2,0.8122 2,1.1658 0,0.3535 -0.9,1.2049 -2,1.8918 -1.76935,1.105 -2,2.3321 -2,10.6399 v 9.3908 l -4.25,0.3507 -4.25,0.3507 z M 459,2418.5 v -7.5 h -5 -5 v -34.8834 -34.8833 l 2.25,-0.603 c 3.72233,-0.9976 15.75,-0.7152 15.75,0.3697 0,0.5833 -3.33333,1 -8,1 h -8 v 11 11 h 8 c 5.22373,0 8,0.3875 8,1.1166 0,0.6142 -0.87089,0.8889 -1.93531,0.6106 -5.32968,-1.3938 -8.39794,6.6979 -3.70559,9.7724 1.2975,0.8502 3.03472,1.2865 3.86048,0.9696 1.68211,-0.6455 2.75012,3.7467 2.76941,11.3892 0.0103,4.0594 -0.14787,4.3185 -2.30516,3.7771 -5.82823,-1.4628 -9.27566,6.6202 -4.23279,9.9244 1.34807,0.8833 3.28307,1.3419 4.3,1.0191 1.54063,-0.489 1.84896,-0.043 1.84896,2.6747 0,5.5127 0.93585,6.7463 5.11862,6.7467 l 3.78138,4e-4 -0.33474,-41.9871 c -0.29719,-37.2764 -0.15695,-42.1649 1.25,-43.5718 1.44632,-1.4463 1.58474,-0.9234 1.58474,5.9867 V 2340 h 21 21 v -7.5714 c 0,-6.7302 0.16667,-7.4048 1.5,-6.0715 1.28016,1.2802 1.5,7.0127 1.5,39.1137 0,26.5101 -0.33254,37.9702 -1.1265,38.8214 -0.82912,0.889 -6.76871,1.1318 -22.5,0.9199 L 479,2404.9242 v 2.5379 c 0,1.8712 0.52537,2.5379 2,2.5379 1.7265,0 2,0.6667 2,4.875 0,2.6813 -0.28125,6.2813 -0.625,8 L 481.75,2426 H 470.375 459 Z m 62,-33.5 v -19 h -21 -21 v 19 19 h 21 21 z m 0,-32 v -11 h -21 -21 v 11 11 h 21 21 z m -3.375,69.875 c -0.34375,-1.7187 -0.625,-5.3187 -0.625,-8 0,-4.1465 0.28792,-4.875 1.92668,-4.875 1.05967,0 2.11267,-0.7875 2.33999,-1.75 0.30882,-1.3075 0.6076,-1.0547 1.18173,1 0.76456,2.7362 0.81304,2.75 9.66001,2.75 H 541 v 7 7 H 529.625 518.25 Z M 586,2418.5 v -7.5 h -5 -5 v -34.8834 -34.8833 l 2.25,-0.603 c 3.72233,-0.9976 15.75,-0.7152 15.75,0.3697 0,0.5833 -3.33333,1 -8,1 h -8 v 11 11 h 8 c 5.22373,0 8,0.3875 8,1.1166 0,0.6142 -0.87089,0.8889 -1.93531,0.6106 C 589.1169,2364.9563 586,2367.6662 586,2371 c 0,3.5197 3.34318,6.203 6.68383,5.3645 2.2808,-0.5724 2.31617,-0.4558 2.31617,7.6355 0,8.0913 -0.0354,8.2079 -2.31617,7.6355 -5.82823,-1.4628 -9.27566,6.6202 -4.23279,9.9244 1.34807,0.8833 3.28307,1.3419 4.3,1.0191 1.54063,-0.489 1.84896,-0.043 1.84896,2.6747 0,5.5127 0.93585,6.7463 5.11862,6.7467 l 3.78138,4e-4 -0.33474,-41.9871 c -0.29719,-37.2764 -0.15695,-42.1649 1.25,-43.5718 1.44632,-1.4463 1.58474,-0.9234 1.58474,5.9867 V 2340 h 21 21 v -7.5714 c 0,-6.7302 0.16667,-7.4048 1.5,-6.0715 1.28016,1.2802 1.5,7.0127 1.5,39.1137 0,26.5101 -0.33254,37.9702 -1.1265,38.8214 -0.82912,0.889 -6.76871,1.1318 -22.5,0.9199 L 606,2404.9242 v 2.5379 c 0,1.8712 0.52537,2.5379 2,2.5379 1.7265,0 2,0.6667 2,4.875 0,2.6813 -0.28125,6.2813 -0.625,8 L 608.75,2426 H 597.375 586 Z m 62,-33.5 v -19 h -21 -21 v 19 19 h 21 21 z m 0,-32 v -11 h -21 -21 v 11 11 h 21 21 z m -3.375,69.875 c -0.34375,-1.7187 -0.625,-5.3187 -0.625,-8 0,-4.1465 0.28792,-4.875 1.92668,-4.875 1.05967,0 2.11267,-0.7875 2.33999,-1.75 0.30882,-1.3075 0.6076,-1.0547 1.18173,1 0.76456,2.7362 0.81304,2.75 9.66001,2.75 H 668 v 7 7 H 656.625 645.25 Z M 450.25,2335.3377 C 448.80672,2334.7553 448.48347,2325 449.90745,2325 c 0.4991,0 1.0616,2.4756 1.25,5.5014 0.1884,3.0257 0.34255,5.4652 0.34255,5.421 0,-0.044 -0.5625,-0.3073 -1.25,-0.5847 z m 26.83102,-13.6825 c -1.90686,-3.5681 -7.67472,-3.8264 -9.04986,-0.4052 -0.49741,1.2375 -0.93291,1.6394 -0.96777,0.893 -0.0365,-0.7805 -0.69548,-1.1144 -1.55139,-0.786 -0.85991,0.33 -1.38754,0.059 -1.25,-0.643 0.14412,-0.7351 -0.9454,-1.214 -2.762,-1.214 h -3 l -0.29569,-6.75 -0.29569,-6.75 h 15.04569 c 12.84433,0 15.04569,0.2241 15.04569,1.5314 0,0.8422 0.675,1.7904 1.5,2.107 4.50971,1.7305 -1.9747,11.3616 -7.64954,11.3616 -1.71917,0 -2.82156,0.6028 -3.02714,1.6552 -0.24679,1.2634 -0.6592,1.0267 -1.7423,-1 z m 44.02536,1.0948 c -0.0734,-1.2081 -0.95788,-1.7598 -2.85638,-1.7818 -4.87307,-0.056 -6.25,-2.0013 -6.25,-8.8284 V 2306 h 15 15 v 6.5 6.5 h -9.30696 c -9.22294,0 -9.31677,0.025 -10.39362,2.75 -0.72482,1.8343 -1.12208,2.1673 -1.19304,1 z m 82.97464,-1.0948 c -1.84015,-3.4433 -7.94745,-3.882 -8.79736,-0.6319 -0.4999,1.9116 -0.60067,1.9254 -1.82577,0.25 -0.79208,-1.0832 -2.59274,-1.7733 -4.62728,-1.7733 H 585.5 l -0.29569,-6.75 -0.29569,-6.75 h 15.04569 c 12.84433,0 15.04569,0.2241 15.04569,1.5314 0,0.8422 0.675,1.7904 1.5,2.107 4.50971,1.7305 -1.9747,11.3616 -7.64954,11.3616 -1.71917,0 -2.82156,0.6028 -3.02714,1.6552 -0.24679,1.2634 -0.6592,1.0267 -1.7423,-1 z m 44.02536,1.0948 c -0.0734,-1.2081 -0.95788,-1.7598 -2.85638,-1.7818 -4.87307,-0.056 -6.25,-2.0013 -6.25,-8.8284 V 2306 h 15 15 v 6.5 6.5 h -9.30696 c -9.22294,0 -9.31677,0.025 -10.39362,2.75 -0.72482,1.8343 -1.12208,2.1673 -1.19304,1 z M 498,2313 c 0,-2.3333 0.44444,-3 2,-3 1.55556,0 2,0.6667 2,3 0,2.3333 -0.44444,3 -2,3 -1.55556,0 -2,-0.6667 -2,-3 z m 127,0 c 0,-2.3333 0.44444,-3 2,-3 1.55556,0 2,0.6667 2,3 0,2.3333 -0.44444,3 -2,3 -1.55556,0 -2,-0.6667 -2,-3 z m 117,-113 v -24 h -6 -6 v -5 -5 h 6 6 v -7 -7 h 4.5 4.5 v 7 7 h 25.5 25.5 v 5 5 H 776.5 751 v 24 24 h -4.5 -4.5 z m -362,-10 v -22 h -26 -26 v -4.5 -4.5 h 26 26 v -9 -9 h 5 5 v 9.0925 9.0926 l 5.25,-0.3426 5.25,-0.3425 -0.34651,4.75 -0.34652,4.75 H 394.90349 390 v 22 22 h -5 -5 z m 519.40918,-158.5 c -10e-4,-9.35 0.14916,-13.3096 0.33401,-8.7991 0.18486,4.5105 0.1858,12.1605 0.002,17 -0.1837,4.8395 -0.33495,1.1491 -0.3361,-8.2009 z M 1020.3917,1129 c 0,-7.425 0.1574,-10.4625 0.3499,-6.75 0.1924,3.7125 0.1924,9.7875 0,13.5 -0.1925,3.7125 -0.3499,0.675 -0.3499,-6.75 z m -913.95398,-91.5 c -5.4e-4,-14.85 0.13863,-21.0644 0.30926,-13.8098 0.17063,7.2546 0.17107,19.4046 9.7e-4,27 -0.17009,7.5954 -0.3097,1.6598 -0.31023,-13.1902 z m 863.48911,7.25 c -0.0402,-2.3375 -0.01,-7.558 0.0683,-11.6012 0.11243,-5.8441 -0.12884,-7.1886 -1.17683,-6.558 -1.05466,0.6345 -1.07573,0.4932 -0.10536,-0.7066 0.72194,-0.8927 1.34494,-5.7265 1.53911,-11.942 0.17941,-5.7432 0.42111,-0.2047 0.5371,12.3078 0.116,12.5125 -0.0141,22.75 -0.2891,22.75 -0.275,0 -0.53293,-1.9125 -0.57317,-4.25 z M 157.38536,1007 c 0,-6.875 0.15977,-9.6875 0.35504,-6.25 0.19527,3.4375 0.19527,9.0625 0,12.5 -0.19527,3.4375 -0.35504,0.625 -0.35504,-6.25 z"
         id="path3" />
      <path
         style="fill:#333333;fill-opacity:1"
         d="m 582.06486,3716 c -0.36178,-2.4398 -0.094,-13.7935 0.57187,-24.25 0.60336,-9.4744 0.56075,-9.75 -1.50791,-9.75 -2.22605,0 -2.45257,-0.5751 -2.16647,-5.5 0.16533,-2.8459 0.10215,-2.8973 -1.23025,-1 -0.7725,1.1 -2.46843,5.0573 -3.76875,8.7939 -1.30031,3.7366 -2.94328,7.2745 -3.65104,7.8619 -2.35008,1.9504 -4.31231,0.1513 -4.31231,-3.9538 0,-3.3607 -0.29148,-3.8505 -2.25,-3.7814 -1.85672,0.066 -2.33739,0.7786 -2.75,4.0794 -0.39317,3.1454 -0.92133,4 -2.47199,4 -1.55462,0 -2.62318,-1.7458 -5.04869,-8.2487 -3.72458,-9.9857 -5.26983,-11.977 -5.09962,-6.5716 0.10217,3.2447 -0.21881,3.8685 -2.13038,4.1399 -1.97097,0.28 -2.19311,0.7771 -1.78747,4 0.99842,7.9327 1.51514,29.6244 0.6713,28.1804 -0.4821,-0.825 -1.18793,-9.3003 -1.5685,-18.8341 -0.38057,-9.5337 -0.90448,-18.0837 -1.16424,-19 -0.25976,-0.9162 0.30473,-0.1945 1.25442,1.6038 3.08858,5.8486 4.54314,2.3535 2.81738,-6.7697 -0.94376,-4.9891 4.87086,3.8871 8.02779,12.2548 1.65,4.3734 3.45,7.9131 4,7.8661 0.55,-0.047 1.1358,-1.8408 1.30177,-3.9861 0.29642,-3.8312 0.37363,-3.9015 4.34979,-3.9563 4.0145,-0.055 4.04319,-0.03 3.46476,3.1328 -0.70395,3.8485 0.51136,6.4963 2.05907,4.486 0.54937,-0.7135 2.04649,-4.2223 3.32694,-7.7973 1.28045,-3.575 3.63187,-8.3 5.22537,-10.5 l 2.89727,-4 -0.69165,6.25 c -0.75955,6.8636 0.43448,8.289 2.93914,3.5087 1.32527,-2.5294 1.39968,-2.0848 0.96228,5.75 -1.12673,20.1825 -2.0634,33.3838 -2.26988,31.9913 z m 294.34832,-563.5 c 10e-4,-9.9 0.1507,-13.8147 0.33256,-8.6994 0.18186,5.1153 0.181,13.2153 -0.002,18 -0.18291,4.7847 -0.3317,0.5994 -0.33065,-9.3006 z m 18.98421,3.5 c 0,-7.975 0.1553,-11.2375 0.34512,-7.25 0.18981,3.9875 0.18981,10.5125 0,14.5 -0.18982,3.9875 -0.34512,0.725 -0.34512,-7.25 z m 33.01388,-4 c 0,-9.625 0.14998,-13.5625 0.3333,-8.75 0.18331,4.8125 0.18331,12.6875 0,17.5 -0.18332,4.8125 -0.3333,0.875 -0.3333,-8.75 z m -651.01133,-4.5 c 10e-4,-8.25 0.15629,-11.4919 0.34419,-7.2043 0.1879,4.2876 0.18676,11.0376 -0.003,15 -0.1893,3.9624 -0.34304,0.4543 -0.34164,-7.7957 z m -78.9675,-18.5 c 0,-13.475 0.14155,-18.9875 0.31456,-12.25 0.17301,6.7375 0.17301,17.7625 0,24.5 -0.17301,6.7375 -0.31456,1.225 -0.31456,-12.25 z m 32.96495,9 c 0,-7.975 0.1553,-11.2375 0.34512,-7.25 0.18981,3.9875 0.18981,10.5125 0,14.5 -0.18982,3.9875 -0.34512,0.725 -0.34512,-7.25 z m 19.8785,-30 c -0.082,-16.775 0.15986,-29.6 0.5375,-28.5 0.37763,1.1 0.44474,14.825 0.14911,30.5 l -0.5375,28.5 z m 599.1266,10 c 0,-8.525 0.15337,-12.0125 0.34082,-7.75 0.18745,4.2625 0.18745,11.2375 0,15.5 -0.18745,4.2625 -0.34082,0.775 -0.34082,-7.75 z m 45.99207,-7.5 c 0.002,-7.7 0.15853,-10.7178 0.34883,-6.7062 0.1903,4.0115 0.18902,10.3115 -0.003,14 -0.19185,3.6884 -0.34755,0.4062 -0.34599,-7.2938 z M 276.40249,3099 c 0,-8.525 0.15337,-12.0125 0.34082,-7.75 0.18745,4.2625 0.18745,11.2375 0,15.5 -0.18745,4.2625 -0.34082,0.775 -0.34082,-7.75 z m -46.1417,-3.5 c -0.0311,-6.66 0.25657,-10.665 0.64649,-9 0.38641,1.65 0.41164,7.05 0.0561,12 l -0.64649,9 z m 699.161,-10.5 c 0,-11.275 0.14584,-15.8875 0.32409,-10.25 0.17825,5.6375 0.17825,14.8625 0,20.5 -0.17825,5.6375 -0.32409,1.025 -0.32409,-10.25 z m -763.29413,-42 c -0.0319,-4.125 -0.27079,-13.125 -0.5308,-20 l -0.47273,-12.5 1.33897,13.4188 c 0.85295,8.5481 1.04562,15.8076 0.53079,20 l -0.80817,6.5812 z m 758.66976,-20.2171 c -0.25856,-2.3556 0.0888,-8.1079 0.77189,-12.7829 l 1.242,-8.5 -0.54282,12.5 c -0.29855,6.875 -0.64591,12.6273 -0.7719,12.7829 -0.12598,0.1556 -0.44061,-1.6444 -0.69917,-4 z m 38.92052,-20.0329 c -0.44312,-5.3011 0.13283,-14.8756 2.63175,-43.75 0.2142,-2.475 0.18333,2.925 -0.0686,12 -0.25193,9.075 -0.8332,17.967 -1.2917,19.7599 -0.45851,1.793 -0.57875,6.6305 -0.26719,10.75 0.31156,4.1196 0.33061,7.4901 0.0423,7.4901 -0.28828,0 -0.75925,-2.8125 -1.04659,-6.25 z M 133.42179,2902 c 0,-11.275 0.14584,-15.8875 0.32409,-10.25 0.17825,5.6375 0.17825,14.8625 0,20.5 -0.17825,5.6375 -0.32409,1.025 -0.32409,-10.25 z m 863,-28 c 0,-11.275 0.14584,-15.8875 0.32409,-10.25 0.17825,5.6375 0.17825,14.8625 0,20.5 -0.17825,5.6375 -0.32409,1.025 -0.32409,-10.25 z m -864,-45 c 0,-11.275 0.14584,-15.8875 0.32409,-10.25 0.17825,5.6375 0.17825,14.8625 0,20.5 -0.17825,5.6375 -0.32409,1.025 -0.32409,-10.25 z m 864.9984,-27.5 c -8.9e-4,-11 0.14522,-15.6364 0.32467,-10.3032 0.17945,5.3332 0.18018,14.3332 0.002,20 -0.17857,5.6668 -0.3254,1.3032 -0.32628,-9.6968 z m -866.19907,-40.05 c -0.15078,-10.2628 -0.61646,-15.5112 -1.46398,-16.5 -0.80589,-0.9402 -0.62032,-0.9003 0.5278,0.1135 1.57337,1.3893 1.73649,3.2278 1.46399,16.5 L 131.44225,2776.5 Z M 606,2575.9671 c -3.025,-0.3526 6.96094,-0.7145 22.19098,-0.8041 25.06679,-0.1476 30.98173,-0.7022 27.88704,-2.6148 -0.52503,-0.3245 -13.13237,-0.8778 -28.01631,-1.2295 L 601,2570.6791 v -2.8396 c 0,-1.5617 0.45,-2.8395 1,-2.8395 0.55,0 1,-0.8891 1,-1.9758 0,-1.8772 -0.83623,-1.9908 -16.75,-2.2759 l -16.75,-0.3001 17.25,-0.2241 L 604,2560 v 2.441 c 0,1.3425 -0.45,2.7191 -1,3.059 -0.55,0.3399 -1,1.4193 -1,2.3986 0,1.6479 2.02405,1.8283 27.18197,2.4229 16.70623,0.3948 27.58491,1.0454 28.22752,1.688 0.72741,0.7274 0.71472,1.5697 -0.0417,2.768 -0.97431,1.5436 -3.41313,1.7281 -23.47752,1.7766 -12.31465,0.03 -24.86527,-0.2343 -27.89027,-0.587 z M 684.17471,2552.25 684,2545 l -57.25,-0.2377 -57.25,-0.2377 57.5,-0.5123 57.5,-0.5123 0.3075,3.75 c 0.16912,2.0625 0.13524,5.6625 -0.0753,8 -0.25231,2.8013 -0.44235,1.7787 -0.5575,-3 z m -112.44235,-24.3345 c 0.37005,-1.4151 0.78433,-1.6975 1.28998,-0.8794 0.56482,0.9139 12.67689,1.2057 50.11126,1.207 27.15152,9e-4 52.5164,0.3327 56.3664,0.7373 3.85,0.4046 -18.94537,0.7995 -50.65638,0.8776 L 571.18724,2530 Z m 137.55415,-47.6556 c 3.18258,-0.199 8.13258,-0.1972 11,0 2.86742,0.2013 0.26349,0.3642 -5.78651,0.3619 -6.05,0 -8.39607,-0.1669 -5.21349,-0.366 z M 491.75,2443.2943 c 2.16067,-0.4162 2.25,-0.8447 2.25,-10.7943 0,-9.9496 -0.0893,-10.3781 -2.25,-10.7943 -1.8795,-0.362 -1.78509,-0.4558 0.57332,-0.5695 2.12558,-0.1025 2.73329,-0.5687 2.45902,-1.8862 -0.23473,-1.1275 -1.15004,-1.6653 -2.57333,-1.5118 -1.88493,0.2033 -2.1987,-0.2369 -2.13872,-3 0.0786,-3.6197 1.66878,-8.2626 1.96539,-5.7382 0.0969,0.825 0.10091,2.6778 0.009,4.1173 -0.11801,1.8449 0.41237,2.7689 1.79718,3.1311 1.80164,0.4711 1.97465,1.479 2.08596,12.1526 0.13123,12.5842 -0.71169,15.6781 -4.21284,15.4628 L 489.5,2443.7276 Z M 505.2,2442.8 c -0.76993,-0.7699 -1.2,-4.7092 -1.2,-10.9915 0,-8.7085 0.22121,-9.9297 2,-11.0406 1.1,-0.6869 2,-1.5383 2,-1.8918 0,-0.3536 -0.9,-0.8782 -2,-1.1658 -2.63591,-0.6894 -2.68751,-4.7178 -0.0692,-5.4025 1.29881,-0.3396 1.72851,-1.0454 1.31277,-2.1563 -0.53744,-1.4361 -0.39801,-1.4725 1.0692,-0.2791 2.29823,1.8695 2.11828,2.9273 -0.56277,3.308 -1.2375,0.1758 -2.25,0.9946 -2.25,1.8196 0,0.825 1.0125,1.6438 2.25,1.8196 3.08424,0.438 3.18397,4.9012 0.1198,5.3608 -2.01045,0.3016 -2.12992,0.8809 -2.125,10.304 0.005,9.6544 0.0837,10.0065 2.3802,10.6503 2.08868,0.5857 2.12786,0.678 0.325,0.7656 -1.1275,0.055 -2.59,-0.4403 -3.25,-1.1003 z m 113.55,0.4943 c 2.16067,-0.4162 2.25,-0.8447 2.25,-10.7943 0,-9.9496 -0.0893,-10.3781 -2.25,-10.7943 -1.8795,-0.362 -1.78509,-0.4558 0.57332,-0.5695 2.12558,-0.1025 2.73329,-0.5687 2.45902,-1.8862 -0.23473,-1.1275 -1.15004,-1.6653 -2.57333,-1.5118 -1.88493,0.2033 -2.1987,-0.2369 -2.13872,-3 0.0786,-3.6197 1.66878,-8.2626 1.96539,-5.7382 0.0969,0.825 0.10091,2.6778 0.009,4.1173 -0.11801,1.8449 0.41237,2.7689 1.79718,3.1311 1.80164,0.4711 1.97465,1.479 2.08596,12.1526 0.13123,12.5842 -0.71169,15.6781 -4.21284,15.4628 L 616.5,2443.7276 Z M 632.2,2442.8 c -0.76993,-0.7699 -1.2,-4.7092 -1.2,-10.9915 0,-8.7085 0.22121,-9.9297 2,-11.0406 1.1,-0.6869 2,-1.5383 2,-1.8918 0,-0.3536 -0.9,-0.8782 -2,-1.1658 -2.63591,-0.6894 -2.68751,-4.7178 -0.0692,-5.4025 1.29881,-0.3396 1.72851,-1.0454 1.31277,-2.1563 -0.53744,-1.4361 -0.39801,-1.4725 1.0692,-0.2791 2.29823,1.8695 2.11828,2.9273 -0.56277,3.308 -1.2375,0.1758 -2.25,0.9946 -2.25,1.8196 0,0.825 1.0125,1.6438 2.25,1.8196 3.05431,0.4337 3.18819,4.8978 0.16077,5.3608 -1.95876,0.2996 -2.08886,0.9437 -2.08333,10.3139 0.006,9.6137 0.0947,10.0192 2.33923,10.6503 2.0865,0.5866 2.11647,0.6666 0.28333,0.7557 -1.1275,0.055 -2.59,-0.4403 -3.25,-1.1003 z m -149.43415,-16.3675 c -0.93615,-0.9361 0.39884,-16.8526 1.50409,-17.9325 0.68443,-0.6687 0.82739,-0.6469 0.43155,0.066 -0.32555,0.5862 -0.69962,4.9737 -0.83126,9.75 -0.13163,4.7762 -0.30629,8.6841 -0.38812,8.6841 -0.0818,0 -0.40414,-0.2554 -0.71626,-0.5675 z m 33.05315,-8.8707 c -0.17545,-5.209 -0.037,-9.1538 0.30776,-8.7663 1.00304,1.1275 1.7695,17.1506 0.84765,17.7203 -0.46002,0.2843 -0.97995,-3.745 -1.15541,-8.954 z m 93.94685,8.8707 c -0.93615,-0.9361 0.39884,-16.8526 1.50409,-17.9325 0.68565,-0.6699 0.81961,-0.6345 0.40585,0.1075 -0.3397,0.6091 -0.68388,4.9966 -0.76484,9.75 -0.081,4.7534 -0.24406,8.6425 -0.36242,8.6425 -0.11836,0 -0.47056,-0.2554 -0.78268,-0.5675 z m 33.05315,-8.8707 c -0.17545,-5.209 -0.037,-9.1538 0.30776,-8.7663 1.00304,1.1275 1.7695,17.1506 0.84765,17.7203 -0.46002,0.2843 -0.97995,-3.745 -1.15541,-8.954 z m -174.55038,-7.3042 c -0.36774,-0.9583 -0.66862,-3.2101 -0.66862,-5.0039 0,-2.7176 -0.30833,-3.1637 -1.84896,-2.6747 -1.01693,0.3228 -2.95193,-0.1358 -4.3,-1.0191 -5.04287,-3.3042 -1.59544,-11.3872 4.23279,-9.9244 2.15729,0.5414 2.31542,0.2823 2.30516,-3.7771 -0.0193,-7.6425 -1.0873,-12.0347 -2.76941,-11.3892 -0.82576,0.3169 -2.56298,-0.1194 -3.86048,-0.9696 -4.66601,-3.0572 -1.63176,-11.1682 3.66024,-9.7843 2.67645,0.6999 3.2201,-2.3791 2.80346,-15.8775 -0.29155,-9.4459 -0.59798,-11.2678 -1.83637,-10.9185 -3.84835,1.0856 -8.95994,1.1652 -10.82226,0.1686 -1.66313,-0.8901 -2.24902,-0.7645 -3.05737,0.6555 -0.79538,1.3972 -1.36897,1.5297 -2.80339,0.6476 -2.32738,-1.4312 -2.35013,-4.8136 -0.0338,-5.0255 1.23742,-0.1132 1.3126,-0.02 0.25,0.3096 -2.23272,0.6928 -1.85243,3.3249 0.4804,3.3249 1.11111,0 2,-0.6667 2,-1.5 0,-0.825 0.3949,-1.5 0.87756,-1.5 0.48265,0 1.43775,0.675 2.12244,1.5 0.68469,0.825 1.83823,1.5 2.56343,1.5 1.91822,0 2.90725,-2.0911 1.42292,-3.0084 -0.91574,-0.566 -1.12814,-2.7658 -0.76163,-7.8882 0.4568,-6.3845 0.32436,-7.1034 -1.30855,-7.1034 -0.99923,0 -2.27547,0.7875 -2.83607,1.75 -0.56061,0.9625 -1.03297,1.3574 -1.04969,0.8776 -0.0167,-0.4799 -0.70541,-0.3123 -1.53041,0.3724 -1.19672,0.9932 -1.80328,0.9932 -3,0 -0.825,-0.6847 -1.5,-1.7258 -1.5,-2.3136 0,-0.5878 0.64471,-0.1952 1.43268,0.8725 1.18519,1.6058 1.66024,1.7135 2.75,0.6238 1.08976,-1.0898 0.97183,-1.5881 -0.68268,-2.8846 l -2,-1.5672 2,0.7791 c 2.34472,0.9134 3.66706,0.9355 8.82207,0.1474 6.3445,-0.97 7.64697,0.5758 7.86423,9.3331 l 0.18631,7.5095 0.56369,-8.5 0.5637,-8.5 3.50728,-0.2959 c 2.97856,-0.2513 3.77136,0.1512 5.25902,2.6696 1.6029,2.7135 1.61632,3.1008 0.15797,4.5592 -1.41868,1.4187 -1.55699,6.2061 -1.25901,43.5808 l 0.33474,41.9871 -3.78138,-4e-4 c -2.67228,-3e-4 -3.9775,-0.5115 -4.45,-1.7428 z M 476,2408.059 c 0,-1.6175 -0.45,-3.2191 -1,-3.559 -0.63857,-0.3947 -1,-14.4938 -1,-39.0093 0,-35.239 0.14095,-38.4702 1.71662,-39.352 1.52945,-0.8559 1.56277,-1.2481 0.30552,-3.5973 -1.05277,-1.9672 -2.06006,-2.5611 -3.96662,-2.3391 L 469.5,2320.5 l -0.5,25 c -0.275,13.75 -0.83494,24.1824 -1.24431,23.183 -0.94042,-2.2957 -5.58806,-1.9271 -7.14971,0.567 -2.27062,3.6264 3.52249,7.5481 6.94906,4.7043 1.24608,-1.0341 1.44496,0.4268 1.44496,10.6144 0,9.9662 -0.20423,11.5343 -1.30603,10.0275 -1.58987,-2.1743 -5.54249,-1.8096 -7.08673,0.6538 -1.51326,2.414 0.33659,5.1595 3.75101,5.5671 2.00726,0.2397 2.88501,-0.2491 3.59136,-2 0.72266,-1.7912 0.91885,-0.924 0.86442,3.821 -0.0845,7.368 0.42008,8.3619 4.24499,8.3619 2.58797,0 2.94098,-0.353 2.94098,-2.941 z m -11.07677,-70.4665 c 0.72425,-0.8727 1.05577,-4.1976 0.87245,-8.75 -0.26024,-6.4625 -0.53539,-7.3769 -2.29568,-7.6293 -1.87361,-0.2687 -2,0.2843 -2,8.75 0,9.0587 0.78498,10.8082 3.42323,7.6293 z m 57.37864,71.3963 c -0.90849,-2.4069 -0.85214,-3.2957 0.28076,-4.4286 1.17295,-1.1729 1.41737,-7.9086 1.41737,-39.0602 0,-31.1516 -0.24442,-37.8873 -1.41737,-39.0602 -1.1329,-1.1329 -1.18925,-2.0217 -0.28076,-4.4286 0.98777,-2.6169 1.6317,-3.0112 4.91737,-3.0112 2.07942,0 3.78076,0.3596 3.78076,0.7992 0,0.4396 -1.5156,0.6223 -3.368,0.406 -2.98459,-0.3484 -3.44712,-0.078 -4.06298,2.3758 -0.50312,2.0046 -0.26351,3.0105 0.868,3.6437 1.37499,0.7695 1.56298,5.4935 1.56298,39.2753 0,33.7818 -0.18799,38.5058 -1.56298,39.2753 -1.13151,0.6332 -1.37112,1.6391 -0.868,3.6437 0.61586,2.4538 1.07839,2.7242 4.06298,2.3758 1.8524,-0.2163 3.368,-0.034 3.368,0.406 0,0.4396 -1.70134,0.7992 -3.78076,0.7992 -3.28567,0 -3.9296,-0.3943 -4.91737,-3.0112 z m 72.96675,1.2688 c -0.36774,-0.9583 -0.66862,-3.2101 -0.66862,-5.0039 0,-2.7176 -0.30833,-3.1637 -1.84896,-2.6747 -1.01693,0.3228 -2.95193,-0.1358 -4.3,-1.0191 -5.04287,-3.3042 -1.59544,-11.3872 4.23279,-9.9244 2.2808,0.5724 2.31617,0.4558 2.31617,-7.6355 0,-8.0913 -0.0354,-8.2079 -2.31617,-7.6355 C 589.34318,2377.203 586,2374.5197 586,2371 c 0,-3.3131 3.11169,-6.0451 6.01934,-5.2847 2.67645,0.6999 3.2201,-2.3791 2.80346,-15.8775 -0.29155,-9.4459 -0.59798,-11.2678 -1.83637,-10.9185 -3.84835,1.0856 -8.95994,1.1652 -10.82226,0.1686 -1.66313,-0.8901 -2.24902,-0.7645 -3.05737,0.6555 -0.78044,1.3709 -1.38285,1.5214 -2.74387,0.6852 -0.95914,-0.5893 -1.84943,-1.6131 -1.97841,-2.275 -0.12899,-0.662 -0.006,-0.7424 0.27381,-0.1786 0.27959,0.5638 1.37084,1.025 2.425,1.025 2.72875,0 2.41055,-2.9745 -0.33333,-3.116 -1.87591,-0.097 -1.93857,-0.196 -0.37688,-0.597 1.03021,-0.2646 3.19858,0.4989 4.8186,1.6966 1.62002,1.1978 3.58962,1.9305 4.37689,1.6284 1.69763,-0.6514 1.92272,-2.612 0.29988,-2.612 -0.78421,0 -0.98377,-2.302 -0.65018,-7.5 0.43216,-6.734 0.29746,-7.5 -1.31881,-7.5 -0.99006,0 -2.2588,0.7875 -2.8194,1.75 -0.56061,0.9625 -1.03297,1.3574 -1.04969,0.8776 -0.0167,-0.4799 -0.70541,-0.3123 -1.53041,0.3724 -1.19672,0.9932 -1.80328,0.9932 -3,0 -0.825,-0.6847 -1.5,-1.7258 -1.5,-2.3136 0,-0.5878 0.60673,-0.2389 1.3483,0.7752 1.38204,1.8901 3.6517,1.3889 3.6517,-0.8063 0,-0.6747 0.7875,-1.2688 1.75,-1.3202 0.9625,-0.051 3.49242,-0.3592 5.62205,-0.6841 6.52539,-0.9955 7.59997,0.2606 7.81425,9.1342 l 0.18631,7.7148 0.56369,-8.5 0.5637,-8.5 3.50728,-0.2959 c 2.97856,-0.2513 3.77136,0.1512 5.25902,2.6696 1.6029,2.7135 1.61632,3.1008 0.15797,4.5592 -1.41868,1.4187 -1.55699,6.2061 -1.25901,43.5808 l 0.33474,41.9871 -3.78138,-4e-4 c -2.67228,-3e-4 -3.9775,-0.5115 -4.45,-1.7428 z M 603,2408.059 c 0,-1.6175 -0.45,-3.2191 -1,-3.559 -0.63857,-0.3947 -1,-14.4938 -1,-39.0093 0,-35.239 0.14095,-38.4702 1.71662,-39.352 1.52945,-0.8559 1.56277,-1.2481 0.30552,-3.5973 -1.05277,-1.9672 -2.06006,-2.5611 -3.96662,-2.3391 L 596.5,2320.5 l -0.5,25 c -0.275,13.75 -0.83494,24.1824 -1.24431,23.183 -0.94042,-2.2957 -5.58806,-1.9271 -7.14971,0.567 -2.27062,3.6264 3.52249,7.5481 6.94906,4.7043 1.24608,-1.0341 1.44496,0.4268 1.44496,10.6144 0,9.9662 -0.20423,11.5343 -1.30603,10.0275 -1.58987,-2.1743 -5.54249,-1.8096 -7.08673,0.6538 -1.51326,2.414 0.33659,5.1595 3.75101,5.5671 2.00726,0.2397 2.88501,-0.2491 3.59136,-2 0.72266,-1.7912 0.91885,-0.924 0.86442,3.821 -0.0845,7.368 0.42008,8.3619 4.24499,8.3619 2.58797,0 2.94098,-0.353 2.94098,-2.941 z m -11.07677,-70.4665 c 0.72425,-0.8727 1.05577,-4.1976 0.87245,-8.75 -0.26024,-6.4625 -0.53539,-7.3769 -2.29568,-7.6293 -1.87361,-0.2687 -2,0.2843 -2,8.75 0,9.0587 0.78498,10.8082 3.42323,7.6293 z m 57.37864,71.3963 c -0.90849,-2.4069 -0.85214,-3.2957 0.28076,-4.4286 1.17295,-1.1729 1.41737,-7.9086 1.41737,-39.0602 0,-31.1516 -0.24442,-37.8873 -1.41737,-39.0602 -1.1329,-1.1329 -1.18925,-2.0217 -0.28076,-4.4286 0.98777,-2.6169 1.6317,-3.0112 4.91737,-3.0112 2.07942,0 3.78076,0.3596 3.78076,0.7992 0,0.4396 -1.5156,0.6223 -3.368,0.406 -2.98459,-0.3484 -3.44712,-0.078 -4.06298,2.3758 -0.50312,2.0046 -0.26351,3.0105 0.868,3.6437 1.37499,0.7695 1.56298,5.4935 1.56298,39.2753 0,33.7818 -0.18799,38.5058 -1.56298,39.2753 -1.13151,0.6332 -1.37112,1.6391 -0.868,3.6437 0.61586,2.4538 1.07839,2.7242 4.06298,2.3758 1.8524,-0.2163 3.368,-0.034 3.368,0.406 0,0.4396 -1.70134,0.7992 -3.78076,0.7992 -3.28567,0 -3.9296,-0.3943 -4.91737,-3.0112 z M 893.37817,2382 c 0,-6.325 0.16237,-8.9125 0.36082,-5.75 0.19845,3.1625 0.19845,8.3375 0,11.5 -0.19845,3.1625 -0.36082,0.575 -0.36082,-5.75 z M 532.75,2388.3107 c -1.62716,-0.4252 -1.73349,-2.716 -1.51477,-32.634 l 0.23523,-32.1767 0.27923,31.4003 c 0.25285,28.4346 0.44315,31.5248 2.01477,32.7182 1.82751,1.3877 1.77757,1.4218 -1.01446,0.6922 z m 127,0 c -1.62716,-0.4252 -1.73349,-2.716 -1.51477,-32.634 l 0.23523,-32.1767 0.27923,31.4003 c 0.25285,28.4346 0.44315,31.5248 2.01477,32.7182 1.82751,1.3877 1.77757,1.4218 -1.01446,0.6922 z M 233.38854,2366.5 c 0.002,-7.15 0.16103,-9.9438 0.35396,-6.2084 0.19293,3.7354 0.19149,9.5854 -0.003,13 -0.19468,3.4146 -0.35253,0.3584 -0.35078,-6.7916 z m 661,-28 c 0.002,-7.15 0.16103,-9.9438 0.35396,-6.2084 0.19293,3.7354 0.19149,9.5854 -0.003,13 -0.19468,3.4146 -0.35253,0.3584 -0.35078,-6.7916 z m -662,-18 c 0.002,-7.15 0.16103,-9.9438 0.35396,-6.2084 0.19293,3.7354 0.19149,9.5854 -0.003,13 -0.19468,3.4146 -0.35253,0.3584 -0.35078,-6.7916 z m 269.99903,2.3181 c -0.32331,-0.5231 -0.31778,-1.2212 0.0123,-1.5513 0.33008,-0.3301 0.60014,-0.075 0.60014,0.5665 0,1.5652 3.67978,1.4957 4.41667,-0.083 0.46666,-1 0.7,-1 1.16666,0 0.65269,1.3986 4.02124,1.6988 4.80643,0.4284 0.69225,-1.1201 -3.00363,-4.1635 -5.15119,-4.2418 -1.31838,-0.048 -1.19478,-0.282 0.51143,-0.9678 2.66964,-1.073 2.98355,-2.9561 0.5,-2.9992 -1.66667,-0.029 -1.66667,-0.079 0,-1.0497 0.9625,-0.5606 1.75,-1.4469 1.75,-1.9696 0,-0.5227 -0.7875,-0.964 -1.75,-0.9807 -1.66667,-0.029 -1.66667,-0.079 0,-1.0497 2.32727,-1.3555 2.22494,-2.9199 -0.19098,-2.9199 -1.06754,0 -2.19555,-0.4119 -2.50667,-0.9153 -0.3298,-0.5336 0.58382,-0.6095 2.19098,-0.1819 2.59772,0.6912 2.7741,1.1002 3.05901,7.0934 0.21449,4.512 0.78462,6.7125 1.96225,7.5736 1.344,0.9828 1.42412,1.4979 0.42098,2.7066 -1.39579,1.6818 -10.82577,2.1148 -11.798,0.5417 z m 127,0 c -0.32331,-0.5231 -0.31778,-1.2212 0.0123,-1.5513 0.33008,-0.3301 0.60014,-0.075 0.60014,0.5665 0,1.5652 3.67978,1.4957 4.41667,-0.083 0.46666,-1 0.7,-1 1.16666,0 0.65269,1.3986 4.02124,1.6988 4.80643,0.4284 0.69225,-1.1201 -3.00363,-4.1635 -5.15119,-4.2418 -1.31838,-0.048 -1.19478,-0.282 0.51143,-0.9678 2.66964,-1.073 2.98355,-2.9561 0.5,-2.9992 -1.66667,-0.029 -1.66667,-0.079 0,-1.0497 0.9625,-0.5606 1.75,-1.4469 1.75,-1.9696 0,-0.5227 -0.7875,-0.964 -1.75,-0.9807 -1.66667,-0.029 -1.66667,-0.079 0,-1.0497 0.9625,-0.5606 1.75,-1.4139 1.75,-1.8963 0,-0.4823 -0.7875,-1.1091 -1.75,-1.3929 -1.36295,-0.4018 -1.30766,-0.471 0.25,-0.3132 1.73535,0.1758 2.04001,1.0518 2.30234,6.6206 0.21512,4.5666 0.78116,6.7681 1.96225,7.6317 1.344,0.9828 1.42412,1.4979 0.42098,2.7066 -1.39579,1.6818 -10.82577,2.1148 -11.798,0.5417 z M 485,2321.2116 c 0,-0.443 1.33094,-1.9093 2.95765,-3.2585 3.31997,-2.7536 3.94386,-6.5734 1.37987,-8.4482 -2.0569,-1.5041 -1.0983,-4.5504 1.3811,-4.3889 1.6695,0.1087 1.67147,0.1447 0.0314,0.5733 -2.34596,0.6131 -2.21692,1.9553 0.25,2.6004 1.63384,0.4273 2,1.3641 2,5.1167 0,3.9269 -0.29026,4.5936 -2,4.5936 -1.1,0 -2,0.3418 -2,0.7595 0,0.4177 -0.9,1.3215 -2,2.0084 -1.1,0.687 -2,0.8866 -2,0.4437 z m 127,0 c 0,-0.443 1.33094,-1.9093 2.95765,-3.2585 3.31997,-2.7536 3.94386,-6.5734 1.37987,-8.4482 -2.0569,-1.5041 -1.0983,-4.5504 1.3811,-4.3889 1.6695,0.1087 1.67147,0.1447 0.0314,0.5733 -2.34596,0.6131 -2.21692,1.9553 0.25,2.6004 1.63384,0.4273 2,1.3641 2,5.1167 0,3.9269 -0.29026,4.5936 -2,4.5936 -1.1,0 -2,0.3418 -2,0.7595 0,0.4177 -0.9,1.3215 -2,2.0084 -1.1,0.687 -2,0.8866 -2,0.4437 z M 497,2313 c 0,-4.8666 0.0785,-5 2.94098,-5 3.61677,0 3.86109,0.4259 3.29824,5.75 -0.41417,3.9178 -0.67556,4.25 -3.34426,4.25 -2.80729,0 -2.89496,-0.1514 -2.89496,-5 z m 5,0 c 0,-2.3333 -0.44444,-3 -2,-3 -1.55556,0 -2,0.6667 -2,3 0,2.3333 0.44444,3 2,3 1.55556,0 2,-0.6667 2,-3 z m 122,0 c 0,-4.8666 0.0785,-5 2.94098,-5 3.61677,0 3.86109,0.4259 3.29824,5.75 -0.41417,3.9178 -0.67556,4.25 -3.34426,4.25 -2.80729,0 -2.89496,-0.1514 -2.89496,-5 z m 5,0 c 0,-2.3333 -0.44444,-3 -2,-3 -1.55556,0 -2,0.6667 -2,3 0,2.3333 0.44444,3 2,3 1.55556,0 2,-0.6667 2,-3 z m 266.38854,-20.5 c 0.002,-7.15 0.16103,-9.9438 0.35396,-6.2084 0.19293,3.7354 0.19149,9.5854 -0.003,13 -0.19468,3.4146 -0.35253,0.3584 -0.35078,-6.7916 z m -663.98375,-21 c 0.001,-8.8 0.15425,-12.2661 0.33996,-7.7025 0.18572,4.5636 0.18468,11.7636 -0.002,16 -0.18698,4.2364 -0.33893,0.5025 -0.33766,-8.2975 z m 665.01849,-41 c 8.2e-4,-11.55 0.14638,-16.138 0.32348,-10.1956 0.17711,5.9423 0.17644,15.3923 -10e-4,21 -0.17792,5.6076 -0.32282,0.7456 -0.322,-10.8044 z M 230.42476,2201 c 0,-11.825 0.14466,-16.6625 0.32145,-10.75 0.1768,5.9125 0.1768,15.5875 0,21.5 -0.17679,5.9125 -0.32145,1.075 -0.32145,-10.75 z m 666.99543,-45.5 c -8.9e-4,-11 0.14522,-15.6364 0.32467,-10.3032 0.17945,5.3332 0.18018,14.3332 0.002,20 -0.17857,5.6668 -0.3254,1.3032 -0.32628,-9.6968 z M 229.41508,2129 c 0,-10.175 0.1485,-14.3375 0.32999,-9.25 0.18149,5.0875 0.18149,13.4125 0,18.5 -0.18149,5.0875 -0.32999,0.925 -0.32999,-9.25 z m 669,-41 c 0,-10.175 0.1485,-14.3375 0.32999,-9.25 0.18149,5.0875 0.18149,13.4125 0,18.5 -0.18149,5.0875 -0.32999,0.925 -0.32999,-9.25 z m -669.99825,-25.5 c 9.6e-4,-10.45 0.14915,-14.5891 0.3293,-9.1981 0.18015,5.3911 0.17936,13.9411 -0.002,19 -0.18111,5.059 -0.32851,0.6481 -0.32755,-9.8019 z M 899.46408,1965 c 0,-27.775 0.12831,-39.1375 0.28513,-25.25 0.15682,13.8875 0.15682,36.6125 0,50.5 -0.15682,13.8875 -0.28513,2.525 -0.28513,-25.25 z m -671.01721,-90 c 0,-17.875 0.1356,-25.1875 0.30134,-16.25 0.16573,8.9375 0.16573,23.5625 0,32.5 -0.16574,8.9375 -0.30134,1.625 -0.30134,-16.25 z m 669.95307,-33.5 c 10e-4,-8.25 0.15629,-11.4919 0.34419,-7.2043 0.1879,4.2876 0.18676,11.0376 -0.003,15 -0.1893,3.9624 -0.34304,0.4543 -0.34164,-7.7957 z M 229.37817,1813 c 0,-6.325 0.16237,-8.9125 0.36082,-5.75 0.19845,3.1625 0.19845,8.3375 0,11.5 -0.19845,3.1625 -0.36082,0.575 -0.36082,-5.75 z m 668,-16 c 0,-6.325 0.16237,-8.9125 0.36082,-5.75 0.19845,3.1625 0.19845,8.3375 0,11.5 -0.19845,3.1625 -0.36082,0.575 -0.36082,-5.75 z M 224.116,1410.25 224,1408 h 18.47841 18.4784 l 0.30486,-19.0008 0.30486,-19.0007 -0.0333,19.2507 -0.0333,19.2508 -18.18097,0.2723 c -16.24791,0.2433 -18.22914,0.456 -18.634,2 -0.33381,1.2731 -0.48355,1.1356 -0.56903,-0.5223 z m 779.134,-246.989 c 3.1625,-0.1984 8.3375,-0.1984 11.5,0 3.1625,0.1985 0.575,0.3608 -5.75,0.3608 -6.325,0 -8.9125,-0.1623 -5.75,-0.3608 z m 16.9925,-111.9802 -0.2425,-65.21924 -12.25,-0.31456 -12.25,-0.31456 12.2814,-0.21622 c 9.0681,-0.15965 12.4064,0.11082 12.7591,1.03378 0.2628,0.6875 0.3578,30.275 0.2111,65.75 l -0.2666,64.5 z m -863.12419,-13.8641 c 0.0651,-4.9042 0.46924,-10.2667 0.89815,-11.9167 0.42891,-1.65 0.53854,2.175 0.24362,8.5 -0.29491,6.325 -0.69908,11.6875 -0.89814,11.9167 -0.19907,0.2291 -0.3087,-3.5959 -0.24363,-8.5 z m 811.57516,-8.3071 c -0.41031,-6.2647 -0.5535,-11.5829 -0.31819,-11.8182 0.61705,-0.6171 1.8989,17.7573 1.44542,20.719 -0.20966,1.3693 -0.71691,-2.6361 -1.12723,-8.9008 z M 106.37817,1000 c 0,-6.325 0.16237,-8.9125 0.36082,-5.75 0.19845,3.1625 0.19845,8.3375 0,11.5 -0.19845,3.1625 -0.36082,0.575 -0.36082,-5.75 z M 113.75,988.2596 c 3.4375,-0.19527 9.0625,-0.19527 12.5,0 3.4375,0.19527 0.625,0.35504 -6.25,0.35504 -6.875,0 -9.6875,-0.15977 -6.25,-0.35504 z"
         id="path2" />
    </g>
  </g>
</svg>
