<?xml version="1.0" encoding="UTF-8" standalone="no"?>
<!-- Generator: Adobe Illustrator 27.3.1, SVG Export Plug-In . SVG Version: 6.00 Build 0)  -->

<svg
   version="1.1"
   id="Discord.gg-_x40_marazm"
   x="0px"
   y="0px"
   viewBox="0 0 141.2 130.8"
   style="enable-background:new 0 0 141.2 130.8;"
   xml:space="preserve"
   sodipodi:docname="Factory_2f.svg"
   inkscape:version="1.4.3 (0d15f75, 2025-12-25)"
   xmlns:inkscape="http://www.inkscape.org/namespaces/inkscape"
   xmlns:sodipodi="http://sodipodi.sourceforge.net/DTD/sodipodi-0.dtd"
   xmlns="http://www.w3.org/2000/svg"
   xmlns:svg="http://www.w3.org/2000/svg"><defs
   id="defs22" /><sodipodi:namedview
   id="namedview22"
   pagecolor="#505050"
   bordercolor="#eeeeee"
   borderopacity="1"
   inkscape:showpageshadow="0"
   inkscape:pageopacity="0"
   inkscape:pagecheckerboard="0"
   inkscape:deskcolor="#505050"
   inkscape:zoom="45.254834"
   inkscape:cx="85.968717"
   inkscape:cy="25.113339"
   inkscape:window-width="1920"
   inkscape:window-height="1017"
   inkscape:window-x="-8"
   inkscape:window-y="-8"
   inkscape:window-maximized="1"
   inkscape:current-layer="Discord.gg-_x40_marazm" />
<style
   type="text/css"
   id="style1">
	.st0{fill:#363636;}
	.st1{fill:#777777;}
	.st2{fill:#987F00;}
	.st3{fill:none;stroke:#000000;stroke-width:0.2;}
</style>
<g
   id="Second_Floor">
	<g
   id="Floor-2">
		<path
   id="path1"
   class="st0"
   d="m 44.923828,33.583984 -0.002,0.002 v 0.002 c -0.0095,0.01317 -0.02542,0.04992 -0.03516,0.06445 0.01595,0.0342 0.02981,0.06656 0.04297,0.0957 0.007,-0.05985 0.009,-0.114898 0,-0.158203 l -0.002,-0.002 v -0.002 -0.002 h -0.002 z M 41.800781,45.96875 v 0.0078 c 0.0088,10e-4 0.01864,0.0012 0.02539,0 h 0.002 0.002 0.002 v -0.002 h 0.002 v -0.002 h 0.002 v -0.002 -0.002 c -0.01168,6.7e-5 -0.02342,3.8e-5 -0.03516,0 z" />
		
		
		<path
   id="path4"
   class="st0"
   d="m 75.5,18.599609 v 12.5 h -0.199219 v -6.5 H 72.099609 V 28.800781 31 h -0.0098 v 0.138672 0.166016 0.134765 0.138672 0.175781 0.173828 0.164063 0.144531 0.117188 0.154296 c -5.4e-4,0.0562 0.0066,0.112059 0.01172,0.167969 0.0031,0.04159 0.0059,0.08331 0.0098,0.125 h 0.08789 v 0.298828 h 3.201172 v -1 h 0.199218 v 1 h 22.5 v -1 h 0.201172 v 1 H 101.5 v -1.699218 h 0.0566 c -0.004,-0.01109 -0.008,-0.02223 -0.0117,-0.0332 -0.0328,-0.101387 -0.0283,-0.185389 -0.008,-0.248047 l -0.002,-0.002 v -0.002 -0.002 -0.002 -0.002 -0.002 -0.002 c -0.004,-0.03886 -0.007,-0.07817 -0.008,-0.117188 -6e-4,-0.0311 1.2e-4,-0.06264 0,-0.09375 -1.1e-4,-0.0368 1e-5,-0.07258 0,-0.109375 -2e-5,-0.03906 0,-0.07813 0,-0.117187 -0.002,-0.04299 0.004,-0.08618 0.008,-0.128907 0.003,-0.03292 0.003,-0.0666 0.004,-0.09961 0.002,-0.04435 -0.002,-0.08853 -0.004,-0.132812 -1.2e-4,-0.002 1.2e-4,-0.0039 0,-0.0059 H 101.5 V 24.5 h -3.199219 v 6.599609 h -0.201172 v -12.5 h -11.90039 v 2 h -2.59961 v -2 z m 8.199219,3.5 h 1.201172 v 0.201172 h -1 V 26.5 h 2.90039 V 22.300781 H 86 v -0.201172 h 2 1.900391 v 9 h -6.201172 z m 1.080078,2.197266 c 0.03778,-0.003 0.0759,8.18e-4 0.113281,0.0059 0.04518,0.0065 0.09068,0.01549 0.134766,0.02734 0.0316,0.0089 0.06063,0.02237 0.08984,0.03711 0.01863,0.0093 0.03532,0.02183 0.05273,0.0332 0.01001,0.0073 0.02081,0.01478 0.03125,0.02148 0.0079,0.0048 0.01554,0.0091 0.02344,0.01367 h 0.002 0.002 v 0.002 c 0.106741,0.04544 0.04984,0.157706 -0.05273,0.103516 -0.0037,-0.002 -0.0051,-0.0034 -0.0059,-0.0039 -6.24e-4,-4.09e-4 -0.0024,-0.0011 -0.0039,-0.002 -0.0086,-0.0058 -0.01884,-0.0095 -0.02734,-0.01563 -0.01075,-0.0069 -0.02101,-0.01388 -0.03125,-0.02148 -0.0138,-0.009 -0.02822,-0.01789 -0.04297,-0.02539 -0.02208,-0.0112 -0.04454,-0.0223 -0.06836,-0.0293 -0.03913,-0.01072 -0.07903,-0.01744 -0.119141,-0.02344 -0.02865,-0.004 -0.05696,-0.0077 -0.08594,-0.0059 -0.115785,0.0072 -0.127364,-0.107987 -0.01172,-0.117187 z m 0.673828,0.195313 c 0.0055,-4.39e-4 0.01208,-2.13e-4 0.01758,0 H 85.5 c 0.01003,0 0.01927,1e-6 0.0293,0 0.01126,0 0.0239,1e-6 0.03516,0 0.114333,0 0.116886,0.113896 0.0059,0.117187 5.52e-4,0.005 -6.5e-5,0.01013 0,0.01563 1.08e-4,0.0091 -2.08e-4,0.01824 0,0.02734 5.01e-4,0.0219 0.0015,0.04451 0.002,0.06641 5e-4,0.0377 2.39e-4,0.07563 -0.002,0.113281 -0.0032,0.05266 -0.0077,0.10406 -0.01562,0.15625 -0.0096,0.06326 -0.02034,0.12568 -0.03711,0.1875 -0.01389,0.05009 -0.03093,0.101015 -0.05664,0.146485 -0.02003,0.03568 -0.04165,0.06956 -0.06445,0.103515 -0.007,0.01088 -0.01468,0.02226 -0.02148,0.0332 -0.0026,0.0042 -0.0051,0.0076 -0.0078,0.01172 0.0018,-0.007 0.0037,-0.01457 0.0039,-0.01953 v -0.002 -0.002 h -0.002 v -0.002 -0.002 -0.002 -0.002 l -0.002,-0.002 v -0.002 l -0.002,-0.002 h -0.002 l -0.002,-0.002 h -0.002 l -0.002,-0.002 h -0.002 c -0.02469,-7.69e-4 -0.07248,0.02645 -0.09375,0.0293 h -0.002 -0.002 -0.002 l -0.002,-0.002 h -0.002 v -0.002 l -0.002,-0.002 v -0.002 c 5.6e-4,-0.0055 0.004,-0.01602 0.0098,-0.02734 0.01076,-0.02129 0.02429,-0.04048 0.03711,-0.06055 0.02121,-0.03216 0.04389,-0.06389 0.0625,-0.09766 0.02104,-0.03734 0.03365,-0.07802 0.04492,-0.119141 0.0155,-0.05736 0.0243,-0.117101 0.0332,-0.175781 0.0073,-0.04875 0.0126,-0.09729 0.01563,-0.146484 0.0019,-0.03467 0.0025,-0.0688 0.002,-0.103516 -5e-4,-0.02159 -0.0015,-0.04481 -0.002,-0.06641 -2.19e-4,-0.0095 1.13e-4,-0.01784 0,-0.02734 -6.4e-5,-0.0054 -4.16e-4,-0.01072 0,-0.01563 -0.0013,1.69e-4 -0.0026,-1.41e-4 -0.0039,0 -0.0099,0.001 -0.0194,0.0016 -0.0293,0.002 -0.115968,0.0042 -0.119846,-0.113187 -0.0039,-0.117187 0.0073,-3e-4 0.01428,-0.0012 0.02148,-0.002 0.0054,-5.59e-4 0.01016,-0.0015 0.01563,-0.002 z m 21.425785,0.873046 c -0.006,0.01892 -0.009,0.03312 -0.0117,0.04492 0.004,-0.0074 0.008,-0.01617 0.0117,-0.02344 -6e-5,-0.0053 1.1e-4,-0.01666 0,-0.02148 z m -21.697269,0.199219 c 0.02919,-0.0053 0.06491,0.01892 0.07422,0.07617 0.0023,0.01441 0.0075,0.02853 0.0098,0.04297 0.0022,0.01018 0.0036,0.02114 0.0059,0.03125 0.01276,0.0053 0.026,0.0094 0.03906,0.01367 0.02773,0.0097 0.05572,0.01924 0.08398,0.02734 0.06028,0.01718 0.07964,0.05747 0.06641,0.08594 3.65e-4,0.0068 -0.0015,0.01344 -0.0039,0.01953 -0.0011,0.0022 -0.0044,0.0077 -0.0059,0.0098 l -0.002,0.002 c -0.0029,0.0026 -0.0073,0.0059 -0.0098,0.0078 0.01207,0.0028 0.02505,0.0063 0.03711,0.0098 0.0056,0.0016 0.01208,0.0041 0.01758,0.0059 0.110019,0.03681 0.06687,0.140385 -0.04492,0.109375 -0.0873,-0.02421 -0.176235,-0.03869 -0.265625,-0.05273 -0.02053,-0.003 -0.04198,-0.0048 -0.0625,-0.0078 -0.107644,-0.01555 -0.09999,-0.120013 -0.0039,-0.11914 v -0.002 c -0.0948,-0.02436 -0.09379,-0.110085 -0.02344,-0.119141 h 0.002 0.002 c 0.0014,5.1e-5 0.0027,6.1e-5 0.0039,0 0.0064,-0.01562 0.0196,-0.0282 0.04102,-0.03125 -9.62e-4,-0.0046 -0.0011,-0.009 -0.002,-0.01367 -0.01079,-0.057 0.01182,-0.09039 0.04102,-0.0957 z m 17.005859,0.775391 c -5.3e-4,0.02854 -2e-4,0.0574 -0.002,0.08594 0.003,-0.01924 0.005,-0.03936 0.008,-0.05859 -0.002,-0.0094 -0.004,-0.01823 -0.006,-0.02734 z m 1.67773,2.074218 c 0.0295,0.01847 0.061,0.03252 0.082,0.03906 v -0.002 -0.002 -0.002 -0.002 c -0.0166,-0.0069 -0.0425,-0.01807 -0.082,-0.03125 z m -32.332027,1.542969 c 5.76e-4,0.0048 0.0014,0.0098 0.002,0.01367 h 0.002 c -8.9e-4,-0.0043 -0.0026,-0.0087 -0.0039,-0.01367 z m -0.0957,2.041016 c -0.0019,0.0069 -0.0039,0.01268 -0.0059,0.01953 -0.0026,0.0091 -0.0032,0.02001 -0.0039,0.03125 0.0017,0.0044 0.0025,0.0087 0.0039,0.01367 9.97e-4,-0.0093 0.0028,-0.01809 0.0039,-0.02734 6.64e-4,-0.0085 0.0013,-0.01685 0.002,-0.02539 2.95e-4,-0.0039 -2.92e-4,-0.0078 0,-0.01172 z" />
		
	</g>
	<g
   id="Obstacles-2">
		<path
   class="st1"
   d="M92.9,21.3V32h-0.8V21.3H92.9z"
   id="path6" />
		<path
   class="st1"
   d="M95.8,21v9.9H95V21H95.8z"
   id="path7" />
		<path
   class="st1"
   d="M98.1,21.8v8.6h-0.4v-8.6C97.7,21.8,98.1,21.8,98.1,21.8z"
   id="path8" />
		<path
   class="st1"
   d="M81.4,20.9v4.7h-0.6v-4.7H81.4z"
   id="path9" />
		<path
   class="st1"
   d="M81.4,28.2v4.7h-0.6v-4.7H81.4z"
   id="path10" />
		<path
   class="st1"
   d="M78.5,28.2v4.7H78v-4.7H78.5z"
   id="path11" />
		<path
   class="st1"
   d="M78.5,20.9v4.7H78v-4.7H78.5z"
   id="path12" />
		<path
   class="st1"
   d="M76,21.7v7.8h-0.4v-7.8H76z"
   id="path13" />
		<path
   class="st1"
   d="M83.7,24.7v1.7h-0.4v-1.7H83.7z"
   id="path14" />
	</g>
	<g
   id="Stairs-2">
		<g
   id="Stairs-2-down">
			
			
			
			
			
			
			
			
			
			
			
			<path
   id="path15"
   class="st2"
   d="m 84.599609,24.300781 c -0.2,0.2 -0.199218,0.599219 -0.199218,0.699219 0,0.1 -0.09961,0.499609 -0.09961,0.599609 0.1,0.1 0.09922,0.200782 0.199219,0.300782 0.1,0.1 0.09922,0.199218 0.199219,0.199218 0.2,0.1 0.30039,-0.09961 0.40039,-0.09961 0.02865,-0.01432 0.05055,-0.0307 0.06836,-0.04883 -0.01594,-0.002 -0.03119,-0.0036 -0.04687,-0.0059 -0.107644,-0.01555 -0.09999,-0.120013 -0.0039,-0.11914 h 0.002 v -0.002 h -0.002 c -0.0948,-0.02436 -0.09379,-0.110085 -0.02344,-0.119141 h 0.002 0.002 c 0.0014,5.1e-5 0.0027,6.1e-5 0.0039,0 0.0064,-0.01554 0.0197,-0.02817 0.04102,-0.03125 -9.49e-4,-0.0046 -0.0011,-0.0091 -0.002,-0.01367 -0.01079,-0.057 0.01182,-0.09039 0.04102,-0.0957 0.02919,-0.0053 0.06491,0.01892 0.07422,0.07617 0.0079,-0.04622 0.02096,-0.09269 0.04492,-0.140625 0.0072,-0.02156 0.01538,-0.0419 0.02344,-0.0625 -0.02276,0.0081 -0.04855,0.01962 -0.0625,0.02148 h -0.002 -0.002 -0.002 l -0.002,-0.002 h -0.002 v -0.002 l -0.002,-0.002 v -0.002 c 5.6e-4,-0.0055 0.004,-0.01602 0.0098,-0.02734 0.01076,-0.02129 0.02429,-0.04048 0.03711,-0.06055 0.02121,-0.03216 0.04389,-0.06389 0.0625,-0.09766 0.02104,-0.03734 0.03365,-0.07802 0.04492,-0.119141 0.0155,-0.05736 0.0243,-0.117101 0.0332,-0.175781 0.0073,-0.04875 0.0126,-0.09729 0.01563,-0.146484 0.0019,-0.03467 0.0025,-0.0688 0.002,-0.103516 -5e-4,-0.02159 -0.0015,-0.04481 -0.002,-0.06641 -2.19e-4,-0.0095 1.13e-4,-0.01784 0,-0.02734 -6.6e-5,-0.0055 -4.63e-4,-0.01059 0,-0.01563 -0.0014,1.91e-4 -0.0024,-1.57e-4 -0.0039,0 -0.0099,0.001 -0.0194,0.0016 -0.0293,0.002 -0.109266,0.0039 -0.119653,-0.09986 -0.02344,-0.115234 -0.03681,-0.002 -0.07602,-0.0061 -0.115234,-0.01367 0.0061,0.01471 0.0062,0.03064 0,0.04297 -0.0015,0.0024 -0.0059,0.0077 -0.0078,0.0098 -0.01856,0.0177 -0.05557,0.02615 -0.09766,0.0039 -0.0037,-0.002 -0.0051,-0.0034 -0.0059,-0.0039 -6.24e-4,-4.09e-4 -0.0024,-0.0011 -0.0039,-0.002 -0.0086,-0.0058 -0.01884,-0.0095 -0.02734,-0.01563 -0.01075,-0.0069 -0.02101,-0.01388 -0.03125,-0.02148 -0.0138,-0.009 -0.02822,-0.01789 -0.04297,-0.02539 -0.02208,-0.0112 -0.04454,-0.0223 -0.06836,-0.0293 -0.03913,-0.01072 -0.07903,-0.01744 -0.119141,-0.02344 -0.02865,-0.004 -0.05696,-0.0077 -0.08594,-0.0059 -0.0796,0.005 -0.108306,-0.05127 -0.08203,-0.08789 0.0021,-0.0024 0.0052,-0.0056 0.0078,-0.0078 -0.04871,-0.01072 -0.09,-0.01758 -0.117188,-0.01758 z" />
		</g>
		<g
   id="Stairs-2-up">
			<path
   id="stair-127"
   class="st2"
   d="M101.5,30.3V24h-3.2v6.4H101.5z M100,28.8h-0.2v-3.3h0.2V28.8z" />
			<path
   id="stair-128"
   class="st2"
   d="M75.4,30.3V24h-3.2v6.4H75.4z M73.8,28.8h-0.2v-3.3h0.2V28.8z" />
			
			
			
			
			<path
   id="stair-101"
   class="st2"
   d="m 119.40039,96.283203 c -0.17081,0.139491 -0.34246,0.277429 -0.51367,0.416016 h 0.51367 z" />
			
		</g>
	</g>
	<g
   id="Wall-2">
		
		
		<path
   class="st3"
   d="M85.3,23.3h1.4"
   id="path18" />
		<path
   class="st3"
   d="M85.3,24.4h1.4"
   id="path19" />
		<path
   class="st3"
   d="M85.3,25.6h1.4"
   id="path20" />
		<path
   class="st3"
   d="M86.2,20.6h3.7v-0.5"
   id="path21" />
		<path
   class="st3"
   d="M89.9,19.1v-0.5"
   id="path22" />
	</g>
</g>
<path
   id="path5"
   style="fill:#363636;fill-opacity:1;stroke-width:0.0200613"
   d="m 84.619141,24.304688 -0.05664,0.06445 c -0.07585,0.08872 -0.132714,0.286717 -0.146484,0.505859 -0.0063,0.100047 -0.03488,0.302318 -0.0625,0.449219 -0.04449,0.23663 -0.04578,0.270811 -0.01953,0.300781 0.0163,0.0186 0.04371,0.06065 0.06055,0.09375 0.06012,0.118198 0.237916,0.341484 0.291016,0.365234 0.08752,0.03914 0.187605,0.03154 0.265625,-0.02148 0.03909,-0.02657 0.104711,-0.06344 0.144531,-0.08008 0.0243,-0.01015 0.04279,-0.01996 0.05859,-0.0332 -0.01111,-0.0013 -0.02234,-0.0023 -0.0332,-0.0039 -0.107644,-0.01555 -0.09999,-0.120013 -0.0039,-0.11914 h 0.002 v -0.002 h -0.002 c -0.0948,-0.02436 -0.09379,-0.110085 -0.02344,-0.119141 h 0.002 0.002 c 0.0014,5.1e-5 0.0027,6.1e-5 0.0039,0 0.0064,-0.01557 0.01968,-0.02817 0.04102,-0.03125 -9.53e-4,-0.0046 -0.0011,-0.0091 -0.002,-0.01367 -0.01079,-0.057 0.01182,-0.09039 0.04102,-0.0957 0.0277,-0.005 0.06095,0.01723 0.07227,0.06836 0.01389,-0.05835 0.03426,-0.120769 0.0625,-0.193359 -0.0206,0.0079 -0.04228,0.01787 -0.05469,0.01953 h -0.002 -0.002 -0.002 l -0.002,-0.002 h -0.002 v -0.002 l -0.002,-0.002 v -0.002 c 5.6e-4,-0.0055 0.004,-0.01602 0.0098,-0.02734 0.01076,-0.02129 0.02429,-0.04048 0.03711,-0.06055 0.02121,-0.03216 0.04389,-0.06389 0.0625,-0.09766 0.02104,-0.03734 0.03365,-0.07802 0.04492,-0.119141 0.0155,-0.05736 0.0243,-0.117101 0.0332,-0.175781 0.0073,-0.04875 0.0126,-0.09729 0.01563,-0.146484 0.0019,-0.03467 0.0025,-0.0688 0.002,-0.103516 -5e-4,-0.02159 -0.0015,-0.04481 -0.002,-0.06641 -2.19e-4,-0.0095 1.13e-4,-0.01784 0,-0.02734 -6.6e-5,-0.0056 -4.67e-4,-0.01057 0,-0.01563 -0.0014,1.91e-4 -0.0024,-1.58e-4 -0.0039,0 -0.0099,0.001 -0.0194,0.0016 -0.0293,0.002 -0.101534,0.0037 -0.116515,-0.0863 -0.04102,-0.111328 -0.03102,-0.0028 -0.06427,-0.0075 -0.0957,-0.01367 0.0049,0.01436 0.0027,0.02926 -0.0039,0.04102 -0.0015,0.0022 -0.0059,0.0078 -0.0078,0.0098 -0.01886,0.01669 -0.05464,0.0236 -0.0957,0.002 -0.0037,-0.002 -0.0051,-0.0034 -0.0059,-0.0039 -6.24e-4,-4.09e-4 -0.0024,-0.0011 -0.0039,-0.002 -0.0086,-0.0058 -0.01884,-0.0095 -0.02734,-0.01563 -0.01075,-0.0069 -0.02101,-0.01388 -0.03125,-0.02148 -0.0138,-0.009 -0.02822,-0.01789 -0.04297,-0.02539 -0.02208,-0.0112 -0.04454,-0.0223 -0.06836,-0.0293 -0.03913,-0.01072 -0.07903,-0.01744 -0.119141,-0.02344 -0.02865,-0.004 -0.05696,-0.0077 -0.08594,-0.0059 -0.05304,0.0033 -0.08468,-0.02243 -0.0918,-0.04883 -0.002,-0.01091 -3.82e-4,-0.02299 0.0059,-0.0332 l 0.002,-0.002 v -0.002 c 0.0012,-0.0012 0.0034,-0.0014 0.0039,-0.002 z" /><path
   style="fill:#363636;fill-opacity:1"
   d="m 84.195312,25.320312 c 0.06178,0.01603 0.120299,0.0358 0.183594,0.04687 0.06998,0.01225 0.08542,0.01371 0.15625,0.01563 0.03905,0.0011 0.07813,0 0.117188,0 0.0078,0 0.02591,0.0074 0.02344,0 -0.0052,-0.01568 -0.09139,-0.02145 -0.105469,-0.01953 -0.01596,0.0022 -0.03247,0.0045 -0.04687,0.01172 -0.07036,0.03518 -0.134571,0.15139 -0.113281,0.230469 0.01755,0.06517 0.100961,0.136897 0.152344,0.175781 0.03054,0.02311 0.06311,0.04343 0.09375,0.06641 0.0059,0.0044 0.01563,0.0083 0.01563,0.01563 0,0.0054 -0.01031,0.0031 -0.01563,0.0039 -0.01295,0.0019 -0.02598,0.0039 -0.03906,0.0039 -0.05479,0 -0.118928,-0.0096 -0.171875,-0.01563 -0.04841,-0.0055 -0.157928,-0.0173 -0.207031,-0.02344 -0.002,-2.5e-4 -0.0679,-2.67e-4 -0.07422,-0.02344 -0.0063,-0.02297 0.03638,-0.05952 0.04297,-0.06641 0.08535,-0.08922 0.207063,-0.19037 0.222656,-0.320312 0.0022,-0.01869 0.0044,-0.05415 -0.01172,-0.07031"
   id="path16" /><path
   id="path17"
   style="fill:#363636;fill-opacity:1"
   d="m 84.472656,25.761719 v 0.002 h -0.002 c -3.44e-4,9.09e-4 2.13e-4,0.0049 0,0.0059 -4.75e-4,0.004 -0.0015,0.01163 -0.002,0.01563 -0.01075,0.05017 -0.0134,0.09725 -0.01563,0.148438 -0.0023,0.05316 -0.01891,0.139657 0.01953,0.183594 0.001,0.0011 0.0047,0.0048 0.0059,0.0059 0.03198,0.02589 0.09944,0.0319 0.146484,0.03711 l -0.08203,-0.03906 1.09375,-0.02734 c -0.01563,-0.0026 -0.03171,-0.0033 -0.04687,-0.0078 -0.04539,-0.01362 -0.0897,-0.0542 -0.132813,-0.07422 -0.0076,-0.0035 -0.01539,-0.0065 -0.02344,-0.0098 -0.08225,-0.0217 -0.165962,-0.03563 -0.25,-0.04883 -0.02053,-0.003 -0.04198,-0.0048 -0.0625,-0.0078 -0.06516,-0.0094 -0.08759,-0.05054 -0.07422,-0.08203 -0.03349,-0.0095 -0.06767,-0.01913 -0.101563,-0.02734 -0.08374,-0.0203 -0.168387,-0.04289 -0.253906,-0.05469 -0.04151,-0.0057 -0.08339,-0.0054 -0.125,-0.0078 -0.02483,-0.0015 -0.04942,-0.0059 -0.07422,-0.0078 h -0.002 -0.002 -0.002 c -9.89e-4,9.4e-5 -0.0029,3.3e-5 -0.0039,0 h -0.002 -0.002 v -0.002 l -0.002,-0.002 h -0.002 z m 0.152344,0.398437 0.191406,0.09375 0.242188,-0.03906 c -0.135086,-0.0193 -0.271196,-0.03092 -0.40625,-0.05078 -0.0065,-9.6e-4 -0.01886,-0.003 -0.02734,-0.0039 z" /><path
   style="fill:#363636;fill-opacity:1"
   d="m 84.621094,25.617187 0.410156,0.363282"
   id="path23" /><path
   style="fill:#363636;fill-opacity:1"
   d="m 84.714844,26.253906 c -0.02083,0.0052 -0.02083,0.0052 0,0 z"
   id="path24" /><path
   style="fill:#363636;fill-opacity:1"
   d="m 84.996094,26.273437 c -0.0026,-0.0078 -0.0031,-0.01665 -0.0078,-0.02344 -0.0099,-0.01443 -0.02327,-0.02619 -0.03516,-0.03906 -0.0594,-0.06435 -0.05907,-0.06457 -0.125,-0.125 -0.06812,-0.06244 -0.133121,-0.119931 -0.214844,-0.164062 -0.06475,-0.03496 -0.111473,-0.06285 -0.179687,-0.07422"
   id="path25" /><path
   style="fill:#363636;fill-opacity:1"
   d="m 84.613281,26.042969 -0.304687,-0.3125"
   id="path26" /><path
   style="fill:#363636;fill-opacity:1"
   d="M 85.027344,25.953125 84.257812,24.398437"
   id="path27" /><path
   style="fill:#363636;fill-opacity:1"
   d="m 84.125,24.742187 0.804687,0.371094"
   id="path28" /><path
   style="fill:#363636;fill-opacity:1"
   d="m 84.875,25.171875 -0.734375,-0.140625 0.152344,0.765625"
   id="path29" /><path
   id="path30"
   style="fill:#363636;fill-opacity:1"
   d="m 84.144531,24.109375 0.851563,1.148437 -0.390625,-0.566406 0.242187,-0.27539 c -0.01881,-0.0021 -0.03754,-0.0031 -0.05664,-0.002 -0.115785,0.0072 -0.127365,-0.107987 -0.01172,-0.117187 0.03778,-0.003 0.0759,8.59e-4 0.113281,0.0059 0.0151,0.0022 0.02981,0.007 0.04492,0.0098 l 0.144531,-0.164062 z" /><path
   style="fill:#363636;fill-opacity:1"
   d="m 85.152344,24.757812 -1.035157,-0.25"
   id="path31" /><path
   style="fill:#363636;fill-opacity:1"
   d="m 84.289062,24.324219 -0.08203,1.179687 0.656249,0.01563"
   id="path32" /><path
   style="fill:#363636;fill-opacity:1"
   d="m 84.730469,24.113281 -0.65625,0.882813 0.59375,0.28125"
   id="path33" /><path
   style="fill:#363636;fill-opacity:1"
   d="m 85.070312,24.882812 -0.609375,1.375"
   id="path34" /><path
   style="fill:#363636;fill-opacity:1"
   d="M 85.015625,26.371094 84.585937,25.941406"
   id="path35" /><path
   style="fill:#363636;fill-opacity:1"
   d="m 85.117187,26.035156 -0.726562,0.101563 0.128906,0.1875"
   id="path36" /><path
   style="fill:#363636;fill-opacity:1"
   d="m 85.265625,26.292969 -0.04297,-0.703125"
   id="path37" /><path
   style="fill:#363636;fill-opacity:1"
   d="m 84.910156,25.613281 0.570313,-0.640625"
   id="path38" /><path
   id="path39"
   style="fill:#363636;fill-opacity:1;stroke-width:0.00390625"
   d="m 83.900391,22.724609 v 1.886719 1.886719 h 1.449218 1.449219 v -1.886719 -1.886719 h -1.449219 z m 1.398437,0.472657 H 86 86.701172 v 0.101562 0.101563 H 86 85.298828 v -0.101563 z m -0.519531,1.099609 c 0.03778,-0.003 0.0759,8.18e-4 0.113281,0.0059 0.04518,0.0065 0.09068,0.01549 0.134766,0.02734 0.0316,0.0089 0.06063,0.02237 0.08984,0.03711 0.01863,0.0093 0.03532,0.02183 0.05273,0.0332 0.01001,0.0073 0.02081,0.01478 0.03125,0.02148 0.0079,0.0048 0.01554,0.0091 0.02344,0.01367 h 0.002 0.002 v 0.002 c 0.02764,0.01176 0.04499,0.02825 0.05273,0.04492 l 0.01758,0.002 v -0.0918 -0.09375 H 86 86.701172 v 0.101563 0.101562 h -0.587891 -0.498047 c 0.06015,0.02774 0.04591,0.104683 -0.04492,0.107422 6.13e-4,0.0051 -6.6e-5,0.01 0,0.01563 1.08e-4,0.0091 -2.06e-4,0.01824 0,0.02734 5.01e-4,0.0219 0.0015,0.04451 0.002,0.06641 5e-4,0.0377 2.38e-4,0.07563 -0.002,0.113281 -0.0032,0.05266 -0.0077,0.10406 -0.01562,0.15625 -0.0096,0.06326 -0.02034,0.12568 -0.03711,0.1875 -0.01389,0.05009 -0.03093,0.101015 -0.05664,0.146485 -0.02003,0.03568 -0.04165,0.06956 -0.06445,0.103515 -0.007,0.01088 -0.01468,0.02226 -0.02148,0.0332 -0.0026,0.0042 -0.0051,0.0076 -0.0078,0.01172 0.0018,-0.007 0.0037,-0.01457 0.0039,-0.01953 v -0.002 -0.002 h -0.002 v -0.002 -0.002 -0.002 -0.002 l -0.002,-0.002 v -0.002 l -0.002,-0.002 h -0.002 l -0.002,-0.002 h -0.002 l -0.002,-0.002 h -0.002 c -0.0078,-2.44e-4 -0.01838,0.0021 -0.0293,0.0059 -0.0027,0.007 -0.0051,0.01422 -0.0078,0.02148 l -0.01563,0.03906 0.699219,0.002 h 0.699219 v 0.101562 0.101563 H 86 85.298828 v -0.0957 l -0.002,-0.0957 -0.01172,0.02734 c -0.01102,0.0283 -0.01953,0.06449 -0.02734,0.113282 0.0026,0.01103 0.006,0.02208 0.0078,0.0332 0.0022,0.0103 0.0036,0.02102 0.0059,0.03125 0.01266,0.0051 0.0259,0.0093 0.03906,0.01367 0.02773,0.0097 0.05572,0.01924 0.08398,0.02734 0.06034,0.0172 0.07973,0.05746 0.06641,0.08594 3.6e-4,0.0068 -0.0015,0.01345 -0.0039,0.01953 -0.0011,0.0022 -0.0044,0.0077 -0.0059,0.0098 l -0.002,0.002 c -0.0029,0.0026 -0.0073,0.0059 -0.0098,0.0078 0.01205,0.0028 0.02507,0.0064 0.03711,0.0098 0.0056,0.0016 0.01208,0.0041 0.01758,0.0059 0.110019,0.03681 0.06687,0.140385 -0.04492,0.109375 -0.0873,-0.02421 -0.176235,-0.03869 -0.265625,-0.05273 -0.02053,-0.003 -0.04198,-0.0048 -0.0625,-0.0078 -0.107644,-0.01555 -0.09999,-0.120013 -0.0039,-0.11914 v -0.002 c -0.0948,-0.02436 -0.09379,-0.110085 -0.02344,-0.119141 h 0.002 0.002 0.002 c 0.0064,-0.01571 0.0214,-0.02821 0.04297,-0.03125 -9.66e-4,-0.0046 -0.0011,-0.009 -0.002,-0.01367 -0.01079,-0.057 0.01182,-0.09039 0.04102,-0.0957 0.02693,-0.0049 0.06009,0.01438 0.07227,0.0625 0.01444,-0.0616 0.03209,-0.116977 0.05859,-0.185547 -0.01934,0.0076 -0.03917,0.01603 -0.05078,0.01758 h -0.002 -0.002 -0.002 l -0.002,-0.002 h -0.002 v -0.002 l -0.002,-0.002 v -0.002 c 5.6e-4,-0.0055 0.004,-0.01602 0.0098,-0.02734 0.01076,-0.02129 0.02429,-0.04048 0.03711,-0.06055 0.02121,-0.03216 0.04389,-0.06389 0.0625,-0.09766 0.02104,-0.03734 0.03365,-0.07802 0.04492,-0.119141 0.0155,-0.05736 0.0243,-0.117101 0.0332,-0.175781 0.0073,-0.04875 0.0126,-0.09729 0.01563,-0.146484 0.0019,-0.03467 0.0025,-0.0688 0.002,-0.103516 -5e-4,-0.02159 -0.0015,-0.04481 -0.002,-0.06641 -2.19e-4,-0.0095 1.13e-4,-0.01784 0,-0.02734 -6.7e-5,-0.0056 -4.77e-4,-0.01053 0,-0.01563 -0.0014,1.88e-4 -0.0024,-1.55e-4 -0.0039,0 -0.0099,0.001 -0.0194,0.0016 -0.0293,0.002 -0.100385,0.0036 -0.11753,-0.08321 -0.04492,-0.109375 -0.03446,-0.0037 -0.06427,-0.0085 -0.0918,-0.01367 0.0048,0.01558 0.0027,0.03098 -0.0059,0.04297 -8.73e-4,0.001 -0.0049,0.0049 -0.0059,0.0059 -0.01899,0.01616 -0.05519,0.02331 -0.0957,0.002 -0.0037,-0.002 -0.0071,-0.0034 -0.0078,-0.0039 l -0.002,-0.002 c -0.0086,-0.0058 -0.01884,-0.0095 -0.02734,-0.01563 -0.01075,-0.0069 -0.02101,-0.01388 -0.03125,-0.02148 -0.0138,-0.009 -0.02822,-0.01789 -0.04297,-0.02539 -0.02208,-0.0112 -0.04454,-0.0223 -0.06836,-0.0293 -0.03913,-0.01072 -0.07903,-0.01744 -0.119141,-0.02344 -0.02865,-0.004 -0.05696,-0.0077 -0.08594,-0.0059 -0.115785,0.0072 -0.127364,-0.107987 -0.01172,-0.117187 z" /><path
   style="fill:#363636;fill-opacity:1;stroke-width:0.00390625"
   d=""
   id="path40" /><path
   id="path42"
   style="fill:#363636;fill-opacity:1;stroke-width:0.00390625"
   d="m 83.900391,22.724609 v 1.886719 1.886719 h 1.449218 1.449219 v -1.886719 -1.886719 h -1.449219 z m 1.398437,0.472657 H 86 86.701172 v 0.101562 0.101563 H 86 85.298828 v -0.101563 z m -0.519531,1.099609 c 0.03778,-0.003 0.0759,8.18e-4 0.113281,0.0059 0.04518,0.0065 0.09068,0.01549 0.134766,0.02734 0.0316,0.0089 0.06063,0.02237 0.08984,0.03711 0.01863,0.0093 0.03532,0.02183 0.05273,0.0332 0.01001,0.0073 0.02081,0.01478 0.03125,0.02148 0.0079,0.0048 0.01554,0.0091 0.02344,0.01367 h 0.002 0.002 v 0.002 c 0.02746,0.01169 0.04493,0.02836 0.05273,0.04492 l 0.01758,0.002 v -0.0918 -0.09375 H 86 86.701172 v 0.101563 0.101562 h -0.587891 -0.498047 c 0.06017,0.02775 0.04598,0.104728 -0.04492,0.107422 5.7e-4,0.005 -6.6e-5,0.01004 0,0.01563 1.08e-4,0.0091 -2.06e-4,0.01824 0,0.02734 5.01e-4,0.0219 0.0015,0.04451 0.002,0.06641 5e-4,0.0377 2.38e-4,0.07563 -0.002,0.113281 -0.0032,0.05266 -0.0077,0.10406 -0.01562,0.15625 -0.0096,0.06326 -0.02034,0.12568 -0.03711,0.1875 -0.01389,0.05009 -0.03093,0.101015 -0.05664,0.146485 -0.02003,0.03568 -0.04165,0.06956 -0.06445,0.103515 -0.007,0.01088 -0.01468,0.02226 -0.02148,0.0332 -0.0026,0.0042 -0.0051,0.0076 -0.0078,0.01172 0.0018,-0.007 0.0037,-0.01457 0.0039,-0.01953 v -0.002 -0.002 h -0.002 v -0.002 -0.002 -0.002 -0.002 l -0.002,-0.002 v -0.002 l -0.002,-0.002 h -0.002 l -0.002,-0.002 h -0.002 l -0.002,-0.002 h -0.002 c -0.0081,-2.52e-4 -0.01801,0.002 -0.0293,0.0059 -0.0054,0.01348 -0.01044,0.02566 -0.01367,0.03516 l -0.0098,0.02734 h 0.699219 0.699219 v 0.101562 0.101563 H 86 85.298828 v -0.0957 c -7.5e-5,-0.04685 -2.88e-4,-0.07769 -0.002,-0.08789 v -0.002 l -0.002,-0.002 c -0.0032,0.0055 -0.01113,0.02109 -0.01758,0.04102 0.0109,-0.03624 0.02037,-0.07039 0.03711,-0.113282 -0.0198,0.0077 -0.04084,0.01599 -0.05273,0.01758 h -0.002 -0.002 -0.002 l -0.002,-0.002 h -0.002 v -0.002 l -0.002,-0.002 v -0.002 c 5.6e-4,-0.0055 0.004,-0.01602 0.0098,-0.02734 0.01076,-0.02129 0.02429,-0.04048 0.03711,-0.06055 0.02121,-0.03216 0.04389,-0.06389 0.0625,-0.09766 0.02104,-0.03734 0.03365,-0.07802 0.04492,-0.119141 0.0155,-0.05736 0.0243,-0.117101 0.0332,-0.175781 0.0073,-0.04875 0.0126,-0.09729 0.01563,-0.146484 0.0019,-0.03467 0.0025,-0.0688 0.002,-0.103516 -5e-4,-0.02159 -0.0015,-0.04481 -0.002,-0.06641 -2.19e-4,-0.0095 1.13e-4,-0.01784 0,-0.02734 -6.5e-5,-0.0055 -4.52e-4,-0.01064 0,-0.01563 -0.0014,1.84e-4 -0.0025,-1.52e-4 -0.0039,0 -0.0099,0.001 -0.0194,0.0016 -0.0293,0.002 -0.101466,0.0037 -0.116343,-0.08623 -0.04102,-0.111328 -0.03616,-0.0042 -0.06771,-0.0082 -0.0957,-0.01367 0.0051,0.01569 0.0026,0.03276 -0.0059,0.04492 -8.66e-4,0.001 -0.0049,0.0049 -0.0059,0.0059 -0.01893,0.01642 -0.05492,0.02345 -0.0957,0.002 -0.0037,-0.002 -0.0071,-0.0034 -0.0078,-0.0039 l -0.002,-0.002 c -0.0086,-0.0058 -0.01884,-0.0095 -0.02734,-0.01563 -0.01075,-0.0069 -0.02101,-0.01388 -0.03125,-0.02148 -0.0138,-0.009 -0.02822,-0.01789 -0.04297,-0.02539 -0.02208,-0.0112 -0.04454,-0.0223 -0.06836,-0.0293 -0.03913,-0.01072 -0.07903,-0.01744 -0.119141,-0.02344 -0.02865,-0.004 -0.05696,-0.0077 -0.08594,-0.0059 -0.115785,0.0072 -0.127364,-0.107987 -0.01172,-0.117187 z m 0.402344,1.267578 c 0.02702,-0.0049 0.06018,0.01597 0.07227,0.06445 0.0051,-0.02152 0.01464,-0.04363 0.02148,-0.06445 -0.0059,0.01973 -0.01094,0.04129 -0.01367,0.05469 -0.0012,0.0058 -0.0022,0.01649 -0.0039,0.0293 0.0026,0.01193 0.0059,0.02313 0.0078,0.03516 0.0022,0.01025 0.0036,0.02106 0.0059,0.03125 0.01266,0.0051 0.02589,0.0093 0.03906,0.01367 0.02773,0.0097 0.05572,0.01924 0.08398,0.02734 0.05954,0.01697 0.07871,0.0556 0.06641,0.08398 4.33e-4,0.0057 -1.72e-4,0.01232 -0.002,0.01758 -0.0014,0.0035 -0.0056,0.01057 -0.0078,0.01367 -0.0019,0.0023 -0.0071,0.0074 -0.0098,0.0098 0.01198,0.0028 0.02318,0.0064 0.03516,0.0098 0.0056,0.0016 0.01208,0.0041 0.01758,0.0059 0.110019,0.03681 0.06687,0.140385 -0.04492,0.109375 -0.0873,-0.02421 -0.176235,-0.03869 -0.265625,-0.05273 -0.02053,-0.003 -0.04198,-0.0048 -0.0625,-0.0078 -0.107644,-0.01555 -0.09999,-0.120013 -0.0039,-0.11914 v -0.002 c -0.0948,-0.02436 -0.09379,-0.110085 -0.02344,-0.119141 h 0.002 0.002 c 0.0014,5.2e-5 0.0027,6e-5 0.0039,0 0.0064,-0.01562 0.01958,-0.02821 0.04102,-0.03125 -9.53e-4,-0.0046 -0.0011,-0.0091 -0.002,-0.01367 -0.01079,-0.057 0.01182,-0.09039 0.04102,-0.0957 z" /><path
   id="path45"
   style="fill:#363636;fill-opacity:1;stroke-width:0.00390625"
   d="m 83.900391,22.724609 v 1.886719 1.886719 h 1.449218 1.449219 v -1.886719 -1.886719 h -1.449219 z m 1.398437,0.472657 H 86 86.701172 v 0.101562 0.101563 H 86 85.298828 v -0.101563 z m -0.519531,1.099609 c 0.03778,-0.003 0.0759,8.18e-4 0.113281,0.0059 0.04518,0.0065 0.09068,0.01549 0.134766,0.02734 0.0316,0.0089 0.06063,0.02237 0.08984,0.03711 0.01863,0.0093 0.03532,0.02183 0.05273,0.0332 0.01001,0.0073 0.02081,0.01478 0.03125,0.02148 0.0079,0.0048 0.01554,0.0091 0.02344,0.01367 h 0.002 0.002 v 0.002 c 0.02774,0.01181 0.04503,0.02818 0.05273,0.04492 h 0.002 l 0.002,0.002 h 0.002 l 0.01172,0.002 v -0.09375 -0.09375 H 86 86.701172 v 0.101563 0.101562 h -0.587891 -0.498047 c 0.06004,0.02779 0.04593,0.104732 -0.04492,0.107422 5.73e-4,0.0051 -6.6e-5,0.01002 0,0.01563 1.08e-4,0.0091 -2.06e-4,0.01824 0,0.02734 5.01e-4,0.0219 0.0015,0.04451 0.002,0.06641 5e-4,0.0377 2.38e-4,0.07563 -0.002,0.113281 -0.0032,0.05266 -0.0077,0.10406 -0.01562,0.15625 -0.0096,0.06326 -0.02034,0.12568 -0.03711,0.1875 -0.01389,0.05009 -0.03093,0.101015 -0.05664,0.146485 -0.02003,0.03568 -0.04165,0.06956 -0.06445,0.103515 -0.007,0.01088 -0.01468,0.02226 -0.02148,0.0332 -0.0026,0.0042 -0.0051,0.0076 -0.0078,0.01172 0.0018,-0.007 0.0037,-0.01457 0.0039,-0.01953 v -0.002 -0.002 h -0.002 v -0.002 -0.002 -0.002 -0.002 l -0.002,-0.002 v -0.002 l -0.002,-0.002 h -0.002 l -0.002,-0.002 h -0.002 l -0.002,-0.002 h -0.002 c -0.0079,-2.48e-4 -0.01827,0.0021 -0.0293,0.0059 -0.0019,0.005 -0.0039,0.01037 -0.0059,0.01563 -0.0094,0.02462 -0.01758,0.0443 -0.01758,0.04492 0,5.87e-4 0.314649,0.002 0.699219,0.002 h 0.699219 v 0.101562 0.101563 H 86 85.298828 v -0.0957 c -7.5e-5,-0.04685 -2.88e-4,-0.07769 -0.002,-0.08789 v -0.002 l -0.002,-0.002 c -0.0032,0.0056 -0.0092,0.02145 -0.01563,0.04102 0.01063,-0.03641 0.01788,-0.07137 0.03516,-0.115235 -0.02016,0.0078 -0.04062,0.01791 -0.05273,0.01953 h -0.002 -0.002 -0.002 l -0.002,-0.002 h -0.002 v -0.002 l -0.002,-0.002 v -0.002 c 5.6e-4,-0.0055 0.004,-0.01602 0.0098,-0.02734 0.01076,-0.02129 0.02429,-0.04048 0.03711,-0.06055 0.02121,-0.03216 0.04389,-0.06389 0.0625,-0.09766 0.02104,-0.03734 0.03365,-0.07802 0.04492,-0.119141 0.0155,-0.05736 0.0243,-0.117101 0.0332,-0.175781 0.0073,-0.04875 0.0126,-0.09729 0.01563,-0.146484 0.0019,-0.03467 0.0025,-0.0688 0.002,-0.103516 -5e-4,-0.02159 -0.0015,-0.04481 -0.002,-0.06641 -2.19e-4,-0.0095 1.13e-4,-0.01784 0,-0.02734 -6.6e-5,-0.0055 -4.59e-4,-0.01061 0,-0.01563 -0.0014,1.87e-4 -0.0024,-1.54e-4 -0.0039,0 -0.0099,0.001 -0.0194,0.0016 -0.0293,0.002 -0.101374,0.0037 -0.118064,-0.08614 -0.04297,-0.111328 -0.03591,-0.0042 -0.06562,-0.0081 -0.09375,-0.01367 0.0048,0.01433 0.0027,0.02932 -0.0039,0.04102 -0.0015,0.0022 -0.0059,0.0078 -0.0078,0.0098 -0.01888,0.01659 -0.05475,0.02354 -0.0957,0.002 -0.0037,-0.002 -0.0071,-0.0034 -0.0078,-0.0039 l -0.002,-0.002 c -0.0086,-0.0058 -0.01884,-0.0095 -0.02734,-0.01563 -0.01075,-0.0069 -0.02101,-0.01388 -0.03125,-0.02148 -0.0138,-0.009 -0.02822,-0.01789 -0.04297,-0.02539 -0.02208,-0.0112 -0.04454,-0.0223 -0.06836,-0.0293 -0.03913,-0.01072 -0.07903,-0.01744 -0.119141,-0.02344 -0.02865,-0.004 -0.05696,-0.0077 -0.08594,-0.0059 -0.115785,0.0072 -0.127364,-0.107987 -0.01172,-0.117187 z m 0.402344,1.267578 c 0.0271,-0.0049 0.06027,0.01567 0.07227,0.06445 0.0048,-0.02016 0.0148,-0.04246 0.02148,-0.0625 -0.0056,0.01892 -0.01107,0.03998 -0.01367,0.05273 -0.0012,0.0058 -0.0022,0.01649 -0.0039,0.0293 0.0026,0.01188 0.0059,0.02319 0.0078,0.03516 0.0022,0.01028 0.0036,0.02104 0.0059,0.03125 0.01264,0.0051 0.02585,0.0093 0.03906,0.01367 0.02773,0.0097 0.05572,0.01924 0.08398,0.02734 0.05953,0.01697 0.0787,0.0556 0.06641,0.08398 4.48e-4,0.0057 -1.57e-4,0.01228 -0.002,0.01758 -0.0014,0.0035 -0.0056,0.01057 -0.0078,0.01367 -0.0019,0.0023 -0.0071,0.0074 -0.0098,0.0098 0.012,0.0028 0.02316,0.0064 0.03516,0.0098 0.0056,0.0016 0.01208,0.0041 0.01758,0.0059 0.110019,0.03681 0.06687,0.140385 -0.04492,0.109375 -0.0873,-0.02421 -0.176235,-0.03869 -0.265625,-0.05273 -0.02053,-0.003 -0.04198,-0.0048 -0.0625,-0.0078 -0.107644,-0.01555 -0.09999,-0.120013 -0.0039,-0.11914 v -0.002 c -0.0948,-0.02436 -0.09379,-0.110085 -0.02344,-0.119141 h 0.002 0.002 0.002 c 0.0064,-0.01565 0.02146,-0.0282 0.04297,-0.03125 -9.56e-4,-0.0046 -0.0011,-0.009 -0.002,-0.01367 -0.01079,-0.057 0.01182,-0.09039 0.04102,-0.0957 z" /><path
   id="path46"
   style="fill:#363636;fill-opacity:1;stroke-width:0.00390625"
   d="m 83.900391,22.724609 v 1.886719 1.886719 h 1.449218 1.449219 v -1.886719 -1.886719 h -1.449219 z m 1.398437,0.472657 H 86 86.701172 v 0.101562 0.101563 H 86 85.298828 v -0.101563 z m -0.519531,1.099609 c 0.03778,-0.003 0.0759,8.18e-4 0.113281,0.0059 0.04518,0.0065 0.09068,0.01549 0.134766,0.02734 0.0316,0.0089 0.06063,0.02237 0.08984,0.03711 0.01863,0.0093 0.03532,0.02183 0.05273,0.0332 0.01001,0.0073 0.02081,0.01478 0.03125,0.02148 0.0079,0.0048 0.01554,0.0091 0.02344,0.01367 h 0.002 0.002 v 0.002 c 0.02736,0.01165 0.04489,0.02842 0.05273,0.04492 0.0027,6.32e-4 0.005,0.0013 0.0078,0.002 l 0.0098,0.002 v -0.09375 -0.09375 H 86 86.701172 v 0.101563 0.101562 h -0.587891 -0.498047 c 0.06004,0.02779 0.04594,0.104739 -0.04492,0.107422 5.52e-4,0.005 -6.6e-5,0.01005 0,0.01563 1.08e-4,0.0091 -2.06e-4,0.01824 0,0.02734 5.01e-4,0.0219 0.0015,0.04451 0.002,0.06641 5e-4,0.0377 2.38e-4,0.07563 -0.002,0.113281 -0.0032,0.05266 -0.0077,0.10406 -0.01562,0.15625 -0.0096,0.06326 -0.02034,0.12568 -0.03711,0.1875 -0.01389,0.05009 -0.03093,0.101015 -0.05664,0.146485 -0.02003,0.03568 -0.04165,0.06956 -0.06445,0.103515 -0.007,0.01088 -0.01468,0.02226 -0.02148,0.0332 -0.0026,0.0042 -0.0051,0.0076 -0.0078,0.01172 0.0018,-0.007 0.0037,-0.01457 0.0039,-0.01953 v -0.002 -0.002 h -0.002 v -0.002 -0.002 -0.002 -0.002 l -0.002,-0.002 v -0.002 l -0.002,-0.002 h -0.002 l -0.002,-0.002 h -0.002 l -0.002,-0.002 h -0.002 c -0.008,-2.51e-4 -0.01815,0.002 -0.0293,0.0059 -0.0082,0.01933 -0.01548,0.03606 -0.01953,0.04687 0.0048,-0.01478 0.01053,-0.02954 0.01563,-0.04492 -0.02222,0.0081 -0.04702,0.01968 -0.06055,0.02148 h -0.002 -0.002 -0.002 l -0.002,-0.002 h -0.002 v -0.002 l -0.002,-0.002 v -0.002 c 5.6e-4,-0.0055 0.004,-0.01602 0.0098,-0.02734 0.01076,-0.02129 0.02429,-0.04048 0.03711,-0.06055 0.02121,-0.03216 0.04389,-0.06389 0.0625,-0.09766 0.02104,-0.03734 0.03365,-0.07802 0.04492,-0.119141 0.0155,-0.05736 0.0243,-0.117101 0.0332,-0.175781 0.0073,-0.04875 0.0126,-0.09729 0.01563,-0.146484 0.0019,-0.03467 0.0025,-0.0688 0.002,-0.103516 -5e-4,-0.02159 -0.0015,-0.04481 -0.002,-0.06641 -2.19e-4,-0.0095 1.13e-4,-0.01784 0,-0.02734 -6.5e-5,-0.0055 -4.48e-4,-0.01066 0,-0.01563 -0.0013,1.71e-4 -0.0026,-1.42e-4 -0.0039,0 -0.0099,0.001 -0.0194,0.0016 -0.0293,0.002 -0.101763,0.0037 -0.117097,-0.08654 -0.04102,-0.111328 -0.03644,-0.0043 -0.0677,-0.0083 -0.0957,-0.01367 0.0048,0.01432 0.0027,0.02932 -0.0039,0.04102 -0.0015,0.0022 -0.0059,0.0078 -0.0078,0.0098 -0.01888,0.01658 -0.05475,0.02354 -0.0957,0.002 -0.0037,-0.002 -0.0071,-0.0034 -0.0078,-0.0039 l -0.002,-0.002 c -0.0086,-0.0058 -0.01884,-0.0095 -0.02734,-0.01563 -0.01075,-0.0069 -0.02101,-0.01388 -0.03125,-0.02148 -0.0138,-0.009 -0.02822,-0.01789 -0.04297,-0.02539 -0.02208,-0.0112 -0.04454,-0.0223 -0.06836,-0.0293 -0.03913,-0.01072 -0.07903,-0.01744 -0.119141,-0.02344 -0.02865,-0.004 -0.05696,-0.0077 -0.08594,-0.0059 -0.115785,0.0072 -0.127364,-0.107987 -0.01172,-0.117187 z m 0.523437,1.199219 c 0,0.001 0.314649,0.002 0.699219,0.002 h 0.699219 v 0.101562 0.101563 H 86 85.298828 v -0.0957 c -7.5e-5,-0.04685 -2.88e-4,-0.07769 -0.002,-0.08789 v -0.002 l -0.002,-0.002 c 0.0016,-0.005 0.0061,-0.01248 0.0078,-0.01758 z m -0.121093,0.06836 c 0.02803,-0.0051 0.06135,0.01787 0.07227,0.07031 0.0063,-0.02123 0.0131,-0.04356 0.01953,-0.06445 -0.0054,0.01865 -0.0094,0.03878 -0.01172,0.05078 -0.0011,0.0056 -0.0022,0.01517 -0.0039,0.02734 0.0026,0.01164 0.0059,0.02342 0.0078,0.03516 0.0022,0.01029 0.0036,0.02103 0.0059,0.03125 0.01264,0.0051 0.02587,0.0093 0.03906,0.01367 0.02773,0.0097 0.05572,0.01924 0.08398,0.02734 0.06044,0.01723 0.07985,0.05745 0.06641,0.08594 3.37e-4,0.0067 -0.0015,0.01351 -0.0039,0.01953 -0.0011,0.0022 -0.0044,0.0077 -0.0059,0.0098 -0.0019,0.0023 -0.0071,0.0074 -0.0098,0.0098 0.012,0.0028 0.02316,0.0064 0.03516,0.0098 0.0056,0.0016 0.01208,0.0041 0.01758,0.0059 0.110019,0.03681 0.06687,0.140385 -0.04492,0.109375 -0.0873,-0.02421 -0.176235,-0.03869 -0.265625,-0.05273 -0.02053,-0.003 -0.04198,-0.0048 -0.0625,-0.0078 -0.107644,-0.01555 -0.09999,-0.120013 -0.0039,-0.11914 v -0.002 c -0.0948,-0.02436 -0.09379,-0.110085 -0.02344,-0.119141 h 0.002 0.002 0.002 c 0.0064,-0.01569 0.02143,-0.0282 0.04297,-0.03125 -9.59e-4,-0.0046 -0.0011,-0.009 -0.002,-0.01367 -0.01079,-0.057 0.01182,-0.09039 0.04102,-0.0957 z" /><path
   id="path47"
   style="fill:#363636;fill-opacity:1;stroke-width:0.00390625"
   d="m 83.900391,22.724609 v 1.886719 1.886719 h 1.449218 1.449219 v -1.886719 -1.886719 h -1.449219 z m 1.398437,0.472657 H 86 86.701172 v 0.101562 0.101563 H 86 85.298828 v -0.101563 z m -0.519531,1.099609 c 0.03778,-0.003 0.0759,8.18e-4 0.113281,0.0059 0.04518,0.0065 0.09068,0.01549 0.134766,0.02734 0.0316,0.0089 0.06063,0.02237 0.08984,0.03711 0.01863,0.0093 0.03532,0.02183 0.05273,0.0332 0.01001,0.0073 0.02081,0.01478 0.03125,0.02148 0.0079,0.0048 0.01554,0.0091 0.02344,0.01367 h 0.002 0.002 v 0.002 c 0.0274,0.01167 0.04491,0.02839 0.05273,0.04492 0.0027,6.24e-4 0.0051,0.0013 0.0078,0.002 l 0.0098,0.002 v -0.09375 -0.09375 H 86 86.701172 v 0.101563 0.101562 h -0.587891 -0.498047 c 0.06006,0.0278 0.04406,0.104778 -0.04687,0.107422 5.98e-4,0.0051 0.0019,0.01006 0.002,0.01563 1.08e-4,0.0091 -2.06e-4,0.01824 0,0.02734 5.01e-4,0.0219 0.0015,0.04451 0.002,0.06641 5e-4,0.0377 2.38e-4,0.07563 -0.002,0.113281 -0.0032,0.05266 -0.0077,0.10406 -0.01562,0.15625 -0.0096,0.06326 -0.02034,0.12568 -0.03711,0.1875 -0.01389,0.05009 -0.03093,0.101015 -0.05664,0.146485 -0.02003,0.03568 -0.04165,0.06956 -0.06445,0.103515 -0.007,0.01088 -0.01468,0.02226 -0.02148,0.0332 -0.0026,0.0042 -0.0051,0.0076 -0.0078,0.01172 0.0018,-0.007 0.0037,-0.01457 0.0039,-0.01953 v -0.002 -0.002 h -0.002 v -0.002 -0.002 -0.002 -0.002 l -0.002,-0.002 v -0.002 l -0.002,-0.002 h -0.002 l -0.002,-0.002 h -0.002 l -0.002,-0.002 h -0.002 c -0.001,-3.3e-5 -0.0028,-6.4e-5 -0.0039,0 -0.0072,9.1e-4 -0.01855,0.0028 -0.02734,0.0059 -0.02213,0.0081 -0.04904,0.02164 -0.0625,0.02344 h -0.002 -0.002 -0.002 l -0.002,-0.002 h -0.002 v -0.002 l -0.002,-0.002 v -0.002 c 5.6e-4,-0.0055 0.004,-0.01602 0.0098,-0.02734 0.01076,-0.02129 0.02429,-0.04048 0.03711,-0.06055 0.02121,-0.03216 0.04389,-0.06389 0.0625,-0.09766 0.02104,-0.03734 0.03365,-0.07802 0.04492,-0.119141 0.0155,-0.05736 0.0243,-0.117101 0.0332,-0.175781 0.0073,-0.04875 0.0126,-0.09729 0.01563,-0.146484 0.0019,-0.03467 0.0025,-0.0688 0.002,-0.103516 -5e-4,-0.02159 -0.0015,-0.04481 -0.002,-0.06641 -2.19e-4,-0.0095 1.13e-4,-0.01784 0,-0.02734 -6.5e-5,-0.0055 -4.5e-4,-0.01065 0,-0.01563 -0.0013,1.71e-4 -0.0026,-1.42e-4 -0.0039,0 -0.0099,0.001 -0.0194,0.0016 -0.0293,0.002 -0.102008,0.0037 -0.117723,-0.08679 -0.04102,-0.111328 -0.03764,-0.0042 -0.06771,-0.0081 -0.0957,-0.01367 0.0045,0.01295 0.003,0.02604 -0.002,0.03711 -9.75e-4,0.0018 -0.0043,0.0073 -0.0059,0.0098 -0.0181,0.01904 -0.05617,0.02877 -0.09961,0.0059 -0.0037,-0.002 -0.0071,-0.0034 -0.0078,-0.0039 l -0.002,-0.002 c -0.0086,-0.0058 -0.01884,-0.0095 -0.02734,-0.01563 -0.01075,-0.0069 -0.02101,-0.01388 -0.03125,-0.02148 -0.0138,-0.009 -0.02822,-0.01789 -0.04297,-0.02539 -0.02208,-0.0112 -0.04454,-0.0223 -0.06836,-0.0293 -0.03913,-0.01072 -0.07903,-0.01744 -0.119141,-0.02344 -0.02865,-0.004 -0.05696,-0.0077 -0.08594,-0.0059 -0.115785,0.0072 -0.127364,-0.107987 -0.01172,-0.117187 z m 0.525391,1.191406 -0.002,0.0098 h 0.699219 0.699219 v 0.101562 0.101563 H 86 85.298828 v -0.09766 c 0,-0.04873 -2.08e-4,-0.07617 -0.002,-0.08594 v -0.002 -0.002 h -0.002 c 0.0017,-0.0053 0.0081,-0.02035 0.0098,-0.02539 z m -0.01758,0.05078 c -0.0087,0.02486 -0.02136,0.06055 -0.02539,0.08008 -0.0011,0.0051 -0.0019,0.01505 -0.0039,0.02734 0.0026,0.01248 0.0058,0.02455 0.0078,0.03711 0.0023,0.01047 0.0035,0.02085 0.0059,0.03125 0.01274,0.0049 0.02624,0.0095 0.03906,0.01367 0.02773,0.0097 0.05572,0.01924 0.08398,0.02734 0.05948,0.01695 0.07863,0.0556 0.06641,0.08398 4.67e-4,0.0058 -1.5e-4,0.01224 -0.002,0.01758 -0.0014,0.0035 -0.0056,0.01057 -0.0078,0.01367 -0.0019,0.0023 -0.0071,0.0074 -0.0098,0.0098 0.01199,0.0028 0.02317,0.0064 0.03516,0.0098 0.0056,0.0016 0.01208,0.0041 0.01758,0.0059 0.110019,0.03681 0.06687,0.140385 -0.04492,0.109375 -0.0873,-0.02421 -0.176235,-0.03869 -0.265625,-0.05273 -0.02053,-0.003 -0.04198,-0.0048 -0.0625,-0.0078 -0.107644,-0.01555 -0.09999,-0.120013 -0.0039,-0.11914 v -0.002 c -0.0948,-0.02436 -0.09379,-0.110085 -0.02344,-0.119141 h 0.002 0.002 0.002 c 0.0064,-0.01566 0.02148,-0.02818 0.04297,-0.03125 -9.61e-4,-0.0046 -0.0011,-0.009 -0.002,-0.01367 -0.01079,-0.057 0.01182,-0.09039 0.04102,-0.0957 0.02814,-0.0051 0.0615,0.01741 0.07227,0.07031 0.0059,-0.02606 0.0121,-0.04841 0.01563,-0.06055 0.0022,-0.0081 0.01126,-0.02149 0.01758,-0.03516 z" /><path
   id="path48"
   style="fill:#363636;fill-opacity:1;stroke-width:0.00390625"
   d="m 83.900391,22.724609 v 1.886719 1.886719 h 1.449218 1.449219 v -1.886719 -1.886719 h -1.449219 z m 1.398437,0.472657 H 86 86.701172 v 0.101562 0.101563 H 86 85.298828 v -0.101563 z m -0.519531,1.099609 c 0.03778,-0.003 0.0759,8.18e-4 0.113281,0.0059 0.04518,0.0065 0.09068,0.01549 0.134766,0.02734 0.0316,0.0089 0.06063,0.02237 0.08984,0.03711 0.01863,0.0093 0.03532,0.02183 0.05273,0.0332 0.01001,0.0073 0.02081,0.01478 0.03125,0.02148 0.0079,0.0048 0.01554,0.0091 0.02344,0.01367 h 0.002 0.002 v 0.002 c 0.02747,0.01169 0.04493,0.02835 0.05273,0.04492 0.0088,0.0021 0.01492,0.0039 0.01563,0.0039 9.3e-4,0 0.002,-0.04219 0.002,-0.09375 v -0.09375 H 86 86.701172 v 0.101563 0.101562 h -0.587891 c -0.271355,0 -0.417904,0.0011 -0.496093,0.002 0.05792,0.02848 0.04309,0.102826 -0.04688,0.105469 5.54e-4,0.005 -6.5e-5,0.01011 0,0.01563 1.08e-4,0.0091 -2.08e-4,0.01824 0,0.02734 5.01e-4,0.0219 0.0015,0.04451 0.002,0.06641 5e-4,0.0377 2.38e-4,0.07563 -0.002,0.113281 -0.0032,0.05266 -0.0077,0.10406 -0.01562,0.15625 -0.0096,0.06326 -0.02034,0.12568 -0.03711,0.1875 -0.01389,0.05009 -0.03093,0.101015 -0.05664,0.146485 -0.02003,0.03568 -0.04165,0.06956 -0.06445,0.103515 -0.007,0.01088 -0.01468,0.02226 -0.02148,0.0332 -0.0026,0.0042 -0.0051,0.0076 -0.0078,0.01172 0.0018,-0.007 0.0037,-0.01457 0.0039,-0.01953 v -0.002 -0.002 h -0.002 v -0.002 -0.002 -0.002 -0.002 l -0.002,-0.002 v -0.002 l -0.002,-0.002 h -0.002 l -0.002,-0.002 h -0.002 l -0.002,-0.002 h -0.002 c -0.008,-2.48e-4 -0.01818,0.002 -0.0293,0.0059 -0.02277,0.0081 -0.05049,0.02157 -0.06445,0.02344 h -0.002 -0.002 -0.002 l -0.002,-0.002 h -0.002 v -0.002 l -0.002,-0.002 v -0.002 c 5.6e-4,-0.0055 0.004,-0.01602 0.0098,-0.02734 0.01076,-0.02129 0.02429,-0.04048 0.03711,-0.06055 0.02121,-0.03216 0.04389,-0.06389 0.0625,-0.09766 0.02104,-0.03734 0.03365,-0.07802 0.04492,-0.119141 0.0155,-0.05736 0.0243,-0.117101 0.0332,-0.175781 0.0073,-0.04875 0.0126,-0.09729 0.01563,-0.146484 0.0019,-0.03467 0.0025,-0.0688 0.002,-0.103516 -5e-4,-0.02159 -0.0015,-0.04481 -0.002,-0.06641 -2.19e-4,-0.0095 1.13e-4,-0.01784 0,-0.02734 -6.4e-5,-0.0054 -4.39e-4,-0.01071 0,-0.01563 -0.0013,1.69e-4 -0.0026,-1.4e-4 -0.0039,0 -0.0099,0.001 -0.0194,0.0016 -0.0293,0.002 -0.102919,0.0037 -0.118113,-0.08778 -0.03906,-0.111328 -0.03888,-0.0049 -0.06984,-0.01021 -0.09766,-0.01563 0.0041,0.01154 0.0035,0.02492 0,0.03516 -0.0016,0.0037 -0.0053,0.01046 -0.0078,0.01367 -0.01806,0.01915 -0.05606,0.02883 -0.09961,0.0059 -0.0037,-0.002 -0.0071,-0.0034 -0.0078,-0.0039 l -0.002,-0.002 c -0.0086,-0.0058 -0.01884,-0.0095 -0.02734,-0.01563 -0.01075,-0.0069 -0.02101,-0.01388 -0.03125,-0.02148 -0.0138,-0.009 -0.02822,-0.01789 -0.04297,-0.02539 -0.02208,-0.0112 -0.04454,-0.0223 -0.06836,-0.0293 -0.03913,-0.01072 -0.07903,-0.01744 -0.119141,-0.02344 -0.02865,-0.004 -0.05696,-0.0077 -0.08594,-0.0059 -0.115785,0.0072 -0.127364,-0.107987 -0.01172,-0.117187 z m 0.523437,1.201172 h 0.699219 0.699219 v 0.101562 0.101563 H 86 85.298828 v -0.09766 c 0,-0.04787 -2.51e-4,-0.0759 -0.002,-0.08594 v -0.002 -0.002 c 0.0014,-0.0043 0.0044,-0.01121 0.0059,-0.01563 z m -0.121093,0.06641 c 0.02919,-0.0053 0.06491,0.01892 0.07422,0.07617 0.0019,-0.0071 0.004,-0.01425 0.0059,-0.02148 -0.0012,0.0061 -0.0021,0.01651 -0.0039,0.02734 0.0026,0.01253 0.0058,0.0245 0.0078,0.03711 0.0023,0.01047 0.0035,0.02085 0.0059,0.03125 0.01273,0.0049 0.02621,0.0094 0.03906,0.01367 0.02773,0.0097 0.05572,0.01924 0.08398,0.02734 0.06027,0.01718 0.07963,0.05747 0.06641,0.08594 3.71e-4,0.0068 -0.0015,0.01344 -0.0039,0.01953 -0.0011,0.0022 -0.0044,0.0077 -0.0059,0.0098 -0.0019,0.0023 -0.0071,0.0074 -0.0098,0.0098 0.01203,0.0028 0.02313,0.0064 0.03516,0.0098 0.0056,0.0016 0.01208,0.0041 0.01758,0.0059 0.110019,0.03681 0.06687,0.140385 -0.04492,0.109375 -0.0873,-0.02421 -0.176235,-0.03869 -0.265625,-0.05273 -0.02053,-0.003 -0.04198,-0.0048 -0.0625,-0.0078 -0.107644,-0.01555 -0.09999,-0.120013 -0.0039,-0.11914 h 0.002 v -0.002 h -0.002 c -0.0948,-0.02436 -0.09379,-0.110085 -0.02344,-0.119141 h 0.002 0.002 0.002 c 0.0064,-0.01567 0.02147,-0.02818 0.04297,-0.03125 -9.64e-4,-0.0046 -0.0011,-0.009 -0.002,-0.01367 -0.01079,-0.057 0.01182,-0.09039 0.04102,-0.0957 z" /><path
   id="path49"
   style="fill:#363636;fill-opacity:1;stroke-width:0.00390625"
   d="m 83.900391,22.724609 v 1.886719 1.886719 h 1.449218 1.449219 v -1.886719 -1.886719 h -1.449219 z m 1.398437,0.472657 H 86 86.701172 v 0.101562 0.101563 H 86 85.298828 v -0.101563 z m -0.519531,1.099609 c 0.03778,-0.003 0.0759,8.18e-4 0.113281,0.0059 0.04518,0.0065 0.09068,0.01549 0.134766,0.02734 0.0316,0.0089 0.06063,0.02237 0.08984,0.03711 0.01863,0.0093 0.03532,0.02183 0.05273,0.0332 0.01001,0.0073 0.02081,0.01478 0.03125,0.02148 0.0079,0.0048 0.01554,0.0091 0.02344,0.01367 h 0.002 0.002 v 0.002 c 0.0279,0.01187 0.04509,0.02808 0.05273,0.04492 0.0076,0.002 0.01267,0.0039 0.01367,0.0039 0.002,0 0.0039,-0.04154 0.0039,-0.09375 v -0.09375 H 86 86.701172 v 0.101563 0.101562 h -0.587891 -0.498047 c 0.06028,0.0277 0.04597,0.104689 -0.04492,0.107422 5.34e-4,0.005 -6.7e-5,0.01005 0,0.01563 1.08e-4,0.0091 -2.08e-4,0.01824 0,0.02734 5.01e-4,0.0219 0.0015,0.04451 0.002,0.06641 5e-4,0.0377 2.4e-4,0.07563 -0.002,0.113281 -0.0032,0.05266 -0.0077,0.10406 -0.01562,0.15625 -0.0096,0.06326 -0.02034,0.12568 -0.03711,0.1875 -0.01389,0.05009 -0.03093,0.101015 -0.05664,0.146485 -0.02003,0.03568 -0.04165,0.06956 -0.06445,0.103515 -0.007,0.01088 -0.01468,0.02226 -0.02148,0.0332 -0.0026,0.0042 -0.0051,0.0076 -0.0078,0.01172 0.0018,-0.007 0.0037,-0.01457 0.0039,-0.01953 v -0.002 -0.002 h -0.002 v -0.002 -0.002 -0.002 -0.002 l -0.002,-0.002 v -0.002 l -0.002,-0.002 h -0.002 l -0.002,-0.002 h -0.002 l -0.002,-0.002 h -0.002 c -0.001,-3.3e-5 -0.0028,-6.4e-5 -0.0039,0 -0.0071,9.03e-4 -0.01859,0.0028 -0.02734,0.0059 -0.01182,0.02845 -0.01976,0.05054 -0.02148,0.05859 v 0.002 c 0,6.96e-4 0.314649,0.002 0.699219,0.002 h 0.699219 v 0.101562 0.101563 H 86 85.298828 v -0.0957 c 0,-0.05299 -2.71e-4,-0.09515 -0.002,-0.09375 -0.0014,0.0014 -0.0085,0.01917 -0.01563,0.03906 -0.0061,0.01724 -0.01004,0.02631 -0.01172,0.0293 h -0.002 c -2.32e-4,-0.0021 0.0038,-0.01564 0.01172,-0.04102 0.0079,-0.02544 0.01911,-0.0586 0.03516,-0.09961 -0.0202,0.0078 -0.04059,0.01791 -0.05273,0.01953 h -0.002 -0.002 -0.002 l -0.002,-0.002 h -0.002 v -0.002 l -0.002,-0.002 v -0.002 c 5.6e-4,-0.0055 0.004,-0.01602 0.0098,-0.02734 0.01076,-0.02129 0.02429,-0.04048 0.03711,-0.06055 0.02121,-0.03216 0.04389,-0.06389 0.0625,-0.09766 0.02104,-0.03734 0.03365,-0.07802 0.04492,-0.119141 0.0155,-0.05736 0.0243,-0.117101 0.0332,-0.175781 0.0073,-0.04875 0.0126,-0.09729 0.01563,-0.146484 0.0019,-0.03467 0.0025,-0.0688 0.002,-0.103516 -5e-4,-0.02159 -0.0015,-0.04481 -0.002,-0.06641 -2.19e-4,-0.0095 1.13e-4,-0.01784 0,-0.02734 -6.5e-5,-0.0055 -4.55e-4,-0.01063 0,-0.01563 -0.0013,1.83e-4 -0.0025,-1.51e-4 -0.0039,0 -0.0099,0.001 -0.0194,0.0016 -0.0293,0.002 -0.102948,0.0037 -0.118189,-0.08781 -0.03906,-0.111328 -0.03817,-0.0047 -0.06918,-0.01008 -0.09766,-0.01563 0.0041,0.01154 0.0035,0.02493 0,0.03516 -0.0016,0.0037 -0.0053,0.01046 -0.0078,0.01367 -0.01806,0.01914 -0.05607,0.02882 -0.09961,0.0059 -0.0037,-0.002 -0.0071,-0.0034 -0.0078,-0.0039 l -0.002,-0.002 c -0.0086,-0.0058 -0.01884,-0.0095 -0.02734,-0.01563 -0.01075,-0.0069 -0.02101,-0.01388 -0.03125,-0.02148 -0.0138,-0.009 -0.02822,-0.01789 -0.04297,-0.02539 -0.02208,-0.0112 -0.04454,-0.0223 -0.06836,-0.0293 -0.03913,-0.01072 -0.07903,-0.01744 -0.119141,-0.02344 -0.02865,-0.004 -0.05696,-0.0077 -0.08594,-0.0059 -0.115785,0.0072 -0.127364,-0.107987 -0.01172,-0.117187 z m 0.402344,1.267578 c 0.02795,-0.0051 0.06126,0.01623 0.07227,0.06836 0.0029,-0.01342 0.0064,-0.02517 0.0078,-0.0293 h 0.002 v 0.002 0.002 0.002 0.002 h -0.002 v 0.002 c -8.85e-4,0.0044 -0.0018,0.01744 -0.0039,0.0332 0.0026,0.01226 0.0058,0.02477 0.0078,0.03711 0.0023,0.01057 0.0035,0.02075 0.0059,0.03125 0.01269,0.0049 0.02628,0.0095 0.03906,0.01367 0.02773,0.0097 0.05572,0.01924 0.08398,0.02734 0.0604,0.01721 0.07979,0.05746 0.06641,0.08594 3.65e-4,0.0068 -0.0015,0.01345 -0.0039,0.01953 -0.0011,0.0022 -0.0044,0.0077 -0.0059,0.0098 -0.0019,0.0023 -0.0071,0.0074 -0.0098,0.0098 0.01205,0.0028 0.02312,0.0064 0.03516,0.0098 0.0056,0.0016 0.01208,0.0041 0.01758,0.0059 0.110019,0.03681 0.06687,0.140385 -0.04492,0.109375 -0.0873,-0.02421 -0.176235,-0.03869 -0.265625,-0.05273 -0.02053,-0.003 -0.04198,-0.0048 -0.0625,-0.0078 -0.107644,-0.01555 -0.09999,-0.120013 -0.0039,-0.11914 v -0.002 c -0.0948,-0.02436 -0.09379,-0.110085 -0.02344,-0.119141 h 0.002 0.002 0.002 c 0.0063,-0.01576 0.02135,-0.02821 0.04297,-0.03125 -9.79e-4,-0.0047 -0.0011,-0.0089 -0.002,-0.01367 -0.01079,-0.057 0.01182,-0.09039 0.04102,-0.0957 z m 0.08203,0.02539 h 0.002 v 0.002 h 0.002 v 0.002 0.002 0.002 h -0.002 -0.002 v -0.002 -0.002 -0.002 z" /><path
   id="path50"
   style="fill:#363636;fill-opacity:1;stroke-width:0.00390625"
   d="m 83.900391,22.724609 v 1.886719 1.886719 h 1.449218 1.449219 v -1.886719 -1.886719 h -1.449219 z m 1.398437,0.472657 H 86 86.701172 v 0.101562 0.101563 H 86 85.298828 v -0.101563 z m -0.519531,1.099609 c 0.03778,-0.003 0.0759,8.18e-4 0.113281,0.0059 0.04518,0.0065 0.09068,0.01549 0.134766,0.02734 0.0316,0.0089 0.06063,0.02237 0.08984,0.03711 0.01863,0.0093 0.03532,0.02183 0.05273,0.0332 0.01001,0.0073 0.02081,0.01478 0.03125,0.02148 0.0079,0.0048 0.01554,0.0091 0.02344,0.01367 h 0.002 0.002 v 0.002 c 0.02756,0.01173 0.04496,0.0283 0.05273,0.04492 0.0078,0.002 0.01266,0.0039 0.01367,0.0039 0.002,0 0.0039,-0.04154 0.0039,-0.09375 v -0.09375 H 86 86.701172 v 0.101563 0.101562 h -0.587891 -0.498047 c 0.06031,0.02771 0.04609,0.104755 -0.04492,0.107422 5.81e-4,0.005 -6.6e-5,0.01008 0,0.01563 1.08e-4,0.0091 -2.06e-4,0.01824 0,0.02734 5.01e-4,0.0219 0.0015,0.04451 0.002,0.06641 5e-4,0.0377 2.38e-4,0.07563 -0.002,0.113281 -0.0032,0.05266 -0.0077,0.10406 -0.01562,0.15625 -0.0096,0.06326 -0.02034,0.12568 -0.03711,0.1875 -0.01389,0.05009 -0.03093,0.101015 -0.05664,0.146485 -0.02003,0.03568 -0.04165,0.06956 -0.06445,0.103515 -0.007,0.01088 -0.01468,0.02226 -0.02148,0.0332 -0.0026,0.0042 -0.0051,0.0076 -0.0078,0.01172 0.0018,-0.007 0.0037,-0.01457 0.0039,-0.01953 v -0.002 -0.002 h -0.002 v -0.002 -0.002 -0.002 -0.002 l -0.002,-0.002 v -0.002 l -0.002,-0.002 h -0.002 l -0.002,-0.002 h -0.002 l -0.002,-0.002 h -0.002 c -0.0011,-3.3e-5 -0.0028,-6.7e-5 -0.0039,0 -0.0073,9.37e-4 -0.01842,0.0047 -0.02734,0.0078 -0.01162,0.02775 -0.01973,0.04724 -0.02148,0.05469 v 0.002 c 0,0.0016 0.314649,0.0039 0.699219,0.0039 h 0.699219 v 0.101562 0.101563 H 86 85.298828 v -0.0957 l -0.002,-0.09766 -0.0098,0.02539 c -0.0035,0.0093 -0.006,0.01404 -0.0078,0.01758 v 0.002 h -0.002 c 0.0013,-0.0061 0.0045,-0.01963 0.0098,-0.03516 0.0077,-0.02252 0.01741,-0.04789 0.0293,-0.07813 -0.02052,0.0078 -0.04233,0.01788 -0.05469,0.01953 h -0.002 -0.002 -0.002 l -0.002,-0.002 h -0.002 v -0.002 l -0.002,-0.002 v -0.002 c 5.6e-4,-0.0055 0.004,-0.01602 0.0098,-0.02734 0.01076,-0.02129 0.02429,-0.04048 0.03711,-0.06055 0.02121,-0.03216 0.04389,-0.06389 0.0625,-0.09766 0.02104,-0.03734 0.03365,-0.07802 0.04492,-0.119141 0.0155,-0.05736 0.0243,-0.117101 0.0332,-0.175781 0.0073,-0.04875 0.0126,-0.09729 0.01563,-0.146484 0.0019,-0.03467 0.0025,-0.0688 0.002,-0.103516 -5e-4,-0.02159 -0.0015,-0.04481 -0.002,-0.06641 -2.19e-4,-0.0095 1.13e-4,-0.01784 0,-0.02734 -6.5e-5,-0.0054 -4.46e-4,-0.01067 0,-0.01563 -0.0013,1.83e-4 -0.0025,-1.51e-4 -0.0039,0 -0.0099,0.001 -0.0194,0.0016 -0.0293,0.002 -0.103333,0.0037 -0.117234,-0.08824 -0.03711,-0.111328 -0.03988,-0.0046 -0.07254,-0.0097 -0.101562,-0.01563 0.008,0.02042 0.0028,0.0412 -0.01172,0.05469 -0.01924,0.01509 -0.05434,0.02082 -0.09375,0 -0.0037,-0.002 -0.0071,-0.0034 -0.0078,-0.0039 l -0.002,-0.002 c -0.0086,-0.0058 -0.01884,-0.0095 -0.02734,-0.01563 -0.01075,-0.0069 -0.02101,-0.01388 -0.03125,-0.02148 -0.0138,-0.009 -0.02822,-0.01789 -0.04297,-0.02539 -0.02208,-0.0112 -0.04454,-0.0223 -0.06836,-0.0293 -0.03913,-0.01072 -0.07903,-0.01744 -0.119141,-0.02344 -0.02865,-0.004 -0.05696,-0.0077 -0.08594,-0.0059 -0.115785,0.0072 -0.127364,-0.107987 -0.01172,-0.117187 z m 0.494141,1.265625 h 0.002 v 0.002 0.002 c -1.69e-4,10e-4 -0.0016,0.0044 -0.002,0.0059 v 0.002 h -0.002 v 0.002 l -0.002,0.002 v 0.002 h -0.002 v -0.002 -0.002 c 5.75e-4,-0.002 0.0028,-0.0071 0.0039,-0.0098 v -0.002 z m -0.0918,0.002 c 0.02779,-0.0051 0.06105,0.01687 0.07227,0.06836 9e-4,-0.0041 0.0032,-0.0094 0.0039,-0.01172 v -0.002 h 0.002 v 0.002 c -6.3e-5,0.0028 -0.0012,0.0089 -0.002,0.01367 v 0.002 l -0.002,0.002 v 0.002 0.002 0.002 c 0.0025,0.01331 0.0076,0.02569 0.0098,0.03906 0.0023,0.0105 0.0035,0.02082 0.0059,0.03125 0.0127,0.0049 0.02628,0.0095 0.03906,0.01367 0.02773,0.0097 0.05572,0.01924 0.08398,0.02734 0.06044,0.01723 0.07985,0.05745 0.06641,0.08594 3.43e-4,0.0067 -0.0015,0.01348 -0.0039,0.01953 -0.0011,0.0022 -0.0044,0.0077 -0.0059,0.0098 l -0.002,0.002 c -0.0029,0.0026 -0.0073,0.0059 -0.0098,0.0078 0.01204,0.0028 0.02508,0.0064 0.03711,0.0098 0.0056,0.0016 0.01208,0.0041 0.01758,0.0059 0.110019,0.03681 0.06687,0.140385 -0.04492,0.109375 -0.0873,-0.02421 -0.176235,-0.03869 -0.265625,-0.05273 -0.02053,-0.003 -0.04198,-0.0048 -0.0625,-0.0078 -0.107644,-0.01555 -0.09999,-0.120013 -0.0039,-0.11914 v -0.002 c -0.0948,-0.02436 -0.09379,-0.110085 -0.02344,-0.119141 h 0.002 0.002 0.002 c 0.0064,-0.01573 0.02135,-0.02822 0.04297,-0.03125 -9.65e-4,-0.0046 -0.0011,-0.009 -0.002,-0.01367 -0.01079,-0.057 0.01182,-0.09039 0.04102,-0.0957 z m 0.08203,0.02539 h 0.002 v 0.002 h 0.002 v 0.002 0.002 0.002 h -0.002 -0.002 v -0.002 -0.002 -0.002 z m -0.0039,0.01563 h 0.002 v 0.002 h 0.002 v 0.002 0.002 0.002 h -0.002 -0.002 v -0.002 -0.002 -0.002 z" /><path
   id="path51"
   style="fill:#363636;fill-opacity:1;stroke-width:0.00390625"
   d="m 83.900391,22.724609 v 1.886719 1.886719 h 1.449218 1.449219 v -1.886719 -1.886719 h -1.449219 z m 1.398437,0.472657 H 86 86.701172 v 0.101562 0.101563 H 86 85.298828 v -0.101563 z m -0.519531,1.099609 c 0.03778,-0.003 0.0759,8.18e-4 0.113281,0.0059 0.04518,0.0065 0.09068,0.01549 0.134766,0.02734 0.0316,0.0089 0.06063,0.02237 0.08984,0.03711 0.01863,0.0093 0.03532,0.02183 0.05273,0.0332 0.01001,0.0073 0.02081,0.01478 0.03125,0.02148 0.0079,0.0048 0.01554,0.0091 0.02344,0.01367 h 0.002 0.002 v 0.002 c 0.02747,0.01169 0.04493,0.02835 0.05273,0.04492 0.0039,0.001 0.0094,0.0017 0.01172,0.002 h 0.002 c 0.002,0 0.0039,-0.04154 0.0039,-0.09375 v -0.0918 H 86 86.701172 v 0.101563 0.101562 h -0.587891 -0.498047 c 0.06019,0.02776 0.0441,0.10477 -0.04687,0.107422 5.96e-4,0.005 0.0019,0.01007 0.002,0.01563 1.08e-4,0.0091 -2.06e-4,0.01824 0,0.02734 5.01e-4,0.0219 0.0015,0.04451 0.002,0.06641 5e-4,0.0377 2.38e-4,0.07563 -0.002,0.113281 -0.0032,0.05266 -0.0077,0.10406 -0.01562,0.15625 -0.0096,0.06326 -0.02034,0.12568 -0.03711,0.1875 -0.01389,0.05009 -0.03093,0.101015 -0.05664,0.146485 -0.02003,0.03568 -0.04165,0.06956 -0.06445,0.103515 -0.007,0.01088 -0.01468,0.02226 -0.02148,0.0332 -0.0026,0.0042 -0.0051,0.0076 -0.0078,0.01172 0.0018,-0.007 0.0037,-0.01457 0.0039,-0.01953 v -0.002 -0.002 h -0.002 v -0.002 -0.002 -0.002 -0.002 l -0.002,-0.002 v -0.002 l -0.002,-0.002 h -0.002 l -0.002,-0.002 h -0.002 l -0.002,-0.002 h -0.002 c -0.0011,-3.3e-5 -0.0028,-6.8e-5 -0.0039,0 -0.0072,9.27e-4 -0.01846,0.0047 -0.02734,0.0078 -0.0134,0.0324 -0.02148,0.05277 -0.02148,0.05664 0,0.0029 0.210766,0.0039 0.699219,0.0039 h 0.699219 v 0.101562 0.101563 H 86 85.298828 v -0.0957 -0.09766 l -0.0098,0.01953 c 0.0046,-0.01708 0.01581,-0.0572 0.02734,-0.08789 -0.02056,0.0078 -0.04231,0.01788 -0.05469,0.01953 h -0.002 -0.002 -0.002 l -0.002,-0.002 h -0.002 v -0.002 l -0.002,-0.002 v -0.002 c 5.6e-4,-0.0055 0.004,-0.01602 0.0098,-0.02734 0.01076,-0.02129 0.02429,-0.04048 0.03711,-0.06055 0.02121,-0.03216 0.04389,-0.06389 0.0625,-0.09766 0.02104,-0.03734 0.03365,-0.07802 0.04492,-0.119141 0.0155,-0.05736 0.0243,-0.117101 0.0332,-0.175781 0.0073,-0.04875 0.0126,-0.09729 0.01563,-0.146484 0.0019,-0.03467 0.0025,-0.0688 0.002,-0.103516 -5e-4,-0.02159 -0.0015,-0.04481 -0.002,-0.06641 -2.19e-4,-0.0095 1.13e-4,-0.01784 0,-0.02734 -6.4e-5,-0.0054 -4.43e-4,-0.01068 0,-0.01563 -0.0014,1.85e-4 -0.0025,-1.53e-4 -0.0039,0 -0.0099,0.001 -0.0194,0.0016 -0.0293,0.002 -0.105582,0.0038 -0.117324,-0.09287 -0.03125,-0.113281 -0.04304,-0.0043 -0.07674,-0.0073 -0.107422,-0.01367 0.0079,0.02042 0.0028,0.04121 -0.01172,0.05469 -0.01924,0.01508 -0.05435,0.02081 -0.09375,0 -0.0037,-0.002 -0.0071,-0.0034 -0.0078,-0.0039 l -0.002,-0.002 c -0.0086,-0.0058 -0.01884,-0.0095 -0.02734,-0.01563 -0.01075,-0.0069 -0.02101,-0.01388 -0.03125,-0.02148 -0.0138,-0.009 -0.02822,-0.01789 -0.04297,-0.02539 -0.02208,-0.0112 -0.04454,-0.0223 -0.06836,-0.0293 -0.03913,-0.01072 -0.07903,-0.01744 -0.119141,-0.02344 -0.02865,-0.004 -0.05696,-0.0077 -0.08594,-0.0059 -0.115785,0.0072 -0.127364,-0.107987 -0.01172,-0.117187 z m 0.402344,1.267578 c 0.02781,-0.0051 0.06108,0.0168 0.07227,0.06836 0.0016,-0.0075 0.0032,-0.01213 0.0039,-0.01367 h 0.002 v 0.002 c 0,6.1e-4 -0.0024,0.0094 -0.0039,0.01953 v 0.002 0.002 c 0.0025,0.01309 0.0077,0.0259 0.0098,0.03906 0.0022,0.01001 0.0037,0.01936 0.0059,0.0293 0.01283,0.0055 0.02606,0.01134 0.03906,0.01563 0.02773,0.0097 0.05572,0.01924 0.08398,0.02734 0.06032,0.01719 0.0797,0.05746 0.06641,0.08594 3.6e-4,0.0068 -0.0015,0.01346 -0.0039,0.01953 -0.0011,0.0022 -0.0044,0.0077 -0.0059,0.0098 -0.0019,0.0023 -0.0071,0.0074 -0.0098,0.0098 0.01205,0.0028 0.02312,0.0064 0.03516,0.0098 0.0056,0.0016 0.01208,0.0041 0.01758,0.0059 0.110019,0.03681 0.06687,0.140385 -0.04492,0.109375 -0.0873,-0.02421 -0.176235,-0.03869 -0.265625,-0.05273 -0.02053,-0.003 -0.04198,-0.0048 -0.0625,-0.0078 -0.107644,-0.01555 -0.09999,-0.120013 -0.0039,-0.11914 h 0.002 v -0.002 h -0.002 c -0.0948,-0.02436 -0.09379,-0.110085 -0.02344,-0.119141 h 0.002 0.002 0.002 c 0.0064,-0.01566 0.02149,-0.02817 0.04297,-0.03125 -9.66e-4,-0.0046 -0.0011,-0.009 -0.002,-0.01367 -0.01079,-0.057 0.01182,-0.09039 0.04102,-0.0957 z" /><path
   id="path52"
   style="fill:#363636;fill-opacity:1"
   d="m 85.148438,25.0625 c 0.07402,0.05293 0.158291,0.09508 0.246093,0.121094 0.0038,-0.01217 0.0064,-0.02478 0.0098,-0.03711 6.96e-4,-0.0026 0.0013,-0.0052 0.002,-0.0078 z m 0.36914,0.111328 c -1.67e-4,6.2e-4 1.68e-4,0.0013 0,0.002 -0.0029,0.01054 -0.0065,0.02069 -0.0098,0.03125 0.02473,0.0021 0.135699,0.0099 0.164063,0.01172 z" /><path
   style="fill:#363636;fill-opacity:1"
   d="M 85.671875,25.375 84.648437,25.31641"
   id="path53" /><path
   style="fill:#363636;fill-opacity:1"
   d="M 84.929687,24.851562 84.6875,25.546875"
   id="path54" /><path
   style="fill:#363636;fill-opacity:1"
   d="M 85.15625,25.390625 85.882812,25.375"
   id="path55" /><path
   style="fill:#363636;fill-opacity:1"
   d="m 85.703125,24.949219 -0.02344,0.0078"
   id="path56" /><path
   style="fill:#363636;fill-opacity:1"
   d="m 85.078125,25.046875 0.476562,-0.125 m 0.171875,0.359375 -0.05859,0.03516"
   id="path57" /><path
   id="path58"
   style="fill:#363636;fill-opacity:1"
   d="m 85.75,25.121094 -0.238281,0.07227 c -0.01297,0.04423 -0.02813,0.08885 -0.05078,0.128907 -0.008,0.0142 -0.01694,0.02726 -0.02539,0.04102 l 0.478515,0.05469 z m -0.376953,0.115234 -0.291016,0.08789 0.22461,0.02539 c 0.01843,-0.02748 0.03679,-0.05506 0.05273,-0.08398 0.0053,-0.0093 0.0094,-0.01959 0.01367,-0.0293 z" /><path
   style="fill:#363636;fill-opacity:1"
   d="M 84.984375,24.5625 84.871094,24.230469"
   id="path59" /><path
   style="fill:#363636;fill-opacity:1;stroke-width:0.00390625"
   d="m 85.252039,25.450195 c 1.9e-4,-0.01081 0.01726,-0.04136 0.05572,-0.09974 0.02224,-0.03376 0.04672,-0.07281 0.05439,-0.08678 0.03524,-0.06415 0.05703,-0.150906 0.08169,-0.325209 0.0069,-0.04855 0.0088,-0.08446 0.01023,-0.194322 l 0.0018,-0.134766 -0.03654,-1.27e-4 c -0.02947,-1.02e-4 -0.03956,-0.0017 -0.05216,-0.0084 -0.02146,-0.01132 -0.0296,-0.02139 -0.03204,-0.03962 -0.0025,-0.01901 0.0055,-0.03419 0.02528,-0.04776 l 0.01398,-0.0096 0.118852,-0.0011 0.118851,-0.0011 0.01369,0.01044 c 0.04106,0.03132 0.02269,0.08036 -0.03453,0.09218 l -0.02406,0.005 0.0023,0.0743 c 0.007,0.229184 -0.03597,0.490216 -0.101885,0.619583 -0.0103,0.02021 -0.03534,0.06268 -0.05566,0.09439 -0.03536,0.05519 -0.03706,0.05715 -0.03991,0.04615 -0.0053,-0.02033 -0.02441,-0.02034 -0.0751,-4.4e-5 -0.03079,0.01233 -0.04502,0.01442 -0.04489,0.0066 z"
   id="path67" /><path
   style="fill:#363636;fill-opacity:1;stroke-width:0.00390625"
   d="m 85.416016,25.995797 c -0.05247,-0.01355 -0.18883,-0.03857 -0.272268,-0.04997 -0.05593,-0.0076 -0.07928,-0.0192 -0.09334,-0.04622 -0.0078,-0.01497 -0.0068,-0.02736 0.0033,-0.04219 0.01108,-0.01623 0.03169,-0.02734 0.05072,-0.02734 0.0081,0 0.01471,-0.0014 0.01471,-0.0032 0,-0.0018 -0.0096,-0.0072 -0.0213,-0.01201 -0.03839,-0.01591 -0.06072,-0.05149 -0.04841,-0.07709 0.0063,-0.01319 0.02842,-0.0288 0.04072,-0.0288 0.0054,0 0.01211,-0.0045 0.01695,-0.01127 0.0044,-0.0062 0.01487,-0.01401 0.02324,-0.01736 l 0.01521,-0.0061 -0.0035,-0.01877 c -0.0069,-0.03704 0.0048,-0.06912 0.03077,-0.08432 0.01591,-0.0093 0.03193,-0.0063 0.04965,0.0092 0.01987,0.01744 0.02928,0.04259 0.04182,0.111749 0.0024,0.01331 0.0063,0.02493 0.0087,0.02583 0.0024,8.93e-4 0.03696,0.01246 0.07682,0.02571 0.07604,0.02526 0.09528,0.03595 0.107597,0.05978 0.0081,0.01563 0.004,0.04529 -0.0088,0.06415 -0.0053,0.0078 -0.0091,0.01453 -0.0084,0.015 6.43e-4,4.78e-4 0.0126,0.004 0.02656,0.0078 0.06906,0.01888 0.102995,0.05506 0.08329,0.0888 -0.01884,0.03226 -0.0556,0.0368 -0.134067,0.01654 z"
   id="path68" /><path
   style="fill:#363636;fill-opacity:1;stroke-width:0.00390625"
   d="m 83.900391,24.400391 v -2.097657 h 1.449218 1.449219 v 2.097657 2.097656 h -1.449219 -1.449218 z m 1.622378,1.604046 c 0.01743,-0.0073 0.03387,-0.02769 0.03387,-0.04204 0,-0.01394 -0.0077,-0.02962 -0.02014,-0.04124 -0.01035,-0.0096 -0.04908,-0.02858 -0.05799,-0.02836 -0.0032,8e-5 0.0027,0.0035 0.01319,0.0076 0.05431,0.02121 0.07545,0.0565 0.05114,0.08539 -0.01368,0.01626 -0.03247,0.02161 -0.06594,0.01879 -0.01522,-0.0013 -0.03207,-0.0032 -0.03744,-0.0044 -0.0054,-0.0011 -0.0027,4.46e-4 0.0059,0.0035 0.0203,0.0071 0.06124,0.0075 0.07746,7.65e-4 z m -0.228905,-0.03609 c -0.0013,-0.0013 -0.0047,-0.0014 -0.0075,-3.08e-4 -0.0031,0.0012 -0.0022,0.0022 0.0024,0.0024 0.0041,1.69e-4 0.0064,-7.54e-4 0.0051,-0.0021 z m -0.06828,-0.01195 c -0.0027,-0.0011 -0.0071,-0.0011 -0.0098,0 -0.0027,0.0011 -4.88e-4,0.002 0.0049,0.002 0.0054,0 0.0076,-8.87e-4 0.0049,-0.002 z m -0.02344,-0.0039 c -0.0027,-0.0011 -0.0071,-0.0011 -0.0098,0 -0.0027,0.0011 -4.88e-4,0.002 0.0049,0.002 0.0054,0 0.0076,-8.86e-4 0.0049,-0.002 z m -0.02727,-0.0039 c -0.0026,-0.0011 -0.0079,-0.0011 -0.01172,-1.45e-4 -0.0038,9.9e-4 -0.0016,0.0019 0.0048,0.0019 0.0064,8e-5 0.0096,-7.3e-4 0.0069,-0.0018 z m -0.02734,-0.0039 c -0.0026,-0.0011 -0.0079,-0.0011 -0.01172,-1.44e-4 -0.0038,9.9e-4 -0.0016,0.0019 0.0048,0.0019 0.0064,8e-5 0.0096,-7.31e-4 0.0069,-0.0018 z m -0.02644,-0.004 c -0.04583,-0.01027 -0.07227,-0.03214 -0.07227,-0.05979 0,-0.01934 0.01458,-0.037 0.03711,-0.04497 0.0086,-0.003 0.01238,-0.0056 0.0084,-0.0057 -0.01282,-3.05e-4 -0.03452,0.01255 -0.04205,0.02491 -0.01399,0.02294 -0.0058,0.05536 0.01787,0.07089 0.01378,0.009 0.03726,0.01703 0.04898,0.01669 0.0078,-2.24e-4 0.0082,-6.4e-4 0.002,-0.002 z m 0.336832,-0.05439 c -0.0013,-0.0013 -0.0047,-0.0014 -0.0075,-3.09e-4 -0.0031,0.0012 -0.0022,0.0022 0.0024,0.0024 0.0041,1.7e-4 0.0064,-7.53e-4 0.0051,-0.0021 z m 8.62e-4,-0.0367 c -1.66e-4,-0.0062 -0.01894,0.02654 -0.01904,0.0332 -3e-5,0.0021 0.0043,-0.0031 0.0096,-0.01172 0.0053,-0.0086 0.0096,-0.01826 0.0095,-0.02148 z m 0.0041,-0.02677 c 0,-0.03038 -0.02249,-0.05021 -0.07814,-0.06887 -0.04246,-0.01424 -0.04332,-0.0117 -0.0012,0.0036 0.05473,0.01988 0.07545,0.03779 0.07545,0.06523 0,0.0083 8.79e-4,0.0151 0.002,0.0151 0.0011,0 0.002,-0.0068 0.002,-0.01505 z m -0.34668,0.0046 c -0.0027,-0.0011 -0.0071,-0.0011 -0.0098,0 -0.0027,0.0011 -4.88e-4,0.002 0.0049,0.002 0.0054,0 0.0076,-8.86e-4 0.0049,-0.002 z m -0.03071,-0.02183 c -0.02336,-0.0157 -0.03668,-0.03489 -0.03668,-0.05285 0,-0.01055 0.0031,-0.01657 0.01395,-0.02677 0.0077,-0.0072 0.0169,-0.0133 0.02051,-0.01347 0.0036,-1.7e-4 0.0045,-0.0012 0.0019,-0.0022 -0.008,-0.0033 -0.02819,0.0099 -0.03481,0.02273 -0.01288,0.0249 -0.001,0.05491 0.02934,0.07415 0.02417,0.01533 0.02896,0.01399 0.0058,-0.0016 z m 0.189062,-0.09043 c -0.0028,-0.003 -0.0057,-0.0049 -0.0064,-0.0042 -0.0023,0.0022 0.0036,0.0096 0.0076,0.0096 0.0021,0 0.0016,-0.0025 -0.0012,-0.0055 z m -0.0093,-0.0293 c -0.0014,-0.009 -0.0034,-0.01546 -0.0044,-0.01446 -10e-4,10e-4 -5.93e-4,0.0091 9.08e-4,0.01797 0.0015,0.0089 0.0035,0.01539 0.0044,0.01446 9.33e-4,-9.32e-4 5.24e-4,-0.009 -9.08e-4,-0.01797 z m -0.130794,-0.0071 c 8.95e-4,-6.24e-4 -3.95e-4,-0.0011 -0.0029,-0.0011 -0.0025,0 -0.01024,0.0054 -0.01725,0.01207 l -0.01276,0.01207 0.01563,-0.01094 c 0.0086,-0.006 0.01636,-0.01145 0.01725,-0.01207 z m 1.566732,-0.07927 v -0.101573 l -0.700195,9.87e-4 -0.700196,9.87e-4 -0.001,0.100586 -0.001,0.100586 h 0.701238 0.701238 z m -1.554688,0.06837 c 0,-0.0054 -6.74e-4,-0.0098 -0.0015,-0.0098 -8.24e-4,0 -0.0023,0.0044 -0.0034,0.0098 -0.001,0.0054 -3.53e-4,0.0098 0.0015,0.0098 0.0019,0 0.0034,-0.0044 0.0034,-0.0098 z m 0.111919,-0.02115 c -3.25e-4,-0.01056 -0.0012,-0.01857 -0.002,-0.0178 -7.71e-4,7.67e-4 -0.0066,-0.009 -0.01296,-0.02174 -0.0064,-0.01272 -0.01655,-0.02669 -0.02264,-0.03102 -0.01721,-0.01225 -0.01734,-0.0093 -2.85e-4,0.0061 0.01549,0.01399 0.02798,0.03984 0.03352,0.06935 0.0037,0.01954 0.0051,0.01798 0.0044,-0.0049 z m -0.107108,-0.04917 c 0.0088,-0.01697 0.02052,-0.02622 0.03719,-0.02945 0.01356,-0.0026 0.01378,-0.0029 0.0029,-0.0033 -0.02952,-0.0011 -0.05294,0.03029 -0.05211,0.06985 l 4.49e-4,0.02148 0.0027,-0.02344 c 0.0015,-0.01289 0.0055,-0.02872 0.0088,-0.03517 z m 0.267837,-0.208412 c 0.01998,-0.03146 0.0433,-0.07147 0.05184,-0.08891 0.01462,-0.02988 0.04295,-0.107537 0.04249,-0.116519 -1.14e-4,-0.0023 -0.0077,0.01698 -0.01689,0.04276 -0.02299,0.06458 -0.0549,0.124972 -0.105088,0.19888 -0.01353,0.01993 -0.01627,0.02223 -0.01871,0.01574 -0.0019,-0.0052 -0.0027,-0.0028 -0.0023,0.0073 7.07e-4,0.01777 -0.0035,0.02285 0.04863,-0.05921 z m -0.131279,0.05974 c 0.0157,-0.0055 0.031,-0.01082 0.034,-0.01181 0.003,-9.88e-4 0.0046,-0.0027 0.0035,-0.0037 -0.0011,-0.0011 -0.01365,0.0025 -0.02799,0.0079 -0.03097,0.01166 -0.04141,0.0124 -0.04184,0.003 -1.94e-4,-0.0043 -0.0011,-0.005 -0.0023,-0.0018 -0.002,0.0051 8.72e-4,0.01647 0.0042,0.01647 0.001,0 0.01469,-0.0045 0.0304,-0.01001 z m 0.02821,-0.108151 c 0.0039,-0.0059 0.0062,-0.01074 0.0051,-0.01074 -0.0021,0 -0.05313,0.0776 -0.06089,0.09252 -0.01204,0.02316 -0.0017,0.0099 0.02211,-0.02837 0.0146,-0.02347 0.02975,-0.0475 0.03365,-0.05341 z m 0.06858,-0.12207 c 0,-0.0021 -0.0017,-0.0013 -0.0038,0.002 -0.0021,0.0032 -0.0038,0.0076 -0.0038,0.0098 0,0.0021 0.0017,0.0013 0.0038,-0.002 0.0021,-0.0032 0.0038,-0.0076 0.0038,-0.0098 z m 0.136174,-0.0625 c -9.2e-5,-0.0063 -7.28e-4,-0.0059 -0.0032,0.002 -0.0043,0.01336 -0.0043,0.02363 0,0.01367 0.0018,-0.0043 0.0033,-0.01133 0.0032,-0.01563 z m -0.117761,0.0012 c -0.0012,-0.0031 -0.0022,-0.0022 -0.0024,0.0024 -1.7e-4,0.0041 7.54e-4,0.0064 0.0021,0.0051 0.0013,-0.0013 0.0014,-0.0047 3.08e-4,-0.0075 z M 85.528633,25.125 c -9.2e-5,-0.0063 -7.28e-4,-0.0059 -0.0032,0.002 -0.0043,0.01336 -0.0043,0.02363 0,0.01367 0.0018,-0.0043 0.0033,-0.01133 0.0032,-0.01563 z m -0.113855,-0.0144 c -0.0012,-0.0031 -0.0022,-0.0022 -0.0024,0.0024 -1.7e-4,0.0041 7.53e-4,0.0064 0.0021,0.0051 0.0013,-0.0013 0.0014,-0.0047 3.09e-4,-0.0075 z m 0.117106,-0.0081 c -0.0011,-0.0027 -0.002,-4.88e-4 -0.002,0.0049 0,0.0054 8.86e-4,0.0076 0.002,0.0049 0.0011,-0.0027 0.0011,-0.0071 0,-0.0098 z m -0.113281,-0.01172 c -0.0011,-0.0027 -0.002,-4.88e-4 -0.002,0.0049 0,0.0054 8.87e-4,0.0076 0.002,0.0049 0.0011,-0.0027 0.0011,-0.0071 0,-0.0098 z m 0.117187,-0.0078 c -0.0011,-0.0027 -0.002,-4.88e-4 -0.002,0.0049 0,0.0054 8.87e-4,0.0076 0.002,0.0049 0.0011,-0.0027 0.0011,-0.0071 0,-0.0098 z m -0.113281,-0.01172 c -0.0011,-0.0027 -0.002,-4.88e-4 -0.002,0.0049 0,0.0054 8.86e-4,0.0076 0.002,0.0049 0.0011,-0.0027 0.0011,-0.0071 0,-0.0098 z m 0.117187,-0.0078 c -0.0011,-0.0027 -0.002,-4.89e-4 -0.002,0.0049 0,0.0054 8.87e-4,0.0076 0.002,0.0049 0.0011,-0.0027 0.0011,-0.0071 0,-0.0098 z m -0.113199,-0.01147 c -0.0012,-0.0031 -0.0022,-0.0022 -0.0024,0.0024 -1.7e-4,0.0041 7.53e-4,0.0064 0.0021,0.0051 0.0013,-0.0013 0.0014,-0.0047 3.09e-4,-0.0075 z m 0.117106,-0.01196 c -0.0011,-0.0027 -0.002,-4.88e-4 -0.002,0.0049 0,0.0054 8.87e-4,0.0076 0.002,0.0049 0.0011,-0.0027 0.0011,-0.0071 0,-0.0098 z m -0.113282,-0.01172 c -0.0011,-0.0027 -0.002,-4.88e-4 -0.002,0.0049 0,0.0054 8.87e-4,0.0076 0.002,0.0049 0.0011,-0.0027 0.0011,-0.0071 0,-0.0098 z m 0.117188,-0.01172 c -0.0011,-0.0027 -0.002,-4.89e-4 -0.002,0.0049 0,0.0054 8.86e-4,0.0076 0.002,0.0049 0.0011,-0.0027 0.0011,-0.0071 0,-0.0098 z m -0.113161,-0.0136 c -9.91e-4,-0.0038 -0.0019,-0.0016 -0.0019,0.0048 -7.9e-5,0.0064 7.31e-4,0.0096 0.0018,0.0069 0.0011,-0.0026 0.0011,-0.0079 1.45e-4,-0.01172 z m 0.117187,-0.01172 c -9.9e-4,-0.0038 -0.0019,-0.0016 -0.0019,0.0048 -8e-5,0.0064 7.3e-4,0.0096 0.0018,0.0069 0.0011,-0.0026 0.0011,-0.0079 1.45e-4,-0.01172 z m -0.113401,-0.01375 c -0.0011,-0.0027 -0.002,-4.88e-4 -0.002,0.0049 0,0.0054 8.86e-4,0.0076 0.002,0.0049 0.0011,-0.0027 0.0011,-0.0071 0,-0.0098 z m 0.117363,-0.01558 c -9.34e-4,-0.0049 -0.0017,-0.0018 -0.0018,0.0068 -4.3e-5,0.0086 7.22e-4,0.01257 0.0017,0.0088 9.78e-4,-0.0037 0.001,-0.01077 7.9e-5,-0.01563 z m -0.113337,-0.0097 c -9.9e-4,-0.0038 -0.0019,-0.0016 -0.0019,0.0048 -8e-5,0.0064 7.3e-4,0.0096 0.0018,0.0069 0.0011,-0.0026 0.0011,-0.0079 1.45e-4,-0.01172 z m 0.117237,-0.02547 c -9.31e-4,-0.0048 -0.0017,-8.79e-4 -0.0017,0.0088 0,0.0097 7.61e-4,0.01362 0.0017,0.0088 9.31e-4,-0.0048 9.31e-4,-0.01274 0,-0.01758 z m -0.113345,-0.0059 c -9.82e-4,-0.0038 -0.0018,-6.83e-4 -0.0018,0.0068 0,0.0075 8.04e-4,0.0106 0.0018,0.0068 9.83e-4,-0.0038 9.83e-4,-0.0099 0,-0.01367 z m 0.117293,-0.03516 c -8.95e-4,-0.0059 -0.0016,-0.0011 -0.0016,0.01074 0,0.01182 7.33e-4,0.01665 0.0016,0.01074 8.95e-4,-0.0059 8.95e-4,-0.01558 0,-0.02148 z m -0.113317,0.002 c -9.34e-4,-0.0049 -0.0017,-0.0018 -0.0018,0.0068 -4.4e-5,0.0086 7.21e-4,0.01257 0.0017,0.0088 9.77e-4,-0.0037 0.001,-0.01077 7.8e-5,-0.01563 z m 0.117276,-0.0566 c -8.46e-4,-0.0081 -0.0016,-0.0024 -0.0016,0.01261 -1.7e-5,0.01504 6.74e-4,0.02167 0.0015,0.01474 8.63e-4,-0.0069 8.77e-4,-0.01924 3.2e-5,-0.02734 z m -0.113464,0.01383 c -0.0012,-0.0031 -0.0022,-0.0022 -0.0024,0.0024 -1.69e-4,0.0041 7.54e-4,0.0064 0.0021,0.0051 0.0013,-0.0013 0.0014,-0.0047 3.08e-4,-0.0075 z m 0.11742,-0.121338 c -7.42e-4,-0.01558 -0.0013,-0.0028 -0.0013,0.02832 0,0.03115 6.06e-4,0.0439 0.0013,0.02832 7.41e-4,-0.01558 7.41e-4,-0.04106 0,-0.05664 z m -0.112276,-0.09668 c 0,-0.01074 -0.0013,-0.01953 -0.0029,-0.01953 -0.0016,-1e-6 -0.0023,0.0088 -0.0016,0.01953 0.0017,0.0252 0.0045,0.0252 0.0045,2e-6 z m 0.110045,-0.0039 c 8.19e-4,-0.0086 1.25e-4,-0.01563 -0.0015,-0.01563 -0.0017,0 -0.003,0.007 -0.003,0.01563 0,0.0086 6.94e-4,0.01563 0.0015,0.01563 8.49e-4,0 0.0022,-0.007 0.003,-0.01563 z m -0.134355,-0.01456 c -0.008,-8.4e-4 -0.02206,-8.51e-4 -0.03125,-2.6e-5 -0.0092,8.25e-4 -0.0026,0.0015 0.01454,0.0015 0.01719,1.4e-5 0.0247,-6.61e-4 0.01671,-0.0015 z m -0.06389,-0.0085 c -0.02197,-0.01 -0.03292,-0.02495 -0.03281,-0.04488 9.6e-5,-0.0177 0.0075,-0.02974 0.02543,-0.04158 0.0064,-0.0042 0.0098,-0.0077 0.0076,-0.0077 -0.0022,-1.4e-5 -0.01048,0.0053 -0.01842,0.01187 -0.03003,0.02476 -0.02606,0.0637 0.0083,0.08189 0.0077,0.0041 0.0167,0.0075 0.01992,0.0075 0.0032,4.8e-5 -0.0013,-0.0032 -0.01007,-0.0071 z m 0.247762,-0.0035 c 0.03701,-0.0191 0.04209,-0.06403 0.0096,-0.08476 l -0.01094,-0.007 0.01027,0.01128 c 0.01549,0.01702 0.02003,0.02819 0.01732,0.04264 -0.0039,0.02086 -0.02472,0.03624 -0.06274,0.04639 -0.0043,0.0011 -10e-4,0.0013 0.0072,4.37e-4 0.0083,-9.06e-4 0.02145,-0.005 0.0293,-0.009 z m -0.365494,-0.04911 c 0.01933,-0.0082 0.02779,-0.02024 0.03007,-0.04284 0.0019,-0.01933 0.0014,-0.02085 -0.01359,-0.03658 -0.0086,-0.009 -0.02617,-0.02208 -0.03906,-0.02899 -0.01289,-0.0069 -0.04183,-0.02488 -0.0643,-0.0399 -0.08505,-0.05688 -0.134782,-0.07352 -0.293125,-0.09812 -0.02561,-0.004 -0.108475,-0.0027 -0.123824,0.0019 -0.02825,0.0085 -0.03122,0.01319 -0.03365,0.05365 l -0.0022,0.03618 0.01635,0.0085 c 0.01367,0.0071 0.02595,0.009 0.07494,0.01141 0.135643,0.0067 0.223328,0.03181 0.309257,0.08863 0.0475,0.03141 0.06057,0.03902 0.07802,0.04541 0.0195,0.0072 0.04523,0.0075 0.06109,7.55e-4 z m 0.913937,-0.04541 0.53418,-4.7e-5 V 24.400333 24.29877 H 86.00013 85.299091 l -0.0011,0.09525 -0.0011,0.09525 0.03125,0.0044 c 0.01719,0.0024 0.03619,0.0044 0.04222,0.0044 0.0072,-3e-6 0.01003,0.0015 0.0082,0.0045 -0.0021,0.0033 0.02974,0.0038 0.125746,0.002 0.07068,-0.0014 0.368888,-0.0025 0.662687,-0.0025 z m 0.53418,-1.203172 V 23.197266 H 86 85.298828 v 0.101562 0.101563 H 86 86.701172 Z"
   id="path69" /><path
   style="fill:#363636;fill-opacity:1;stroke-width:0.00390625"
   d="m 85.185868,24.542574 c -0.0073,-0.0033 -0.03276,-0.0185 -0.05649,-0.03376 -0.106268,-0.06833 -0.164417,-0.08523 -0.344598,-0.100113 -0.02643,-0.0022 -0.04827,-0.0061 -0.05597,-0.01011 l -0.01263,-0.0065 0.0025,-0.03001 c 0.0036,-0.04422 0.0042,-0.04559 0.02119,-0.05327 0.02578,-0.01162 0.11668,-0.01021 0.187911,0.0029 0.113966,0.02101 0.163686,0.03972 0.238298,0.08965 0.02042,0.01366 0.04617,0.02977 0.05721,0.03578 0.04618,0.02514 0.06357,0.04863 0.05621,0.07596 -0.0067,0.02504 -0.01951,0.0335 -0.05216,0.03458 -0.01868,6.15e-4 -0.03254,-0.0011 -0.04142,-0.0051 z"
   id="path70" /><path
   style="fill:#363636;fill-opacity:1"
   d="m 84.714844,24.652344 -0.07422,-0.75 0.746095,0.140625"
   id="path71" /><path
   style="fill:#363636;fill-opacity:1"
   d="m 85.175781,24.871094 0.984375,-0.09375"
   id="path72" /><path
   style="fill:#363636;fill-opacity:1"
   d="m 85.722656,25.414062 -0.925781,-0.07813"
   id="path73" /><path
   style="fill:#363636;fill-opacity:1"
   d="m 84.972656,24.941406 1.136719,0.425781"
   id="path74" /><path
   style="fill:#363636;fill-opacity:1"
   d="m 86.023437,25.265625 -1.222656,0.128906"
   id="path75" /><path
   style="fill:#363636;fill-opacity:1"
   d="m 84.910156,26.042969 0.04687,-0.53125"
   id="path76" /><path
   style="fill:#363636;fill-opacity:1"
   d="m 85.507812,25.945312 c 0.05403,0.03085 0.105513,0.06754 0.164063,0.08984 0.01003,0.0038 0.02089,0.005 0.03125,0.0078 0.004,0.0011 0.0077,0.0029 0.01172,0.0039 0.0013,3.16e-4 0.0051,4.84e-4 0.0039,0 -0.06035,-0.02414 -0.07116,-0.04236 -0.125,-0.08203 -0.07792,-0.05742 -0.0996,-0.06965 -0.183594,-0.117188 -0.07521,-0.04257 -0.151984,-0.08476 -0.230469,-0.121094 -0.101118,-0.04681 -0.20972,-0.08127 -0.304687,-0.140625 -0.03464,-0.02165 -0.0625,-0.04856 -0.08594,-0.08203 -0.0033,-0.0048 -0.0044,-0.01089 -0.0078,-0.01563 -0.01264,-0.01769 -0.01172,-0.005 -0.01172,-0.01563 l 0.140621,0.753937"
   id="path77" /><path
   style="fill:#363636;fill-opacity:1"
   d="M 86.074219,26.105469 84.734375,25.789062"
   id="path78" /><path
   style="fill:#363636;fill-opacity:1"
   d="m 84.761719,25.75 0.316406,-0.570313"
   id="path79" /><path
   style="fill:#363636;fill-opacity:1"
   d="m 85.238281,25.410156 c 0.206888,0.0089 0.413962,-0.0039 0.621094,-0.0039 l 0.04297,-0.218756"
   id="path80" /><path
   style="fill:#363636;fill-opacity:1"
   d="m 85.757812,24.964844 0.320313,0.445312"
   id="path81" /><path
   style="fill:#363636;fill-opacity:1"
   d="m 85.484375,25.429687 c -0.01042,0.0013 -0.02077,0.0033 -0.03125,0.0039 -0.06063,0.0038 -0.122879,0 -0.183594,0 -0.05441,0 -0.109687,0.0022 -0.164062,0 -0.0405,-0.0016 -0.08048,-0.0039 -0.121094,-0.0039 l 0.144531,-0.296875"
   id="path82" /><path
   style="fill:#363636;fill-opacity:1"
   d="m 85.277344,24.890625 0.941406,0.230469"
   id="path83" /><path
   style="fill:#363636;fill-opacity:1"
   d="m 85.59375,25.476562 c -0.05674,-0.0063 -0.05352,-0.0063 -0.132813,-0.01172 -0.133084,-0.0091 -0.01456,5.4e-4 -0.167968,-0.0039 -0.173244,-0.005 -0.346157,-0.01953 -0.519532,-0.01953 l 1.035157,-0.480475"
   id="path84" /><path
   style="fill:#363636;fill-opacity:1"
   d="m 85.941406,25.351562 c 0.0052,-0.0013 0.01042,-0.0026 0,0 z"
   id="path85" /><path
   style="fill:#363636;fill-opacity:1"
   d="m 85.277344,25.804687 -0.01172,-0.640625"
   id="path86" /><path
   style="fill:#363636;fill-opacity:1"
   d="m 84.90625,25.835937 c 0.01253,-0.02506 0.01346,-0.02507 0.02344,-0.0625 0.02054,-0.07702 0.03312,-0.156673 0.05078,-0.234375 0.02643,-0.116304 0.05987,-0.234836 0.109375,-0.34375 0.01133,-0.02492 0.02291,-0.04973 0.03516,-0.07422 0.0068,-0.01358 0.01665,-0.02548 0.02344,-0.03906 0.009,-0.01795 -10e-4,-0.0068 0.0078,-0.01563"
   id="path87" /><path
   style="fill:#363636;fill-opacity:1"
   d="m 85.203125,25.707031 0.0625,-0.539062 -0.02734,0.601562"
   id="path88" /><path
   style="fill:#363636;fill-opacity:1"
   d="m 85.226562,25.953125 0.535157,-0.08203"
   id="path89" /><path
   style="fill:#363636;fill-opacity:1"
   d="M 85.136719,26.203125 85.308594,24.15625"
   id="path90" /><path
   style="fill:#363636;fill-opacity:1"
   d="m 84.800781,24.152344 0.40625,0.148437"
   id="path91" /><path
   style="fill:#363636;fill-opacity:1"
   d="m 85.277344,24.664062 0.01172,0.07422"
   id="path92" /><path
   style="fill:#363636;fill-opacity:1"
   d="M 85.285156,24.898437 V 24.726562"
   id="path93" /><path
   style="fill:#363636;fill-opacity:1"
   d="m 85.277344,24.085937 c -4.92e-4,0.05338 0.0015,0.106793 0,0.160157 -0.0036,0.127269 -0.02025,0.252363 -0.03125,0.378906 -0.0043,0.0499 -0.0078,0.09839 -0.0078,0.148437 0,0.01345 -0.0022,0.02978 0,0.04297 0.0027,0.01632 0.01327,0.0409 0.01953,0.05469 0.0037,0.0081 0.01563,0.01785 0.01563,0.02344"
   id="path94" /><path
   style="fill:#363636;fill-opacity:1"
   d="M 85.253906,25.039062 84.898437,24.207031"
   id="path95" /><path
   style="fill:#363636;fill-opacity:1"
   d="m 85.328125,24.140625 -0.316406,0.01953"
   id="path96" /><path
   style="fill:#363636;fill-opacity:1"
   d="m 85.210937,24.203125 -0.515625,0.01563"
   id="path97" /><path
   style="fill:#363636;fill-opacity:1"
   d="m 84.984375,24.707031 c 0.0052,0.0026 0.01042,0.0052 0,0 z"
   id="path98" /><path
   style="fill:#363636;fill-opacity:1"
   d="m 85.171875,24.871094 0.0039,-0.03516 m 0.449225,0.08985 c 0.05834,-0.0314 0.131533,0.0089 0.1875,0.03125 0.03794,0.01518 0.07556,0.03116 0.113281,0.04687 0.02099,0.0087 0.04358,0.01473 0.0625,0.02734 0.0192,0.0128 1.59e-4,0.01172 0.01172,0.01172 m -0.08594,0.05079 c -0.131081,0.06068 -0.277231,0.05249 -0.417968,0.05469 -0.04429,6.92e-4 -0.08854,0.0026 -0.132813,0.0039 -0.05208,0 -0.104172,-7.44e-4 -0.15625,0 -0.133098,0.0019 -0.265244,0.01563 -0.398437,0.01563 -0.0065,0 0.01331,-0.0019 0.01953,0 0.01113,0.0034 0.02061,0.0109 0.03125,0.01563 0.01282,0.0057 0.02604,0.01042 0.03906,0.01563 0.02474,0.01302 0.04904,0.02691 0.07422,0.03906 0.06783,0.03274 0.142071,0.05592 0.210938,0.08594 0.06438,0.02806 0.130849,0.06641 0.203125,0.06641 m -0.367185,-0.7383 0.667969,0.01953"
   id="path99" /><path
   style="fill:#363636;fill-opacity:1"
   d="m 85.796875,24.554687 c -0.07058,-0.01324 -0.143258,-0.0078 -0.214844,-0.0078 -0.07031,0 -0.140625,0 -0.210937,0 -0.05014,0 -0.08376,-0.0012 -0.132813,-0.01172 -0.01774,-0.0038 -0.03513,-0.0052 -0.05078,-0.01563 -0.0074,-0.0049 -0.0058,-0.01768 0,-0.02344 0.0021,-0.0021 0.0058,-0.0018 0.0078,-0.0039 0.02085,-0.02085 0.03101,-0.05657 0.02734,-0.08594 -0.0075,-0.0599 -0.05713,-0.131716 -0.105469,-0.167969 -0.03718,-0.02789 -0.08795,-0.0387 -0.132812,-0.04297 -0.03296,-0.0031 -0.07663,-0.01092 -0.109375,0 -0.05366,0.01789 -0.06752,0.07434 -0.08594,0.121094 -0.02438,0.0619 -0.035,0.169247 -0.02734,0.234375 0.0055,0.04696 0.02127,0.08921 0.04687,0.128906 0.08472,0.131322 0.283029,0.206292 0.429687,0.234375 0.05158,0.0099 0.12809,0.01591 0.179688,0.01953 0.09265,0.0065 0.244301,0.03553 0.316406,-0.04687 0.04731,-0.05407 0.0349,-0.108372 0.05078,-0.171875 0.0045,-0.01782 0.01563,-0.03971 0.01563,-0.05859 0,-0.01309 -0.0018,-0.02615 -0.0039,-0.03906 -5.89e-4,-0.0035 -0.01172,-0.03124 -0.01172,-0.03125 0.0024,-0.01086 0.0078,-0.02083 0.01172,-0.03125 z"
   id="path100" /><path
   style="fill:#363636;fill-opacity:1"
   d="m 85.308594,25.058594 -0.07422,1.089843"
   id="path101" /><path
   style="fill:#363636;fill-opacity:1"
   d="m 85.074219,26.074219 0.15625,-0.695313"
   id="path102" /><path
   style="fill:#363636;fill-opacity:1"
   d="m 85.277344,25.386719 c -0.04087,0.119041 -0.05119,0.244345 -0.07422,0.367187 -0.0025,0.01312 -0.01203,0.06983 -0.02344,0.07813 -0.07218,0.05249 -0.13927,-0.0067 -0.195312,-0.05469 -0.04954,-0.04246 -0.106436,-0.0947 -0.132813,-0.15625 -0.03069,-0.07161 -0.03029,-0.188653 0.01563,-0.253907 0.04521,-0.06424 0.121834,-0.09969 0.195313,-0.117187 0.08536,-0.02032 0.11826,-0.02201 0.199219,0.01172 0.0097,0.004 0.0525,0.01781 0.03516,0.03516 m 0.343744,0.457024 c -0.07656,0.0035 -0.154066,-0.0057 -0.230469,0 -0.01708,0.0013 -0.03377,0.0058 -0.05078,0.0078 -0.01686,0.0019 -0.03393,0.0018 -0.05078,0.0039 -0.04085,0.0074 -0.0375,0.0076 -0.07422,0.01172 -0.02928,0.0033 -0.07314,0.0063 -0.09766,0.02734 -0.0049,0.0042 -0.0076,0.01062 -0.01172,0.01563 -0.0024,0.0028 -0.007,0.0042 -0.0078,0.0078 -0.0045,0.02031 -0.002,0.06387 0.0078,0.08203 0.0044,0.0081 0.01302,0.01302 0.01953,0.01953 0.0078,0.0078 0.01425,0.01731 0.02344,0.02344 0.03721,0.02481 0.09024,0.02592 0.132812,0.02734 0.08143,0.0027 0.164542,-0.01031 0.242188,-0.03516 0.04178,-0.01337 0.09716,-0.0453 0.08594,-0.09766 -0.0018,-0.0083 -0.03478,-0.06796 -0.01953,-0.07813 0.0097,-0.0065 0.02083,-0.01042 0.03125,-0.01563 z"
   id="path103" /><rect
   style="fill:#363636;fill-opacity:1;stroke-width:1.00542"
   id="rect104"
   width="2.90625"
   height="4.25"
   x="83.898438"
   y="26.640625" /><rect
   style="fill:#363636;fill-opacity:1"
   id="rect105"
   width="2.1986601"
   height="0.23754369"
   x="84.206474"
   y="26.455738" /><rect
   style="fill:#363636;fill-opacity:1"
   id="rect106"
   width="0.32040775"
   height="1.0827572"
   x="83.642998"
   y="29.212349" /><rect
   style="fill:#363636;fill-opacity:1;stroke-width:1.06424"
   id="rect107"
   width="2.753006"
   height="4.2261701"
   x="86.924553"
   y="26.664455" /><rect
   style="fill:#363636;fill-opacity:1;stroke-width:1.16924"
   id="rect108"
   width="2.7628257"
   height="4.1946273"
   x="86.918549"
   y="22.307287" /><rect
   style="fill:#363636;fill-opacity:1"
   id="rect109"
   width="1.2695312"
   height="0.31640625"
   x="88.140625"
   y="22.03125" /><rect
   style="fill:#363636;fill-opacity:1"
   id="rect110"
   width="0.65625"
   height="0.9375"
   x="89.359375"
   y="29.359375" /></svg>
